<?xml version="1.0" encoding="UTF-8"?>
<svg id="Capa_2" data-name="Capa 2" xmlns="http://www.w3.org/2000/svg" viewBox="0 0 478.91 486.05">
  <defs>
    <style>
      .cls-1 {
        fill: none;
        opacity: .35;
      }

      .cls-2 {
        fill: #111;
      }
    </style>
  </defs>
  <g id="Capa_1-2" data-name="Capa 1">
    <g>
      <g>
        <path class="cls-2" d="M478.85,96.23c-.04-48.15-36.83-84.88-85.02-84.92-102.91-.07-205.83-.07-308.74,0C36.89,11.34,.09,48.09,.05,96.22-.04,193.99,.03,291.76,0,389.52c-.01,5.51,.39,10.98,1.46,16.36,7.98,40.28,41.72,68.2,82.86,68.31,51.54,.12,103.08,.03,154.62,.03s103.08,.06,154.61-.02c48.51-.07,85.25-36.72,85.29-85.17,.07-97.6,.08-195.2-.01-292.81Zm-231.77,112.28c-3.15,26.65-17.91,43.46-41.99,53.35-16.45,6.77-33.7,8.49-51.26,8.71-4.58,.05-10.69-1.95-13.32,1.11-2.25,2.63-.8,8.53-.81,12.99-.04,21.44-.13,42.89,.08,64.33,.04,4.49-1.44,5.71-5.74,5.58-9.47-.28-18.95-.31-28.42,.01-4.56,.16-5.97-1.19-5.94-5.86,.18-35.08,.1-70.15,.1-105.23s.05-70.15-.07-105.23c-.02-3.91,.83-5.48,5.14-5.62,20.59-.67,41.17-1.91,61.79-1.58,13.02,.21,25.88,1.72,38.22,6.12,29.15,10.36,45.98,39.54,42.22,71.32Zm116.81,129.51c-10.83,9.44-23.25,14.6-37.39,15.86-18.65,1.67-36.81,.11-54.01-8.16-3.62-1.75-5.36-3.89-4.95-8.05,.37-3.79,.07-7.64,.07-11.47s-.05-7.98,.03-11.96c.03-1.6-.72-3.67,.92-4.65,1.78-1.06,2.95,.92,4.23,1.8,13.29,9.13,27.92,13.73,44.08,13.27,3.52-.11,6.95-.64,10.26-1.84,11.54-4.18,13.88-16.96,4.48-24.89-4.49-3.8-9.86-6.12-15.26-8.3-7.71-3.1-15.38-6.28-22.58-10.46-20.71-12-29.33-28.48-25.54-48.81,3.73-20.03,19.89-34.97,42.08-38.28,16.62-2.49,33.17-1.75,49.31,3.34,7.68,2.43,7.63,2.64,7.63,10.5,.01,6.65,.05,13.3-.03,19.95-.03,1.75,.89,4.06-.79,5.14-1.82,1.17-3.29-.93-4.78-1.79-11.67-6.73-24.18-9.98-37.66-9.45-3.53,.14-6.96,.75-10.16,2.22-9.84,4.52-11.44,15.76-3.14,22.74,5.15,4.34,11.41,6.73,17.55,9.28,13.85,5.73,27.5,11.75,38.31,22.69,17.45,17.66,16.17,44.92-2.66,61.32Z"/>
        <path class="cls-2" d="M207.16,207.09c-2.74,19.18-14.99,30.12-36.41,32.63-9.28,1.08-18.6,.57-27.88,1.03-3.43,.17-3.21-1.76-3.2-4.03,.03-11.97,.01-23.93,.01-35.9s-.01-23.6,.02-35.4c.01-1.85-.73-4.27,2.56-4.24,11.61,.11,23.28-1.29,34.8,1.11,22.04,4.58,33.42,21.59,30.1,44.8Z"/>
      </g>
      <rect class="cls-1" y="0" width="478.91" height="486.05"/>
    </g>
  </g>
</svg>