<?xml version="1.0" encoding="UTF-8"?>
<svg id="Capa_2" data-name="Capa 2" xmlns="http://www.w3.org/2000/svg" viewBox="0 0 462.9 486.05">
  <defs>
    <style>
      .cls-1 {
        fill: none;
        opacity: .35;
      }

      .cls-2 {
        fill: #111;
      }
    </style>
  </defs>
  <g id="Capa_1-2" data-name="Capa 1">
    <g>
      <g>
        <path class="cls-2" d="M203.35,299.48c.09,4.23-1.19,6.22-5.48,6.2-6.68-.02-13.41,.65-20.03,.03-16.77-1.56-27.73-11.37-31.66-27.9-2.55-10.71-2.3-21.49,.88-32,6.34-20.94,34.15-33.44,53.56-24.5,3.29,1.53,2.61,4.01,2.62,6.45,.05,11.82,.02,23.64,.02,35.47s-.17,24.16,.09,36.24Z"/>
        <path class="cls-2" d="M409.42,11.25H53.5C24.07,11.25,0,35.32,0,64.75V420.65c0,29.42,24.07,53.5,53.5,53.5H409.42c29.41,0,53.48-24.07,53.48-53.5V64.75c0-29.42-24.07-53.5-53.48-53.5ZM163.42,346.25c-48.73-6.48-74.06-37.7-71.5-87.01,3.07-58.62,48.82-86.56,101.82-80.56,9.57,1.08,9.52,1.44,9.52-8.49,0-20.8,.14-41.6-.11-62.41-.05-4.64,1.02-6.19,5.91-6.06,13.08,.35,26.2,.45,39.28-.02,5.71-.22,6.6,1.81,6.57,6.94-.22,37.76-.12,75.51-.12,113.27s-.12,75,.14,112.5c.05,5.18-1.45,6.91-6.47,7.76-28.21,4.8-56.46,7.87-85.05,4.07Zm172.92-18.04c-.08,11.05-1.64,21.99-4.35,32.76-6.47,25.61-22.19,43.43-45.69,54.84-1.9,.91-3.59,1.99-5.76,.96-15-7.17-29.98-14.33-45.66-21.83,2.18-1.19,3.47-2.01,4.86-2.61,29.61-13.02,42.77-36.49,44.38-68.03,2.19-43.13,.63-86.28,1.14-129.43,.15-13.39,.03-13.39,13.08-13.39,10.8,0,21.59,.17,32.37-.09,4.41-.11,6.34,.77,6.31,5.83-.35,47-.37,94-.69,141Zm-6.2-173c-12.82-.37-25.64-.31-38.47-.02-4.75,.11-6.68-.83-6.51-6.17,.42-13.58,.42-27.19,0-40.78-.17-5.31,1.71-6.28,6.5-6.17,12.81,.31,25.66,.51,38.45-.06,6.2-.28,7.3,1.96,6.93,7.38-.45,6.37-.11,12.81-.11,19.23s-.42,13.36,.12,20c.46,5.69-1.74,6.74-6.91,6.6Z"/>
      </g>
      <rect class="cls-1" y="0" width="462.9" height="486.05"/>
    </g>
  </g>
</svg>