<?xml version="1.0" encoding="UTF-8"?>
<svg id="Capa_2" data-name="Capa 2" xmlns="http://www.w3.org/2000/svg" viewBox="0 0 486.54 486.05">
  <defs>
    <style>
      .cls-1 {
        fill: #111;
      }

      .cls-2 {
        fill: none;
      }
    </style>
  </defs>
  <g id="Capa_1-2" data-name="Capa 1">
    <g>
      <rect class="cls-2" width="486.54" height="486.05"/>
      <g>
        <path class="cls-1" d="M243.15,0C109.03,.17,.2,109.07,.3,242.98c.11,133.85,109.21,242.56,243.33,242.48,133.89-.1,242.85-109.31,242.62-243.19C486.02,108.64,376.81-.18,243.15,0Zm-.15,457.44c-118.71-.19-214.81-96.42-214.64-214.97,.17-118.51,96.62-214.69,215.16-214.58,118.5,.12,214.78,96.6,214.64,215.09-.13,118.57-96.52,214.65-215.16,214.45Z"/>
        <path class="cls-1" d="M369.46,260.63c-9.62,32.66-19.52,65.24-29.32,97.9-1.78-.79-1.64-2.53-2.07-3.81-22.16-65.69-44.28-131.39-66.33-197.11-1.87-5.58-3.18-5.13,4.03-5.85,4.98-.5,9.98-.75,14.96-1.24,5.77-.57,8.66-3.65,8.38-8.72-.28-5.04-3.45-7.56-9.55-7.17-22.19,1.4-44.38,2.87-66.64,1.84-11.47-.53-22.92-1.37-34.39-1.87-6.45-.27-10.4,5.53-7.95,11.31,1.38,3.29,4.2,4.3,7.44,4.61,5.57,.51,11.13,1.12,16.71,1.5,2.06,.14,3.03,.97,3.73,2.91,9.36,25.82,18.8,51.62,28.25,77.41,.59,1.62,.59,3.1,.05,4.71-13.61,40.68-27.19,81.37-40.8,122.05-.13,.41-.42,.76-.95,1.67-13.16-39.12-26.19-77.81-39.21-116.51-9.83-29.24-19.55-58.51-29.59-87.67-1.37-3.99-.4-4.61,3.2-4.77,5.58-.24,11.16-.73,16.71-1.35,6.31-.69,9.59-5.84,7.38-11.26-1.59-3.88-4.71-4.89-8.59-4.64-15.72,.97-31.44,2.14-47.2,2.22-4.99,.03-9.96,0-15.21,0,57.45-94.02,199.15-120.28,290.53-36.89-2.67,.28-5.08,.35-7.42,.81-19.31,3.92-30.57,23.34-25.53,43.85,2.25,9.13,6.73,17.21,11.59,25.11,5.93,9.65,11.82,19.31,15.93,29.93,7.79,20.12,7.9,40.55,1.86,61.03Z"/>
        <path class="cls-1" d="M304.54,425.97c-26.98,8.75-54.53,11.88-82.77,8.65-10.11-1.16-20.04-3.13-29.87-5.69-2.15-.57-3.24-1.2-2.34-3.82,18.93-54.7,37.79-109.41,56.66-164.12,.03-.08,.19-.11,.72-.38,1.94,5.23,3.91,10.4,5.8,15.59,17.8,48.71,35.55,97.43,53.44,146.1,.84,2.29,.55,2.94-1.65,3.66Z"/>
        <path class="cls-1" d="M158.46,415.34c-24.77-3.73-74.26-54.08-91.54-93.51-22.76-51.99-22.52-104.17-1.01-156.31,.42-.03,.83-.05,1.25-.08,30.42,83.27,60.84,166.54,91.3,249.9Z"/>
        <path class="cls-1" d="M431.01,288.32c-12.83,52.47-43.33,92.25-89.99,119.96,1.67-4.95,3.3-9.91,5-14.85,17.58-50.76,35.05-101.57,52.84-152.25,5.5-15.68,11.06-31.27,13.53-47.8,2.05-13.76,2.1-27.54,1.16-41.4,22.84,43.22,29.07,88.81,17.45,136.34Z"/>
      </g>
    </g>
  </g>
</svg>