<?xml version="1.0" encoding="UTF-8"?>
<svg id="Capa_2" data-name="Capa 2" xmlns="http://www.w3.org/2000/svg" viewBox="0 0 462.9 486.05">
  <defs>
    <style>
      .cls-1 {
        fill: none;
        opacity: .35;
      }

      .cls-2 {
        fill: #111;
      }
    </style>
  </defs>
  <g id="Capa_1-2" data-name="Capa 1">
    <g>
      <path class="cls-2" d="M462.79,13.49c-.25-.96-.98-1.74-1.91-2.07-.31-.11-.65-.17-1.01-.17H3.04c-.59,0-1.14,.17-1.6,.47-.47,.28-.85,.7-1.11,1.19-.21,.42-.33,.88-.33,1.38V471.12c0,.24,.03,.49,.09,.72,.29,1.19,1.28,2.1,2.52,2.27,.14,.03,.28,.04,.43,.04H459.87c1.68,0,3.03-1.36,3.03-3.03V14.29c0-.28-.04-.54-.11-.8ZM208.22,368.15c.03-47.89,.06-95.77-.07-143.66,0-3.86,.74-5.14,4.88-5.04,12.49,.31,25,.19,37.49,.05,2.92-.03,4.2,.43,4.2,3.85-.12,49.69-.05,99.38-.12,149.07,0,9.52-1.12,18.96-4.37,27.96-8.84,24.5-26.94,37.3-52.26,40.17-15.1,1.7-30.08,.39-44.37-5.36-13.55-5.45-23.5-14.8-30.01-27.91-1.09-2.2-.95-3.26,1.11-4.67,10.78-7.38,21.46-14.92,32.29-22.5,2.22,3.32,4.24,6.65,6.58,9.75,7.27,9.63,18.64,13.17,30.14,9.59,10.08-3.13,13.01-11.26,14.14-20.49,.44-3.57,.36-7.22,.36-10.83Zm173.9,66.12c-9.05,2.51-18.29,3.56-28.12,3.66-22.31-.38-43.27-5.92-60.76-21.37-6.61-5.84-11.88-12.72-16.31-20.33-1.27-2.18-.96-3.18,1.25-4.42,9.95-5.6,19.84-11.3,29.64-17.16,2.51-1.5,3.56-1.12,5.12,1.3,7.7,12.01,17.95,20.63,32.56,22.72,8.91,1.28,17.74,1.01,26.02-3.15,13.31-6.7,15.77-21.65,5.28-32.24-6.05-6.13-13.76-9.6-21.52-12.89-10.21-4.35-20.63-8.25-30.37-13.65-16.17-8.96-29.08-20.68-34.1-39.39-10.36-38.57,13.11-72.06,52.93-75.53,9.85-.85,19.53-.36,29.16,1.81,17.84,4.03,30.45,14.94,39.82,30.18,1.15,1.87,.82,2.7-.93,3.81-9.79,6.18-19.57,12.37-29.19,18.79-2.69,1.8-3.2,.06-4.28-1.58-8.38-12.84-18.3-17.57-31.5-14.97-7.19,1.42-12.56,5.34-14.53,12.56-1.98,7.2-.94,14.05,4.63,19.63,4.33,4.34,9.74,6.99,15.21,9.5,11.88,5.43,24.05,10.21,35.58,16.38,8.65,4.63,16.89,9.89,23.66,17.11,30.99,33.03,15.09,86.92-29.27,99.22Z"/>
      <rect class="cls-1" y="0" width="462.9" height="486.05"/>
    </g>
  </g>
</svg>