<?xml version="1.0" encoding="UTF-8"?>
<svg id="Capa_2" data-name="Capa 2" xmlns="http://www.w3.org/2000/svg" viewBox="0 0 479.14 486.05">
  <defs>
    <style>
      .cls-1 {
        fill: none;
        opacity: .35;
      }

      .cls-2 {
        fill: #111;
      }
    </style>
  </defs>
  <g id="Capa_1-2" data-name="Capa 1">
    <g>
      <g>
        <path class="cls-2" d="M479.13,95.71c0-5.5-.44-10.96-1.53-16.35-8.04-40.07-41.68-67.92-82.55-68.03-51.71-.15-103.42-.04-155.13-.04s-103.41-.09-155.12,.03C37.22,11.43,.32,48.22,.26,95.73c-.11,97.93-.1,195.87,0,293.8,.05,47.81,36.91,84.61,84.79,84.65,103.09,.1,206.18,.1,309.27,0,47.87-.04,84.71-36.82,84.76-84.67,.11-97.92,.03-195.87,.05-293.8Zm-220.18,258.86c-10.8-.22-21.61-.22-32.41,0-3.82,.08-5.63-1.33-6.87-4.87-5.53-15.83-11.36-31.55-16.93-47.37-.96-2.74-2.21-3.8-5.26-3.78-21.11,.15-42.22,.14-63.33,0-3.15-.02-4.61,.85-5.64,3.96-5.27,15.74-10.97,31.34-16.14,47.11-1.31,3.98-3.28,5.06-7.18,4.95-9.14-.24-18.28-.06-27.43-.08-6.21-.01-6.48-.36-4.52-6.16,15.42-45.79,30.85-91.56,46.28-137.34,5.35-15.89,10.66-31.8,16.09-47.66,2.27-6.65,3.93-13.42,4.03-20.45,.04-3.1,1.18-4,4.14-3.93,7.14,.16,14.29,.05,21.44,.05,6.65,0,13.31,.26,19.94-.1,4.1-.22,5.73,1.35,7.01,5.1,16.75,49.19,33.66,98.33,50.54,147.47,6.63,19.31,13.18,38.65,19.96,57.92,1.44,4.08,.61,5.27-3.72,5.18Zm147.44-77.12c-.44,3.79-2.18,4.99-5.74,5.28-15.59,1.3-31.21,.73-44.31,.91-15.31,0-28.11,.1-40.9-.07-3.29-.05-4.16,.86-4.01,4.19,1.16,24.53,17.06,39.75,42.75,40.59,12.59,.41,24.9-1.34,36.6-6.07,4.33-1.75,5.06-.49,4.91,3.56-.23,6.14-.18,12.29-.02,18.44,.09,3.44-1.09,5.69-4.42,6.87-25.72,9.13-51.64,10.59-77.57,1.35-15.72-5.61-26.51-17.14-33.08-32.1-13.49-30.77-12.93-61.6,3.34-91.1,17.31-31.38,56.18-43.72,88.98-28.94,20.21,9.11,29.24,26.66,33.28,47.3,1.92,9.85,1.32,19.83,.19,29.79Z"/>
        <path class="cls-2" d="M190.63,262.73c-17.41-.05-34.82-.03-52.72-.03,9.07-30.2,17.98-59.87,27.24-90.71,6.01,19.43,11.63,37.63,17.28,55.8,3.26,10.46,6.6,20.9,9.88,31.35,.51,1.64,1.77,3.6-1.68,3.59Z"/>
        <path class="cls-2" d="M356.51,258.7c-5.48,.03-10.96,.01-16.45,.01-8.31,.01-16.62-.14-24.93,.09-3.29,.09-4.01-.99-3.45-4.01,1.19-6.42,3.12-12.55,6.35-18.26,7.45-13.18,21.81-18.29,35.94-12.73,8.24,3.24,12.01,10.15,14.42,17.99,4.64,15.12,3.36,16.85-11.88,16.91Z"/>
      </g>
      <rect class="cls-1" y="0" width="478.89" height="486.05"/>
    </g>
  </g>
</svg>