<?xml version="1.0" encoding="UTF-8"?>
<svg id="Capa_2" data-name="Capa 2" xmlns="http://www.w3.org/2000/svg" viewBox="0 0 486.47 474.42">
  <defs>
    <style>
      .cls-1 {
        fill: #111;
      }
    </style>
  </defs>
  <g id="Capa_1-2" data-name="Capa 1">
    <path class="cls-1" d="M486.47,251.48c-.18,5.3-.46,10.58-.97,15.86-1.65,16.98-4.95,33.64-10.29,49.84-19.69,59.69-56.72,105.44-110.9,137.27-13.32,7.83-27.39,14.07-42.02,19.06-3.01,1.03-6.08,1.17-9.12,.49-5.12-1.15-8.44-5.21-8.75-10.48-.07-1.1-.04-2.22-.04-3.32,.07-21.14,.13-42.27,.23-63.41,.04-8.51-.75-16.9-3.32-25.06-2.44-7.74-6.18-14.71-12.11-20.37-.16-.16-.28-.37-.6-.81,1.85-.26,3.52-.5,5.19-.72,12.33-1.62,24.48-4.04,36.27-8.07,12.83-4.4,24.69-10.54,35.01-19.47,12.84-11.12,21.41-25.03,26.78-41.02,3.85-11.46,5.87-23.28,6.76-35.31,.49-6.56,.67-13.12,.45-19.69-.75-22.58-8.48-42.45-23.33-59.49-1.06-1.21-1.31-2.14-.75-3.72,3.93-11.16,4.84-22.67,3.77-34.4-.83-9.04-3.01-17.74-6.19-26.23-.51-1.37-1.16-1.98-2.63-2.17-5.36-.68-10.58,.17-15.75,1.38-10.71,2.49-20.6,7.03-30.21,12.25-5.91,3.21-11.64,6.71-17.19,10.52-1.2,.82-2.24,1.09-3.69,.69-23.16-6.39-46.78-8.58-70.72-7.44-15.92,.76-31.62,3.13-46.99,7.44-1.43,.4-2.49,.18-3.71-.64-10.87-7.25-22.17-13.74-34.37-18.53-7.31-2.87-14.78-5.09-22.67-5.72-2.22-.18-4.42-.09-6.63,.15-.99,.11-1.57,.45-1.93,1.4-7.29,19.33-9.37,38.96-3.46,59.06,.42,1.43,1.44,2.96,1.19,4.24-.26,1.29-1.75,2.35-2.71,3.5-11.9,14.32-18.92,30.75-21.17,49.2-1.12,9.15-.82,18.33-.2,27.5,.63,9.42,2.01,18.71,4.38,27.85,3.57,13.78,9.29,26.53,18.2,37.74,9.93,12.49,22.59,21.32,37.15,27.56,10.51,4.51,21.48,7.45,32.69,9.52,5.66,1.05,11.35,1.88,16.99,2.51,.28,.49,0,.71-.22,.91-6.92,6.62-10.83,14.89-13.12,24.02-.54,2.14-.93,4.33-1.3,6.51-.13,.78-.38,1.3-1.13,1.62-12.92,5.46-26.19,7.88-40.03,4.12-10.05-2.73-17.97-8.73-24.43-16.77-1.94-2.41-3.63-4.98-5.27-7.6-4.24-6.77-9.41-12.71-15.83-17.51-6.44-4.81-13.57-7.74-21.73-7.69-2.29,.01-4.58,.2-6.82,.8-.53,.14-1.07,.3-1.57,.52-2.74,1.19-3.39,3.12-1.93,5.75,.74,1.33,1.75,2.44,2.85,3.48,1.85,1.74,3.83,3.35,6.07,4.54,4.58,2.43,8.19,5.93,11.35,9.93,6.55,8.3,12.01,17.25,15.95,27.1,5.36,13.41,15.31,21.77,28.84,26.16,8.68,2.82,17.63,3.59,26.69,3.47,7.93-.11,15.78-.97,23.58-2.36,1.95-.35,1.97-.35,1.99,1.64,.11,14.25,.25,28.5,.31,42.74,.04,7.72-4.71,12.41-12.41,12.48-2.16,.02-4.23-.31-6.28-1.01-73.2-25.03-130.57-84.11-153.47-158.15-4.59-14.84-7.73-29.99-9.34-45.46-.38-3.62-.75-7.24-.93-10.88-.03-.55,.04-1.12-.28-1.61,.28-.7,0-1.39-.02-2.08-.07-2.33-.75-4.61-.58-6.96v-14.25c.54-.68,.41-1.51,.49-2.27,.65-6.29,.98-12.61,1.76-18.9,2.37-18.99,6.79-37.49,13.69-55.33C37.91,100.69,75.61,57.71,129.01,28.67,160.75,11.41,194.87,2.2,230.92,.34c14.63-.75,29.25-.28,43.82,1.64,13.9,1.83,27.57,4.71,40.94,8.89,65.14,20.36,118.57,66.7,147.72,128.33,14.59,30.85,22.53,63.35,23,97.56,.07,4.9,.04,9.81,.06,14.71Z"/>
  </g>
</svg>