<?xml version="1.0" encoding="UTF-8"?>
<svg id="Capa_2" data-name="Capa 2" xmlns="http://www.w3.org/2000/svg" viewBox="0 0 484.04 483.48">
  <defs>
    <style>
      .cls-1 {
        fill: none;
        opacity: .35;
      }

      .cls-2 {
        fill: #111;
      }
    </style>
  </defs>
  <g id="Capa_1-2" data-name="Capa 1">
    <g>
      <g>
        <path class="cls-2" d="M285.07,206.48c16.62,20.31,16.64,50.2-.02,70.5-22.47,27.46-64.1,27.48-86.61,.02-16.68-20.33-16.68-50.24-.02-70.54,22.53-27.44,64.16-27.42,86.65,.02Z"/>
        <g>
          <path class="cls-2" d="M262.5,474.89c-11.45,11.45-30.07,11.45-41.52,0L8.59,262.5c-11.45-11.45-11.45-30.07,0-41.52L220.98,8.59c11.45-11.45,30.07-11.45,41.52,0l86.7,86.7c11.45,11.45,11.45,30.07,0,41.52-5.56,5.56-12.94,8.61-20.77,8.59-7.84,0-15.21-3.05-20.75-8.59l-64.38-64.38c-.88-.88-2.26-.89-3.14-.02L72.4,240.16c-.87,.87-.87,2.29,0,3.16l167.74,167.74c.87,.87,2.29,.87,3.16,0l63.8-63.8c11.45-11.45,30.07-11.45,41.52,0,5.56,5.56,8.61,12.94,8.59,20.77,0,7.84-3.05,15.21-8.59,20.75l-86.12,86.12Z"/>
          <path class="cls-2" d="M409.69,327.7c-11.45,11.45-30.07,11.45-41.52,0-5.56-5.56-8.61-12.94-8.59-20.77,0-7.84,3.05-15.21,8.59-20.75l42.88-42.88c.87-.87,.87-2.25-.02-3.14l-42.29-42.29c-11.45-11.45-11.45-30.07,0-41.52s30.07-11.45,41.52,0l64.63,64.63c11.45,11.45,11.45,30.07,0,41.52l-65.2,65.2Z"/>
        </g>
      </g>
      <rect class="cls-1" x=".56" y="0" width="483.48" height="483.48"/>
    </g>
  </g>
</svg>