<?xml version="1.0" encoding="UTF-8"?>
<svg id="Capa_2" data-name="Capa 2" xmlns="http://www.w3.org/2000/svg" viewBox="0 0 462.9 486.05">
  <defs>
    <style>
      .cls-1 {
        fill: none;
        opacity: .35;
      }

      .cls-2 {
        fill: #111;
      }
    </style>
  </defs>
  <g id="Capa_1-2" data-name="Capa 1">
    <g>
      <path class="cls-2" d="M381.62,11.25H81.28C39.67,11.25,5.37,42.51,.58,82.82,.2,86.01,0,89.24,0,92.53V392.87C0,396.47,.24,400,.69,403.47H.69c.06,.53,.14,1.03,.21,1.54,0,0,0,.02,0,.03,.13,.86,.26,1.7,.43,2.55,0,0,0,.02,0,.03,2.52,13.79,8.52,26.35,17.04,36.76,.07,.09,.14,.17,.22,.27,6.77,8.16,15.09,14.99,24.52,20,3.85,2.07,7.9,3.81,12.1,5.24,.15,.05,.31,.1,.45,.15,8.05,2.66,16.66,4.11,25.61,4.11H381.62c7.67,0,15.1-1.06,22.14-3.05,.04,0,.07-.02,.11-.03,34.07-9.68,59.03-41.02,59.03-78.2V92.53c0-44.88-36.39-81.28-81.28-81.28ZM246.68,354.25c-.96,1.47-3.1,.63-4.68,.63-13.41,.05-26.81-.05-40.21,.07-4.24,.04-6.84-1.43-8.78-5.43-10.94-22.6-23.2-44.49-35.36-66.44-.5-.91-1.06-1.78-1.81-3.03-12.73,23.76-25.34,47.16-37.76,70.66-1.78,3.38-3.89,4.68-7.73,4.61-12.35-.24-24.7-.05-37.05-.14-1.36,0-3.23,.97-4.07-.72-.75-1.53,.71-2.79,1.47-4.04,18.25-30.07,36.44-60.17,54.86-90.14,2.3-3.74,2.65-6.32,.24-10.34-18.08-30.17-35.82-60.53-53.67-90.84-2.6-4.42-2.46-4.74,2.43-4.75,13.41-.03,26.81,.02,40.21-.03,2.77,0,4.88,.56,6.15,3.42,8.86,20.12,20.55,38.74,30.99,58.03,2.43,4.48,4.69,9.05,7.21,13.93,4.3-8.46,8.33-16.65,12.59-24.73,8.43-15.94,17.03-31.78,25.43-47.74,1.07-2.05,2.23-2.82,4.48-2.8,12.65,.09,25.3,.02,37.94,.06,4.27,0,4.53,.56,2.25,4.34-17.96,29.72-35.89,59.46-53.96,89.11-1.69,2.79-1.83,4.69-.07,7.56,19.18,31.27,38.2,62.63,57.21,94,.87,1.44,2.84,2.94,1.69,4.72Zm143.66-6.83c-27.71,10.61-56.09,15.47-85.34,8.15-31.97-8.01-50.53-30.09-53.82-63.44-3.39-34.33,8.47-61.85,38.34-80.26,16.84-10.38,35.73-13.06,55.19-11.91,4,.24,4.96-.6,4.9-4.63-.24-17.62-.02-35.24-.17-52.87-.04-3.67,.93-5.02,4.8-4.94,10.84,.24,21.69,.27,32.53,0,4.11-.11,5.37,.97,5.35,5.24-.18,33.13-.1,66.27-.1,99.4,0,25.15-.08,50.3,.05,75.45,.05,8.27,.62,16.54,1.01,24.82,.11,2.3-.24,4.03-2.74,4.99Zm-44.46-111.66c-8.53-1.22-16.82-.57-24.87,2.46-20.35,7.67-30.34,26.9-26.27,50.1,2.91,16.55,11.14,28.34,28.3,32.37,7.59,1.78,15.27,1.17,22.92,.81,2.75-.14,3.65-1.46,3.62-4.31-.17-12.79-.07-25.59-.08-38.38,0-12.95-.09-25.89,.08-38.83,.04-2.94-.92-3.82-3.71-4.22Z"/>
      <rect class="cls-1" y="0" width="462.9" height="486.05"/>
    </g>
  </g>
</svg>