<?xml version="1.0" encoding="UTF-8"?>
<svg id="Capa_2" data-name="Capa 2" xmlns="http://www.w3.org/2000/svg" viewBox="0 0 462.89 486.05">
  <defs>
    <style>
      .cls-1 {
        fill: none;
        opacity: .35;
      }

      .cls-2 {
        fill: #111;
      }
    </style>
  </defs>
  <g id="Capa_1-2" data-name="Capa 1">
    <g>
      <path class="cls-2" d="M411.77,11.25H51.12C22.89,11.25,0,34.14,0,62.38V423.02c0,28.24,22.89,51.13,51.12,51.13H411.77c28.24,0,51.12-22.89,51.12-51.13V62.38c0-28.24-22.88-51.13-51.12-51.13Zm-43.52,364.24l-68.7-68.7-68.7,68.7-68.7-68.7-67.51,67.51V101.89h0L230.85,238.09,367.05,101.89h1.2V375.49Z"/>
      <path class="cls-1" d="M0,0V486.05H462.89V0H0ZM368.25,375.49l-68.7-68.7-68.7,68.7-68.7-68.7-67.51,67.51V101.89h0L230.85,238.09,367.05,101.89h1.2V375.49Z"/>
    </g>
  </g>
</svg>