<?xml version="1.0" encoding="UTF-8"?>
<svg id="Capa_2" data-name="Capa 2" xmlns="http://www.w3.org/2000/svg" viewBox="0 0 486.05 486.34">
  <defs>
    <style>
      .cls-1 {
        fill: none;
        opacity: .35;
      }

      .cls-2 {
        fill: #111;
      }
    </style>
  </defs>
  <g id="Capa_1-2" data-name="Capa 1">
    <g>
      <g>
        <path class="cls-2" d="M275.98,0h-75.98c-39.39,0-71.32,31.93-71.32,71.32v39.12h114.38c7.8,0,14.13,6.33,14.13,14.13h0c0,7.8-6.33,14.13-14.13,14.13H71.31c-39.38,0-71.31,31.93-71.31,71.31v65.98c0,39.38,31.93,71.31,71.31,71.31h39.12v-66.71c0-28.59,23.18-51.77,51.77-51.77h162.14c12.68,0,22.96-10.28,22.96-22.96V71.31C347.29,31.93,315.36,0,275.98,0Zm-76.15,74.02c-8.58,0-15.53-6.96-15.53-15.53s6.96-15.52,15.53-15.52,15.52,6.96,15.52,15.52-6.95,15.53-15.52,15.53Z"/>
        <path class="cls-2" d="M414.67,138.7h-39.11v66.71c0,28.59-23.18,51.77-51.77,51.77H161.64c-12.68,0-22.96,10.28-22.96,22.96v134.55c0,39.39,31.93,71.32,71.32,71.32h75.98c39.38,0,71.31-31.93,71.31-71.31v-39.12h-114.37c-7.8,0-14.13-6.33-14.13-14.13h0c0-7.81,6.33-14.14,14.13-14.14h171.75c39.39,0,71.32-31.93,71.32-71.32v-65.97c0-39.39-31.93-71.32-71.32-71.32Zm-128.54,273.29c8.57,0,15.52,6.95,15.52,15.52s-6.96,15.52-15.52,15.52-15.53-6.95-15.53-15.52,6.96-15.52,15.53-15.52Z"/>
      </g>
      <rect class="cls-1" y=".3" width="486.05" height="486.05"/>
    </g>
  </g>
</svg>