<?xml version="1.0" encoding="UTF-8"?>
<svg id="Capa_2" data-name="Capa 2" xmlns="http://www.w3.org/2000/svg" viewBox="0 0 417.61 486.05">
  <defs>
    <style>
      .cls-1 {
        fill: none;
        opacity: .35;
      }

      .cls-2 {
        fill: #111;
      }
    </style>
  </defs>
  <g id="Capa_1-2" data-name="Capa 1">
    <g>
      <path class="cls-2" d="M411.94,11.25c-67.5,.13-135,.09-202.5,.09H6.95c-1.29,0-2.61,.12-3.89-.02C.13,11-.17,12.32,.06,14.92c4.85,53.74,9.59,107.47,14.39,161.21,7.65,85.87,15.36,171.73,22.92,257.61,.3,3.45,1.19,5.09,4.71,6.07,54.43,15.03,108.8,30.21,163.17,45.41,2.22,.61,4.27,.75,6.51,.11,54.55-15.27,109.09-30.53,163.67-45.66,3.39-.95,4.64-2.33,4.92-5.92,1.77-22.37,3.82-44.71,5.82-67.05,5.77-64.43,11.57-128.88,17.32-193.32,4.64-52.07,9.11-104.17,14.01-156.22,.5-5.4-.93-5.91-5.58-5.9Zm-72.11,88.63c-4.82,52.81-9.36,105.64-14.06,158.45-2.94,33.24-6.07,66.47-8.98,99.72-.29,3.34-1.53,4.66-4.76,5.54-33.22,9.06-66.39,18.29-99.55,27.55-2.6,.72-4.95,.7-7.54-.02-32.98-9.27-65.94-18.53-98.97-27.56-3.58-.98-4.58-2.64-4.87-6.05-2.03-24.58-4.17-49.14-6.49-73.69-.33-3.48,.84-3.95,3.83-3.93,14.84,.12,29.67,.2,44.51-.04,3.66-.07,4.26,1.49,4.5,4.46,.77,10.17,2.01,20.31,2.44,30.5,.22,5.2,1.75,7.57,7.17,8.88,16.02,3.84,31.85,8.44,47.72,12.85,2.76,.77,5.29,.89,8.1,.1,16.74-4.72,33.52-9.36,50.36-13.78,3.28-.86,4.33-2.32,4.6-5.61,1.62-19.59,3.36-39.17,5.38-58.71,.45-4.31-.59-5.23-4.82-5.22-37.27,.18-131.86,.02-169.13,.21-4.31,.02-7.28-1.14-7.66-5.42-1.31-14.82-2.43-27.63-3.7-42.1-.38-4.34,1.26-5.56,5.86-5.53,40.05,.19,138.25,.02,178.31,.21,4.56,.02,6.46-.86,6.77-5.81,.89-14.06,2.14-28.1,3.7-42.1,.51-4.64-.91-5.37-5.14-5.35-62.86,.13-125.73,.03-188.59,.19-4.82,.02-6.62-1-6.91-6.17-.76-13.88-2.03-27.74-3.56-41.55-.49-4.48,.5-5.53,4.99-5.51,41.91,.18,83.82,.1,125.73,.1s83.82,.07,125.73-.09c4.42-.02,5.44,.98,5.04,5.49Z"/>
      <rect class="cls-1" x=".1" y="0" width="417.42" height="486.05"/>
    </g>
  </g>
</svg>