<?xml version="1.0" encoding="UTF-8"?>
<svg id="Capa_2" data-name="Capa 2" xmlns="http://www.w3.org/2000/svg" viewBox="0 0 463.13 463.13">
  <defs>
    <style>
      .cls-1 {
        fill: #111;
      }
    </style>
  </defs>
  <g id="Capa_1-2" data-name="Capa 1">
    <path class="cls-1" d="M400.82,0H62.31C27.78,0,0,27.78,0,62.31V400.82c0,34.36,27.78,62.31,62.31,62.31H400.82c34.37,0,62.31-27.95,62.31-62.31V62.31c0-34.53-27.94-62.31-62.31-62.31ZM139.74,394.57c0,3.12-.66,4.27-4.11,4.27-20.06-.16-39.95-.16-59.85,0-3.78,.17-4.6-1.15-4.44-4.6v-106.21c0-35.02,0-69.87-.16-104.9,0-3.77,.82-5.09,4.93-5.09,19.73,.32,39.3,.16,59.03,.16,3.28-.16,4.6,.5,4.6,4.27-.17,70.7-.17,141.39,0,212.09Zm-34.2-249.08c-21.7,0-39.3-17.42-39.13-39.29,0-21.71,17.43-38.97,39.3-38.97s38.96,17.43,38.96,38.97c.17,21.7-17.43,39.29-39.13,39.29Zm291.82,249.24c0,3.45-1.15,4.11-4.27,4.11-19.56-.16-38.97-.16-58.53,0-3.62,.17-4.44-.99-4.44-4.44,.16-38.47,.16-76.94,.16-115.41,0-4.93-.33-9.7-1.48-14.31-4.77-18.25-20.06-29.26-40.28-28.77-26.8,.83-44.06,18.74-44.22,46.37-.16,36.99-.16,73.98,0,110.97,.17,4.27-.82,5.76-5.26,5.59-18.9-.16-37.82-.16-56.55,0-3.62,0-4.94-.66-4.94-4.6,.17-70.53,.17-141.06,0-211.59,0-3.78,.99-4.6,4.61-4.6,17.92,.32,36,.16,54.09,.16,3.45-.16,4.44,.82,4.27,4.27-.16,8.56,0,17.1,0,25.66,16.11-18.58,35.67-29.77,59.52-33.05,27.13-3.78,51.79,2.46,71.85,21.54,16.6,15.78,24.82,36.49,25.15,59.19,.66,46.36,.17,92.56,.33,138.92Z"/>
  </g>
</svg>