<?xml version="1.0" encoding="UTF-8"?>
<svg id="Capa_2" data-name="Capa 2" xmlns="http://www.w3.org/2000/svg" viewBox="0 0 478.94 486.05">
  <defs>
    <style>
      .cls-1 {
        fill: none;
        opacity: .35;
      }

      .cls-2 {
        fill: #111;
      }
    </style>
  </defs>
  <g id="Capa_1-2" data-name="Capa 1">
    <g>
      <g>
        <path class="cls-2" d="M478.88,96.6c-.04-48.53-36.69-85.26-85.15-85.29-102.92-.07-205.84-.08-308.76,0C36.81,11.35,.08,48.13,.04,96.33-.04,193.92,.02,291.51,0,389.1c0,5.67,.38,11.3,1.49,16.86,8.04,40.27,41.76,68.09,82.95,68.18,51.71,.12,103.42,.03,155.13,.03s102.76,.06,154.13-.02c48.46-.08,85.14-36.77,85.18-85.28,.07-97.42,.07-194.85,0-292.27Zm-178.47,257.86c-12.13-.02-24.26-.01-36.4-.03-3.31,0-3.8-2.68-4.64-5.01-5.58-15.45-11.25-30.88-16.68-46.39-1.14-3.24-2.53-4.58-6.25-4.54-20.77,.22-41.54,.19-62.32,.02-3.38-.03-4.92,.9-6.01,4.19-5.19,15.59-10.85,31.02-15.95,46.64-1.35,4.14-3.4,5.33-7.52,5.21-8.96-.28-17.94-.08-26.92-.09-6.54-.01-6.76-.31-4.71-6.4,19.02-56.48,38.09-112.94,57.04-169.44,4.05-12.07,9.39-23.86,9.38-36.98,0-2.71,1.87-2.67,3.79-2.67,7.31,.02,14.62,.01,21.94,.01,6.65,0,13.3,.21,19.94-.08,3.82-.17,5.46,1.2,6.7,4.83,22.41,65.67,44.97,131.28,67.5,196.9,1.19,3.46,2.35,6.92,3.57,10.36,.82,2.35,.07,3.48-2.46,3.47Zm62.82-4.86c.01,3.66-1.13,5-4.86,4.93-9.8-.2-19.61-.31-29.4,.03-4.85,.17-5.82-1.77-5.79-6.15,.17-24.58,.08-49.17,.08-73.76s.1-49.5-.09-74.25c-.03-4.41,1.32-5.77,5.69-5.65,9.79,.29,19.6,.21,29.4,.03,3.61-.06,4.98,1.05,4.97,4.82-.09,50-.09,100,0,150Zm-20.5-170.72c-14.17-.1-23.52-9.67-23.46-23.99,.07-14.38,10.04-23.99,24.79-23.89,13.92,.09,23.14,9.82,23.1,24.36-.05,14.32-9.71,23.62-24.43,23.52Z"/>
        <path class="cls-2" d="M229.77,262.73c-17.1-.11-34.21-.05-52.17-.05,9.08-30.25,17.99-59.9,27.23-90.67,6.77,21.79,13.14,42.36,19.55,62.92,2.51,8.08,5.05,16.15,7.68,24.2,.76,2.33,.9,3.62-2.29,3.6Z"/>
      </g>
      <rect class="cls-1" x="0" y="0" width="478.93" height="486.05"/>
    </g>
  </g>
</svg>