<?xml version="1.0" encoding="UTF-8"?>
<svg id="Capa_2" data-name="Capa 2" xmlns="http://www.w3.org/2000/svg" viewBox="0 0 484.75 484.75">
  <defs>
    <style>
      .cls-1 {
        fill: #111;
      }
    </style>
  </defs>
  <g id="Capa_1-2" data-name="Capa 1">
    <g>
      <path class="cls-1" d="M285.28,277.28c-22.26,27.2-63.49,27.22-85.79,.02-16.52-20.13-16.52-49.76-.02-69.87,22.32-27.19,63.55-27.17,85.82,.02,16.47,20.11,16.49,49.72-.02,69.83Z"/>
      <path class="cls-1" d="M345.14,349.28c6.29,6.1,9.75,14.29,9.72,23,0,8.53-3.32,16.57-9.36,22.6l-80.5,80.5c-12.5,12.5-32.75,12.5-45.25,0L9.37,265c-12.5-12.5-12.5-32.75,0-45.25L219.75,9.37c12.5-12.5,32.75-12.5,45.25,0l80.62,80.62c12.44,12.44,13.04,32.72,.8,45.34-6.1,6.29-14.28,9.75-22.99,9.72-8.53,0-16.57-3.32-22.61-9.36l-53.14-53.14c-2.93-2.94-7.7-2.94-10.64,0L82.53,237.06c-2.93,2.93-2.93,7.7,0,10.64l154.51,154.51c2.94,2.93,7.71,2.93,10.64,0l52.13-52.13c12.43-12.43,32.71-13.04,45.34-.8Z"/>
      <path class="cls-1" d="M475.38,265l-59.33,59.33c-12.43,12.43-32.71,13.04-45.34,.8-6.29-6.1-9.75-14.29-9.72-23,0-8.53,3.32-16.57,9.36-22.6l31.83-31.83c2.94-2.94,2.94-7.71,0-10.64l-30.81-30.81c-12.65-12.66-12.92-33.65-.05-46.08,12.51-12.09,32.5-11.96,44.85,.39l59.2,59.2c12.5,12.5,12.5,32.75,0,45.25Z"/>
    </g>
  </g>
</svg>