<?xml version="1.0" encoding="UTF-8"?>
<svg id="Capa_2" data-name="Capa 2" xmlns="http://www.w3.org/2000/svg" viewBox="0 0 165.73 107.34">
  <defs>
    <style>
      .cls-1 {
        fill: #fff;
      }

      .cls-2 {
        fill: none;
      }
    </style>
  </defs>
  <g id="Capa_1-2" data-name="Capa 1">
    <g>
      <rect class="cls-2" width="165.73" height="107.34"/>
      <g>
        <path class="cls-1" d="M29.77,43.45c0-4.36-4.57-6.89-10.57-6.89-10.82,0-19.2,4.65-19.2,11.29,0,2.96,1.9,4.65,4.52,4.65,3.34,0,5.71-3.13,5.71-4.31,0-.3-.13-.47-.42-.47-.21,0-.89,.3-1.44,.3-1.1,0-1.73-.63-1.73-1.99,0-2.83,4.02-6.93,9.56-7.27-1.14,.8-2.16,1.65-3.09,4.57-1.44,4.57-5.5,18.27-5.5,20.68,0,.72,.3,.97,.8,.97,.68,0,3.26-.25,4.52-.25,.63,0,.89-.17,.89-.89,0-2.11,2.33-12.26,5.24-21.52,.68-2.11,1.4-3.09,1.9-3.55,1.61,.42,2.88,1.78,2.88,4.4,0,4.31-2.11,7.74-5.37,8.79-.63,.21-.89,.42-.89,.8s.3,.63,.76,.63c5.37,0,11.42-3.55,11.42-9.94Z"/>
        <path class="cls-1" d="M57.54,60.87c-.25,0-.34,.13-.63,.34-.34,.25-.68,.42-1.18,.42-.59,0-.93-.42-.93-1.44,0-1.73,1.18-4.19,1.18-6.13,0-1.61-.93-2.66-3.26-2.66-2.49,0-4.99,2.07-5.75,3,0,0,.34-1.23,.34-1.9,0-.72-.51-1.1-1.44-1.1-2.45,0-4.74,.63-4.74,1.56,0,.55,.3,.63,.3,1.35,0,.96-.31,2.53-.68,4.14,0,0,0,0,0,0-.61,2.5-1.81,2.92-2.53,2.92-.76,0-1.44-.63-1.44-1.73,0-3.3,1.48-6.6,1.48-7.61,0-.47-.25-.63-.63-.63-.97,0-2.79,.8-3.51,.8-.68,0-1.31-.8-3.55-.8-6.05,0-8.58,4.27-8.58,8.46,0,3.26,2.03,4.95,4.52,4.95,3.09,0,5.33-2.24,5.33-2.24,0,0,.72,2.24,3.26,2.24,2.11,0,3.69-1.04,4.7-2.04-.08,.46-.13,.84-.13,1.11,0,.72,.34,.93,.89,.93,.63,0,2.28-.21,3.55-.21,.63,0,.93-.17,.93-.89,0-1.65,1.1-5.24,1.82-6.68,.93-1.86,1.94-2.58,2.66-2.58,.59,0,.97,.51,.97,1.18,0,1.65-1.35,3.34-1.35,5.92,0,1.82,1.35,3.26,3.76,3.26,2.2,0,3.59-1.14,4.57-2.41,.3-.38,.51-.72,.51-1.06,0-.25-.13-.47-.42-.47Zm-26.43-.85c-.55,1.27-1.4,1.99-2.2,1.99-.93,0-1.44-.89-1.44-1.99,0-2.33,1.06-6.77,3.47-6.77,.89,0,1.27,.47,1.27,1.23,0,1.65-.59,4.44-1.1,5.54Z"/>
        <path class="cls-1" d="M80.21,36.56c-9.39,0-18.31,4.65-18.31,11.29,0,2.96,1.9,4.65,4.52,4.65,3.34,0,5.71-3.13,5.71-4.31,0-.3-.13-.47-.42-.47-.21,0-.89,.3-1.44,.3-1.1,0-1.73-.63-1.73-1.99,0-2.83,4.02-6.93,9.56-7.27-1.14,.8-2.37,1.69-3.09,4.57-1.14,4.61-3.17,16.19-3.89,18.05-.8,2.07-1.4,2.33-1.4,2.88,0,.34,.25,.55,.68,.55,1.18,0,3.34-1.52,4.31-1.52,.72,0,3.13,1.52,5.96,1.52,4.36,0,8.33-2.83,10.57-8.46,1.06-2.66,1.44-5.45,1.44-8.96,0-7.91-5.71-10.82-12.47-10.82Zm4.95,19.15c-1.18,3.89-3.26,6.64-5.75,6.64-1.1,0-1.73-.55-1.73-1.65s1.82-12.13,3.26-17.17c.68-2.45,1.23-3.72,1.9-4.57,1.99,.34,3.68,2.2,3.68,7.06,0,3.59-.47,6.77-1.35,9.68Z"/>
        <path class="cls-1" d="M160.45,51.23c-5.44,0-8.64,3.62-9.01,7.46,0,0,0,0,0,0,0,.01,0,.03,0,.04-.01,.12-.02,.25-.02,.37-.04,.47-.12,1.05-.4,1.53-.22,.33-.53,.74-1.25,.74-.76,0-1.35-.42-1.35-1.52,0-1.73,1.18-3.85,1.18-5.79,0-1.61-.93-2.66-3.26-2.66-2.49,0-4.99,2.07-5.75,3,0,0,.34-1.23,.34-1.9,0-.72-.51-1.1-1.44-1.1-2.45,0-4.74,.63-4.74,1.56,0,.55,.3,.63,.3,1.35,0,.9-.28,2.34-.61,3.85-.66,2.85-1.88,3.21-2.6,3.21-.76,0-1.4-.63-1.4-1.73,0-2.79,1.35-5.45,1.35-7.15,0-.72-.47-1.1-1.4-1.1-.85,0-2.41,.3-3.76,.25-1.27-.04-2.75-.38-2.75-1.56s.63-4.14,1.69-4.14c.59,0,.85,.25,.85,.93,0,1.1,.63,2.16,2.28,2.16,1.23,0,2.28-1.06,2.28-2.45,0-1.65-1.61-3.09-5.16-3.09-2.79,0-6.47,1.1-7.86,7.02-.21,.85-.42,1.1-1.27,1.1-.38,0-.93,.68-.93,1.27,0,.34,.25,.59,.68,.59,.63,0,.85,.25,.85,.76,0,.26-.25,1.89-.6,3.93,0,0,0,0,0,0-.48,2.64-2.36,3.21-3.08,3.21-.76,0-1.35-.63-1.35-1.73,0-4.06,3.38-12.64,3.38-16.19,0-2.11-1.4-3.3-3.59-3.3-2.41,0-4.65,1.4-4.65,2.28,0,.34,.21,.51,.59,.51,.93,0,1.65,.68,1.65,2.07,0,4.37-1.45,8.23-2.41,11.46,0,0,0,0,0,0-1.41,4.73-3.72,5.65-5.58,5.62-2.03-.04-3.17-1.14-3.17-2.62,4.23-.34,7.06-2.66,7.06-5.07,0-1.82-1.31-3.09-4.19-3.09-5.62,0-8.92,3.68-8.92,7.78s2.79,5.83,6.77,5.83,5.87-1.79,7.26-3.23c.31,1.78,1.62,3.1,4.07,3.1,2.66,0,4.44-1.65,5.33-2.79,.06-.08,.12-.15,.17-.23-.33,1.67-.67,3.26-.98,4.37-.42,1.61-.97,2.58-1.52,3.34-.25,.34-.59,.72-.59,1.01,0,.42,.21,.59,.8,.59,1.35,0,6.13-2.03,6.93-5.16,.68-2.45,1.48-7.02,2.03-9.85,.25-1.27,.63-2.75,1.94-2.75,.89,0,1.27,.38,1.27,.97,0,1.52-1.4,4.27-1.4,6.98,0,1.94,1.4,3.51,4.19,3.51,2.11,0,3.69-1.04,4.7-2.04-.08,.46-.13,.84-.13,1.11,0,.72,.34,.93,.89,.93,.63,0,2.28-.21,3.55-.21,.63,0,.93-.17,.93-.89,0-1.65,1.1-5.24,1.82-6.68,.93-1.86,1.94-2.58,2.66-2.58,.59,0,.97,.51,.97,1.18,0,1.65-1.35,3.34-1.35,5.92,0,1.82,1.48,3.26,3.89,3.26,2.65,0,4.46-1.63,5.35-2.77,.92,1.85,2.91,2.94,5.55,2.94,5.2,0,8.2-4.06,8.2-8.79,0-2.92-2.16-4.95-5.29-4.95Zm-59.02,1.9c.68,0,1.01,.34,1.01,.97,0,1.01-1.56,3.13-3.97,3.59,0-2.49,1.69-4.57,2.96-4.57Zm58.39,8.75c-1.65,0-2.75-1.23-2.75-3.13,0-2.41,1.01-3.97,2.07-4.82,.59-.47,1.01-.59,1.18-.59,.25,0,.38,.13,.38,.34,0,.25-.63,.59-.63,1.65,0,.76,.38,1.23,1.69,1.73,.59,.25,.85,.89,.85,1.61,0,1.48-1.1,3.21-2.79,3.21Z"/>
      </g>
    </g>
  </g>
</svg>