<?xml version="1.0" encoding="UTF-8"?>
<svg id="Capa_2" data-name="Capa 2" xmlns="http://www.w3.org/2000/svg" viewBox="0 0 72.22 107.34">
  <defs>
    <style>
      .cls-1 {
        fill: #fff;
      }
    </style>
  </defs>
  <g id="Capa_1-2" data-name="Capa 1">
    <g>
      <g>
        <path class="cls-1" d="M51.09,2.52c-5.35-3.45-11.51-3.36-17.79,.27C24.37,7.95,17.1,19.18,14.76,30.3c-.19-2.99-.51-5.84-1.01-6.97-1.23-2.76-3.59-4.84-4.24-4.62s-1.45,8.13-.65,10.02c.63,1.49,3.83,5.97,5.11,9.94-1.09,1.73-2.19,3.92-3.26,6.69-1.64,4.25-2.57,8.48-3.46,12.56-1.4,6.43-2.73,12.51-6.67,18.43l-.58,.87,.76,.71c2.35,2.19,4.67,3.27,7.08,3.27,.14,0,.29,0,.43-.01,4.96-.26,9-4.92,13.28-9.86,2.75-3.17,5.58-6.44,8.56-8.28,.61,.82,1.32,1.56,2.11,2.24,5.68,4.86,14.59,4.85,21.04,3.21,13.18-3.34,17.35-12.65,18.54-19.87,2.58-15.79-7.09-37.33-20.71-46.11ZM19.69,69.71c-3.92,4.53-7.63,8.81-11.54,9.01-1.62,.08-3.24-.54-4.93-1.92,3.76-6.03,5.12-12.3,6.45-18.36,.87-3.99,1.77-8.12,3.35-12.2,3.56-9.2,7.09-11.02,8.88-11.28,1.58-.23,2.82,.54,3.61,1.26-1.66,2.78-2.06,4.38-2.06,4.38-.27,.72,1.49,.24,3.91-.83,.55,2.8,.19,6.57-.11,9.78l-.05,.56c-.4,4.26,.15,7.89,1.63,10.84-3.3,2.04-6.25,5.45-9.12,8.76Zm49.67-21.48c-1.06,6.49-4.82,14.87-16.71,17.88-5.85,1.48-13.87,1.55-18.83-2.69-3.33-2.85-4.74-7.25-4.19-13.08l.05-.56c.34-3.58,.74-7.8-.07-11.09,2.56-1.29,5.36-2.95,7.23-4.46,4.42-3.55,5.22-8.7,4.86-9.07s-6.24-1.52-11.75,4.93c-1.26,1.47-2.28,2.82-3.11,4.02-1.3-1.09-2.82-1.67-4.39-1.67-.31,0-.62,.02-.93,.07-1.41,.21-3.15,.94-5.01,2.84,.89-11.69,8.57-24.99,18.01-30.44,3.78-2.18,9.5-4.02,15.21-.33,12.89,8.31,22.06,28.71,19.61,43.64Z"/>
        <path class="cls-1" d="M21.37,56.52c-2.08,.16-6.02,7.88-6.17,8.88-.04,.23,.09,.31,.15,.33,.03,.01,.06,.02,.1,.02,.16,0,.32-.17,.66-.66,1.64-2.38,4.51-4.78,5.79-4.85,.37-.02,.65,.03,.89,.08,.48,.09,.9,.16,1.31-.6,.25-.46,.14-1.13-.3-1.8-.45-.69-1.36-1.47-2.44-1.39Z"/>
      </g>
      <g>
        <path class="cls-1" d="M19.21,104.39l.41,2.53c-.81,.17-1.53,.26-2.17,.26-1.04,0-1.85-.16-2.42-.49-.57-.33-.98-.76-1.21-1.3-.23-.54-.35-1.66-.35-3.39v-9.74h-2.1v-2.23h0c1.16,0,2.1-.94,2.1-2.1v-2.09l2.85-1.72v5.91h2.88v2.23h-2.88v9.9c0,.82,.05,1.34,.15,1.58,.1,.23,.27,.42,.49,.56,.23,.14,.55,.21,.98,.21,.32,0,.74-.04,1.26-.11Z"/>
        <path class="cls-1" d="M33.56,104.87c-1.06,.9-2.08,1.54-3.07,1.91-.98,.37-2.04,.56-3.16,.56-1.86,0-3.29-.45-4.29-1.36-1-.91-1.5-2.07-1.5-3.48,0-.83,.19-1.59,.57-2.27,.38-.69,.87-1.24,1.48-1.65,.61-.41,1.3-.73,2.06-.94,.56-.15,1.41-.29,2.55-.43,2.32-.28,4.02-.61,5.12-.99,.01-.39,.02-.64,.02-.75,0-1.17-.27-1.99-.81-2.47-.73-.65-1.82-.97-3.27-.97-1.35,0-2.35,.24-2.99,.71-.64,.47-1.12,1.31-1.43,2.51l-2.81-.38c.26-1.2,.67-2.17,1.26-2.91,.58-.74,1.43-1.31,2.53-1.71,1.11-.4,2.38-.6,3.84-.6s2.62,.17,3.52,.51c.9,.34,1.57,.77,1.99,1.28,.42,.52,.72,1.17,.89,1.95,.1,.49,.14,1.37,.14,2.65v3.82c0,2.67,.06,4.35,.18,5.06,.12,.71,.36,1.38,.73,2.03h-3c-.3-.6-.49-1.29-.57-2.09Zm-.24-6.41c-1.04,.42-2.6,.79-4.69,1.08-1.18,.17-2.01,.36-2.5,.57-.49,.21-.87,.52-1.13,.93-.26,.41-.4,.86-.4,1.36,0,.77,.29,1.4,.87,1.91,.58,.51,1.43,.76,2.54,.76s2.09-.24,2.95-.73c.86-.48,1.49-1.14,1.9-1.98,.31-.65,.46-1.6,.46-2.87v-1.05Z"/>
        <path class="cls-1" d="M46.93,104.39l.41,2.53c-.81,.17-1.53,.26-2.17,.26-1.04,0-1.85-.16-2.42-.49-.57-.33-.98-.76-1.21-1.3-.23-.54-.35-1.66-.35-3.39v-9.74h-2.1v-2.23h0c1.16,0,2.1-.94,2.1-2.1v-2.09l2.85-1.72v5.91h2.88v2.23h-2.88v9.9c0,.82,.05,1.34,.15,1.58,.1,.23,.27,.42,.49,.56,.23,.14,.56,.21,.98,.21,.32,0,.74-.04,1.26-.11Z"/>
        <path class="cls-1" d="M60.83,106.96v-2.49c-1.32,1.91-3.11,2.87-5.37,2.87-1,0-1.93-.19-2.8-.57-.87-.38-1.51-.86-1.93-1.44-.42-.58-.71-1.29-.88-2.13-.12-.56-.17-1.46-.17-2.68v-10.49h2.87v9.39c0,1.5,.06,2.51,.18,3.03,.18,.75,.56,1.35,1.15,1.78,.58,.43,1.31,.65,2.17,.65s1.67-.22,2.42-.66c.75-.44,1.29-1.04,1.6-1.8,.31-.76,.47-1.86,.47-3.31v-9.07h2.87v16.93h-2.57Zm-6.02-19.03l2.12-4.46h3.76l-3.51,4.46h-2.37Z"/>
      </g>
    </g>
  </g>
</svg>