<?xml version="1.0" encoding="UTF-8"?>
<svg id="Capa_2" data-name="Capa 2" xmlns="http://www.w3.org/2000/svg" viewBox="0 0 159.18 107.34">
  <defs>
    <style>
      .cls-1 {
        fill: #fff;
      }

      .cls-2 {
        fill: none;
      }
    </style>
  </defs>
  <g id="Capa_1-2" data-name="Capa 1">
    <g>
      <rect class="cls-2" width="159.18" height="107.34"/>
      <g>
        <g>
          <polygon class="cls-1" points="72.81 47.04 66.07 47.04 60.9 53.46 60.9 40.2 55.21 40.2 55.21 62.72 60.9 62.72 60.9 56.05 66.17 62.72 73.04 62.72 66.68 54.51 72.81 47.04"/>
          <rect class="cls-1" x="74.94" y="39.14" width="5.94" height="5.14"/>
          <rect class="cls-1" x="75.07" y="47" width="5.69" height="15.72"/>
          <path class="cls-1" d="M103.84,46.62c-1.09,0-2.08,.25-2.99,.74-.91,.49-1.63,1.17-2.19,2.04-.79-1.85-2.31-2.78-4.57-2.78s-3.75,.79-4.79,2.36v-1.98h-5.53v15.72h5.69v-8.56c0-1.02,.2-1.81,.61-2.36,.4-.55,1-.83,1.79-.83,.64,0,1.1,.2,1.37,.61,.28,.4,.42,1.07,.42,1.98v9.17h5.69v-8.56c0-1.02,.21-1.81,.62-2.36,.42-.55,1.02-.83,1.81-.83,.64,0,1.1,.2,1.37,.61,.28,.4,.42,1.07,.42,1.98v9.17h5.69v-9.33c0-2.3-.44-4-1.33-5.11-.88-1.11-2.24-1.66-4.07-1.66Z"/>
          <path class="cls-1" d="M119.33,46.62c-1.51,0-2.87,.35-4.07,1.04-1.2,.69-2.14,1.66-2.81,2.91-.67,1.25-1.01,2.66-1.01,4.23,0,1.66,.36,3.11,1.07,4.34,.71,1.24,1.73,2.18,3.05,2.84,1.32,.66,2.89,.99,4.7,.99,1.11,0,2.21-.17,3.32-.5,1.11-.33,2.06-.78,2.84-1.36l-1.44-3.74c-.62,.45-1.32,.8-2.11,1.05-.79,.26-1.57,.38-2.33,.38-1.07,0-1.88-.22-2.46-.67-.58-.45-.95-1.18-1.12-2.2h9.71v-1.28c0-2.49-.66-4.46-1.98-5.89-1.32-1.44-3.11-2.16-5.37-2.16Zm-2.43,6.65c.21-1.87,1.08-2.81,2.59-2.81s2.3,.94,2.43,2.81h-5.02Z"/>
          <path class="cls-1" d="M139.22,46.68c-1.19,.06-2.2,.35-3.03,.85-.83,.5-1.43,1.23-1.79,2.19v-2.72h-5.4v15.72h5.69v-7.89c0-.98,.24-1.74,.74-2.27,.49-.53,1.35-.86,2.59-.99l3.1-.32-.32-4.7-1.57,.13Z"/>
          <path class="cls-1" d="M158.11,50.44c-.71-1.22-1.72-2.17-3.02-2.83-1.3-.66-2.82-.99-4.57-.99s-3.27,.33-4.57,.99c-1.3,.66-2.31,1.6-3.02,2.83-.71,1.22-1.07,2.67-1.07,4.33s.36,3.11,1.07,4.35c.71,1.24,1.73,2.19,3.04,2.86,1.31,.67,2.83,1.01,4.55,1.01s3.27-.34,4.57-1.01c1.3-.67,2.31-1.62,3.02-2.86,.71-1.24,1.07-2.68,1.07-4.35s-.36-3.1-1.07-4.33Zm-7.59,8.29c-2.02,0-3.04-1.32-3.04-3.96s1.01-3.96,3.04-3.96,3.04,1.32,3.04,3.96-1.01,3.96-3.04,3.96Z"/>
        </g>
        <path class="cls-1" d="M34.95,82.44c-3.33-1.28-6.23-2.15-8.7-2.62-2.47-.47-5.07-.7-7.82-.7s-5.35,.23-7.82,.7c-2.47,.47-5.36,1.34-8.7,2.62l-1.92-4.6c3.49-2.24,6.65-3.8,9.48-4.68,2.83-.88,5.81-1.32,8.96-1.32s6.13,.44,8.96,1.32c2.83,.88,5.98,2.44,9.48,4.68l-1.92,4.6Z"/>
        <path class="cls-1" d="M14.79,66.61H3.76v-5.24H7.88v-24.91H3.76v-5.24H14.79v35.39Z"/>
        <path class="cls-1" d="M30.05,47.26c-.71,.91-1.51,1.47-2.42,1.68,.91,.21,1.71,.77,2.42,1.68,.71,.91,1.06,1.97,1.06,3.2v5.84c0,.64,.13,1.09,.4,1.34,.27,.25,.67,.38,1.2,.38h2.48v5.24h-5.2c-1.81,0-3.24-.51-4.28-1.54-1.04-1.03-1.56-2.45-1.56-4.26v-6.12c0-1.04-.17-1.79-.5-2.24-.33-.45-.91-.72-1.74-.8l-1.88-.16v-5.08l1.88-.2c.83-.08,1.41-.35,1.74-.8,.33-.45,.5-1.2,.5-2.24v-6.16c0-1.81,.52-3.23,1.56-4.26,1.04-1.03,2.47-1.54,4.28-1.54h5.2v5.24h-2.48c-.53,0-.93,.13-1.2,.38-.27,.25-.4,.7-.4,1.34v5.88c0,1.23-.35,2.29-1.06,3.2Z"/>
      </g>
    </g>
  </g>
</svg>