<?xml version="1.0" encoding="UTF-8"?>
<svg id="Capa_2" data-name="Capa 2" xmlns="http://www.w3.org/2000/svg" viewBox="0 0 76.12 107.34">
  <defs>
    <style>
      .cls-1, .cls-2 {
        fill: #fff;
      }

      .cls-2 {
        fill-rule: evenodd;
      }

      .cls-3 {
        fill: none;
      }
    </style>
  </defs>
  <g id="Capa_1-2" data-name="Capa 1">
    <g>
      <rect class="cls-3" width="75.57" height="107.34"/>
      <g>
        <path class="cls-2" d="M8.29,88.66c-.92-.68-1.46-1.09-1.63-1.25-.3-.3-.51-.58-.63-.84s-.17-.52-.17-.79c0-.45,.16-.83,.48-1.13,.32-.31,.74-.46,1.25-.46,.39,0,.76,.1,1.09,.3,.33,.2,.74,.61,1.21,1.24l1.03-.78c-.58-.78-1.12-1.32-1.64-1.61-.52-.29-1.07-.44-1.67-.44-.56,0-1.08,.13-1.56,.39-.48,.26-.85,.61-1.11,1.06-.26,.45-.39,.95-.39,1.49,0,.69,.22,1.33,.67,1.92,.26,.35,.91,.92,1.96,1.71,1.05,.78,1.77,1.45,2.16,2.01,.29,.4,.43,.82,.43,1.24,0,.37-.1,.72-.29,1.05-.19,.33-.48,.59-.85,.79-.37,.2-.77,.29-1.19,.29-.99,0-1.86-.69-2.62-2.07l-1.07,.64c.53,.95,1.1,1.63,1.72,2.04,.62,.41,1.32,.61,2.08,.61,.99,0,1.84-.34,2.53-1.01,.69-.67,1.04-1.46,1.04-2.37,0-.63-.2-1.26-.61-1.88-.41-.62-1.15-1.34-2.25-2.14Z"/>
        <polygon class="cls-2" points="13.83 95.75 21.01 95.75 21.01 94.52 15.1 94.52 15.1 89.59 21.01 89.59 21.01 88.37 15.1 88.37 15.1 84.44 21.06 84.44 21.06 83.21 13.83 83.21 13.83 95.75"/>
        <path class="cls-2" d="M29.29,89.52c.6-.26,1.06-.66,1.38-1.17,.32-.52,.48-1.12,.48-1.8,0-.82-.23-1.51-.7-2.07s-1.08-.93-1.83-1.1c-.5-.11-1.45-.17-2.85-.17h-2.51v12.54h1.26v-5.82h.71l4.54,5.82h1.56l-4.54-5.82c1.06,0,1.89-.14,2.49-.41Zm-4.76-.82v-4.26h2.22c.86,0,1.48,.07,1.85,.22,.37,.15,.67,.39,.9,.74,.23,.34,.34,.73,.34,1.15s-.11,.82-.34,1.17c-.23,.35-.54,.6-.94,.76-.4,.16-1.03,.24-1.87,.24l-2.17-.02Z"/>
        <polygon class="cls-2" points="38.38 92.89 34.2 83.21 32.83 83.21 38.24 95.75 38.52 95.75 44 83.21 42.63 83.21 38.38 92.89"/>
        <rect class="cls-1" x="45.8" y="83.21" width="1.26" height="12.54"/>
        <path class="cls-2" d="M53.8,84.85c.86-.48,1.79-.72,2.8-.72,.92,0,1.76,.18,2.53,.55s1.43,.9,1.98,1.61l.99-.76c-.61-.84-1.38-1.48-2.33-1.95-.95-.46-2.01-.69-3.19-.69-1.95,0-3.57,.63-4.87,1.88-1.29,1.25-1.94,2.8-1.94,4.63s.53,3.23,1.6,4.47c1.27,1.46,3.01,2.19,5.22,2.19,1.16,0,2.21-.22,3.15-.65,.94-.43,1.72-1.05,2.35-1.84l-.99-.75c-1.19,1.37-2.67,2.06-4.43,2.06-1.61,0-2.94-.51-3.99-1.53-1.05-1.02-1.58-2.3-1.58-3.83,0-1.01,.24-1.92,.71-2.73,.47-.81,1.14-1.45,1.99-1.93Z"/>
        <polygon class="cls-2" points="64.73 95.75 71.9 95.75 71.9 94.52 65.99 94.52 65.99 89.59 71.9 89.59 71.9 88.37 65.99 88.37 65.99 84.44 71.95 84.44 71.95 83.21 64.73 83.21 64.73 95.75"/>
        <path class="cls-2" d="M24.46,68.8v-.68c-1.08,.03-2.71,.03-3.85,.03-1.3,0-3.1,0-4.31-.03v.65c2.05,.23,2.32,.42,2.32,2.85v3.31c-1.47,.81-2.97,.87-3.75,.87-6.65,0-10.76-5.77-10.76-11.09s3.39-11.28,10.99-11.28c3.62,0,5.74,1.56,6.07,3.63h.59l.69-4.73c-1.11-.26-4.01-.91-7.5-.91-10.18,0-14.94,6.61-14.94,13.23s4.76,13.1,14.38,13.1c2.68,0,6.59-.71,8.48-1.91-.39-.65-.42-1.17-.42-1.72v-2.5c0-2.4,.26-2.63,2.02-2.82Z"/>
        <path class="cls-2" d="M75.64,71.26c-1.24,3.47-3.42,3.53-8.81,3.53h-7.01l16.05-22.34-.29-.32h-17.19c-.88,0-1.79-.19-2.84-.58l-1.47,5.67h.65c.82-2.82,4.44-2.95,6.88-2.95h8.77l-16.31,22.56,.2,.42c3.23-.19,6.75-.23,9.98-.23,6.52,0,8.9,.16,9.66,.84l.23-.06,1.99-6.42-.49-.13Z"/>
        <path class="cls-2" d="M31.7,30.64c.82,1.38,1.8,2.67,2.76,3.96,2.05,2.76,4.16,5.48,6.21,8.24,1.38,1.85,2.2,3.92,2.08,6.27-.04,.89-.18,1.77-.26,2.61,.03-.04,.13-.12,.19-.23,.68-1.22,1.4-2.41,2-3.67,1.27-2.67,1.94-5.44,1.26-8.43-.54-2.36-1.47-4.52-2.93-6.46-1.77-2.35-3.52-4.71-5.26-7.08-1.54-2.1-2.17-4.46-1.96-7.05,.03-.4,.11-.81,.17-1.21,.05,0,.09,0,.14-.01,.04,.13,.09,.27,.13,.4,.73,2.51,1.92,4.77,3.73,6.66,1.89,1.97,3.66,4.03,5.29,6.22,1.63,2.18,2.63,4.59,2.98,7.27,.16,1.27,.24,2.56,.37,3.96,.12-.23,.22-.38,.28-.54,.54-1.46,1.17-2.91,1.6-4.4,.84-2.88,.96-5.8,.17-8.72-.9-3.31-2.35-6.36-4.4-9.11-2.3-3.09-4.66-6.14-6.98-9.22-1.61-2.15-2.61-4.53-2.56-7.27,0-.5,.07-1,.11-1.54-.08,.06-.13,.07-.15,.11-2.08,2.99-3.99,6.09-5.44,9.44-.98,2.25-1.75,4.57-2.06,7.02-.23,1.85-.11,3.68,.14,5.52,.35,2.58,1.06,5.04,2.39,7.28Z"/>
        <path class="cls-2" d="M53.23,76.48c-2.32-.19-3.1-1.72-4.37-4.6-2.97-6.65-5.4-11.87-8.52-19.47,.22-2.44-.31-4.77-1.75-6.98-1.87-2.87-3.87-5.64-5.99-8.33-1.08-1.37-2.21-2.72-3.13-4.2-1.77-2.84-2.6-6.01-2.82-9.34-.02-.29-.06-.59-.09-.88-.15,.11-.2,.22-.24,.33-.75,1.93-1.33,3.89-1.63,5.95-.35,2.38-.29,4.74,.4,7.04,.73,2.41,2.01,4.56,3.31,6.69,1.71,2.81,3.84,5.28,6.08,7.66,1.16,1.23,2.2,2.56,3,4.04-4.29,9.25-9.37,19.31-10.11,20.45-.49,.75-1.08,1.49-2.9,1.72v.52c1.63-.03,3.62-.06,5.38-.06s2.38,.03,4.37,.06v-.58c-2.54-.06-3.2-.94-3.2-1.95,0-1.1,.78-2.53,2.67-6.45l1.04-2.2c1.04-2.17,2.32-4.96,3.85-8.53,1.37,3.47,2.51,6.29,3.46,8.53l.95,2.2c1.89,4.38,2.74,6.09,2.74,6.65,0,.91-.23,1.62-2.48,1.75v.58c1.92-.03,2.22-.06,4.11-.06s3.98,.03,5.87,.06v-.58Z"/>
      </g>
    </g>
  </g>
</svg>