<?xml version="1.0" encoding="UTF-8"?>
<svg id="Capa_2" data-name="Capa 2" xmlns="http://www.w3.org/2000/svg" viewBox="0 0 191.15 107.34">
  <defs>
    <style>
      .cls-1 {
        fill: #fff;
      }

      .cls-2 {
        fill: none;
      }
    </style>
  </defs>
  <g id="Capa_1-2" data-name="Capa 1">
    <g>
      <rect class="cls-2" width="191.15" height="107.34"/>
      <g>
        <g>
          <path class="cls-1" d="M18.35,54.31v.48H5.76c0,4.81,2.31,8.77,6.53,8.77,1.87,0,3.82-.44,5.54-2.53l.11,.18c-1.47,2.75-3.38,5.07-8,5.07C4.07,66.28,0,62.39,0,56.22,0,50.6,3.85,46.09,9.69,46.09s8.63,3.67,8.66,8.22Zm-4.88,.07v-.04c0-5.29-1.1-7.78-3.63-7.78-2.72,0-4,2.9-4.07,7.78l7.71,.04Z"/>
          <path class="cls-1" d="M52.86,62.86c0,1.21,.37,2.57,1.28,2.94v.22h-8v-.22c.92-.37,1.28-1.62,1.28-2.94v-9.91c0-3.41-1.43-4.81-3.19-4.81-1.54,0-2.72,.81-3.63,1.84v12.88c0,1.21,.37,2.57,1.28,2.94v.22h-8v-.22c.92-.37,1.29-1.62,1.29-2.94v-9.91c0-3.41-1.43-4.81-3.23-4.81-1.5,0-2.72,.66-3.6,1.65v13.07c0,1.21,.37,2.57,1.28,2.94v.22h-8v-.22c.92-.37,1.28-1.62,1.28-2.94v-10.61c0-1.69-.59-2.57-1.73-3.49v-.18l6.72-2.17h.18l.07,3.16c1.39-2.06,3.82-3.49,6.64-3.49,3.82,0,5.25,2.5,5.65,3.56,1.39-2.02,3.82-3.56,6.61-3.56,4.85,0,5.8,4.29,5.8,7.97v8.81Z"/>
          <path class="cls-1" d="M74.89,54.31v.48h-12.59c0,4.81,2.31,8.77,6.53,8.77,1.87,0,3.82-.44,5.54-2.53l.11,.18c-1.47,2.75-3.38,5.07-8,5.07-5.87,0-9.95-3.89-9.95-10.06,0-5.62,3.85-10.13,9.69-10.13s8.63,3.67,8.66,8.22Zm-4.88,.07v-.04c0-5.29-1.1-7.78-3.63-7.78-2.72,0-4,2.9-4.07,7.78l7.71,.04Z"/>
        </g>
        <g>
          <path class="cls-1" d="M111.59,62.86c0,1.21,.4,2.57,1.32,2.94v.22h-8v-.22c.92-.37,1.28-1.62,1.28-2.94v-9.91c0-3.41-1.47-4.81-3.23-4.81-1.5,0-2.75,.66-3.63,1.65v13.07c0,1.21,.4,2.57,1.32,2.94v.22h-8v-.22c.92-.37,1.28-1.62,1.28-2.94v-19.64c0-1.65-.62-2.53-1.76-3.45v-.22c1.54-.48,4.81-1.54,6.75-2.17h.4v11.93c1.43-1.91,3.78-3.23,6.46-3.23,4.88,0,5.8,4.29,5.8,7.97v8.81Z"/>
          <path class="cls-1" d="M115.27,56.22c0-5.47,4.18-10.13,9.95-10.13s9.95,4.37,9.95,10.06-4.15,10.13-9.95,10.13-9.95-4.29-9.95-10.06Zm14.13-.04c-.04-6.64-1.58-9.62-4.18-9.62s-4.15,2.97-4.18,9.62c0,6.72,1.58,9.62,4.18,9.62s4.18-2.9,4.18-9.62Z"/>
          <path class="cls-1" d="M169.12,62.86c0,1.21,.37,2.57,1.28,2.94v.22h-8v-.22c.92-.37,1.28-1.62,1.28-2.94v-9.91c0-3.41-1.43-4.81-3.19-4.81-1.54,0-2.72,.81-3.63,1.84v12.88c0,1.21,.37,2.57,1.28,2.94v.22h-8v-.22c.92-.37,1.28-1.62,1.28-2.94v-9.91c0-3.41-1.43-4.81-3.23-4.81-1.5,0-2.72,.66-3.6,1.65v13.07c0,1.21,.37,2.57,1.28,2.94v.22h-8v-.22c.92-.37,1.28-1.62,1.28-2.94v-10.61c0-1.69-.59-2.57-1.73-3.49v-.18l6.72-2.17h.18l.07,3.16c1.39-2.06,3.82-3.49,6.64-3.49,3.82,0,5.25,2.5,5.65,3.56,1.39-2.02,3.82-3.56,6.61-3.56,4.85,0,5.8,4.29,5.8,7.97v8.81Z"/>
          <path class="cls-1" d="M191.15,54.31v.48h-12.59c0,4.81,2.31,8.77,6.53,8.77,1.87,0,3.82-.44,5.54-2.53l.11,.18c-1.47,2.75-3.38,5.07-8,5.07-5.87,0-9.95-3.89-9.95-10.06,0-5.62,3.85-10.13,9.69-10.13s8.63,3.67,8.66,8.22Zm-4.88,.07v-.04c0-5.29-1.1-7.78-3.63-7.78-2.72,0-4,2.9-4.07,7.78l7.71,.04Z"/>
        </g>
        <rect class="cls-1" x="81.52" y="52.5" width="5.7" height="5.7" rx=".52" ry=".52" transform="translate(-14.43 75.87) rotate(-45)"/>
      </g>
    </g>
  </g>
</svg>