<?xml version="1.0" encoding="UTF-8"?>
<svg id="Capa_2" data-name="Capa 2" xmlns="http://www.w3.org/2000/svg" viewBox="0 0 161.48 107.34">
  <defs>
    <style>
      .cls-1 {
        fill: #fff;
      }

      .cls-2 {
        fill: none;
      }
    </style>
  </defs>
  <g id="Capa_1-2" data-name="Capa 1">
    <g>
      <rect class="cls-2" width="161.48" height="107.34"/>
      <g>
        <g>
          <polygon class="cls-1" points="22.76 41.33 22.76 66.34 20.51 66.34 20.51 54.83 14.51 54.83 14.51 66.34 12.26 66.34 12.26 41.33 14.51 41.33 14.51 52.83 20.51 52.83 20.51 41.33 22.76 41.33"/>
          <polygon class="cls-1" points="99.82 41.33 99.82 66.34 97.69 66.34 97.69 49.46 93.93 63.84 93.19 63.84 89.43 49.46 89.43 66.34 87.31 66.34 87.31 41.33 89.43 41.33 93.56 58.17 97.69 41.33 99.82 41.33"/>
          <polygon class="cls-1" points="146.6 66.34 144.09 66.34 138.34 54.44 138.34 66.34 136.09 66.34 136.09 41.33 138.34 41.33 138.34 52.23 143.59 41.33 146.1 41.33 140.31 53.33 146.6 66.34"/>
          <path class="cls-1" d="M42.03,41.33h-2.25l-4.5,25.02h2.13l.97-5.52h5.07l.97,5.52h2.13l-4.5-25.02Zm-3.31,17.5l2.19-12.5,2.19,12.5h-4.37Z"/>
          <path class="cls-1" d="M119.08,41.33h-2.25l-4.5,25.02h2.13l.97-5.52h5.07l.97,5.52h2.13l-4.5-25.02Zm-3.31,17.5l2.19-12.5,2.19,12.5h-4.37Z"/>
          <polygon class="cls-1" points="60.83 64.34 68.04 64.34 68.04 66.34 58.29 66.34 58.29 65.22 65.51 43.33 59.04 43.33 59.04 41.33 68.04 41.33 68.04 42.45 60.83 64.34"/>
        </g>
        <path class="cls-1" d="M161.48,78.6H0V29.07H161.48v49.53ZM1.5,77.1H159.98V30.57H1.5v46.53Z"/>
        <path class="cls-1" d="M155.35,72.47H76.93V35.2h78.43v37.27Zm-76.93-1.5h75.42V36.7H78.43v34.27Z"/>
      </g>
    </g>
  </g>
</svg>