<?xml version="1.0" encoding="UTF-8"?>
<svg id="Capa_2" data-name="Capa 2" xmlns="http://www.w3.org/2000/svg" viewBox="0 0 119.56 107.34">
  <defs>
    <style>
      .cls-1 {
        fill: #fff;
      }

      .cls-2 {
        fill: none;
      }
    </style>
  </defs>
  <g id="Capa_1-2" data-name="Capa 1">
    <g>
      <rect class="cls-2" x="0" width="119.56" height="107.34"/>
      <path class="cls-1" d="M32.79,38.97c0-1.33,1.04-2.42,2.39-2.42s2.43,1.09,2.43,2.42v9.21c1.36-1.98,3.31-3.72,6.58-3.72,4.75,0,7.5,3.23,7.5,8.16v11.4c0,1.37-1.04,2.42-2.39,2.42s-2.43-1.05-2.43-2.42v-9.9c0-3.31-1.64-5.21-4.51-5.21s-4.75,1.98-4.75,5.29v9.82c0,1.37-1.08,2.42-2.43,2.42s-2.39-1.05-2.39-2.42v-25.06Zm32.4,27.76c-6.1,0-10.81-4.49-10.81-11.07v-.08c0-6.1,4.27-11.11,10.29-11.11,6.7,0,10.01,5.58,10.01,10.51,0,1.37-1.04,2.34-2.27,2.34h-13.2c.52,3.48,2.95,5.42,6.06,5.42,2.03,0,3.63-.73,4.99-1.86,.36-.28,.68-.44,1.24-.44,1.08,0,1.91,.85,1.91,1.98,0,.61-.28,1.13-.64,1.5-1.91,1.74-4.31,2.83-7.58,2.83Zm4.79-12.65c-.32-3.15-2.15-5.62-5.34-5.62-2.95,0-5.03,2.3-5.46,5.62h10.81Zm31.16-15.11c0-1.33,1.04-2.42,2.39-2.42s2.43,1.09,2.43,2.42v15.76l9.05-9.01c.64-.65,1.24-1.05,2.07-1.05,1.28,0,2.11,1.05,2.11,2.22,0,.81-.4,1.41-1.08,2.06l-5.58,5.21,6.38,8.45c.44,.61,.64,1.05,.64,1.62,0,1.33-1.04,2.22-2.27,2.22-.96,0-1.52-.32-2.11-1.09l-6.02-8.12-3.19,3.07v3.72c0,1.37-1.08,2.42-2.43,2.42s-2.39-1.05-2.39-2.42v-25.06Zm-7.21,19.91c-1.14,1.97-3.26,3.29-5.7,3.29-3.04,0-5.61-2.07-6.35-4.88-.15-.54-.22-1.11-.22-1.7s.08-1.16,.22-1.7c.75-2.81,3.31-4.88,6.35-4.88,2.44,0,4.56,1.32,5.7,3.29,.52,.9,1.57,1.34,2.57,1.07h0c1.45-.39,2.13-2.05,1.38-3.35-1.92-3.33-5.52-5.57-9.65-5.57-5.15,0-9.48,3.5-10.75,8.25-.25,.92-.38,1.89-.38,2.88s.13,1.96,.38,2.88c1.27,4.75,5.6,8.25,10.75,8.25,4.12,0,7.72-2.24,9.64-5.57,.75-1.3,.07-2.96-1.38-3.35h0c-1-.27-2.05,.17-2.57,1.07ZM29.24,37.12c-1.03-.86-2.56-.73-3.42,.3l-2.47,2.95c-2.44-1.81-5.45-2.88-8.72-2.88-6.77,0-12.46,4.6-14.13,10.84-.32,1.21-.49,2.48-.49,3.79s.17,2.58,.49,3.79c1.67,6.25,7.36,10.84,14.13,10.84,5.72,0,10.68-3.29,13.08-8.08,.69-1.38-.04-3.06-1.53-3.46h0c-1.13-.3-2.29,.25-2.82,1.3-1.61,3.19-4.91,5.38-8.73,5.38-4.52,0-8.33-3.07-9.44-7.24-.22-.81-.33-1.65-.33-2.53s.12-1.72,.33-2.53c1.11-4.17,4.92-7.24,9.44-7.24,2.08,0,4.01,.65,5.59,1.76l-5.89,7.02-2.03-1.7c-1.03-.86-2.56-.73-3.42,.3-.86,1.03-.73,2.56,.3,3.42l3.89,3.26c.45,.38,1.01,.57,1.56,.57,.69,0,1.38-.3,1.86-.87l6.94-8.27c.55,.97,1.67,1.48,2.76,1.18,1.5-.4,2.23-2.07,1.53-3.46-.29-.58-.62-1.14-.98-1.67l2.81-3.35c.86-1.03,.73-2.56-.3-3.42Z"/>
    </g>
  </g>
</svg>