<?xml version="1.0" encoding="UTF-8"?>
<svg id="Capa_2" data-name="Capa 2" xmlns="http://www.w3.org/2000/svg" viewBox="0 0 2022.7 407.62">
  <defs>
    <style>
      .cls-1 {
        fill: #afafaf;
      }
    </style>
  </defs>
  <g id="Capa_1-2" data-name="Capa 1">
    <g>
      <path class="cls-1" d="M1345.03,0h351.66V65.2h-139.64V407.1h-69.82V65.2h-142.2V0ZM764.92,0V65.2H482.57v104.73h227.42v64.68h-227.42v107.81h282.35v64.68H413.26V0h351.66Zm176.09,0h-91.38l327.53,407.62h91.89l-164.28-203.81L1269.06,.51h-91.89l-118.08,146.82L941.01,.51V0Zm93.95,291.08l-46.2-56.47-139.12,173.01h91.38l93.95-116.54Z"/>
      <path class="cls-1" d="M415.83,407.1L87.27,0H0V407.1H69.82V87.27L327.53,407.1h88.3Zm1296.78-2.05c-5.13,0-9.24-2.05-12.83-5.13-3.59-3.08-5.65-8.21-5.65-13.35s1.54-9.24,5.13-12.83c3.59-3.59,8.21-5.13,13.35-5.13s9.24,1.54,12.83,5.13c6.2,5.66,7.5,14.93,3.08,22.08-3.26,5.47-9.04,8.94-15.4,9.24h-.51Zm119.1-171.98h30.8v119.62c0,10.78-2.05,20.53-6.67,28.24-4.63,7.75-11.41,13.99-19.51,17.97-8.21,4.11-17.97,6.67-29.26,6.67-10.27,0-18.99-2.05-27.21-5.13-8.21-3.08-14.37-9.24-18.99-16.43-4.62-6.67-7.19-15.4-7.19-25.67h30.8c.51,4.11,1.54,8.21,3.59,11.29,2.05,3.08,5.13,6.16,8.21,7.7,3.59,2.05,7.7,2.57,12.32,2.57,5.13,0,9.24-1.03,12.32-3.08,3.62-2.16,6.49-5.39,8.21-9.24,1.54-4.11,2.57-9.24,2.57-15.4v-119.1Zm158.63,46.72c-.63-6.93-4.42-13.18-10.27-16.94-6.62-4.07-14.32-6.03-22.07-5.65-6.67,0-12.32,1.03-16.94,2.57-4.62,2.05-8.21,5.13-10.27,8.21-4.77,5.84-5.39,14.05-1.54,20.53,1.54,2.57,3.59,4.62,6.67,6.16l9.24,5.13,10.27,2.57,16.43,4.11c6.67,1.54,12.83,3.59,18.99,6.16,5.89,2.29,11.42,5.4,16.43,9.24,10.04,8.13,15.73,20.46,15.4,33.37,0,10.27-2.57,18.99-7.7,26.18-5.66,8.03-13.5,14.26-22.59,17.97-9.24,4.11-21.05,6.16-34.91,6.16s-25.16-2.05-34.91-6.16c-10.27-4.11-17.45-10.27-23.1-17.97-5.71-8.5-8.75-18.51-8.73-28.75h30.8c.37,10.89,7.57,20.35,17.97,23.62,5.13,2.05,11.29,3.08,17.45,3.08,6.67,0,12.83-1.03,17.97-3.08,5.13-2.05,9.24-5.13,12.32-8.73,2.67-3.55,4.11-7.88,4.11-12.32s-1.03-8.21-3.59-11.29c-3.31-2.8-6.92-5.21-10.78-7.19l-16.43-5.13-19.51-5.13c-14.37-3.59-25.67-8.73-33.88-16.43-8.3-7.4-12.83-18.15-12.32-29.26-.08-9.3,3-18.35,8.73-25.67,5.52-7.95,13.17-14.18,22.07-17.97,10.27-4.11,20.53-6.16,32.86-6.16s22.59,2.05,31.83,6.16c9.24,4.11,16.43,10.27,22.07,17.45,5.13,7.19,7.7,15.4,7.7,25.67h-29.78v-.51Z"/>
    </g>
  </g>
</svg>