<?xml version="1.0" encoding="UTF-8"?>
<svg id="Capa_2" data-name="Capa 2" xmlns="http://www.w3.org/2000/svg" viewBox="0 0 129.69 107.34">
  <defs>
    <style>
      .cls-1 {
        fill: #fff;
      }

      .cls-2 {
        fill: none;
      }
    </style>
  </defs>
  <g id="Capa_1-2" data-name="Capa 1">
    <g>
      <rect class="cls-2" width="129.69" height="107.34"/>
      <g>
        <path class="cls-1" d="M38.64,61.97c-.96,1.28-2.49,2.24-4.3,2.24-2.06,0-3.48-.78-3.8-2.98-1.21,1.92-2.59,2.98-4.97,2.98-2.95,0-4.48-1.88-4.48-4.05,0-3.59,3.66-4.33,7.67-5.79l1.7-.6v-1.63c0-2.66-.53-3.55-1.85-3.55-1.17,0-1.67,.96-1.42,4.44-2.34,.36-5.01,.28-5.01-1.95s3.09-3.84,6.96-3.84c5.15,0,7.07,1.14,7.07,5.83v6.14c0,2.2,.39,2.52,1.14,2.52,.46,0,.85-.21,.99-.28l.28,.53Zm-8.17-1.67v-5.22l-.39,.18c-1.88,.85-3.05,1.31-3.09,3.48-.04,1.39,.64,2.34,1.67,2.34,.75,0,1.28-.25,1.81-.78Z"/>
        <path class="cls-1" d="M57.04,60.45v-8.49c0-3.2-1.95-4.72-4.48-4.72-2.65,0-4.53,1.7-5.65,3.28v-3.34c-1.22,.3-4.91,.91-7.42,.91v.96c.98,0,1.66,1.23,1.67,3.8,0,.01,0,.02,0,.03v7.57q0,2.02-1.42,2.34v.96h8.63v-.96q-1.46-.32-1.46-2.34v-6.16h0v-2.86c.75-.57,1.46-.85,2.17-.85,1.63,0,2.2,1.28,2.2,3.87v6q0,2.02-1.46,2.34v.96h8.63v-.96q-1.42-.32-1.42-2.34Z"/>
        <path class="cls-1" d="M77.39,61.97c-.96,1.28-2.49,2.24-4.3,2.24-2.06,0-3.48-.78-3.8-2.98-1.21,1.92-2.59,2.98-4.97,2.98-2.95,0-4.48-1.88-4.48-4.05,0-3.59,3.66-4.33,7.67-5.79l1.7-.6v-1.63c0-2.66-.53-3.55-1.85-3.55-1.17,0-1.67,.96-1.42,4.44-2.34,.36-5.01,.28-5.01-1.95s3.09-3.84,6.96-3.84c5.15,0,7.07,1.14,7.07,5.83v6.14c0,2.2,.39,2.52,1.14,2.52,.46,0,.85-.21,.99-.28l.28,.53Zm-8.17-1.67v-5.22l-.39,.18c-1.88,.85-3.05,1.31-3.09,3.48-.04,1.39,.64,2.34,1.67,2.34,.75,0,1.28-.25,1.81-.78Z"/>
        <path class="cls-1" d="M88.76,61.44c-.85,1.28-2.59,2.77-5.19,2.77-3.05,0-4.3-1.53-4.26-5.15l.07-10.02h-1.78v-.96c2.84-.89,5.22-2.38,7-4.97h.6c-.04,1.1-.07,2.42-.11,4.65h3.37v1.28h-3.37c-.04,1.28-.04,2.77-.04,4.62v4.12c0,2.66,.64,3.37,1.88,3.37,.89,0,1.39-.14,1.56-.21l.25,.5Z"/>
        <path class="cls-1" d="M100.73,61.44c-.85,1.28-2.59,2.77-5.19,2.77-3.05,0-4.3-1.53-4.26-5.15l.07-10.02h-1.78v-.96c2.84-.89,5.22-2.38,7-4.97h.6c-.04,1.1-.07,2.42-.11,4.65h3.37v1.28h-3.37c-.04,1.28-.04,2.77-.04,4.62v4.12c0,2.66,.64,3.37,1.88,3.37,.89,0,1.39-.14,1.56-.21l.25,.5Z"/>
        <path class="cls-1" d="M102.43,62.79q1.42-.32,1.42-2.34v-7.57c0-2.59-.69-3.84-1.67-3.84v-.96c2.51,0,6.2-.61,7.42-.91v13.27q0,2.02,1.46,2.34v.96h-8.63v-.96Zm1.53-20.42c0-1.67,1.28-2.91,2.91-2.91s2.77,1.24,2.77,2.91c0,1.46-1.21,2.77-2.77,2.77s-2.91-1.31-2.91-2.77Z"/>
        <path class="cls-1" d="M112.54,55.97c0-6.18,3.62-8.74,8.77-8.74s8.38,1.67,8.38,8.13c0,5.97-3.37,8.84-8.67,8.84s-8.49-1.95-8.49-8.24Zm11.01-.11c0-5.19-.82-7.28-2.52-7.28s-2.38,1.42-2.38,7c0,5.11,.89,7.28,2.63,7.28s2.27-1.35,2.27-7Z"/>
        <path class="cls-1" d="M21.13,47.52c0,5.68-3.87,7.89-8.63,7.89h-4.12v4.94q0,2.02,2.84,2.34v1.07H0v-1.07q2.27-.32,2.27-2.34v-16.2q0-2.02-2.27-2.34v-1.07H11.08c7.35,0,10.05,1.7,10.05,6.78Zm-6.54,.46c0-3.94-1.17-5.9-4.48-5.9h-.74c-.55,0-1,.45-1,1v10.97h2.42c2.52,0,3.8-2.1,3.8-6.07Z"/>
      </g>
    </g>
  </g>
</svg>