<?xml version="1.0" encoding="UTF-8"?>
<svg id="Capa_2" data-name="Capa 2" xmlns="http://www.w3.org/2000/svg" viewBox="0 0 191.61 107.34">
  <defs>
    <style>
      .cls-1 {
        fill: #fff;
      }

      .cls-2 {
        fill: none;
      }
    </style>
  </defs>
  <g id="Capa_1-2" data-name="Capa 1">
    <g>
      <rect class="cls-2" width="191.61" height="107.34"/>
      <g>
        <path class="cls-1" d="M179.96,76.08H5.39l.12-.86c.42-2.99-1.67-5.42-4.66-5.42H0l4.49-31.95h.86c2.99,0,5.76-2.43,6.18-5.42l.12-.86H186.21l-.12,.86c-.42,2.99,1.67,5.42,4.66,5.42h.86l-4.49,31.95h-.86c-2.99,0-5.76,2.43-6.18,5.42l-.12,.86Zm-172.66-1.71H178.54c.85-3.25,3.79-5.83,7.1-6.22l4.02-28.63c-3.2-.39-5.42-2.97-5.35-6.22H13.07c-.85,3.25-3.79,5.83-7.1,6.22L1.94,68.15c3.2,.39,5.42,2.97,5.35,6.22Z"/>
        <g>
          <path class="cls-1" d="M16.58,58.79l-.09,.56c-.33,1.91,0,2.96,1.45,2.96,1.24,0,1.89-.98,2.23-2.77,.38-2.02,.11-3.27-1.81-5.45-2.16-2.44-2.8-3.82-2.26-6.72,.51-2.79,2.01-4.31,4.6-4.31,3.83,0,4.31,2.82,3.86,5.35l-.08,.46h-2.75l.08-.47c.28-1.6,.26-3.02-1.18-3.02-1.08,0-1.6,.79-1.83,2.17-.28,1.62,0,2.63,1.51,4.36,2.64,3.01,3.23,4.86,2.61,7.89-.62,3.02-2.11,4.81-5.24,4.81-3.54,0-4.59-2.24-3.94-5.47l.07-.35h2.76Z"/>
          <path class="cls-1" d="M31.11,43.35l-3.43,16.12c-.32,1.52-.04,2.62,1.4,2.62s1.95-1.13,2.27-2.63l3.43-16.1h2.78l-3.37,15.85c-.71,3.3-1.67,5.36-5.37,5.36-3.23,0-4.59-1.78-3.84-5.3l3.38-15.91h2.75Z"/>
          <path class="cls-1" d="M40.43,43.35h3.78c3.35,0,4.64,2.07,3.97,5.44l-.28,1.43c-.64,3.28-1.98,4.96-5.93,4.96h-1.32l-1.93,9.12h-2.75l4.46-20.96Zm.72,9.54h1.15c1.94,0,2.44-.96,2.84-2.82l.26-1.25c.37-1.73,.36-3.15-1.57-3.15h-1.17l-1.52,7.21Z"/>
          <path class="cls-1" d="M56.35,54.41h-4.49l-1.53,7.38h5.38l-.89,2.52h-7.8l4.46-20.96h7.5l-.55,2.52h-4.75l-1.26,6.01h4.5l-.56,2.52Z"/>
          <path class="cls-1" d="M61.62,54.74l-2.03,9.57h-2.75l4.46-20.96h3.75c3.24,0,4.63,1.83,3.95,5.18l-.24,1.18c-.58,2.87-1.77,3.66-2.96,3.96,.97,.6,1.57,1.7,.9,4.78-.39,1.77-.98,4.56-1.03,5.85h-2.74c.04-1.3,.64-4,1.16-6.46,.49-2.36,.12-3.11-1.58-3.11h-.88Zm.49-2.33h.79c2.01,0,2.68-.61,3.1-2.85l.22-1.18c.32-1.71,.05-2.69-1.67-2.69h-1l-1.43,6.72Z"/>
          <path class="cls-1" d="M72.59,43.35h3.55c4.5,0,5.11,2.89,4.19,7.18l-1.62,7.59c-.87,4.08-1.88,6.19-6.23,6.19h-4.34l4.46-20.96Zm-1.25,18.66h1.1c2.08,0,2.85-.96,3.46-3.82l1.81-8.51c.58-2.66,.35-4-1.84-4h-1.04l-3.49,16.33Z"/>
          <path class="cls-1" d="M89.39,54.41h-4.49l-1.53,7.38h5.38l-.89,2.52h-7.8l4.46-20.96h7.5l-.55,2.52h-4.75l-1.26,6.01h4.5l-.56,2.52Z"/>
          <path class="cls-1" d="M93.23,58.79l-.09,.56c-.33,1.91,0,2.96,1.45,2.96,1.24,0,1.89-.98,2.23-2.77,.38-2.02,.11-3.27-1.81-5.45-2.16-2.44-2.8-3.82-2.26-6.72,.51-2.79,2.01-4.31,4.6-4.31,3.83,0,4.31,2.82,3.86,5.35l-.08,.46h-2.75l.08-.47c.28-1.6,.26-3.02-1.18-3.02-1.08,0-1.6,.79-1.83,2.17-.28,1.62,0,2.63,1.51,4.36,2.64,3.01,3.23,4.86,2.61,7.89-.62,3.02-2.11,4.81-5.24,4.81-3.54,0-4.59-2.24-3.94-5.47l.07-.35h2.76Z"/>
          <path class="cls-1" d="M110.61,58.49l-.09,.39c-.69,2.84-1.36,5.73-5.36,5.73-3.57,0-4.36-2.36-3.61-5.85l2.1-9.86c.83-3.83,1.96-5.84,5.17-5.84,4.24,0,4.32,3.17,3.7,5.72l-.08,.34h-2.76l.15-.71c.38-1.83,.27-2.95-1.17-2.95-1.2,0-1.65,1-2.08,2.97l-2.26,10.61c-.44,2.1-.27,3.21,1.12,3.21,1.24,0,1.69-1.06,2.16-3.04l.17-.71h2.84Z"/>
          <path class="cls-1" d="M118.43,43.35l-3.43,16.12c-.32,1.52-.04,2.62,1.4,2.62s1.95-1.13,2.27-2.63l3.43-16.1h2.78l-3.37,15.85c-.71,3.3-1.67,5.36-5.37,5.36-3.23,0-4.59-1.78-3.84-5.3l3.38-15.91h2.75Z"/>
          <path class="cls-1" d="M132.63,54.41h-4.49l-1.53,7.38h5.38l-.89,2.52h-7.8l4.46-20.96h7.5l-.55,2.52h-4.75l-1.26,6.01h4.5l-.56,2.52Z"/>
          <path class="cls-1" d="M133.11,64.31l4.46-20.96h3.28c.19,5.94,.52,14.43,.49,15.48h.04c.48-2.81,1.01-5.79,1.73-9.22l1.33-6.26h2.63l-4.46,20.96h-3.18c-.16-5.07-.53-14.68-.53-15.83h-.03c-.42,2.61-.95,5.59-1.75,9.36l-1.36,6.47h-2.65Z"/>
          <path class="cls-1" d="M151.24,45.9h-3.24l.55-2.54h9.23l-.55,2.54h-3.24l-3.91,18.42h-2.75l3.91-18.42Z"/>
          <path class="cls-1" d="M167.35,48.93l-2.14,10.07c-.74,3.51-1.85,5.61-5.49,5.61s-4.56-2.39-3.85-5.87l2.19-10.49c.72-3.45,2.43-5.19,5.34-5.19,3.3,0,4.72,2.27,3.95,5.87Zm-6.47-.66l-2.3,10.91c-.39,1.83-.13,3.07,1.43,3.07,1.33,0,1.93-1.08,2.35-2.98l2.3-10.85c.39-1.83,0-2.96-1.5-2.96-1.21,0-1.89,.97-2.27,2.82Z"/>
          <path class="cls-1" d="M169.91,58.79l-.09,.56c-.33,1.91,0,2.96,1.45,2.96,1.24,0,1.89-.98,2.23-2.77,.38-2.02,.11-3.27-1.81-5.45-2.16-2.44-2.8-3.82-2.26-6.72,.51-2.79,2.01-4.31,4.6-4.31,3.83,0,4.31,2.82,3.86,5.35l-.08,.46h-2.75l.08-.47c.28-1.6,.26-3.02-1.18-3.02-1.08,0-1.6,.79-1.83,2.17-.28,1.62,0,2.63,1.51,4.36,2.64,3.01,3.23,4.86,2.61,7.89-.62,3.02-2.11,4.81-5.24,4.81-3.54,0-4.59-2.24-3.94-5.47l.07-.35h2.76Z"/>
        </g>
      </g>
    </g>
  </g>
</svg>