<?xml version="1.0" encoding="UTF-8"?>
<svg id="Capa_2" data-name="Capa 2" xmlns="http://www.w3.org/2000/svg" viewBox="0 0 88.14 107.34">
  <defs>
    <style>
      .cls-1 {
        fill: #fff;
      }

      .cls-2 {
        fill: none;
      }
    </style>
  </defs>
  <g id="Capa_1-2" data-name="Capa 1">
    <g>
      <rect class="cls-2" width="88.14" height="107.34"/>
      <g>
        <path class="cls-1" d="M81.1,49.11c-.39,0-.77-.15-1.06-.45-.58-.59-.57-1.53,.02-2.11l4.04-3.96c.71-.7,1.09-1.63,1.07-2.62-.02-1-.45-1.92-1.2-2.6-1.92-1.71-3.94-3.34-5.99-4.85-7.68-5.62-16.28-9.78-25.53-12.36-9.26-2.58-18.76-3.47-28.24-2.63-2.55,.22-5.11,.57-7.63,1.05-.99,.19-1.83,.75-2.37,1.6-.53,.84-.69,1.83-.45,2.8l1.95,7.58c.21,.8-.27,1.61-1.07,1.81-.8,.21-1.61-.27-1.81-1.07l-1.95-7.58c-.45-1.75-.15-3.62,.82-5.14,.97-1.53,2.55-2.59,4.34-2.93,2.61-.49,5.27-.86,7.92-1.09,9.84-.87,19.7,.05,29.3,2.73,9.6,2.68,18.52,6.99,26.49,12.83,2.13,1.56,4.22,3.25,6.21,5.03,1.35,1.21,2.15,2.94,2.19,4.75,.04,1.83-.65,3.54-1.96,4.82l-4.04,3.96c-.29,.28-.67,.43-1.04,.43Z"/>
        <path class="cls-1" d="M33.88,93.41c-.59,0-1.19-.08-1.79-.25-2.28-.64-3.99-2.38-4.58-4.67l-3.6-14.01c-.21-.8,.28-1.61,1.07-1.81,.8-.21,1.61,.27,1.81,1.07l3.6,14.01c.32,1.24,1.25,2.19,2.49,2.54,1.24,.35,2.53,.01,3.45-.89l16.7-16.36c.59-.58,1.53-.57,2.11,.02,.58,.59,.57,1.53-.02,2.11l-16.7,16.36c-1.25,1.22-2.87,1.87-4.55,1.87Z"/>
        <g>
          <path class="cls-1" d="M11.09,35.25c1.13,0,2.12,.22,2.98,.67,.86,.44,1.58,1.07,2.16,1.87,.58,.8,1.02,1.77,1.3,2.9,.29,1.13,.4,2.37,.35,3.71-.04,1.18-.24,2.23-.61,3.15-.37,.91-.86,1.69-1.48,2.31-.62,.63-1.34,1.1-2.16,1.43-.82,.32-1.71,.49-2.67,.49-.85,0-1.67-.14-2.47-.42-.79-.28-1.45-.79-1.97-1.55v5.34c0,.57,.08,.99,.25,1.26,.17,.27,.46,.45,.89,.54,.35,.06,.53,.19,.53,.42,0,.26-.19,.38-.55,.36-.31-.02-.77-.04-1.37-.06-.6-.02-1.34-.03-2.2-.03s-1.59,0-2.16,.03c-.57,.02-1.02,.04-1.33,.06-.37,.02-.55-.1-.55-.36,0-.2,.17-.35,.5-.44,.31-.09,.51-.28,.6-.57,.08-.29,.12-.69,.12-1.21v-15.82c0-.54-.04-.94-.12-1.22-.08-.28-.28-.46-.6-.55-.33-.09-.5-.26-.5-.5,0-.28,.15-.42,.44-.44,.24-.04,.54-.08,.91-.12,.37-.05,.78-.11,1.23-.18,.45-.07,.94-.16,1.46-.26,.52-.1,1.04-.24,1.58-.4,.41-.11,.62,0,.64,.33l.14,1.86c.46-.78,1.07-1.4,1.82-1.87,.75-.47,1.7-.71,2.87-.71Zm-1.27,14.83c.46-.04,.86-.24,1.21-.6,.34-.36,.62-.85,.85-1.46,.22-.61,.38-1.32,.47-2.13,.09-.81,.13-1.69,.11-2.63-.02-.96-.12-1.81-.31-2.55-.18-.74-.42-1.36-.72-1.86-.3-.5-.64-.87-1.03-1.11-.39-.24-.8-.34-1.25-.3-.92,.06-1.62,.67-2.09,1.83-.47,1.16-.67,2.95-.6,5.35,.07,1.9,.42,3.3,1.04,4.2,.62,.9,1.39,1.32,2.31,1.26Z"/>
          <path class="cls-1" d="M26.11,50.58c.33,.11,.5,.27,.5,.47,0,.28-.18,.4-.55,.36-.28-.04-.68-.06-1.22-.08-.54-.02-1.22-.03-2.05-.03s-1.52,0-2.05,.03c-.54,.02-.95,.05-1.25,.08-.37,.04-.55-.08-.55-.36,0-.2,.18-.36,.53-.47,.3-.09,.48-.28,.55-.57,.07-.29,.11-.69,.11-1.21v-13.3c0-.52-.04-.92-.11-1.22-.07-.3-.26-.49-.55-.58-.35-.09-.53-.25-.53-.47,0-.26,.17-.42,.5-.5,.24-.04,.56-.1,.96-.18,.4-.08,.84-.19,1.32-.33,.48-.14,.99-.3,1.52-.5,.54-.19,1.06-.42,1.58-.68,.18-.09,.33-.11,.44-.04,.11,.06,.17,.2,.17,.4v17.41c0,.52,.04,.92,.11,1.21,.07,.29,.27,.48,.58,.57Z"/>
          <path class="cls-1" d="M42.68,50.47c.11,.11,.23,.19,.35,.25,.12,.06,.18,.15,.18,.28,0,.28-.2,.42-.61,.42h-.42c-.37,0-.79,0-1.28-.01-.48,0-.96-.09-1.43-.24-.47-.15-.91-.39-1.3-.72-.4-.33-.7-.83-.9-1.5-.22,.48-.5,.9-.85,1.25-.34,.35-.73,.65-1.16,.89-.43,.24-.89,.42-1.36,.53s-.95,.17-1.43,.17c-1.52,0-2.69-.36-3.52-1.07s-1.27-1.62-1.3-2.73c-.02-.96,.16-1.77,.53-2.43,.37-.66,.85-1.21,1.46-1.65,.6-.44,1.27-.8,2.01-1.07,.74-.27,1.46-.5,2.16-.69,.7-.19,1.34-.37,1.91-.53,.57-.16,1-.36,1.27-.6v-.42c0-.72-.01-1.36-.04-1.93-.03-.56-.1-1.04-.21-1.43-.11-.39-.28-.68-.5-.89-.22-.2-.53-.3-.91-.3-.54,0-.92,.12-1.16,.37-.24,.25-.41,.55-.5,.91-.09,.36-.15,.75-.18,1.18-.03,.43-.11,.81-.25,1.16-.14,.35-.37,.63-.69,.85-.32,.21-.83,.3-1.51,.26-.5-.04-.91-.19-1.23-.47-.32-.28-.54-.62-.64-1.04-.1-.42-.07-.86,.1-1.33,.17-.47,.49-.91,.97-1.3,.48-.4,1.14-.73,1.98-1,.84-.27,1.88-.4,3.12-.4,2.31,0,4.03,.47,5.17,1.41,1.14,.94,1.7,2.43,1.7,4.46v.53c0,.31,0,.7,.01,1.16,0,.46,.02,.97,.03,1.51,0,.55,.02,1.08,.03,1.59,0,.52,.01,.98,.01,1.4v1.54c0,.22,.01,.43,.04,.64,.03,.2,.07,.39,.12,.57,.06,.18,.13,.31,.22,.4Zm-7.82-1.69c.59,0,1.09-.21,1.51-.62,.42-.42,.62-.96,.62-1.62v-3.91c-.28,.18-.66,.4-1.14,.65-.48,.25-.94,.55-1.39,.91-.44,.36-.82,.79-1.12,1.27-.31,.49-.42,1.06-.35,1.7,.06,.54,.26,.94,.62,1.21,.36,.27,.77,.4,1.23,.4Z"/>
          <path class="cls-1" d="M58.26,47.08c.48-.04,.87,.04,1.18,.24,.3,.19,.52,.45,.64,.78,.12,.32,.14,.67,.07,1.05-.07,.38-.25,.74-.53,1.08-.28,.34-.66,.62-1.14,.85-.48,.22-1.07,.33-1.77,.33h-12.03c-.22,0-.36-.06-.42-.18-.06-.12-.03-.28,.08-.49l8.7-13.83h-3.16c-.46,0-.88,.03-1.25,.08-.37,.06-.7,.17-1,.33-.3,.17-.55,.4-.78,.69-.22,.3-.43,.69-.64,1.19-.13,.28-.34,.42-.64,.42-.43,0-.58-.19-.47-.58,.15-.54,.28-1.07,.39-1.59,.11-.53,.21-1.06,.31-1.59,.06-.33,.26-.47,.61-.42,.3,.04,.67,.07,1.12,.11,.45,.04,1.09,.06,1.93,.06h9.65c.46,0,.57,.21,.33,.64l-8.7,13.86h4.16c.52,0,.88-.15,1.09-.44,.21-.3,.4-.63,.55-1,.16-.37,.35-.71,.57-1.03,.22-.31,.6-.5,1.14-.55Z"/>
          <path class="cls-1" d="M76.05,50.47c.11,.11,.23,.19,.35,.25,.12,.06,.18,.15,.18,.28,0,.28-.2,.42-.61,.42h-.42c-.37,0-.79,0-1.28-.01-.48,0-.96-.09-1.43-.24-.47-.15-.91-.39-1.3-.72-.4-.33-.7-.83-.9-1.5-.22,.48-.5,.9-.85,1.25-.34,.35-.73,.65-1.16,.89-.43,.24-.89,.42-1.36,.53s-.95,.17-1.43,.17c-1.52,0-2.69-.36-3.52-1.07-.83-.71-1.27-1.62-1.3-2.73-.02-.96,.16-1.77,.53-2.43,.37-.66,.85-1.21,1.46-1.65,.6-.44,1.27-.8,2.01-1.07,.74-.27,1.46-.5,2.16-.69,.7-.19,1.34-.37,1.91-.53,.57-.16,1-.36,1.27-.6v-.42c0-.72-.01-1.36-.04-1.93-.03-.56-.1-1.04-.21-1.43-.11-.39-.28-.68-.5-.89-.22-.2-.53-.3-.91-.3-.54,0-.92,.12-1.16,.37-.24,.25-.41,.55-.5,.91-.09,.36-.15,.75-.18,1.18-.03,.43-.11,.81-.25,1.16-.14,.35-.37,.63-.69,.85-.32,.21-.83,.3-1.51,.26-.5-.04-.91-.19-1.23-.47-.32-.28-.54-.62-.64-1.04-.1-.42-.07-.86,.1-1.33,.17-.47,.49-.91,.97-1.3,.48-.4,1.14-.73,1.98-1,.84-.27,1.88-.4,3.12-.4,2.31,0,4.03,.47,5.17,1.41,1.14,.94,1.7,2.43,1.7,4.46v.53c0,.31,0,.7,.01,1.16,0,.46,.02,.97,.03,1.51,0,.55,.02,1.08,.03,1.59,0,.52,.01,.98,.01,1.4v1.54c0,.22,.01,.43,.04,.64,.03,.2,.07,.39,.12,.57,.06,.18,.13,.31,.22,.4Zm-7.82-1.69c.59,0,1.09-.21,1.51-.62,.42-.42,.62-.96,.62-1.62v-3.91c-.28,.18-.66,.4-1.14,.65-.48,.25-.94,.55-1.39,.91-.44,.36-.82,.79-1.12,1.27-.31,.49-.42,1.06-.35,1.7,.06,.54,.26,.94,.62,1.21,.36,.27,.77,.4,1.23,.4Z"/>
          <path class="cls-1" d="M21.4,53.53c1.13,0,2.12,.22,2.98,.67,.86,.44,1.58,1.07,2.16,1.87,.58,.8,1.02,1.77,1.3,2.9,.29,1.13,.4,2.37,.35,3.71-.04,1.18-.24,2.23-.61,3.15-.37,.91-.86,1.69-1.48,2.31-.62,.63-1.34,1.1-2.16,1.43-.82,.32-1.71,.49-2.67,.49-.85,0-1.67-.14-2.47-.42-.79-.28-1.45-.79-1.97-1.55v5.34c0,.57,.08,.99,.25,1.26,.17,.27,.46,.45,.89,.54,.35,.06,.53,.19,.53,.42,0,.26-.19,.38-.55,.36-.31-.02-.77-.04-1.37-.06-.6-.02-1.34-.03-2.2-.03s-1.59,0-2.16,.03c-.57,.02-1.02,.04-1.33,.06-.37,.02-.55-.1-.55-.36,0-.2,.17-.35,.5-.44,.31-.09,.51-.28,.6-.57,.08-.29,.12-.69,.12-1.21v-15.82c0-.54-.04-.94-.12-1.22-.08-.28-.28-.46-.6-.55-.33-.09-.5-.26-.5-.5,0-.28,.15-.42,.44-.44,.24-.04,.54-.08,.91-.12,.37-.05,.78-.11,1.23-.18,.45-.07,.94-.16,1.46-.26,.52-.1,1.04-.24,1.58-.4,.41-.11,.62,0,.64,.33l.14,1.86c.46-.78,1.07-1.4,1.82-1.87,.75-.47,1.7-.71,2.87-.71Zm-1.27,14.83c.46-.04,.86-.24,1.21-.6,.34-.36,.62-.85,.85-1.46,.22-.61,.38-1.32,.47-2.13,.09-.81,.13-1.69,.11-2.63-.02-.96-.12-1.81-.31-2.55-.18-.74-.42-1.36-.72-1.86-.3-.5-.64-.87-1.03-1.11-.39-.24-.8-.34-1.25-.3-.92,.06-1.62,.67-2.09,1.83-.47,1.16-.67,2.95-.6,5.35,.07,1.9,.42,3.3,1.04,4.2,.62,.9,1.39,1.32,2.31,1.26Z"/>
          <path class="cls-1" d="M36.89,68.85c.35,.11,.53,.27,.53,.47,0,.28-.19,.4-.58,.36-.28-.04-.68-.06-1.22-.08-.54-.02-1.22-.03-2.05-.03s-1.52,0-2.05,.03c-.54,.02-.95,.05-1.25,.08-.37,.04-.55-.08-.55-.36,0-.2,.18-.36,.53-.47,.3-.09,.48-.28,.55-.57,.07-.29,.11-.69,.11-1.21v-9.12c0-.52-.04-.92-.11-1.21-.07-.29-.26-.48-.55-.57-.35-.11-.53-.28-.53-.5,0-.26,.17-.42,.5-.5,.24-.04,.56-.1,.96-.18,.4-.08,.84-.19,1.32-.33,.48-.14,.99-.3,1.52-.5,.54-.19,1.06-.42,1.58-.68,.41-.18,.61-.06,.61,.36v13.22c0,.52,.04,.92,.11,1.21,.07,.29,.27,.48,.58,.57Z"/>
          <path class="cls-1" d="M52.83,65.36c.48-.04,.87,.04,1.18,.24,.3,.19,.52,.45,.64,.78,.12,.32,.14,.67,.07,1.05-.07,.38-.25,.74-.53,1.08-.28,.34-.66,.62-1.14,.85-.48,.22-1.07,.33-1.77,.33h-12.03c-.22,0-.36-.06-.42-.18-.06-.12-.03-.28,.08-.49l8.7-13.83h-3.16c-.46,0-.88,.03-1.25,.08-.37,.06-.7,.17-1,.33-.3,.17-.55,.4-.78,.69-.22,.3-.43,.69-.64,1.19-.13,.28-.34,.42-.64,.42-.43,0-.58-.19-.47-.58,.15-.54,.28-1.07,.39-1.59,.11-.53,.21-1.06,.31-1.59,.06-.33,.26-.47,.61-.42,.3,.04,.67,.07,1.12,.11,.45,.04,1.09,.06,1.93,.06h9.65c.46,0,.57,.21,.33,.64l-8.7,13.86h4.16c.52,0,.88-.15,1.09-.44,.21-.3,.4-.63,.55-1,.16-.37,.35-.71,.57-1.03,.22-.31,.6-.5,1.14-.55Z"/>
          <path class="cls-1" d="M69.68,65.36c.48-.04,.87,.04,1.18,.24,.3,.19,.52,.45,.64,.78,.12,.32,.14,.67,.07,1.05-.07,.38-.25,.74-.53,1.08-.28,.34-.66,.62-1.14,.85-.48,.22-1.07,.33-1.77,.33h-12.03c-.22,0-.36-.06-.42-.18-.06-.12-.03-.28,.08-.49l8.7-13.83h-3.16c-.46,0-.88,.03-1.25,.08-.37,.06-.7,.17-1,.33-.3,.17-.55,.4-.78,.69-.22,.3-.43,.69-.64,1.19-.13,.28-.34,.42-.64,.42-.43,0-.58-.19-.47-.58,.15-.54,.28-1.07,.39-1.59,.11-.53,.21-1.06,.31-1.59,.06-.33,.26-.47,.61-.42,.3,.04,.67,.07,1.12,.11,.45,.04,1.09,.06,1.93,.06h9.65c.46,0,.57,.21,.33,.64l-8.7,13.86h4.16c.52,0,.88-.15,1.09-.44,.21-.3,.4-.63,.55-1,.16-.37,.35-.71,.57-1.03,.22-.31,.6-.5,1.14-.55Z"/>
          <path class="cls-1" d="M87.47,68.74c.11,.11,.23,.19,.35,.25,.12,.06,.18,.15,.18,.28,0,.28-.2,.42-.61,.42h-.42c-.37,0-.79,0-1.28-.01-.48,0-.96-.09-1.43-.24-.47-.15-.91-.39-1.3-.72-.4-.33-.7-.83-.9-1.5-.22,.48-.5,.9-.85,1.25-.34,.35-.73,.65-1.16,.89-.43,.24-.89,.42-1.36,.53s-.95,.17-1.43,.17c-1.52,0-2.69-.36-3.52-1.07-.83-.71-1.27-1.62-1.3-2.73-.02-.96,.16-1.77,.53-2.43,.37-.66,.85-1.21,1.46-1.65,.6-.44,1.27-.8,2.01-1.07,.74-.27,1.46-.5,2.16-.69,.7-.19,1.34-.37,1.91-.53,.57-.16,1-.36,1.27-.6v-.42c0-.72-.01-1.36-.04-1.93-.03-.56-.1-1.04-.21-1.43-.11-.39-.28-.68-.5-.89-.22-.2-.53-.3-.91-.3-.54,0-.92,.12-1.16,.37-.24,.25-.41,.55-.5,.91-.09,.36-.15,.75-.18,1.18-.03,.43-.11,.81-.25,1.16-.14,.35-.37,.63-.69,.85-.32,.21-.83,.3-1.51,.26-.5-.04-.91-.19-1.23-.47-.32-.28-.54-.62-.64-1.04-.1-.42-.07-.86,.1-1.33,.17-.47,.49-.91,.97-1.3,.48-.4,1.14-.73,1.98-1,.84-.27,1.88-.4,3.12-.4,2.31,0,4.03,.47,5.17,1.41,1.14,.94,1.7,2.43,1.7,4.46v.53c0,.31,0,.7,.01,1.16,0,.46,.02,.97,.03,1.51,0,.55,.02,1.08,.03,1.59,0,.52,.01,.98,.01,1.4v1.54c0,.22,.01,.43,.04,.64,.03,.2,.07,.39,.12,.57,.06,.18,.13,.31,.22,.4Zm-7.82-1.69c.59,0,1.09-.21,1.51-.62,.42-.42,.62-.96,.62-1.62v-3.91c-.28,.18-.66,.4-1.14,.65-.48,.25-.94,.55-1.39,.91-.44,.36-.82,.79-1.12,1.27-.31,.49-.42,1.06-.35,1.7,.06,.54,.26,.94,.62,1.21,.36,.27,.77,.4,1.23,.4Z"/>
        </g>
      </g>
    </g>
  </g>
</svg>