<?xml version="1.0" encoding="UTF-8"?>
<svg id="Capa_2" data-name="Capa 2" xmlns="http://www.w3.org/2000/svg" viewBox="0 0 179.93 107.34">
  <defs>
    <style>
      .cls-1 {
        fill: #fff;
      }

      .cls-2 {
        fill: none;
      }
    </style>
  </defs>
  <g id="Capa_1-2" data-name="Capa 1">
    <g>
      <rect class="cls-2" width="179.93" height="107.34"/>
      <g>
        <path class="cls-1" d="M54.2,66.99c-6.2,0-9.42-2.89-9.42-7.26,0-7.35,8.13-8.13,15.62-8.54v-2.39c0-4.64-3.03-5.93-6.94-5.93-2.25,0-5.05,.74-6.57,1.56l-.6-1.42c1.7-.87,4.55-1.7,7.17-1.7,4.87,0,8.68,1.98,8.68,7.49v16.49c-1.65,.96-5.05,1.7-7.95,1.7Zm6.2-14.29c-6.29,.37-13.87,.69-13.87,7.03,0,3.4,2.43,5.7,7.67,5.7,2.34,0,5.1-.51,6.2-1.06v-11.67Z"/>
        <path class="cls-1" d="M84.64,66.54v-17.09c0-4-2.43-6.57-7.4-6.57-2.76,0-5.14,.51-6.66,1.1v22.55h-1.75v-23.52c2.16-1.01,5.19-1.7,8.41-1.7,5.83,0,9.14,3.08,9.14,8.13v17.09h-1.75Z"/>
        <path class="cls-1" d="M101.76,66.99c-6.2,0-9.42-2.89-9.42-7.26,0-7.35,8.13-8.13,15.62-8.54v-2.39c0-4.64-3.03-5.93-6.94-5.93-2.25,0-5.05,.74-6.57,1.56l-.6-1.42c1.7-.87,4.55-1.7,7.17-1.7,4.87,0,8.68,1.98,8.68,7.49v16.49c-1.65,.96-5.05,1.7-7.95,1.7Zm6.2-14.29c-6.29,.37-13.87,.69-13.87,7.03,0,3.4,2.43,5.7,7.67,5.7,2.34,0,5.1-.51,6.2-1.06v-11.67Z"/>
        <path class="cls-1" d="M157.41,52.62l-17.73,2.66c.32,6.71,3.95,10.15,9.6,10.15,2.48,0,5.1-.64,6.61-1.56l.69,1.42c-1.56,.96-4.32,1.7-7.3,1.7-6.75,0-11.3-4.27-11.3-12.86,0-7.63,3.95-12.82,10.24-12.82,5.47,0,9.23,3.54,9.23,10.01,0,.41,0,.83-.05,1.29Zm-9.19-9.74c-5.33,0-8.45,4.41-8.59,10.89l16.12-2.39c-.05-5.83-3.08-8.5-7.53-8.5Z"/>
        <path class="cls-1" d="M171.98,66.99c-6.2,0-9.42-2.89-9.42-7.26,0-7.35,8.13-8.13,15.62-8.54v-2.39c0-4.64-3.03-5.93-6.94-5.93-2.25,0-5.05,.74-6.57,1.56l-.6-1.42c1.7-.87,4.55-1.7,7.17-1.7,4.87,0,8.68,1.98,8.68,7.49v16.49c-1.65,.96-5.05,1.7-7.95,1.7Zm6.2-14.29c-6.29,.37-13.87,.69-13.87,7.03,0,3.4,2.43,5.7,7.67,5.7,2.34,0,5.1-.51,6.2-1.06v-11.67Z"/>
        <g>
          <path class="cls-1" d="M29.97,32.82c-3.03,0-5.88,.64-7.95,1.7v15.35c-1.54-.32-3.05-.74-4.5-1.27l.02-.07c.39-1.08,.35-2.39-.22-3.61-.71-1.52-2.05-2.51-3.43-2.69-.75,1.17-.85,2.83-.14,4.36,.08,.17,.17,.34,.27,.5h0c.53,.88,1.29,1.54,2.13,1.9-.68-.2-1.43-.24-2.19-.09,0,0,0,0,0,0-.4,.08-.8,.2-1.19,.39-1.52,.71-2.51,2.05-2.69,3.43,1.17,.75,2.83,.85,4.36,.14,1.22-.57,2.1-1.55,2.49-2.63l.03-.07h0c1.64,.59,3.33,1.06,5.07,1.4v14.98h1.84v-14.68c1.14,.15,2.31,.25,3.48,.28,.27,.01,.54,.02,.81,.02,.08,0,.16,0,.24,0,.15,0,.3,0,.46,0,4.24-.07,7.49-1.27,9.57-3.27,1.72-1.65,2.63-3.84,2.63-6.38,0-5.97-3.99-9.69-11.07-9.69Zm-1.17,17.68c-.14,0-.27,0-.41,0-.08,0-.16,0-.24,0-.1,0-.21,0-.31,0-.02,0-.04,0-.06,0,.12,0,.24,0,.37,0-.19,0-.39,0-.58-.01-.02,0-.03,0-.05,0-.6-.02-1.21-.05-1.77-.09-.07,0-.14-.01-.21-.02-.6-.05-1.14-.11-1.6-.18-.03,0-.05,0-.08-.01v-14.65c1.38-.6,3.68-1.06,6.11-1.06,5.88,0,9.23,2.89,9.23,8.04,0,4.7-3.73,7.88-10.41,7.99Z"/>
          <path class="cls-1" d="M11.79,42.91c.57,1.22,.61,2.54,.22,3.61l-.62,1.7c-.39,1.08-1.27,2.05-2.49,2.62-1.52,.71-3.18,.6-4.36-.14,.18-1.38,1.17-2.72,2.69-3.43,1.14-.53,2.35-.61,3.38-.3-.99-.43-1.87-1.27-2.4-2.4-.71-1.52-.61-3.18,.14-4.36,1.38,.18,2.72,1.17,3.43,2.69Z"/>
          <path class="cls-1" d="M7.31,45.76c-.3-1.36-1.4-2.61-2.98-3.18-1.58-.57-3.22-.33-4.33,.52,.3,1.36,1.4,2.61,2.98,3.18,1.58,.57,3.22,.33,4.33-.52Z"/>
        </g>
        <path class="cls-1" d="M127.8,65.43c-4.61,0-10.18-2.85-10.18-11.3s5.58-11.26,10.18-11.26c1.72,0,3.47,.41,4.87,1.03l.81-1.41c-1.58-.7-3.68-1.18-5.68-1.18-5.63,0-11.95,3.45-11.95,12.82s6.32,12.86,11.95,12.86c2.01,0,4.06-.46,5.68-1.18l-.81-1.41c-1.4,.61-3.15,1.03-4.87,1.03Z"/>
      </g>
    </g>
  </g>
</svg>