<?xml version="1.0" encoding="UTF-8"?>
<svg id="Capa_2" data-name="Capa 2" xmlns="http://www.w3.org/2000/svg" viewBox="0 0 191.72 107.34">
  <defs>
    <style>
      .cls-1 {
        fill: #fff;
      }

      .cls-2 {
        fill: none;
      }
    </style>
  </defs>
  <g id="Capa_1-2" data-name="Capa 1">
    <g>
      <rect class="cls-2" width="191.72" height="107.34"/>
      <g>
        <path class="cls-1" d="M34.43,41.83c0-5.04-5.28-7.97-12.23-7.97C9.68,33.85,0,39.23,0,46.91,0,50.34,2.2,52.29,5.23,52.29c3.86,0,6.6-3.62,6.6-4.99,0-.34-.15-.54-.49-.54-.24,0-1.03,.34-1.66,.34-1.27,0-2.01-.73-2.01-2.3,0-3.28,4.65-8.02,11.05-8.41-1.32,.93-2.49,1.91-3.57,5.28-1.66,5.28-6.36,21.13-6.36,23.92,0,.83,.34,1.12,.93,1.12,.78,0,3.77-.29,5.23-.29,.73,0,1.03-.2,1.03-1.03,0-2.45,2.69-14.18,6.07-24.9,.78-2.45,1.61-3.57,2.2-4.11,1.86,.49,3.33,2.05,3.33,5.09,0,4.99-2.45,8.95-6.21,10.17-.73,.24-1.03,.49-1.03,.93s.34,.73,.88,.73c6.21,0,13.21-4.11,13.21-11.49Z"/>
        <path class="cls-1" d="M66.56,61.98c-.29,0-.39,.15-.73,.39-.39,.29-.78,.49-1.37,.49-.68,0-1.08-.49-1.08-1.66,0-2.01,1.37-4.84,1.37-7.09,0-1.86-1.08-3.08-3.77-3.08-2.89,0-5.77,2.4-6.65,3.47,0,0,.39-1.42,.39-2.2,0-.83-.59-1.27-1.66-1.27-2.84,0-5.48,.73-5.48,1.81,0,.64,.34,.73,.34,1.57,0,1.11-.36,2.93-.79,4.79,0,0,0,0,0,0-.7,2.9-2.09,3.38-2.92,3.38-.88,0-1.66-.73-1.66-2.01,0-3.82,1.71-7.63,1.71-8.8,0-.54-.29-.73-.73-.73-1.13,0-3.23,.93-4.06,.93-.78,0-1.52-.93-4.11-.93-6.99,0-9.93,4.94-9.93,9.78,0,3.77,2.35,5.72,5.23,5.72,3.57,0,6.16-2.59,6.16-2.59,0,0,.83,2.59,3.77,2.59,2.44,0,4.27-1.2,5.44-2.36-.1,.53-.16,.98-.16,1.28,0,.83,.39,1.08,1.03,1.08,.73,0,2.64-.24,4.11-.24,.73,0,1.08-.2,1.08-1.03,0-1.91,1.27-6.07,2.1-7.73,1.08-2.15,2.25-2.98,3.08-2.98,.68,0,1.13,.59,1.13,1.37,0,1.91-1.57,3.86-1.57,6.85,0,2.1,1.57,3.77,4.35,3.77,2.54,0,4.16-1.32,5.28-2.79,.34-.44,.59-.83,.59-1.22,0-.29-.15-.54-.49-.54Zm-30.57-.98c-.64,1.47-1.61,2.3-2.54,2.3-1.08,0-1.66-1.03-1.66-2.3,0-2.69,1.22-7.83,4.01-7.83,1.03,0,1.47,.54,1.47,1.42,0,1.91-.68,5.14-1.27,6.41Z"/>
        <path class="cls-1" d="M92.78,33.85c-10.86,0-21.18,5.38-21.18,13.06,0,3.42,2.2,5.38,5.23,5.38,3.86,0,6.6-3.62,6.6-4.99,0-.34-.15-.54-.49-.54-.24,0-1.03,.34-1.66,.34-1.27,0-2.01-.73-2.01-2.3,0-3.28,4.65-8.02,11.05-8.41-1.32,.93-2.74,1.96-3.57,5.28-1.32,5.33-3.67,18.73-4.5,20.89-.93,2.4-1.61,2.69-1.61,3.33,0,.39,.29,.64,.78,.64,1.37,0,3.86-1.76,4.99-1.76,.83,0,3.62,1.76,6.9,1.76,5.04,0,9.64-3.28,12.23-9.78,1.22-3.08,1.66-6.31,1.66-10.37,0-9.15-6.6-12.52-14.43-12.52Zm5.72,22.16c-1.37,4.5-3.77,7.68-6.65,7.68-1.27,0-2.01-.64-2.01-1.91s2.1-14.04,3.77-19.86c.78-2.84,1.42-4.3,2.2-5.28,2.3,.39,4.26,2.54,4.26,8.17,0,4.16-.54,7.83-1.57,11.2Z"/>
        <path class="cls-1" d="M185.61,50.83c-6.29,0-10,4.19-10.43,8.62,0,0,0,0,0,0,0,.02,0,.03,0,.05-.01,.14-.02,.29-.03,.43-.04,.54-.14,1.22-.47,1.77-.26,.39-.62,.86-1.45,.86-.88,0-1.57-.49-1.57-1.76,0-2.01,1.37-4.45,1.37-6.7,0-1.86-1.08-3.08-3.77-3.08-2.89,0-5.77,2.4-6.65,3.47,0,0,.39-1.42,.39-2.2,0-.83-.59-1.27-1.66-1.27-2.84,0-5.48,.73-5.48,1.81,0,.64,.34,.73,.34,1.57,0,1.05-.32,2.71-.71,4.46-.76,3.29-2.17,3.71-3.01,3.71-.88,0-1.61-.73-1.61-2.01,0-3.23,1.57-6.31,1.57-8.27,0-.83-.54-1.27-1.61-1.27-.98,0-2.79,.34-4.35,.29-1.47-.05-3.18-.44-3.18-1.81s.73-4.79,1.96-4.79c.68,0,.98,.29,.98,1.08,0,1.27,.73,2.49,2.64,2.49,1.42,0,2.64-1.22,2.64-2.84,0-1.91-1.86-3.57-5.97-3.57-3.23,0-7.48,1.27-9.1,8.12-.24,.98-.49,1.27-1.47,1.27-.44,0-1.08,.78-1.08,1.47,0,.39,.29,.68,.78,.68,.73,0,.98,.29,.98,.88,0,.3-.28,2.18-.69,4.55,0,0,0,0,0,0-.55,3.06-2.73,3.72-3.56,3.72-.88,0-1.57-.73-1.57-2.01,0-4.7,3.91-14.62,3.91-18.73,0-2.45-1.61-3.82-4.16-3.82-2.79,0-5.38,1.61-5.38,2.64,0,.39,.24,.59,.68,.59,1.08,0,1.91,.78,1.91,2.4,0,5.05-1.67,9.52-2.79,13.26,0,0,0,0,0,0-1.63,5.48-4.3,6.54-6.45,6.5-2.35-.04-3.67-1.32-3.67-3.03,4.89-.39,8.17-3.08,8.17-5.87,0-2.1-1.52-3.57-4.84-3.57-6.51,0-10.32,4.26-10.32,9s3.23,6.75,7.83,6.75,6.79-2.07,8.4-3.74c.36,2.06,1.88,3.59,4.71,3.59,3.08,0,5.14-1.91,6.16-3.23,.07-.09,.14-.18,.2-.26-.38,1.93-.78,3.78-1.13,5.06-.49,1.86-1.13,2.98-1.76,3.86-.29,.39-.68,.83-.68,1.17,0,.49,.24,.68,.93,.68,1.57,0,7.09-2.35,8.02-5.97,.78-2.84,1.71-8.12,2.35-11.4,.29-1.47,.73-3.18,2.25-3.18,1.03,0,1.47,.44,1.47,1.13,0,1.76-1.61,4.94-1.61,8.07,0,2.25,1.61,4.06,4.84,4.06,2.45,0,4.27-1.2,5.44-2.36-.1,.53-.16,.98-.16,1.28,0,.83,.39,1.08,1.03,1.08,.73,0,2.64-.24,4.11-.24,.73,0,1.08-.2,1.08-1.03,0-1.91,1.27-6.07,2.1-7.73,1.08-2.15,2.25-2.98,3.08-2.98,.68,0,1.13,.59,1.13,1.37,0,1.91-1.57,3.86-1.57,6.85,0,2.1,1.71,3.77,4.5,3.77,3.06,0,5.16-1.89,6.19-3.21,1.07,2.14,3.36,3.4,6.43,3.4,6.02,0,9.49-4.7,9.49-10.17,0-3.37-2.49-5.72-6.11-5.72Zm-68.28,2.2c.78,0,1.17,.39,1.17,1.12,0,1.17-1.81,3.62-4.6,4.16,0-2.89,1.96-5.28,3.42-5.28Zm67.55,10.12c-1.91,0-3.18-1.42-3.18-3.62,0-2.79,1.17-4.6,2.4-5.58,.68-.54,1.17-.68,1.37-.68,.29,0,.44,.15,.44,.39,0,.29-.73,.68-.73,1.91,0,.88,.44,1.42,1.96,2.01,.68,.29,.98,1.03,.98,1.86,0,1.71-1.27,3.72-3.23,3.72Z"/>
      </g>
    </g>
  </g>
</svg>