<?xml version="1.0" encoding="utf-8"?>
<!-- Generator: Adobe Illustrator 23.0.0, SVG Export Plug-In . SVG Version: 6.00 Build 0)  -->
<svg version="1.1" id="Capa_1" xmlns="http://www.w3.org/2000/svg" xmlns:xlink="http://www.w3.org/1999/xlink" x="0px" y="0px"
	 viewBox="0 0 458.7 223.6" style="enable-background:new 0 0 458.7 223.6;" xml:space="preserve">
<style type="text/css">
	.st0{fill:#FFFFFF;}
	.st1{fill:none;stroke:#263238;stroke-linecap:round;stroke-linejoin:round;}
	.st2{fill:#263238;}
	.st3{fill:#FFFFFF;stroke:#263238;stroke-linecap:round;stroke-linejoin:round;}
	.st4{fill:none;stroke:#FFFFFF;stroke-linecap:round;stroke-linejoin:round;}
	.st5{clip-path:url(#SVGID_2_);}
	.st6{opacity:0.4;fill:#90CAF9;enable-background:new    ;}
	.st7{fill:#3592F1;}
	.st8{clip-path:url(#SVGID_4_);}
	.st9{opacity:0.3;fill-opacity:0.7;enable-background:new    ;}
	.st10{clip-path:url(#SVGID_6_);}
	.st11{clip-path:url(#SVGID_8_);}
	.st12{clip-path:url(#SVGID_10_);}
	.st13{opacity:0.4;fill:#15B54A;stroke:#263238;stroke-linecap:round;stroke-linejoin:round;enable-background:new    ;}
</style>
<path class="st0" d="M382.9,0v112c-42.1,0-61.1,30.2-82.4,57.4c-1,1.3-2.1,2.7-3.1,4c-8.8,11-18.3,21.3-30,28.5
	c-10.4,6.4-22.7,10.4-38,10.4c-26.6,0-44-12.1-58.6-27.8c-2.5-2.7-5-5.6-7.4-8.5c-0.8-1-1.6-2-2.4-3c-1.4-1.8-2.9-3.6-4.3-5.5
	c-1.9-2.5-3.9-5-5.8-7.6c-18.7-24.3-37.9-48-75.1-48V0H382.9z"/>
<path class="st0" d="M382.9,0v112c-42.1,0-61.1,30.2-82.4,57.4c-1,1.3-2.1,2.7-3.1,4c-8.8,11-18.3,21.3-30,28.5
	c-10.4,6.4-22.7,10.4-38,10.4c-26.6,0-44-12.1-58.6-27.8c-2.5-2.7-5-5.6-7.4-8.5c-0.8-1-1.6-2-2.4-3c-1.4-1.8-2.9-3.6-4.3-5.5
	c-1.9-2.5-3.9-5-5.8-7.6c-18.7-24.3-37.9-48-75.1-48V0H382.9z"/>
<g>
	<path class="st1" d="M141.7,41.3c0.8,3.3,0.5-2.8,2.1-10.2s4.5-4.5,4.5-4.5"/>
	<line class="st1" x1="141.2" y1="33.7" x2="146.3" y2="31.6"/>
	<path class="st1" d="M150.6,29.1c0,0-3.1,6.4,1.5,9.1"/>
	<path class="st1" d="M154.9,27.3c0,0,5.1,2.8,1.9,8.9"/>
	<line class="st1" x1="151.4" y1="31.2" x2="155.1" y2="33.8"/>
	<line class="st1" x1="154.3" y1="30.1" x2="151.4" y2="34.6"/>
	<line class="st1" x1="292.5" y1="61.3" x2="296" y2="64.6"/>
	<line class="st1" x1="296" y1="60.5" x2="293.1" y2="64.9"/>
	<line class="st1" x1="299.4" y1="61.7" x2="302.9" y2="60.4"/>
	<line class="st1" x1="304.6" y1="56.8" x2="306.7" y2="58.6"/>
	<line class="st1" x1="308.4" y1="54.5" x2="305.7" y2="63.7"/>
	<polygon class="st1" points="169.6,49.7 178.9,43.2 191.4,44 192.1,59.9 183,66.4 171.8,65.5 	"/>
	<polyline class="st1" points="171.8,65.5 180.9,59 192.1,59.9 	"/>
	<line class="st1" x1="180.9" y1="59" x2="178.9" y2="43.2"/>
	<polyline class="st1" points="169.6,49.7 182,51.1 191.4,44 	"/>
	<line class="st1" x1="182" y1="51.1" x2="183" y2="66.4"/>
	<polygon class="st1" points="287.2,15.3 283.1,28.2 296,26.5 	"/>
	<line class="st1" x1="287.2" y1="15.3" x2="289.5" y2="27.3"/>
	<polyline class="st1" points="289.2,25.4 290.7,25.1 291.1,27.1 	"/>
	<line class="st1" x1="122.1" y1="69.2" x2="128.6" y2="72.3"/>
	<line class="st1" x1="126.5" y1="66.7" x2="124.6" y2="73.5"/>
	<path class="st1" d="M127.4,63.4c0.4-0.4,1-0.4,1.4,0c0.1,0.1,0.2,0.2,0.2,0.2c0.6,1-0.6,3.1-0.6,3.1l2.6-1"/>
	<polygon class="st1" points="211.9,3.8 213.4,6.8 216.7,7.3 214.3,9.6 214.9,12.9 211.9,11.4 209,12.9 209.5,9.6 207.1,7.3 
		210.4,6.8 	"/>
	<g id="freepik--Character--inject-188">
		<path class="st2" d="M298.7,171.3c-3.8,3.1-33,23.2-74.7,20c-2.2-19-10.8-97-1.1-109.2c0,0,23.7-11.3,45.4-6.5s30.3,9.3,31.8,13.2
			C301.2,91.7,299.5,147,298.7,171.3z"/>
		<path class="st3" d="M267.5,83.9c-12.5,10.8-28.6,8.5-28.3,0.2c0.1-1.3,1.5-2.9,1.5-2.9l-0.5-0.8l-2.2-3.2
			c-1.5-2.4-3.5-5.5-4.8-7.6c-1.2-1.8,27.1-19.3,27.1-9.2c0,14.1,6.9,16.7,6.9,16.7C269.8,78.1,272.3,79.8,267.5,83.9z"/>
		<path class="st4" d="M275.4,105.4c0,0-2.5,8.7-1.3,11.1"/>
		<path class="st4" d="M272.5,80.2c0,8.4-25,16.6-32.3,8.1"/>
		<path class="st2" d="M252,70.5c0,0-1.7,6.3-9.4,11.2c-0.4-0.6-1-1.1-1.7-1.3c-0.2,0-0.5,0-0.7,0l-2.2-3.2
			C242,74.4,252,70.5,252,70.5z"/>
		<path class="st3" d="M255.4,62.8c0,0-0.1,6.2-1.4,7.5c-9.9,9.4-19.5,10.2-21.1,7.8c-10.8-16.8-8.2-21.3-9.3-24.1
			c-1.9-5.1-4.3-13.3-3.2-18.3c2.3-11.1,23.3-19.8,34.4-8.6c5.3,5.4,7,17.1,5.8,26.7"/>
		<path class="st1" d="M225,48.7c0,0-2.9-1.3-3.6,0.2"/>
		<path class="st1" d="M232.2,48.8c0,0,6.1-2.5,8.9,0.5"/>
		<path class="st2" d="M239,53.2c0.1,0.9-0.4,1.7-1,1.8c-0.7,0.1-1.3-0.6-1.4-1.5s0.4-1.7,1-1.8C238.2,51.6,238.8,52.3,239,53.2z"/>
		<path class="st2" d="M226.9,53.4c0.1,0.9-0.4,1.7-1,1.8c-0.7,0.1-1.3-0.6-1.4-1.5s0.4-1.7,1-1.8C226.3,51.8,226.8,52.5,226.9,53.4
			z"/>
		<path class="st3" d="M227.2,51c0.8,1.4,0.4,3.8-0.8,7s-0.2,4.4,4.2,4.8"/>
		<path class="st1" d="M230.7,68.3c0,0,5.7-0.5,8.2-1.9"/>
		<path class="st2" d="M266.6,36.2c0-4.2-4.1-12.8-11.4-13.8l0,0c-4.1-4.4-10.1-6-17.4-4.3C221,21.9,216,38.4,215.3,41.2
			c-0.1,0.2-0.1,0.4-0.1,0.4l4.5-1.2l-1.9,3.8l2.4,1.5l-0.5,0.6l2.7,2.6l-0.8-4.8c0.5-3.1,4.1-7.4,4.1-7.4c-1.3,1.7-2.1,3.7-2.3,5.8
			c1.4-3.7,9.9-7.1,9.9-7.1c-2.8,2.2-4.2,6.6-4.2,6.6c2.6-3.2,8.8-5.3,12.7-6.5c1.3,3.2,3.5,6.5,6.5,8.4c2.8,1.8,2.8,5.4,2.8,5.4
			c3.1,2.2,5.3,5.2,6.4,8.8l3.5,4.7C260.4,62.9,266.6,55.3,266.6,36.2z"/>
		<path class="st3" d="M252.1,50.6c-1.2-2.5,3-9.1,6-8.3c1.7,0.5,3.8,3.5,4.2,6.7c0.5,3.1-1.8,9.2-4.2,10.5
			c-1.5,0.8-2.8-1.5-2.8-1.5"/>
		<path class="st0" d="M300.5,169.4c-1,1.3-2.1,2.7-3.1,4c-8.8,11-18.3,21.3-30,28.5l-96.6-17.4c-2.5-2.7-5-5.6-7.4-8.5
			c-0.8-1-1.6-2-2.4-3c-1.4-1.8-2.9-3.6-4.3-5.5c-1.9-2.5-3.9-5-5.8-7.6l27.5-7.9l0.8,0.1l2,0.3l12.9,1.8l16.9,2.4l9.6,1.4l22.1,3.1
			l2.1,0.3l0.5,0.1l18.5,2.6l16.9,2.4l18,2.5L300.5,169.4z"/>
		<path class="st3" d="M295.9,173.4"/>
		<path class="st3" d="M297.4,173.4"/>
		<path class="st3" d="M150.9,159.9l27.5-7.9l0.8,0.1l2,0.3l12.9,1.8l16.9,2.4l9.6,1.4l22.1,3.1l2.1,0.3l0.5,0.1l18.5,2.6l16.9,2.4
			l18,2.5l1.8,0.3"/>
		<path class="st3" d="M160.9,172.9"/>
		<path class="st3" d="M156.7,167.5l16.5-7.3l20.3,1.1l12.2,0.6l8.4,0.4l-4.9,4.2l-7.6,6.5l-5.7,4.9l-8.2-0.5l-24.3-1.5"/>
		<path class="st2" d="M224.4,81.4c-10.4,4.2-12.6,13.8-30.3,51.5c0,0-7.8,1.6-12.1,11.1c-4.2,9.5,2.8,17.1,10.9,16.8
			c0,0,3.2,2.8,9.9,2.5s36.1-45.3,36.1-45.3L224.4,81.4z"/>
		<path class="st4" d="M197.3,135.1c4.6,4.1,7.3,10.2,5.9,16.9"/>
		<path class="st4" d="M201.7,137.1c0,0,5.7,1.2,6.6,8.5"/>
		<path class="st4" d="M218.4,115.7c-2.7-6.7-3.6-13.9-2.7-21"/>
		<path class="st4" d="M217.6,106.1c-0.5,3,2.6,18.8,2.6,35.5"/>
		<path class="st2" d="M295.3,84.5c13,6.5,14.5,26.6,2.3,50.6c-8.7,17-20.6,42-28.2,43.6c-7.5,1.7-14.9-3-14.9-3s-6.4-0.3-8.3-4.8
			c-5.3-12.4,8.1-28,13.4-24.3c0,0,16.8-36.6,19.9-38.9L295.3,84.5z"/>
		<path class="st4" d="M244.9,163.4c-1.7-8.5,11.8-18.7,14.6-16.7c0,0,10,0.5,11.5,7.5"/>
		<path class="st4" d="M281.6,165.2c5.8-10.3,16.1-30.1,16.1-30.1"/>
		<path class="st4" d="M259.5,146.7c0,0,7-4.2,12.2-0.2"/>
		<path class="st4" d="M261.9,141.6c0,0,3.8-8.5,7.8-16.3c3.9-7.8,12.9-19.4,16.7-19.9"/>
		<path class="st0" d="M188.1,156.8c-0.8-0.1-1.7-0.2-2.4-0.7c-12.1-6.3-21.4-16.7-27-24.1c-2.2-2.8-4.2-5.8-6.1-8.9l2.9-12.4
			c0,0,2.7,7.1,13.7,14.1c11,7,23.9,9.2,28.1,16.3C201,147.2,194.5,157.1,188.1,156.8z"/>
		<g>
			<g>
				<g>
					<defs>
						<path id="SVGID_1_" d="M188.1,156.8c-0.8-0.1-1.7-0.2-2.4-0.7c-12.1-6.3-21.4-16.7-27-24.1c-2.2-2.8-4.2-5.8-6.1-8.9l2.9-12.4
							c0,0,2.7,7.1,13.7,14.1c11,7,23.9,9.2,28.1,16.3C201,147.2,194.5,157.1,188.1,156.8z"/>
					</defs>
					<clipPath id="SVGID_2_">
						<use xlink:href="#SVGID_1_"  style="overflow:visible;"/>
					</clipPath>
					<g class="st5">
						<path class="st6" d="M188.1,156.8c-0.2-0.9-0.4-1.8-0.7-2.6c-2.5-6.3-17.8-18.9-17.8-18.9c-3.6-0.1-7.6-1.6-10.9-3.2
							c-2.2-2.8-4.2-5.8-6.1-8.9l2.9-12.4c0,0,2.7,7.1,13.7,14.1c11,7,23.9,9.2,28.1,16.3C201,147.2,194.5,157.1,188.1,156.8z"/>
					</g>
				</g>
			</g>
		</g>
		<path class="st1" d="M188.1,156.8c-0.8-0.1-1.7-0.2-2.4-0.7c-12.1-6.3-21.4-16.7-27-24.1c-2.2-2.8-4.2-5.8-6.1-8.9l2.9-12.4
			c0,0,2.7,7.1,13.7,14.1c11,7,23.9,9.2,28.1,16.3C201,147.2,194.5,157.1,188.1,156.8z"/>
		<path class="st3" d="M160.8,122.4c0,0-1.5,6.6-5.5,5.1c-2.2-0.8-6.2-7.1-7-10.4L160.8,122.4z"/>
		<path class="st3" d="M143.5,81.8l3.2-1.7c0,0,9.1,0.1,14.7,4.7c5.1,4.1,7.7,10.7,7.7,10.7s19.9-11,40.2-4.7l8.3,46.2l-38.1,2.5
			l-23.7-22.6L143.5,81.8z"/>
		<path class="st7" d="M220.3,138.8c0,0-4.5-0.2-10.4,0.1c-9.1,0.3-21.5,1.3-27.2,4.6l-0.3-0.1l-5.2-1.8l-0.1-0.2
			c-1-1.4-8.8-12.6-19.8-17.1l-15.7-43.9c0,0,16.3,0.7,25.2,15.4l4.5,1.6c0,0,26.6-7.9,41.5-5.1L220.3,138.8z"/>
		<g>
			<g>
				<g>
					<defs>
						<path id="SVGID_3_" d="M220.3,138.8c0,0-4.5-0.2-10.4,0.1c-9.1,0.3-21.5,1.3-27.2,4.6l-0.3-0.1l-5.2-1.8l-0.1-0.2
							c-1-1.4-8.8-12.6-19.8-17.1l-15.7-43.9c0,0,16.3,0.7,25.2,15.4l4.5,1.6c0,0,26.6-7.9,41.5-5.1L220.3,138.8z"/>
					</defs>
					<clipPath id="SVGID_4_">
						<use xlink:href="#SVGID_3_"  style="overflow:visible;"/>
					</clipPath>
					<g class="st8">
						<path class="st9" d="M177,141.4c-1-1.4-8.8-12.6-19.8-17.1l-15.7-43.9c0,0,16.3,0.7,25.2,15.4L177,141.4z"/>
						<path class="st9" d="M209.8,138.8c-9.1,0.3-21.5,1.3-27.2,4.6l-0.3-0.1L171.9,99c0,0,8.5-1.9,11.1-0.9
							C183,98.1,200.4,110.9,209.8,138.8z"/>
					</g>
				</g>
			</g>
		</g>
		<path class="st1" d="M220.3,138.8c0,0-4.5-0.2-10.4,0.1c-9.1,0.3-21.5,1.3-27.2,4.6l-0.3-0.1l-5.2-1.8l-0.1-0.2
			c-1-1.4-8.8-12.6-19.8-17.1l-15.7-43.9c0,0,16.3,0.7,25.2,15.4l4.5,1.6c0,0,26.6-7.9,41.5-5.1L220.3,138.8z"/>
		<line class="st1" x1="171.1" y1="97.5" x2="181.4" y2="140"/>
		<line class="st1" x1="177.1" y1="141.6" x2="167.1" y2="99.1"/>
		<path class="st3" d="M151.8,123.2c-2.3-0.6-6.8-14.3-4.8-20.2c0,0,2.5-4.3,3.5-4.6c1.6-0.5,8-0.3,7.7,0.8
			c-0.7,2.5-5.6,2.5-5.6,2.5l-1.6,2.9l0.1,1.6c0,0,2.3-1.7,3.1-1.6c0.5,0,2.7,1.2,4.5,2.1c1.5,0.8,2.5,1.2,2.2,2
			c-1.2,2.5-6,0.7-6,0.7l-1.8,2.8c0,0,1.8,0.3,2.5,0.4c0.8,0.1,7.1,4.4,7,4.9c-0.8,2.1-6.8-0.2-6.8-0.2l-1.1,0.9c0,0,4.5,1.2,5,1.3
			c0.7,0.2,3.5,2.4,3.4,2.6c-0.3,1.8-4.1,0.5-4.1,0.5l-3.3-0.2c-0.5,0.5-1.1,0.8-1.8,0.9"/>
		<path class="st1" d="M151.1,106.1c0,0-2.2,1.8-2.7,2.3s-0.4,2.2-0.4,2.2"/>
		<path class="st1" d="M149.5,114.2c0,1.8,1.2,2.9,1.8,3.5c0.5,0.6-0.9,2.2,0.7,3.3"/>
		<path class="st0" d="M254.4,171.2c-4.5,1.2-9.4-6.7-15.4-15.3l0,0c-3.9-5.7-8.4-11.7-13.4-15.6c-0.4-0.3-0.8-0.6-1.2-0.9l3-14.9
			c6.1,3.2,10,8.4,16.4,13.7c10.3,8.5,19.4,13.8,21.9,17.6C268.1,159.6,262.1,169.1,254.4,171.2z"/>
		<g>
			<g>
				<g>
					<defs>
						<path id="SVGID_5_" d="M254.4,171.2c-4.5,1.2-9.4-6.7-15.4-15.3l0,0c-3.9-5.7-8.4-11.7-13.4-15.6c-0.4-0.3-0.8-0.6-1.2-0.9
							l3-14.9c6.1,3.2,10,8.4,16.4,13.7c10.3,8.5,19.4,13.8,21.9,17.6C268.1,159.6,262.1,169.1,254.4,171.2z"/>
					</defs>
					<clipPath id="SVGID_6_">
						<use xlink:href="#SVGID_5_"  style="overflow:visible;"/>
					</clipPath>
					<g class="st10">
						<path class="st6" d="M239.1,155.9c-3.9-5.7-8.4-11.7-13.4-15.6c0.7,0,1.3-0.1,2-0.3C227.6,140.1,235.6,146.5,239.1,155.9z"/>
					</g>
				</g>
			</g>
		</g>
		<path class="st1" d="M254.4,171.2c-4.5,1.2-9.4-6.7-15.4-15.3l0,0c-3.9-5.7-8.4-11.7-13.4-15.6c-0.4-0.3-0.8-0.6-1.2-0.9l3-14.9
			c6.1,3.2,10,8.4,16.4,13.7c10.3,8.5,19.4,13.8,21.9,17.6C268.1,159.6,262.1,169.1,254.4,171.2z"/>
		<path class="st0" d="M229.1,138.8c-0.3,0.5-0.8,1-1.4,1.2c-0.2,0.1-0.3,0.2-0.5,0.2H227c-4.8,1.2-15.4-1.3-15.4-1.3
			s-7-3.3-7.5-4.1c-0.3-0.6-0.5-1.2-0.8-1.9l-0.2-0.5c0,0-2.5-1.4-2.8-2.5s-0.8-1.4,0.7-1.6s9.9,0,9.9,0l-9.1-3.7c0,0-6-3.1-6.6-4.1
			s-1.2-1.8,1.8-1.4c3.1,0.5,9.8,2.4,9.8,2.4l5.3,1.2l-5.3-2.2c0,0-10.4-1.2-8.4-4.5h5.9c3.3,0.2,6.7,0.5,9.9,1.2
			c1.7,0.5,13.1,7.5,13.1,7.5L229.1,138.8z"/>
		<g>
			<g>
				<g>
					<defs>
						<path id="SVGID_7_" d="M229.1,138.8c-0.3,0.5-0.8,1-1.4,1.2c-0.2,0.1-0.3,0.2-0.5,0.2H227c-4.8,1.2-15.4-1.3-15.4-1.3
							s-7-3.3-7.5-4.1c-0.3-0.6-0.5-1.2-0.8-1.9l-0.2-0.5c0,0-2.5-1.4-2.8-2.5s-0.8-1.4,0.7-1.6s9.9,0,9.9,0l-9.1-3.7
							c0,0-6-3.1-6.6-4.1s-1.2-1.8,1.8-1.4c3.1,0.5,9.8,2.4,9.8,2.4l5.3,1.2l-5.3-2.2c0,0-10.4-1.2-8.4-4.5h5.9
							c3.3,0.2,6.7,0.5,9.9,1.2c1.7,0.5,13.1,7.5,13.1,7.5"/>
					</defs>
					<clipPath id="SVGID_8_">
						<use xlink:href="#SVGID_7_"  style="overflow:visible;"/>
					</clipPath>
					<g class="st11">
						<path class="st6" d="M227,140.2c-4.8,1.2-15.4-1.3-15.4-1.3s-7-3.3-7.5-4.1c-0.3-0.6-0.5-1.2-0.8-1.9l8.6,0.9
							c-0.6,1.1-0.6,2.5,0,3.5C212.9,139.1,223.8,140.7,227,140.2z"/>
					</g>
				</g>
			</g>
		</g>
		<path class="st1" d="M229.1,138.8c-0.3,0.5-0.8,1-1.4,1.2c-0.2,0.1-0.3,0.2-0.5,0.2H227c-4.8,1.2-15.4-1.3-15.4-1.3
			s-7-3.3-7.5-4.1c-0.3-0.6-0.5-1.2-0.8-1.9l-0.2-0.5c0,0-2.5-1.4-2.8-2.5s-0.8-1.4,0.7-1.6s9.9,0,9.9,0l-9.1-3.7c0,0-6-3.1-6.6-4.1
			s-1.2-1.8,1.8-1.4c3.1,0.5,9.8,2.4,9.8,2.4l5.3,1.2l-5.3-2.2c0,0-10.4-1.2-8.4-4.5h5.9c3.3,0.2,6.7,0.5,9.9,1.2
			c1.7,0.5,13.1,7.5,13.1,7.5"/>
		<line class="st1" x1="203.1" y1="132.3" x2="213.5" y2="133.8"/>
		<polygon class="st0" points="198.7,166.1 243.9,167.9 239.5,183.5 183.9,181.4 		"/>
		<g>
			<g>
				<g>
					<defs>
						<polygon id="SVGID_9_" points="198.7,166.1 243.9,167.9 239.5,183.5 183.9,181.4 						"/>
					</defs>
					<clipPath id="SVGID_10_">
						<use xlink:href="#SVGID_9_"  style="overflow:visible;"/>
					</clipPath>
					<g class="st12">
						<polygon class="st13" points="198.7,166.1 243.9,167.9 239.5,183.5 183.9,181.4 						"/>
					</g>
				</g>
			</g>
		</g>
		<polygon class="st1" points="198.7,166.1 243.9,167.9 239.5,183.5 183.9,181.4 		"/>
	</g>
</g>
<rect x="375.2" class="st0" width="83.4" height="112"/>
<rect class="st0" width="81.1" height="112"/>
</svg>
