<?xml version="1.0" encoding="utf-8"?>
<!-- Generator: Adobe Illustrator 23.0.0, SVG Export Plug-In . SVG Version: 6.00 Build 0)  -->
<svg version="1.1" id="Capa_1" xmlns="http://www.w3.org/2000/svg" xmlns:xlink="http://www.w3.org/1999/xlink" x="0px" y="0px"
	 viewBox="0 0 500 394.3" style="enable-background:new 0 0 500 394.3;" xml:space="preserve">
<style type="text/css">
	.st0{fill:#90CAF9;}
	.st1{fill:#DDFBF6;}
	.st2{fill:#3592F1;}
	.st3{opacity:0.5;}
	.st4{fill:#FFFFFF;}
	.st5{fill:#15B54A;}
	.st6{opacity:0.5;fill:#90CAF9;enable-background:new    ;}
	.st7{fill:#FFFFFF;stroke:#263238;stroke-width:0.827;stroke-linecap:round;stroke-linejoin:round;}
	.st8{fill:#263238;stroke:#263238;stroke-width:0.827;stroke-linecap:round;stroke-linejoin:round;}
	.st9{fill:#263238;}
	.st10{fill:none;stroke:#263238;stroke-width:0.6202;stroke-linecap:round;stroke-linejoin:round;}
	.st11{opacity:0.9;enable-background:new    ;}
	.st12{fill:#90CAF9;stroke:#263238;stroke-width:0.827;stroke-linecap:round;stroke-linejoin:round;}
	.st13{fill:none;stroke:#263238;stroke-width:0.827;stroke-linecap:round;stroke-linejoin:round;}
	.st14{opacity:0.2;enable-background:new    ;}
	
		.st15{opacity:0.59;fill:none;stroke:#90CAF9;stroke-width:0.6202;stroke-linecap:round;stroke-linejoin:round;enable-background:new    ;}
	.st16{fill:#90CAF9;stroke:#263238;stroke-width:0.6202;stroke-linecap:round;stroke-linejoin:round;}
	.st17{opacity:0.1;enable-background:new    ;}
	.st18{clip-path:url(#SVGID_2_);}
	.st19{fill:none;stroke:#FFFFFF;stroke-width:0.6202;stroke-linecap:round;stroke-linejoin:round;}
	.st20{opacity:0.5;fill:#FFFFFF;stroke:#263238;stroke-miterlimit:10;enable-background:new    ;}
	.st21{clip-path:url(#SVGID_4_);}
	.st22{fill:none;stroke:#263238;stroke-width:0.827;stroke-miterlimit:10;}
	.st23{clip-path:url(#SVGID_6_);}
	.st24{clip-path:url(#SVGID_8_);}
	.st25{clip-path:url(#SVGID_10_);}
	.st26{clip-path:url(#SVGID_12_);}
	.st27{fill:#15B54A;stroke:#263238;stroke-linecap:round;stroke-linejoin:round;}
	.st28{clip-path:url(#SVGID_14_);}
	.st29{opacity:0.44;}
	.st30{clip-path:url(#SVGID_16_);}
	.st31{clip-path:url(#SVGID_18_);}
	.st32{clip-path:url(#SVGID_20_);}
	.st33{clip-path:url(#SVGID_22_);}
	.st34{clip-path:url(#SVGID_24_);}
	.st35{clip-path:url(#SVGID_26_);}
	.st36{clip-path:url(#SVGID_28_);}
	.st37{clip-path:url(#SVGID_30_);}
	.st38{clip-path:url(#SVGID_32_);}
</style>
<g id="freepik--background-simple--inject-1--inject-167">
	<path class="st0" d="M453.2,320.4c0.4-1.3,0.5-2.7,0.3-4.1c-0.3-6.2-6.2-4.8-11.6-12.3c-2.7-3.7-2.8-7.4-3.6-11.7
		c-2.9-15.5-13.9-28.6-27.9-35.5c-6.7-3.3-11.2-5.7-13.7-13.3c-2.1-6.4-2-13.2-3.4-19.8c-2.9-14.3-8.5-29.8-19.9-39.4
		c-6.5-5.5-14.2-9.4-21.6-13.6c-10-5.8-18.1-14.1-26.5-22c-24.3-23-56.4-32.9-89.4-24.9c-4.5,1.1-8.9,2.5-13.1,4.4
		c-21.6,9.3-20.2,42.8-29.8,47.6c-7.7,3.9-22.1-5.8-29.4-8.2c-25.1-8.2-48.1,6.5-51.4,32.2c-1,7.5-8.2,9.5-14.2,12.1
		c-17.5,7.5-10,26.5-12.9,41c-2.4,12.3-17.1,8.9-26,25s-3.8,19.9-8.6,25s-18.2,5.1-21.3,11.6c-0.9,1.9-1.7,3.9-2.3,5.9H453.2z"/>
	<path class="st1" d="M453.2,320.4c0.4-1.3,0.5-2.7,0.3-4.1c-0.3-6.2-6.2-4.8-11.6-12.3c-2.7-3.7-2.8-7.4-3.6-11.7
		c-2.9-15.5-13.9-28.6-27.9-35.5c-6.7-3.3-11.2-5.7-13.7-13.3c-2.1-6.4-2-13.2-3.4-19.8c-2.9-14.3-8.5-29.8-19.9-39.4
		c-6.5-5.5-14.2-9.4-21.6-13.6c-10-5.8-18.1-14.1-26.5-22c-24.3-23-56.4-32.9-89.4-24.9c-4.5,1.1-8.9,2.5-13.1,4.4
		c-21.6,9.3-20.2,42.8-29.8,47.6c-7.7,3.9-22.1-5.8-29.4-8.2c-25.1-8.2-48.1,6.5-51.4,32.2c-1,7.5-8.2,9.5-14.2,12.1
		c-17.5,7.5-10,26.5-12.9,41c-2.4,12.3-17.1,8.9-26,25s-3.8,19.9-8.6,25s-18.2,5.1-21.3,11.6c-0.9,1.9-1.7,3.9-2.3,5.9H453.2z"/>
	<path class="st2" d="M223.3,310.1c0,0-9.3-33.2-17.8-43.2s-25.4-14.1-25.4-17.1c0-5.1,21.2,8.2,17.1,4.5s-35.6-24-27.8-23.3
		s23,13,28.1,15.4s-5.1-15.4-13-22.3s-13.7-14.7-7.5-12.7s17.8,12,24.7,22.3s11.6,21.6,10.6,14s-10.3-26-6.9-24s12,19.5,13.4,28.4
		s1.7,8.6,2.1,12.7s1.4-21.6,4.4-15.4s3.1,13.4,3.1,15.8s5.1-8.6,5.1-3.1s-1,12.3-1,13.4s11-24,12.3-21.9s-1,8.9-1,8.9
		s25-29.5,24-23.6s-7.5,14.7-6.5,16.1c1,1.4,34.3-24.3,30.5-17.5s-12.3,11.6-9.9,12.7s30.8-4.1,27.4-0.4s-23,1.7-24.3,5.5
		s30.6,9,30.9,13.9s-29.5-6-33.6-6.4s16.5,8.9,15.4,13.7s-23.3-8.9-24.7-9.3s5.1,5.5,2.4,7.2s-9.6-2.1-16.5-1.7s-2.1,3.8-2.4,6.2
		s-8.9-1.4-13.4-0.3s7.2,4.5,3.4,6.2s-12.3,5.8-12.7,7.5s21.9-4.5,19.2-1.4s-8.9,6.2-8.2,8.2s9.6-6.5,9.3-1s-0.3,7.2,1,5.1
		c1.3-2.1,5.1-20.6,6.9-16.1s0.7,15.1,0.7,15.1s7.2-8.6,6.2-4.5c-0.9,2.9-2.3,5.5-4.1,7.9c0,0,14.4-3.8,9.6-1s-18.5,7.9-18.5,7.9
		L223.3,310.1z"/>
	<path class="st0" d="M326.5,284.5c0.7-0.4,1.2-1.2,1.3-2c0-0.7-0.5-1.4-1.3-1.4c-0.1,0-0.1,0-0.2,0c-1.1,0.1-2.1,1.9-2.4,2.8
		c0,0.1-0.2,1.5-0.1,1.5C324.7,285.3,325.6,284.9,326.5,284.5z"/>
	<path class="st0" d="M316.7,305.9c-0.1-0.6-0.7-1-1.3-0.9h-0.1c-0.9,0.3-1.3,1.9-1.3,2.7c0,0,0.1,0.7,0.1,1
		c-0.1-0.3-0.2-0.5-0.3-0.8s-0.3-0.8-0.4-1.1c-0.1-0.2-0.1-0.4-0.2-0.6s-0.1-0.4-0.2-0.6s-0.1-0.6-0.2-0.9c0.7-0.2,1.4-0.5,2-0.9
		c0.5-0.4,0.9-1,0.9-1.7c0-0.6-0.6-1-1.1-1h-0.1c-0.9,0.2-1.6,1.7-1.7,2.5c0,0,0,0.2,0,0.4l-0.1-0.9c-0.1-0.9-0.2-1.8-0.3-2.7
		c0-0.2,0-0.4-0.1-0.6c0.7-0.2,1.4-0.5,2-0.9c0.5-0.4,0.9-1,0.9-1.7c0-0.6-0.6-1-1.1-1H314c-0.9,0.1-1.6,1.7-1.7,2.5
		c0,0,0,0.2,0,0.5c-0.1-0.5-0.1-1-0.2-1.5c-0.1-0.8-0.3-1.7-0.6-2.5c0.7-0.2,1.4-0.5,2.1-0.9c0.5-0.4,0.9-1,0.9-1.7
		c0-0.6-0.6-1-1.1-1h-0.1c-0.9,0.2-1.6,1.7-1.7,2.5c0,0,0,0.8,0,1.1l0,0c-0.3-0.8-0.6-1.6-1-2.3c-0.4-0.7-0.7-1.3-1.2-1.9
		c-0.4-0.6-0.8-1.1-1.1-1.5c-0.2-0.2-0.4-0.5-0.5-0.6l0,0l-0.3-1.1c-0.3-0.8-1.4-2-2.3-1.9c-0.6,0.1-1,0.6-0.9,1.2v0.1
		c0.2,0.6,0.7,1.1,1.3,1.4c0.7,0.2,1.4,0.3,2.2,0.3c0.2,0.2,0.4,0.4,0.5,0.7c0.4,0.4,0.7,1,1.1,1.5l0.3,0.5l-0.6-0.6
		c-0.6-0.5-2.2-1.1-2.9-0.6c-0.5,0.3-0.6,1-0.3,1.5c0,0,0,0.1,0.1,0.1c0.5,0.5,1.1,0.7,1.8,0.6c0.7-0.1,1.4-0.4,2.1-0.7
		c0.2,0.4,0.5,0.8,0.6,1.1c0.4,0.7,0.7,1.5,0.9,2.3v0.1c-0.1-0.1-0.7-0.9-0.7-0.9c-0.6-0.6-2-1.4-2.9-1c-0.5,0.3-0.7,0.9-0.4,1.5
		c0,0,0,0.1,0.1,0.1c0.4,0.5,1.1,0.8,1.7,0.8c0.8-0.1,1.5-0.2,2.2-0.5c0.2,0.8,0.4,1.6,0.5,2.4c0.1,0.6,0.1,1.2,0.2,1.9
		c-0.1-0.2-0.6-0.9-0.7-0.9c-0.6-0.6-2-1.4-2.9-1c-0.5,0.3-0.7,0.9-0.4,1.5c0,0,0,0.1,0.1,0.1c0.4,0.5,1.1,0.8,1.7,0.8
		c0.8-0.1,1.5-0.2,2.2-0.5c0,0.3,0,0.6,0.1,0.8c0.1,0.9,0.2,1.9,0.3,2.8c0,0.3,0.1,0.6,0.1,0.9c-0.2-0.3-0.6-0.7-0.6-0.8
		c-0.6-0.6-2-1.4-2.9-1c-0.5,0.3-0.7,0.9-0.4,1.5c0,0,0,0.1,0.1,0.1c0.4,0.5,1.1,0.8,1.7,0.8c0.7,0,1.4-0.2,2.1-0.5
		c0.1,0.5,0.2,1,0.3,1.5c0,0.2,0.1,0.4,0.2,0.6s0.1,0.4,0.2,0.6c0.1,0.4,0.3,0.8,0.4,1.2c0.1,0.2,0.1,0.4,0.2,0.6
		c-0.2-0.3-0.4-0.8-0.5-0.8c-0.5-0.7-1.8-1.7-2.7-1.4c-0.6,0.2-0.9,0.8-0.7,1.4v0.1c0.3,0.6,0.9,1,1.6,1.1c0.8,0.1,1.5,0,2.2-0.2
		c0.2,0.5,0.3,0.9,0.5,1.3c0.5,1.3,1,2.4,1.4,3.1s0.6,1.2,0.6,1.2l0,0c0.1,0.2,0.3,0.2,0.4,0.1s0.2-0.3,0.1-0.4c0,0-0.2-0.4-0.6-1.1
		s-0.9-1.8-1.4-3c-0.2-0.4-0.3-0.8-0.5-1.2c0.7-0.3,1.3-0.7,1.9-1.2C316.6,307.2,316.8,306.5,316.7,305.9z"/>
	<path class="st0" d="M309.6,291.3c0.7-0.4,1.3-0.9,1.8-1.5c0.4-0.5,0.6-1.2,0.4-1.9c-0.2-0.6-0.8-0.9-1.4-0.7h-0.1
		c-0.8,0.4-1.1,2-1,2.8C309.3,290.2,309.5,291.3,309.6,291.3z"/>
	<path class="st0" d="M353.5,295c-0.8-0.5-2.3,0.3-2.9,0.8l-0.7,0.8l0,0c0.3-0.8,0.5-1.6,0.7-2.4c0.1-0.7,0.2-1.5,0.3-2.2
		c0.1-0.7,0.1-1.3,0.1-1.9c0-0.3,0-0.6,0-0.9l0,0c0,0,0.4-1,0.5-1.1c0.2-0.8,0.2-2.4-0.6-3c-0.5-0.3-1.2-0.2-1.5,0.3
		c0,0,0,0.1-0.1,0.1c-0.2,0.6-0.2,1.3,0.1,1.9c0.4,0.6,0.9,1.2,1.5,1.6c0,0.3,0,0.6,0,0.9c0,0.6,0,1.2-0.1,1.9c0,0.2,0,0.4-0.1,0.6
		c0-0.3-0.1-0.8-0.1-0.8c-0.2-0.8-1-2.3-1.9-2.4c-0.6-0.1-1.1,0.4-1.2,1v0.1c0.1,0.7,0.4,1.3,1,1.6c0.7,0.4,1.4,0.6,2.1,0.8
		c-0.1,0.4-0.1,0.9-0.2,1.3c-0.2,0.8-0.4,1.6-0.7,2.4l-0.1,0.1c0-0.2,0-1.1,0-1.1c-0.1-0.8-0.7-2.4-1.6-2.6
		c-0.6-0.1-1.2,0.3-1.3,0.9v0.1c0,0.7,0.3,1.3,0.8,1.7c0.6,0.4,1.3,0.8,2,1c-0.3,0.8-0.7,1.5-1.2,2.2c-0.3,0.5-0.6,1-1,1.6
		c0-0.2,0-1.1,0-1.1c-0.1-0.8-0.7-2.4-1.6-2.5c-0.6-0.1-1.2,0.3-1.3,0.9v0.1c0,0.7,0.3,1.3,0.8,1.7c0.6,0.4,1.3,0.8,2,1l-0.5,0.7
		c-0.5,0.8-1,1.5-1.5,2.3c-0.2,0.3-0.3,0.5-0.5,0.8c0-0.3,0-0.9,0-1c-0.1-0.8-0.7-2.4-1.6-2.5c-0.6-0.1-1.2,0.3-1.3,0.8
		c0,0.1,0,0.1,0,0.2c0,0.7,0.3,1.3,0.8,1.7c0.6,0.4,1.3,0.8,2,1c-0.3,0.5-0.5,0.9-0.8,1.4c-0.1,0.2-0.2,0.4-0.3,0.6l-0.3,0.6
		c-0.2,0.4-0.3,0.8-0.4,1.2c-0.1,0.2-0.1,0.4-0.2,0.6l0.2-0.9c0-0.8-0.3-2.4-1.2-2.8c-0.6-0.2-1.2,0.1-1.4,0.7v0.1
		c-0.1,0.7,0.1,1.3,0.5,1.8c0.5,0.5,1.2,1,1.8,1.3c-0.2,0.5-0.3,0.9-0.4,1.3c-0.4,1.3-0.7,2.5-0.9,3.3s-0.3,1.3-0.3,1.3l0,0
		c0,0.2,0.1,0.3,0.2,0.4l0,0c0.2,0,0.3-0.1,0.4-0.2l0,0c0,0,0.1-0.5,0.3-1.2s0.5-1.9,0.9-3.2c0.1-0.4,0.2-0.8,0.4-1.2
		c0.7,0.2,1.5,0.3,2.2,0.3c0.7-0.1,1.3-0.4,1.6-1c0.3-0.5,0.1-1.2-0.5-1.5h-0.1c-0.9-0.3-2.2,0.6-2.7,1.3l-0.5,0.8
		c0.1-0.3,0.2-0.5,0.3-0.8l0.4-1.1l0.2-0.6c0.1-0.2,0.2-0.4,0.3-0.6l0.4-0.9c0.7,0.3,1.4,0.5,2.1,0.5s1.3-0.2,1.8-0.7
		c0.4-0.5,0.3-1.2-0.2-1.5c0,0-0.1,0-0.1-0.1c-0.8-0.5-2.3,0.3-2.9,0.8c0,0-0.1,0.1-0.3,0.3c0.1-0.3,0.3-0.5,0.5-0.8
		c0.5-0.8,1-1.5,1.5-2.3l0.3-0.5c0.7,0.3,1.4,0.5,2.1,0.6c0.7,0,1.3-0.3,1.8-0.8c0.4-0.5,0.3-1.2-0.2-1.5c0,0-0.1,0-0.1-0.1
		c-0.8-0.5-2.3,0.3-2.9,0.8l-0.3,0.4c0.3-0.4,0.5-0.9,0.8-1.3c0.4-0.7,0.8-1.5,1.1-2.3c0.7,0.3,1.4,0.5,2.2,0.6
		c0.7,0,1.3-0.3,1.8-0.8C354,296.2,354,295.5,353.5,295C353.5,295.1,353.5,295.1,353.5,295z"/>
	<path class="st0" d="M353.9,290.2c-0.9-0.2-2.1,0.9-2.6,1.5c0,0.1-0.5,1.1-0.5,1.1c0.8,0.1,1.5,0.1,2.3,0c0.6-0.2,1.2-0.6,1.5-1.2
		C354.8,291,354.6,290.4,353.9,290.2C354,290.2,353.9,290.2,353.9,290.2z"/>
	<path class="st0" d="M330.5,284.5c0.8,0.4,1.7,0.7,2.6,0.9c0,0-0.1-1.4-0.1-1.5c-0.2-1-1.2-2.8-2.4-2.8c-0.7-0.1-1.4,0.5-1.4,1.2
		c0,0.1,0,0.1,0,0.2C329.3,283.4,329.8,284.1,330.5,284.5z"/>
	<path class="st0" d="M338.5,303.4c-1.1,0-2.2,1.8-2.5,2.7c0,0-0.1,0.7-0.2,1.1c0-0.2,0-0.5,0-0.7c0-0.5,0-1,0-1.5l-0.1-0.8
		c0-0.3-0.1-0.5-0.1-0.8c-0.1-0.6-0.2-1.3-0.3-1.9c0.9,0,1.8-0.1,2.7-0.4c0.8-0.3,1.4-0.9,1.6-1.7c0.2-0.7-0.2-1.4-1-1.6
		c-0.1,0-0.1,0-0.2,0c-1.1-0.1-2.5,1.4-2.9,2.3c0,0.1-0.3,0.8-0.4,1.1c-0.1-0.4-0.2-0.8-0.3-1.1c-0.3-1.1-0.6-2.2-0.9-3.3l-0.3-1
		c0.9,0,1.9-0.1,2.8-0.4c0.8-0.3,1.4-0.9,1.6-1.7c0.2-0.7-0.2-1.4-1-1.6h-0.1c-1.1-0.1-2.5,1.4-2.9,2.3c0,0.1-0.4,1.1-0.4,1.3
		c-0.2-0.7-0.4-1.5-0.5-2.2c-0.2-1-0.4-2-0.5-3c0.9,0,1.9-0.1,2.8-0.4c0.8-0.3,1.4-0.9,1.6-1.7c0.2-0.7-0.2-1.4-1-1.6
		c-0.1,0-0.1,0-0.2,0c-1.1-0.1-2.5,1.4-2.9,2.3c0,0.1-0.4,1.1-0.4,1.4c0-0.1,0-0.1,0-0.2c-0.1-1,0-2,0.1-3.1
		c0.1-0.6,0.2-1.1,0.3-1.6c0.9,0.1,1.8,0.1,2.7-0.1c0.8-0.2,1.5-0.8,1.8-1.5s-0.1-1.5-0.8-1.7h-0.1c-1.1-0.3-2.6,1.1-3.1,2l-0.4,0.9
		c0-0.2,0.1-0.5,0.1-0.7c0.2-0.8,0.4-1.6,0.6-2.3c0.1-0.4,0.2-0.7,0.3-1c0.9-0.3,1.7-0.8,2.4-1.3c0.6-0.6,0.9-1.3,0.9-2.2
		c-0.1-0.7-0.8-1.3-1.5-1.2h-0.1c-1.1,0.3-1.8,2.2-1.9,3.2c0,0.1,0.1,1.5,0.1,1.5l0,0c-0.1,0.3-0.2,0.6-0.4,1
		c-0.2,0.7-0.5,1.4-0.7,2.2c-0.2,0.9-0.4,1.8-0.5,2.7c-0.1,1-0.2,2.1-0.2,3.1l0,0c-0.1-0.3-0.5-1.2-0.5-1.2c-0.5-0.9-1.9-2.3-3-2.1
		c-0.2,0.4-0.7,0.4-1.1,0.2c-0.1-0.1-0.1-0.1-0.2-0.2c-1.1-0.2-2.5,1.2-3,2.1c0,0.1-0.4,0.9-0.5,1.2l0,0c0-1,0-2.1-0.2-3.1
		c-0.1-0.9-0.3-1.8-0.5-2.7c-0.2-0.8-0.5-1.6-0.7-2.2c-0.1-0.4-0.2-0.7-0.4-1l0,0c0,0,0.1-1.4,0.1-1.5c0-1-0.8-2.9-1.9-3.2
		c-0.7-0.2-1.4,0.3-1.6,1v0.1c0,0.8,0.3,1.6,0.9,2.2c0.7,0.6,1.5,1,2.4,1.3c0.1,0.3,0.2,0.6,0.3,1c0.2,0.7,0.4,1.4,0.6,2.3
		c0,0.2,0.1,0.5,0.1,0.7c-0.2-0.4-0.4-0.9-0.4-0.9c-0.5-0.9-2-2.2-3.1-2c-0.7,0.2-1.1,0.9-1,1.6v0.1c0.4,0.7,1,1.3,1.8,1.5
		c0.9,0.2,1.8,0.2,2.7,0.1c0.1,0.5,0.2,1,0.3,1.6c0.1,1,0.2,2,0.1,3.1c0,0.1,0,0.1,0,0.2c0-0.2-0.4-1.3-0.4-1.4
		c-0.4-0.9-1.8-2.4-2.9-2.3c-0.7,0.1-1.2,0.8-1.1,1.5v0.1c0.3,0.8,0.9,1.4,1.6,1.7c0.9,0.3,1.8,0.4,2.8,0.4c-0.1,1-0.2,2-0.4,3
		c-0.2,0.7-0.4,1.5-0.5,2.2c-0.1-0.3-0.4-1.3-0.4-1.3c-0.4-0.9-1.8-2.5-2.9-2.3c-0.7,0.1-1.2,0.8-1.1,1.5v0.1
		c0.3,0.8,0.9,1.4,1.6,1.7c0.9,0.3,1.8,0.4,2.8,0.4c-0.1,0.3-0.2,0.7-0.3,1c-0.3,1.1-0.6,2.2-0.9,3.3c-0.1,0.4-0.2,0.8-0.3,1.1
		c-0.1-0.4-0.3-1.1-0.4-1.1c-0.4-0.9-1.8-2.5-2.9-2.3c-0.7,0.1-1.2,0.8-1.1,1.5v0.1c0.3,0.8,0.9,1.4,1.6,1.7
		c0.9,0.3,1.8,0.4,2.7,0.4c-0.1,0.6-0.2,1.3-0.3,1.9c0,0.3-0.1,0.5-0.1,0.8l-0.1,0.8c0,0.5,0,1,0,1.5c0,0.3,0,0.5,0,0.7
		c-0.1-0.4-0.2-1-0.2-1.1c-0.3-1-1.4-2.7-2.5-2.7c-0.7-0.1-1.4,0.4-1.5,1.1c0,0.1,0,0.3,0,0.4c0.2,0.8,0.7,1.5,1.4,1.9
		c0.8,0.4,1.7,0.6,2.6,0.8c0,0.6,0,1.2,0,1.7c0,1.7,0.1,3.1,0.2,4.1s0.2,1.6,0.2,1.6l0,0c0,0.2,0.3,0.4,0.5,0.3
		c0.2,0,0.3-0.2,0.3-0.4c0,0-0.1-0.5-0.2-1.5s-0.2-2.4-0.3-4.1c0-0.5,0-1-0.1-1.5c0.9-0.1,1.8-0.3,2.7-0.6c0.7-0.4,1.3-1,1.5-1.8
		c0.1-0.7-0.4-1.4-1.1-1.5h-0.1c-1.1,0-2.3,1.6-2.7,2.6c0,0.1-0.2,0.8-0.3,1.2c0-0.3,0-0.6,0-1s0-1,0-1.5v-0.8c0-0.3,0-0.5,0.1-0.8
		s0.1-0.8,0.2-1.2c0.9,0.1,1.8,0,2.6-0.2c0.8-0.2,1.4-0.8,1.7-1.6c0.2-0.7-0.2-1.5-0.9-1.7h-0.1c-1.1-0.2-2.5,1.2-3,2.1
		c0,0-0.1,0.2-0.2,0.5c0.1-0.4,0.1-0.8,0.2-1.1c0.2-1.1,0.5-2.2,0.8-3.3c0.1-0.2,0.1-0.5,0.2-0.7c0.9,0.1,1.8,0,2.7-0.2
		c0.8-0.2,1.4-0.8,1.7-1.6c0.2-0.7-0.1-1.4-0.8-1.7c-0.1,0-0.1,0-0.2,0c-1.1-0.2-2.5,1.2-3,2.1l-0.2,0.5c0.1-0.6,0.3-1.2,0.4-1.8
		c0.2-1,0.3-2.1,0.4-3.1c0.9,0.1,1.9,0,2.8-0.2c0.5-0.2,1-0.5,1.4-1c0.4,0.4,0.9,0.8,1.4,1c0.9,0.2,1.8,0.3,2.8,0.2
		c0.1,1.1,0.2,2.1,0.4,3.1c0.1,0.6,0.2,1.2,0.4,1.8c-0.1-0.3-0.2-0.5-0.2-0.5c-0.5-0.9-1.9-2.3-3-2.1c-0.7,0.2-1.2,0.9-1,1.6v0.1
		c0.3,0.8,1,1.3,1.8,1.6c0.9,0.2,1.8,0.3,2.7,0.2c0.1,0.2,0.1,0.5,0.2,0.7c0.3,1.1,0.5,2.2,0.8,3.3c0.1,0.4,0.2,0.8,0.2,1.1
		l-0.2-0.5c-0.5-0.9-1.9-2.3-3-2.1c-0.7,0.1-1.2,0.8-1,1.6c0,0.1,0,0.1,0,0.2c0.3,0.8,1,1.3,1.7,1.6c0.9,0.2,1.7,0.3,2.6,0.2
		c0.1,0.4,0.1,0.8,0.2,1.2c0,0.3,0.1,0.5,0.1,0.8s0,0.5,0,0.8c0,0.5,0,1,0,1.5s0,0.7,0,1c-0.1-0.4-0.3-1.1-0.3-1.2
		c-0.3-1-1.5-2.6-2.7-2.6c-0.7,0-1.3,0.7-1.3,1.4v0.1c0.2,0.8,0.7,1.5,1.5,1.8c0.9,0.3,1.8,0.5,2.7,0.6c0,0.5,0,1.1,0,1.5
		c-0.1,1.7-0.2,3.1-0.3,4.1s-0.2,1.5-0.2,1.5c0,0.2,0.1,0.4,0.3,0.5c0.2,0,0.4-0.1,0.4-0.3l0,0l0,0c0,0,0.1-0.6,0.1-1.6
		s0.2-2.4,0.2-4.1c0-0.5,0-1.1,0-1.7c0.9-0.1,1.8-0.4,2.6-0.8c0.7-0.4,1.2-1.1,1.4-1.9c0.1-0.7-0.4-1.4-1.1-1.5
		C338.6,303.4,338.5,303.4,338.5,303.4z"/>
	<path class="st0" d="M394.9,284.5c0.7-0.4,1.2-1.2,1.3-2c0-0.7-0.5-1.4-1.3-1.4c-0.1,0-0.1,0-0.2,0c-1.1,0.1-2.1,1.9-2.4,2.8
		c0,0.1-0.2,1.5-0.1,1.5C393.2,285.3,394.1,284.9,394.9,284.5z"/>
	<path class="st0" d="M385.2,305.9c-0.1-0.6-0.7-1-1.3-0.9h-0.1c-0.9,0.3-1.3,1.9-1.3,2.7c0,0,0.1,0.7,0.1,1
		c-0.1-0.3-0.2-0.5-0.3-0.8s-0.3-0.8-0.4-1.1l-0.2-0.6c-0.1-0.2-0.1-0.4-0.2-0.6s-0.1-0.6-0.2-0.9c0.7-0.2,1.3-0.5,2-0.9
		c0.5-0.4,0.9-1,0.9-1.7c0-0.6-0.6-1-1.1-1H383c-0.9,0.2-1.6,1.7-1.7,2.5c0,0,0,0.2,0,0.4l-0.1-0.9c-0.1-0.9-0.2-1.8-0.3-2.7
		c0-0.2,0-0.4-0.1-0.6c0.7-0.2,1.4-0.5,2-0.9c0.5-0.4,0.9-1,0.9-1.7c0-0.6-0.6-1-1.1-1h-0.1c-0.9,0.1-1.6,1.7-1.7,2.5
		c0,0.2,0,0.3,0,0.5c-0.1-0.5-0.1-1-0.2-1.5c-0.1-0.8-0.3-1.7-0.6-2.5c0.7-0.2,1.4-0.5,2.1-0.9c0.5-0.4,0.9-1,0.9-1.7
		c0-0.6-0.6-1-1.1-1h-0.1c-0.9,0.2-1.6,1.7-1.7,2.5c0,0,0,0.8,0,1.1l0,0c-0.3-0.8-0.6-1.6-1-2.3c-0.4-0.7-0.7-1.3-1.2-1.9
		c-0.4-0.6-0.8-1.1-1.1-1.5c-0.2-0.2-0.4-0.5-0.5-0.6l0,0l-0.3-1.1c-0.3-0.8-1.4-2-2.3-1.9c-0.6,0.1-1,0.6-0.9,1.2v0.1
		c0.2,0.6,0.7,1.1,1.3,1.4c0.7,0.2,1.4,0.3,2.2,0.3l0.5,0.7c0.3,0.4,0.7,1,1.1,1.5l0.3,0.5l-0.6-0.6c-0.6-0.5-2.2-1.1-2.9-0.6
		c-0.5,0.3-0.6,1-0.3,1.5c0,0,0,0.1,0.1,0.1c0.5,0.5,1.1,0.7,1.8,0.6c0.7-0.1,1.4-0.4,2.1-0.7c0.2,0.4,0.4,0.7,0.6,1.1
		c0.4,0.7,0.7,1.5,0.9,2.3v0.1c-0.1-0.1-0.7-0.9-0.7-0.9c-0.6-0.6-2-1.4-2.9-1c-0.5,0.3-0.7,0.9-0.4,1.5c0,0,0,0.1,0.1,0.1
		c0.4,0.5,1.1,0.8,1.7,0.8c0.8-0.1,1.5-0.2,2.2-0.5c0.2,0.8,0.4,1.6,0.5,2.4c0.1,0.6,0.2,1.2,0.2,1.9c-0.1-0.2-0.6-0.9-0.7-0.9
		c-0.6-0.6-2-1.4-2.9-1c-0.5,0.3-0.7,0.9-0.4,1.5c0,0,0,0.1,0.1,0.1c0.4,0.5,1.1,0.8,1.7,0.8c0.8-0.1,1.5-0.2,2.2-0.5
		c0,0.3,0,0.6,0.1,0.8c0.1,0.9,0.2,1.9,0.3,2.8c0,0.3,0.1,0.6,0.1,0.9c-0.2-0.3-0.6-0.7-0.6-0.8c-0.6-0.6-2-1.4-2.9-1
		c-0.5,0.3-0.7,0.9-0.4,1.5c0,0,0,0.1,0.1,0.1c0.4,0.5,1.1,0.8,1.7,0.8c0.7,0,1.4-0.2,2.1-0.5c0.1,0.5,0.2,1,0.3,1.5
		c0,0.2,0.1,0.4,0.2,0.6s0.1,0.4,0.2,0.6c0.1,0.4,0.3,0.8,0.4,1.2c0.1,0.2,0.1,0.4,0.2,0.6c-0.2-0.3-0.4-0.8-0.5-0.8
		c-0.5-0.7-1.8-1.7-2.7-1.4c-0.6,0.2-0.9,0.8-0.7,1.4v0.1c0.3,0.6,0.9,1,1.6,1.1c0.8,0.1,1.5,0,2.2-0.2c0.2,0.5,0.3,0.9,0.5,1.3
		c0.5,1.3,1,2.4,1.4,3.1s0.6,1.2,0.6,1.2l0,0c0.1,0.2,0.3,0.2,0.4,0.1s0.2-0.3,0.1-0.4c0,0-0.2-0.4-0.6-1.1s-0.9-1.8-1.4-3
		c-0.2-0.4-0.3-0.8-0.5-1.2c0.7-0.3,1.3-0.7,1.9-1.2C385.1,307.2,385.3,306.5,385.2,305.9z"/>
	<path class="st0" d="M378,291.3c0.7-0.4,1.3-0.9,1.8-1.4c0.4-0.5,0.6-1.2,0.4-1.9c-0.2-0.6-0.8-0.9-1.4-0.7h-0.1
		c-0.8,0.4-1.1,2-1,2.8C377.8,290.2,378,291.3,378,291.3z"/>
	<path class="st0" d="M422,295c-0.8-0.5-2.3,0.3-2.9,0.8l-0.7,0.8l0,0c0.3-0.8,0.5-1.6,0.7-2.4c0.2-0.7,0.3-1.5,0.3-2.2
		c0.1-0.7,0.1-1.3,0.1-1.9c0-0.3,0-0.6,0-0.9l0,0c0,0,0.4-1,0.5-1.1c0.2-0.8,0.2-2.4-0.6-3c-0.5-0.3-1.2-0.2-1.5,0.3
		c0,0,0,0.1-0.1,0.1c-0.2,0.6-0.2,1.3,0.1,1.9c0.4,0.6,0.9,1.2,1.5,1.6c0,0.3,0,0.6,0,0.9c0,0.6,0,1.2-0.1,1.9c0,0.2,0,0.4-0.1,0.6
		c0-0.3-0.1-0.8-0.1-0.8c-0.2-0.8-1-2.3-1.9-2.4c-0.6-0.1-1.1,0.4-1.2,1v0.1c0.1,0.7,0.4,1.3,1,1.6c0.7,0.4,1.4,0.6,2.1,0.8
		c-0.1,0.4-0.1,0.9-0.2,1.3c-0.2,0.8-0.4,1.6-0.7,2.4l-0.1,0.1c0-0.2,0-1.1,0-1.1c-0.1-0.8-0.7-2.4-1.6-2.6
		c-0.6-0.1-1.2,0.3-1.3,0.9v0.1c0,0.7,0.3,1.3,0.8,1.7c0.6,0.4,1.3,0.8,2,1c-0.3,0.8-0.7,1.5-1.1,2.2c-0.3,0.5-0.6,1-1,1.6
		c0-0.2,0-1.1,0-1.1c-0.1-0.8-0.7-2.4-1.6-2.5c-0.6-0.1-1.2,0.3-1.3,0.9v0.1c0,0.7,0.3,1.3,0.8,1.7c0.6,0.4,1.3,0.8,2,1l-0.5,0.7
		c-0.5,0.8-1,1.5-1.5,2.3c-0.2,0.3-0.3,0.5-0.5,0.8c0-0.3,0-0.9,0-1c-0.1-0.8-0.7-2.4-1.6-2.5c-0.6-0.1-1.2,0.3-1.3,0.8
		c0,0.1,0,0.1,0,0.2c0,0.7,0.3,1.3,0.8,1.7c0.6,0.4,1.3,0.8,2,1c-0.3,0.5-0.5,0.9-0.8,1.4c-0.1,0.2-0.2,0.4-0.3,0.6l-0.3,0.6
		c-0.2,0.4-0.3,0.8-0.4,1.2c-0.1,0.2-0.1,0.4-0.2,0.6c0.1-0.3,0.1-0.9,0.1-0.9c0.1-0.8-0.3-2.4-1.2-2.8c-0.6-0.2-1.2,0.1-1.4,0.7
		v0.1c-0.1,0.7,0.1,1.3,0.5,1.8c0.5,0.5,1.2,1,1.8,1.3c-0.2,0.5-0.3,0.9-0.4,1.3c-0.4,1.3-0.7,2.5-0.9,3.3s-0.3,1.3-0.3,1.3l0,0
		c0,0.2,0.1,0.3,0.3,0.4c0.2,0,0.3-0.1,0.4-0.2l0,0c0,0,0.1-0.5,0.3-1.2s0.5-1.9,0.9-3.2c0.1-0.4,0.2-0.8,0.4-1.2
		c0.7,0.2,1.5,0.3,2.2,0.3c0.7-0.1,1.3-0.4,1.6-1c0.3-0.5,0.1-1.2-0.5-1.5h-0.1c-0.9-0.3-2.2,0.6-2.7,1.3l-0.5,0.8
		c0.1-0.3,0.2-0.5,0.3-0.8l0.4-1.1l0.2-0.6c0.1-0.2,0.2-0.4,0.3-0.6s0.3-0.6,0.4-0.9c0.7,0.3,1.4,0.5,2.1,0.5s1.3-0.2,1.8-0.7
		c0.4-0.5,0.3-1.2-0.2-1.5c0,0-0.1,0-0.1-0.1c-0.8-0.5-2.3,0.3-2.9,0.8c0,0-0.1,0.1-0.3,0.3c0.1-0.3,0.3-0.5,0.5-0.8
		c0.5-0.8,1-1.5,1.5-2.3c0.1-0.2,0.2-0.3,0.3-0.5c0.7,0.3,1.4,0.5,2.1,0.6c0.7,0,1.3-0.3,1.8-0.8c0.4-0.5,0.3-1.2-0.2-1.5
		c0,0-0.1,0-0.1-0.1c-0.8-0.5-2.3,0.3-2.9,0.8l-0.3,0.4c0.3-0.4,0.5-0.9,0.8-1.3c0.4-0.7,0.8-1.5,1.1-2.3c0.7,0.3,1.4,0.5,2.2,0.6
		c0.7,0,1.3-0.3,1.8-0.8C422.6,296.2,422.5,295.5,422,295C422.1,295.1,422,295.1,422,295z"/>
	<path class="st0" d="M422.4,290.2c-0.9-0.2-2.1,0.9-2.6,1.5c0,0.1-0.5,1.1-0.5,1.1c0.8,0.1,1.5,0.1,2.3,0c0.6-0.2,1.2-0.6,1.5-1.2
		C423.3,291,423.1,290.4,422.4,290.2C422.4,290.2,422.4,290.2,422.4,290.2z"/>
	<path class="st0" d="M398.9,284.5c0.8,0.4,1.7,0.7,2.6,0.9c0,0-0.1-1.4-0.1-1.5c-0.2-1-1.2-2.8-2.4-2.8c-0.7-0.1-1.4,0.5-1.4,1.2
		c0,0.1,0,0.1,0,0.2C397.8,283.4,398.2,284.1,398.9,284.5z"/>
	<path class="st0" d="M407,303.4c-1.1,0-2.2,1.8-2.5,2.7c0,0-0.1,0.7-0.2,1.1c0-0.2,0-0.5,0-0.7c0-0.5,0-1,0-1.5l-0.1-0.8
		c0-0.3-0.1-0.5-0.1-0.8c-0.1-0.6-0.2-1.3-0.3-1.9c0.9,0,1.8-0.1,2.7-0.4c0.8-0.3,1.4-0.9,1.6-1.7c0.2-0.7-0.3-1.4-1-1.6H407
		c-1.1-0.1-2.5,1.4-2.9,2.3c0,0.1-0.3,0.8-0.4,1.1c-0.1-0.4-0.2-0.8-0.3-1.1c-0.3-1.1-0.6-2.2-0.9-3.3l-0.3-1c0.9,0,1.9-0.1,2.8-0.4
		c0.8-0.3,1.4-0.9,1.6-1.7c0.2-0.7-0.2-1.4-1-1.6h-0.1c-1.1-0.1-2.5,1.4-2.9,2.3c0,0.1-0.4,1.1-0.4,1.3c-0.2-0.7-0.4-1.5-0.5-2.2
		c-0.2-1-0.4-2-0.5-3c0.9,0,1.9-0.1,2.8-0.4c0.8-0.3,1.4-0.9,1.6-1.7c0.2-0.7-0.2-1.4-1-1.6c-0.1,0-0.1,0-0.2,0
		c-1.1-0.1-2.5,1.4-2.9,2.3c0,0.1-0.4,1.1-0.4,1.4c0-0.1,0-0.1,0-0.2c-0.1-1,0-2,0.1-3.1c0.1-0.6,0.2-1.1,0.3-1.6
		c0.9,0.1,1.8,0.1,2.7-0.1c0.8-0.2,1.5-0.8,1.8-1.5s-0.1-1.5-0.8-1.7h-0.1c-1.1-0.3-2.6,1.1-3.1,2c0,0-0.3,0.6-0.4,0.9
		c0-0.2,0.1-0.5,0.1-0.7c0.2-0.8,0.4-1.6,0.6-2.3c0.1-0.4,0.2-0.7,0.3-1c0.9-0.3,1.7-0.8,2.4-1.3c0.6-0.6,0.9-1.3,0.9-2.2
		c-0.1-0.7-0.8-1.3-1.5-1.2h-0.1c-1.1,0.3-1.8,2.2-1.9,3.2c0,0.1,0.1,1.5,0.1,1.5l0,0c-0.1,0.3-0.2,0.6-0.4,1
		c-0.2,0.7-0.5,1.4-0.7,2.2c-0.2,0.9-0.4,1.8-0.5,2.7c-0.1,1-0.2,2.1-0.2,3.1l0,0c-0.1-0.3-0.5-1.2-0.5-1.2c-0.5-0.9-1.9-2.3-3-2.1
		c-0.2,0.4-0.7,0.4-1.1,0.2c-0.1-0.1-0.1-0.1-0.2-0.2c-1.1-0.2-2.5,1.2-3,2.1l-0.5,1.2l0,0c0-1,0-2.1-0.2-3.1
		c-0.1-0.9-0.3-1.8-0.5-2.7c-0.2-0.8-0.5-1.6-0.7-2.2c-0.1-0.4-0.2-0.7-0.4-1l0,0c0,0,0.1-1.4,0.1-1.5c0-1-0.8-2.9-1.9-3.2
		c-0.7-0.2-1.4,0.3-1.6,1v0.1c0,0.8,0.3,1.6,0.9,2.2c0.7,0.6,1.5,1,2.4,1.3c0.1,0.3,0.2,0.6,0.3,1c0.2,0.7,0.4,1.4,0.6,2.3
		c0,0.2,0.1,0.5,0.1,0.7c-0.2-0.4-0.4-0.9-0.4-0.9c-0.5-0.9-2-2.2-3.1-2c-0.7,0.2-1.1,0.9-1,1.6v0.1c0.4,0.7,1,1.3,1.8,1.5
		c0.9,0.2,1.8,0.2,2.7,0.1c0.1,0.5,0.2,1,0.3,1.6c0.1,1,0.2,2,0.1,3.1c0,0.1,0,0.1,0,0.2c0-0.2-0.4-1.3-0.4-1.4
		c-0.4-0.9-1.8-2.4-2.9-2.3c-0.7,0.1-1.2,0.8-1.1,1.5v0.1c0.3,0.8,0.9,1.4,1.6,1.7c0.9,0.3,1.8,0.4,2.8,0.4c-0.1,1-0.2,2-0.4,3
		c-0.2,0.7-0.4,1.5-0.5,2.2c-0.1-0.3-0.4-1.3-0.4-1.3c-0.4-0.9-1.8-2.5-2.9-2.3c-0.7,0.1-1.2,0.8-1.1,1.5v0.1
		c0.3,0.8,0.9,1.4,1.6,1.7c0.9,0.3,1.8,0.4,2.8,0.4c-0.1,0.3-0.2,0.7-0.3,1c-0.3,1.1-0.6,2.2-0.9,3.3c-0.1,0.4-0.2,0.8-0.3,1.1
		c-0.1-0.4-0.3-1.1-0.4-1.1c-0.4-0.9-1.8-2.5-2.9-2.3c-0.7,0.1-1.2,0.8-1.1,1.5v0.1c0.3,0.8,0.9,1.4,1.6,1.7
		c0.9,0.3,1.8,0.4,2.7,0.4c-0.1,0.6-0.2,1.3-0.3,1.9c0,0.3-0.1,0.5-0.1,0.8l-0.1,0.8c0,0.5,0,1,0,1.5c0,0.3,0,0.5,0,0.7
		c-0.1-0.4-0.2-1-0.2-1.1c-0.3-1-1.4-2.7-2.5-2.7c-0.7,0-1.3,0.6-1.4,1.3v0.1c0.2,0.8,0.7,1.5,1.4,1.9c0.8,0.4,1.7,0.6,2.6,0.8
		c0,0.6,0,1.2,0,1.7c0,1.7,0.1,3.1,0.2,4.1s0.2,1.6,0.2,1.6l0,0c0,0.2,0.3,0.4,0.5,0.3c0.2,0,0.3-0.2,0.3-0.4c0,0-0.1-0.5-0.2-1.5
		s-0.2-2.4-0.3-4.1c0-0.5,0-1-0.1-1.5c0.9-0.1,1.8-0.3,2.7-0.6c0.7-0.4,1.3-1,1.5-1.8c0.1-0.7-0.4-1.4-1.1-1.5h-0.1
		c-1.1,0-2.3,1.6-2.7,2.6c0,0.1-0.2,0.8-0.3,1.2c0-0.3,0-0.6,0-1s0-1,0-1.5c0-0.2,0-0.5,0-0.8s0-0.5,0.1-0.8s0.1-0.8,0.2-1.2
		c0.9,0.1,1.8,0,2.6-0.2c0.8-0.2,1.4-0.8,1.7-1.6c0.2-0.7-0.2-1.5-0.9-1.7H393c-1.1-0.2-2.5,1.2-3,2.1c0,0-0.1,0.2-0.2,0.5
		c0.1-0.4,0.1-0.8,0.2-1.1c0.2-1.1,0.5-2.2,0.8-3.3c0.1-0.2,0.1-0.5,0.2-0.7c0.9,0.1,1.8,0,2.7-0.2c0.8-0.2,1.4-0.8,1.7-1.6
		c0.2-0.7-0.1-1.4-0.8-1.7c-0.1,0-0.1,0-0.2,0c-1.1-0.2-2.5,1.2-3,2.1l-0.2,0.5c0.1-0.6,0.3-1.2,0.4-1.8c0.2-1,0.3-2.1,0.4-3.1
		c0.9,0.1,1.9,0,2.8-0.2c0.5-0.2,1-0.5,1.4-1c0.4,0.4,0.9,0.8,1.4,1c0.9,0.2,1.8,0.3,2.8,0.2c0.1,1.1,0.2,2.1,0.4,3.1
		c0.1,0.6,0.3,1.2,0.4,1.8c-0.1-0.3-0.2-0.5-0.2-0.5c-0.5-0.9-1.9-2.3-3-2.1c-0.7,0.2-1.2,0.9-1,1.6v0.1c0.3,0.8,1,1.3,1.8,1.6
		c0.9,0.2,1.8,0.3,2.7,0.2c0.1,0.2,0.1,0.5,0.2,0.7c0.3,1.1,0.5,2.2,0.8,3.3c0.1,0.4,0.2,0.8,0.2,1.1l-0.2-0.5
		c-0.5-0.9-1.9-2.3-3-2.1c-0.7,0.1-1.2,0.8-1,1.6c0,0.1,0,0.1,0,0.2c0.3,0.8,1,1.3,1.7,1.6c0.9,0.2,1.7,0.3,2.6,0.2
		c0.1,0.4,0.1,0.8,0.2,1.2s0.1,0.5,0.1,0.8s0,0.5,0,0.8c0,0.5,0,1,0,1.5s0,0.7,0,1c-0.1-0.4-0.3-1.1-0.3-1.2c-0.3-1-1.5-2.6-2.7-2.6
		c-0.7,0-1.3,0.7-1.3,1.4v0.1c0.2,0.8,0.7,1.4,1.4,1.8c0.9,0.3,1.8,0.5,2.7,0.6c0,0.5,0,1.1,0,1.5c-0.1,1.7-0.2,3.1-0.3,4.1
		s-0.2,1.5-0.2,1.5c0,0.2,0.1,0.4,0.3,0.5c0.2,0,0.4-0.1,0.4-0.3l0,0l0,0c0,0,0.1-0.6,0.1-1.6s0.2-2.4,0.2-4.1c0-0.5,0-1.1,0-1.7
		c0.9-0.1,1.8-0.4,2.6-0.8c0.7-0.4,1.2-1.1,1.4-1.9c0.1-0.7-0.5-1.4-1.2-1.5C407.1,303.4,407,303.4,407,303.4z"/>
	<path class="st0" d="M92.7,284.5c0.7-0.4,1.2-1.2,1.3-2c0-0.7-0.5-1.4-1.2-1.4c-0.1,0-0.1,0-0.2,0c-1.1,0.1-2.1,1.9-2.4,2.8
		c0,0.1-0.2,1.5-0.2,1.5C91,285.3,91.9,284.9,92.7,284.5z"/>
	<path class="st0" d="M83,305.9c-0.1-0.6-0.7-1-1.3-0.9h-0.1c-0.9,0.3-1.3,1.9-1.3,2.7c0,0,0.1,0.7,0.1,1l-0.3-0.8
		c-0.1-0.4-0.3-0.8-0.4-1.1c-0.1-0.2-0.1-0.4-0.2-0.6s-0.1-0.4-0.2-0.6s-0.1-0.6-0.2-0.9c0.7-0.2,1.3-0.5,1.9-0.9
		c0.5-0.4,0.9-1,0.9-1.7c0-0.6-0.6-1.1-1.2-1h-0.1c-0.9,0.2-1.6,1.7-1.7,2.5c0,0,0,0.2,0,0.4c0-0.3-0.1-0.6-0.2-0.9
		c-0.1-0.9-0.2-1.8-0.3-2.7l-0.1-0.6c0.7-0.2,1.4-0.5,2-0.9c0.5-0.4,0.9-1,0.9-1.7c0-0.6-0.5-1-1.1-1H80c-0.9,0.1-1.6,1.7-1.7,2.5
		c0,0,0,0.2,0,0.5c-0.1-0.5-0.1-1-0.2-1.5c-0.1-0.8-0.3-1.7-0.6-2.5c0.7-0.2,1.4-0.5,2.1-0.9c0.5-0.4,0.9-1,0.9-1.7
		c0-0.6-0.6-1.1-1.2-1c0,0,0,0-0.1,0c-0.9,0.2-1.6,1.7-1.7,2.5c0,0,0,0.8,0,1.1l0,0c-0.3-0.8-0.6-1.6-1-2.3
		c-0.4-0.7-0.8-1.3-1.2-1.9c-0.4-0.6-0.8-1.1-1.2-1.5c-0.2-0.2-0.4-0.5-0.5-0.6l0,0l-0.3-1.1c-0.3-0.8-1.4-2-2.3-1.9
		c-0.6,0.1-1,0.6-0.9,1.2v0.1c0.2,0.6,0.7,1.1,1.3,1.4c0.7,0.2,1.4,0.3,2.2,0.3c0.2,0.2,0.4,0.4,0.6,0.7c0.3,0.4,0.7,1,1.1,1.5
		l0.3,0.5L75,291c-0.6-0.5-2.2-1.1-2.9-0.6c-0.5,0.3-0.6,1-0.3,1.5c0,0,0,0.1,0.1,0.1c0.5,0.5,1.1,0.7,1.8,0.6
		c0.7-0.1,1.4-0.4,2.1-0.7c0.2,0.4,0.4,0.7,0.7,1.1c0.4,0.7,0.7,1.5,0.9,2.3v0.1c-0.1-0.1-0.7-0.9-0.7-0.9c-0.6-0.6-2-1.4-2.8-1
		c-0.5,0.3-0.7,0.9-0.4,1.5c0,0,0,0.1,0.1,0.1c0.4,0.5,1.1,0.8,1.7,0.8c0.8-0.1,1.5-0.2,2.2-0.5c0.2,0.8,0.4,1.6,0.5,2.4
		c0.1,0.6,0.2,1.2,0.2,1.9c-0.1-0.2-0.7-0.9-0.7-0.9c-0.6-0.6-2-1.4-2.8-1c-0.5,0.3-0.7,0.9-0.4,1.5c0,0,0,0.1,0.1,0.1
		c0.4,0.5,1.1,0.8,1.7,0.8c0.8-0.1,1.5-0.2,2.2-0.5c0,0.3,0.1,0.6,0.1,0.8c0.1,0.9,0.2,1.9,0.3,2.8c0,0.3,0.1,0.6,0.1,0.9
		c-0.2-0.3-0.6-0.7-0.6-0.8c-0.6-0.6-2-1.4-2.8-1c-0.5,0.3-0.7,0.9-0.4,1.5c0,0,0,0.1,0.1,0.1c0.4,0.5,1.1,0.8,1.7,0.8
		c0.7,0,1.5-0.2,2.1-0.5c0.1,0.5,0.2,1,0.3,1.5c0.1,0.2,0.1,0.4,0.2,0.6l0.2,0.6c0.1,0.4,0.3,0.8,0.4,1.2c0.1,0.2,0.1,0.4,0.2,0.6
		c-0.2-0.3-0.4-0.8-0.4-0.8c-0.5-0.7-1.8-1.7-2.7-1.4c-0.6,0.2-0.9,0.8-0.6,1.4v0.1c0.3,0.6,0.9,1,1.6,1.1c0.8,0.1,1.5,0,2.3-0.2
		c0.2,0.5,0.3,0.9,0.5,1.3c0.5,1.3,1,2.4,1.3,3.1s0.6,1.2,0.6,1.2l0,0c0.1,0.2,0.3,0.2,0.4,0.1c0.2-0.1,0.2-0.3,0.1-0.4l0,0
		c0,0-0.2-0.4-0.6-1.1s-0.9-1.8-1.4-3l-0.5-1.3c0.7-0.3,1.3-0.7,1.9-1.2C82.8,307.2,83.1,306.5,83,305.9z"/>
	<path class="st0" d="M75.8,291.3c0.7-0.4,1.3-0.9,1.8-1.4c0.4-0.5,0.5-1.2,0.4-1.9c-0.2-0.6-0.8-0.9-1.3-0.7h-0.1
		c-0.8,0.4-1.1,2-1,2.8C75.5,290.2,75.8,291.3,75.8,291.3z"/>
	<path class="st0" d="M96.7,284.5c0.8,0.4,1.7,0.7,2.7,0.9c0,0-0.1-1.4-0.1-1.5c-0.2-1-1.2-2.8-2.4-2.8c-0.7-0.1-1.4,0.5-1.4,1.2
		c0,0.1,0,0.1,0,0.2C95.5,283.4,96,284.1,96.7,284.5z"/>
	<path class="st0" d="M104.8,303.4c-1.1,0-2.2,1.8-2.5,2.7c0,0-0.1,0.7-0.2,1.1v-0.7c0-0.5,0-1,0-1.5c0-0.3,0-0.5,0-0.8
		s-0.1-0.5-0.1-0.8c-0.1-0.6-0.2-1.3-0.3-1.9c0.9,0,1.8-0.1,2.7-0.4c0.8-0.3,1.4-0.9,1.6-1.7c0.2-0.7-0.2-1.4-1-1.6h-0.1
		c-1.1-0.1-2.5,1.4-2.9,2.3c0,0.1-0.3,0.8-0.4,1.1c-0.1-0.4-0.2-0.8-0.3-1.1c-0.3-1.1-0.6-2.2-0.9-3.3c-0.1-0.3-0.2-0.7-0.3-1
		c0.9,0,1.9-0.1,2.8-0.4c0.8-0.3,1.4-0.9,1.6-1.7c0.2-0.7-0.2-1.4-1-1.6c-0.1,0-0.1,0-0.2,0c-1.1-0.1-2.5,1.4-2.9,2.3
		c0,0.1-0.3,1.1-0.4,1.3c-0.2-0.7-0.4-1.5-0.5-2.2c-0.2-1-0.4-2-0.4-3c0.9,0,1.9-0.1,2.8-0.4c0.8-0.3,1.4-0.9,1.6-1.7
		c0.2-0.7-0.2-1.4-0.9-1.6c-0.1,0-0.1,0-0.2,0c-1.1-0.1-2.5,1.4-2.9,2.3c0,0.1-0.4,1.1-0.4,1.4c0-0.1,0-0.1,0-0.2c0-1,0-2,0.1-3.1
		c0.1-0.6,0.2-1.1,0.3-1.6c0.9,0.1,1.8,0.1,2.7-0.1c0.8-0.2,1.4-0.8,1.7-1.5c0.3-0.7-0.1-1.5-0.8-1.7H103c-1.1-0.3-2.6,1.1-3.1,2
		c0,0-0.3,0.6-0.4,0.9c0-0.2,0.1-0.5,0.1-0.7c0.2-0.8,0.4-1.6,0.6-2.3c0.1-0.4,0.2-0.7,0.3-1c0.9-0.3,1.7-0.8,2.4-1.3
		c0.6-0.5,0.9-1.3,0.9-2.2c-0.1-0.7-0.7-1.3-1.5-1.2h-0.1c-1.1,0.3-1.8,2.2-1.8,3.2c0,0.1,0.1,1.5,0.1,1.5l0,0
		c-0.1,0.3-0.2,0.6-0.3,1c-0.2,0.7-0.5,1.4-0.7,2.2c-0.2,0.9-0.4,1.8-0.5,2.7c-0.1,1-0.2,2.1-0.2,3.1l0,0c-0.1-0.3-0.5-1.2-0.5-1.2
		c-0.5-0.9-1.9-2.3-3-2.1c-0.2,0-0.5,0.2-0.7,0.3c-0.2-0.2-0.4-0.3-0.7-0.3c-1.1-0.2-2.6,1.2-3,2.1c0,0.1-0.4,0.9-0.5,1.2l0,0
		c0-1,0-2.1-0.2-3.1c-0.1-0.9-0.3-1.8-0.5-2.7c-0.2-0.8-0.4-1.6-0.7-2.2c-0.1-0.4-0.2-0.7-0.4-1l0,0c0,0,0.1-1.4,0.1-1.5
		c-0.1-1-0.8-2.9-1.8-3.2c-0.7-0.2-1.4,0.3-1.6,1v0.1c0,0.8,0.3,1.6,0.9,2.2c0.7,0.6,1.5,1,2.4,1.3c0.1,0.3,0.2,0.6,0.3,1
		c0.2,0.7,0.4,1.4,0.6,2.3c0,0.2,0.1,0.5,0.1,0.7c-0.2-0.4-0.4-0.9-0.4-0.9c-0.5-0.9-2-2.2-3.1-2c-0.7,0.2-1.1,0.9-1,1.6v0.1
		c0.4,0.7,1,1.3,1.8,1.5c0.9,0.2,1.8,0.2,2.7,0.1c0.1,0.5,0.2,1,0.3,1.6c0.1,1,0.2,2,0.1,3.1c0,0.1,0,0.1,0,0.2
		c0-0.2-0.4-1.3-0.4-1.4c-0.4-0.9-1.8-2.4-2.9-2.3c-0.7,0.1-1.2,0.8-1.1,1.5c0,0.1,0,0.1,0,0.2c0.3,0.8,0.9,1.4,1.6,1.7
		c0.9,0.3,1.8,0.4,2.8,0.4c-0.1,1-0.2,2-0.4,3c-0.2,0.7-0.3,1.5-0.5,2.2c-0.1-0.3-0.4-1.3-0.4-1.3c-0.4-0.9-1.8-2.5-2.9-2.3
		c-0.7,0.1-1.2,0.8-1.1,1.5v0.1c0.3,0.8,0.9,1.4,1.6,1.7c0.9,0.3,1.8,0.4,2.8,0.4l-0.3,1c-0.3,1.1-0.6,2.2-0.9,3.3
		c-0.1,0.4-0.2,0.8-0.3,1.1c-0.1-0.4-0.3-1.1-0.4-1.1c-0.4-0.9-1.8-2.5-2.9-2.3c-0.7,0.1-1.2,0.8-1.1,1.5v0.1
		c0.3,0.8,0.9,1.4,1.6,1.7c0.9,0.3,1.8,0.4,2.7,0.4c-0.1,0.6-0.2,1.3-0.3,1.9c0,0.3-0.1,0.5-0.1,0.8L87,305c0,0.5,0,1,0,1.5v0.7
		c-0.1-0.4-0.2-1-0.2-1.1c-0.3-1-1.4-2.7-2.5-2.7c-0.7,0-1.4,0.5-1.4,1.2c0,0.1,0,0.2,0,0.3c0.1,0.8,0.6,1.5,1.4,1.9
		s1.7,0.6,2.7,0.8c0,0.6,0,1.2,0,1.7c0,1.7,0.1,3.1,0.2,4.1s0.2,1.6,0.2,1.6l0,0c0,0.2,0.2,0.4,0.4,0.3l0,0c0.2,0,0.4-0.2,0.3-0.5
		c0,0-0.1-0.5-0.2-1.5s-0.2-2.4-0.3-4.1c0-0.5,0-1,0-1.5c0.9-0.1,1.8-0.3,2.7-0.6c0.7-0.4,1.3-1,1.5-1.8c0.1-0.7-0.4-1.4-1.1-1.5
		h-0.1c-1.1,0-2.3,1.6-2.7,2.6c0,0.1-0.2,0.8-0.3,1.2c0-0.3,0-0.6,0-1s0-1,0-1.5c0-0.3,0-0.5,0-0.8s0.1-0.5,0.1-0.8s0.1-0.8,0.2-1.2
		c0.9,0.1,1.8,0,2.6-0.2c0.8-0.2,1.4-0.8,1.7-1.6c0.2-0.7-0.1-1.4-0.8-1.7c-0.1,0-0.1,0-0.2,0c-1.1-0.2-2.6,1.2-3,2.1
		c0,0-0.1,0.2-0.2,0.5c0.1-0.4,0.1-0.8,0.2-1.1c0.2-1.1,0.5-2.2,0.8-3.3c0.1-0.2,0.1-0.5,0.2-0.7c0.9,0.1,1.8,0,2.7-0.2
		c0.8-0.2,1.4-0.8,1.8-1.6c0.2-0.7-0.2-1.5-0.9-1.7h-0.1c-1.1-0.2-2.6,1.2-3,2.1c0,0-0.1,0.3-0.2,0.5c0.1-0.6,0.3-1.2,0.4-1.8
		c0.2-1,0.3-2.1,0.4-3.1c0.9,0.1,1.9,0,2.8-0.2c0.5-0.2,1-0.5,1.4-1c0.4,0.4,0.9,0.8,1.4,1c0.9,0.2,1.8,0.3,2.8,0.2
		c0.1,1.1,0.2,2.1,0.4,3.1c0.1,0.6,0.3,1.2,0.4,1.8c-0.1-0.3-0.2-0.5-0.2-0.5c-0.5-0.9-1.9-2.3-3-2.1c-0.7,0.1-1.2,0.8-1,1.6
		c0,0.1,0,0.1,0,0.2c0.3,0.8,1,1.3,1.7,1.6c0.9,0.2,1.8,0.3,2.7,0.2c0,0.2,0.1,0.5,0.2,0.7c0.3,1.1,0.6,2.2,0.8,3.3
		c0.1,0.4,0.2,0.8,0.2,1.1c-0.1-0.2-0.2-0.4-0.2-0.5c-0.5-0.9-1.9-2.3-3-2.1c-0.7,0.2-1.2,0.9-1,1.6v0.1c0.3,0.8,1,1.3,1.7,1.6
		c0.9,0.2,1.7,0.3,2.6,0.2c0.1,0.4,0.1,0.8,0.2,1.2s0.1,0.5,0.1,0.8s0,0.5,0,0.8c0,0.5,0,1,0,1.5s0,0.7,0,1
		c-0.1-0.4-0.3-1.1-0.3-1.2c-0.3-1-1.5-2.6-2.7-2.6c-0.7,0-1.3,0.7-1.3,1.4v0.1c0.2,0.8,0.7,1.5,1.5,1.8c0.9,0.3,1.8,0.5,2.7,0.6
		c0,0.5,0,1.1-0.1,1.5c-0.1,1.7-0.2,3.1-0.3,4.1s-0.2,1.5-0.2,1.5c0,0.2,0.1,0.4,0.3,0.5c0.2,0,0.4-0.1,0.4-0.3l0,0
		c0,0,0.1-0.6,0.2-1.6s0.2-2.4,0.2-4.1c0-0.5,0-1.1,0-1.7c0.9-0.1,1.8-0.4,2.7-0.8c0.7-0.4,1.2-1.1,1.4-1.9c0.1-0.7-0.4-1.4-1.2-1.5
		C104.9,303.4,104.8,303.4,104.8,303.4z"/>
	<path class="st0" d="M112.1,285.4c0,0,0.1-1.4,0.1-1.5c0-1-0.7-2.9-1.8-3.2c-0.7-0.2-1.4,0.3-1.6,1v0.1c0,0.8,0.3,1.6,0.9,2.2
		C110.4,284.6,111.2,285.1,112.1,285.4z"/>
	<path class="st0" d="M113.7,282.5c0.2-0.3,0.4-0.6,0.5-0.9c0.9-0.1,1.8-0.4,2.6-0.8c0.7-0.4,1.2-1.1,1.3-2c0.1-0.7-0.5-1.4-1.2-1.4
		h-0.1c-1.1,0.1-2.2,1.8-2.4,2.8c0,0.1-0.2,1.4-0.2,1.4l0,0L113.7,282.5c-0.4,0.6-0.8,1.3-1.2,2c-0.4,0.8-0.7,1.7-1,2.6
		c-0.3,1-0.6,2-0.8,3l0,0c0-0.3-0.2-1.2-0.3-1.3c-0.3-1-1.4-2.6-2.6-2.6c-0.7,0-1.3,0.6-1.3,1.3c0,0.1,0,0.1,0,0.2
		c0.2,0.8,0.7,1.5,1.4,1.9c0.9,0.4,1.8,0.6,2.7,0.7c-0.1,1-0.2,2.1-0.2,3.1c0,0.6,0,1.2,0,1.9c-0.1-0.3-0.1-0.5-0.1-0.6
		c-0.3-1-1.4-2.6-2.6-2.7c-0.7,0-1.3,0.6-1.3,1.3c0,0.1,0,0.1,0,0.2c0.2,0.8,0.7,1.5,1.4,1.9c0.8,0.4,1.7,0.6,2.6,0.7v0.7
		c0.1,1.1,0.1,2.3,0.2,3.4c0,0.4,0,0.8,0,1.2c0-0.3-0.1-0.5-0.1-0.5c-0.3-1-1.4-2.6-2.6-2.7c-0.7,0-1.3,0.6-1.3,1.4v0.1
		c0.2,0.8,0.7,1.5,1.4,1.9c0.8,0.4,1.7,0.6,2.5,0.7c0,0.4,0,0.8-0.1,1.2s0,0.5-0.1,0.8s-0.1,0.5-0.1,0.8c-0.1,0.5-0.2,1-0.3,1.5
		c-0.1,0.3-0.1,0.6-0.2,1c0-0.4,0-1.1,0-1.2c-0.2-1-1-2.8-2.1-3c-0.7-0.1-1.4,0.4-1.5,1.1v0.1c0,0.8,0.5,1.6,1.1,2.1
		c0.8,0.5,1.6,0.9,2.5,1.1c-0.1,0.5-0.2,1-0.3,1.5c-0.4,1.6-0.8,3-1.1,4s-0.5,1.5-0.5,1.5c0,0.2,0.1,0.4,0.3,0.5
		c0.2,0,0.4-0.1,0.4-0.2l0,0c0,0,0.2-0.5,0.5-1.5s0.6-2.4,1-4c0.1-0.5,0.2-1.1,0.3-1.7c0.9,0.1,1.9,0,2.8-0.3
		c0.8-0.3,1.4-0.9,1.7-1.6c0.2-0.7-0.2-1.5-0.9-1.7h-0.1c-1.1-0.2-2.5,1.3-3,2.2c0,0-0.3,0.7-0.4,1c0-0.2,0.1-0.5,0.1-0.7
		c0.1-0.5,0.2-1,0.2-1.5l0.1-0.8c0-0.3,0-0.5,0.1-0.8c0-0.6,0-1.3,0-1.9c0.9,0.2,1.8,0.2,2.7,0.1c0.8-0.1,1.5-0.6,1.9-1.4
		c0.3-0.7,0-1.5-0.7-1.8c0,0-0.1,0-0.1-0.1c-1.1-0.3-2.7,0.9-3.3,1.7c0,0-0.4,0.7-0.6,1c0-0.4,0-0.8,0-1.2c0-1.1-0.1-2.3-0.2-3.4
		c0-0.4,0-0.7-0.1-1c0.9,0.2,1.9,0.3,2.8,0.2c0.8-0.1,1.5-0.6,1.9-1.4c0.3-0.7,0-1.5-0.6-1.8h-0.1c-1.1-0.3-2.7,0.9-3.3,1.7
		c0,0.1-0.5,1-0.7,1.2c-0.1-0.8-0.1-1.5-0.1-2.3c0-1,0-2,0.1-3c0.9,0.2,1.9,0.2,2.8,0.2c0.8-0.1,1.5-0.6,1.9-1.3
		c0.3-0.7,0-1.5-0.7-1.8c0,0-0.1,0-0.1-0.1c-1.1-0.3-2.7,0.9-3.3,1.7c0,0.1-0.6,1-0.7,1.2c0-0.1,0-0.1,0-0.2c0.1-1,0.4-2,0.7-3
		c0.2-0.5,0.4-1,0.6-1.5c0.9,0.3,1.8,0.4,2.7,0.5c0.8-0.1,1.6-0.5,2.1-1.1c0.4-0.6,0.2-1.5-0.5-1.8c0,0-0.1,0-0.1-0.1
		c-1-0.5-2.8,0.6-3.4,1.4l-0.6,0.8c0.1-0.2,0.2-0.4,0.3-0.6C113,283.8,113.3,283.1,113.7,282.5z"/>
	<g class="st3">
		<path class="st4" d="M326.5,284.5c0.7-0.4,1.2-1.2,1.3-2c0-0.7-0.5-1.4-1.3-1.4c-0.1,0-0.1,0-0.2,0c-1.1,0.1-2.1,1.9-2.4,2.8
			c0,0.1-0.2,1.5-0.1,1.5C324.7,285.3,325.6,284.9,326.5,284.5z"/>
		<path class="st5" d="M316.7,305.9c-0.1-0.6-0.7-1-1.3-0.9h-0.1c-0.9,0.3-1.3,1.9-1.3,2.7c0,0,0.1,0.7,0.1,1
			c-0.1-0.3-0.2-0.5-0.3-0.8s-0.3-0.8-0.4-1.1c-0.1-0.2-0.1-0.4-0.2-0.6s-0.1-0.4-0.2-0.6s-0.1-0.6-0.2-0.9c0.7-0.2,1.4-0.5,2-0.9
			c0.5-0.4,0.9-1,0.9-1.7c0-0.6-0.6-1-1.1-1h-0.1c-0.9,0.2-1.6,1.7-1.7,2.5c0,0,0,0.2,0,0.4l-0.1-0.9c-0.1-0.9-0.2-1.8-0.3-2.7
			c0-0.2,0-0.4-0.1-0.6c0.7-0.2,1.4-0.5,2-0.9c0.5-0.4,0.9-1,0.9-1.7c0-0.6-0.6-1-1.1-1H314c-0.9,0.1-1.6,1.7-1.7,2.5
			c0,0,0,0.2,0,0.5c-0.1-0.5-0.1-1-0.2-1.5c-0.1-0.8-0.3-1.7-0.6-2.5c0.7-0.2,1.4-0.5,2.1-0.9c0.5-0.4,0.9-1,0.9-1.7
			c0-0.6-0.6-1-1.1-1h-0.1c-0.9,0.2-1.6,1.7-1.7,2.5c0,0,0,0.8,0,1.1l0,0c-0.3-0.8-0.6-1.6-1-2.3c-0.4-0.7-0.7-1.3-1.2-1.9
			c-0.4-0.6-0.8-1.1-1.1-1.5c-0.2-0.2-0.4-0.5-0.5-0.6l0,0l-0.3-1.1c-0.3-0.8-1.4-2-2.3-1.9c-0.6,0.1-1,0.6-0.9,1.2v0.1
			c0.2,0.6,0.7,1.1,1.3,1.4c0.7,0.2,1.4,0.3,2.2,0.3c0.2,0.2,0.4,0.4,0.5,0.7c0.4,0.4,0.7,1,1.1,1.5l0.3,0.5l-0.6-0.6
			c-0.6-0.5-2.2-1.1-2.9-0.6c-0.5,0.3-0.6,1-0.3,1.5c0,0,0,0.1,0.1,0.1c0.5,0.5,1.1,0.7,1.8,0.6c0.7-0.1,1.4-0.4,2.1-0.7
			c0.2,0.4,0.5,0.8,0.6,1.1c0.4,0.7,0.7,1.5,0.9,2.3v0.1c-0.1-0.1-0.7-0.9-0.7-0.9c-0.6-0.6-2-1.4-2.9-1c-0.5,0.3-0.7,0.9-0.4,1.5
			c0,0,0,0.1,0.1,0.1c0.4,0.5,1.1,0.8,1.7,0.8c0.8-0.1,1.5-0.2,2.2-0.5c0.2,0.8,0.4,1.6,0.5,2.4c0.1,0.6,0.1,1.2,0.2,1.9
			c-0.1-0.2-0.6-0.9-0.7-0.9c-0.6-0.6-2-1.4-2.9-1c-0.5,0.3-0.7,0.9-0.4,1.5c0,0,0,0.1,0.1,0.1c0.4,0.5,1.1,0.8,1.7,0.8
			c0.8-0.1,1.5-0.2,2.2-0.5c0,0.3,0,0.6,0.1,0.8c0.1,0.9,0.2,1.9,0.3,2.8c0,0.3,0.1,0.6,0.1,0.9c-0.2-0.3-0.6-0.7-0.6-0.8
			c-0.6-0.6-2-1.4-2.9-1c-0.5,0.3-0.7,0.9-0.4,1.5c0,0,0,0.1,0.1,0.1c0.4,0.5,1.1,0.8,1.7,0.8c0.7,0,1.4-0.2,2.1-0.5
			c0.1,0.5,0.2,1,0.3,1.5c0,0.2,0.1,0.4,0.2,0.6s0.1,0.4,0.2,0.6c0.1,0.4,0.3,0.8,0.4,1.2c0.1,0.2,0.1,0.4,0.2,0.6
			c-0.2-0.3-0.4-0.8-0.5-0.8c-0.5-0.7-1.8-1.7-2.7-1.4c-0.6,0.2-0.9,0.8-0.7,1.4v0.1c0.3,0.6,0.9,1,1.6,1.1c0.8,0.1,1.5,0,2.2-0.2
			c0.2,0.5,0.3,0.9,0.5,1.3c0.5,1.3,1,2.4,1.4,3.1s0.6,1.2,0.6,1.2l0,0c0.1,0.2,0.3,0.2,0.4,0.1s0.2-0.3,0.1-0.4
			c0,0-0.2-0.4-0.6-1.1s-0.9-1.8-1.4-3c-0.2-0.4-0.3-0.8-0.5-1.2c0.7-0.3,1.3-0.7,1.9-1.2C316.6,307.2,316.8,306.5,316.7,305.9z"/>
		<path class="st5" d="M309.6,291.3c0.7-0.4,1.3-0.9,1.8-1.5c0.4-0.5,0.6-1.2,0.4-1.9c-0.2-0.6-0.8-0.9-1.4-0.7h-0.1
			c-0.8,0.4-1.1,2-1,2.8C309.3,290.2,309.5,291.3,309.6,291.3z"/>
		<path class="st6" d="M353.5,295c-0.8-0.5-2.3,0.3-2.9,0.8l-0.7,0.8l0,0c0.3-0.8,0.5-1.6,0.7-2.4c0.1-0.7,0.2-1.5,0.3-2.2
			c0.1-0.7,0.1-1.3,0.1-1.9c0-0.3,0-0.6,0-0.9l0,0c0,0,0.4-1,0.5-1.1c0.2-0.8,0.2-2.4-0.6-3c-0.5-0.3-1.2-0.2-1.5,0.3
			c0,0,0,0.1-0.1,0.1c-0.2,0.6-0.2,1.3,0.1,1.9c0.4,0.6,0.9,1.2,1.5,1.6c0,0.3,0,0.6,0,0.9c0,0.6,0,1.2-0.1,1.9c0,0.2,0,0.4-0.1,0.6
			c0-0.3-0.1-0.8-0.1-0.8c-0.2-0.8-1-2.3-1.9-2.4c-0.6-0.1-1.1,0.4-1.2,1v0.1c0.1,0.7,0.4,1.3,1,1.6c0.7,0.4,1.4,0.6,2.1,0.8
			c-0.1,0.4-0.1,0.9-0.2,1.3c-0.2,0.8-0.4,1.6-0.7,2.4l-0.1,0.1c0-0.2,0-1.1,0-1.1c-0.1-0.8-0.7-2.4-1.6-2.6
			c-0.6-0.1-1.2,0.3-1.3,0.9v0.1c0,0.7,0.3,1.3,0.8,1.7c0.6,0.4,1.3,0.8,2,1c-0.3,0.8-0.7,1.5-1.2,2.2c-0.3,0.5-0.6,1-1,1.6
			c0-0.2,0-1.1,0-1.1c-0.1-0.8-0.7-2.4-1.6-2.5c-0.6-0.1-1.2,0.3-1.3,0.9v0.1c0,0.7,0.3,1.3,0.8,1.7c0.6,0.4,1.3,0.8,2,1l-0.5,0.7
			c-0.5,0.8-1,1.5-1.5,2.3c-0.2,0.3-0.3,0.5-0.5,0.8c0-0.3,0-0.9,0-1c-0.1-0.8-0.7-2.4-1.6-2.5c-0.6-0.1-1.2,0.3-1.3,0.8
			c0,0.1,0,0.1,0,0.2c0,0.7,0.3,1.3,0.8,1.7c0.6,0.4,1.3,0.8,2,1c-0.3,0.5-0.5,0.9-0.8,1.4c-0.1,0.2-0.2,0.4-0.3,0.6l-0.3,0.6
			c-0.2,0.4-0.3,0.8-0.4,1.2c-0.1,0.2-0.1,0.4-0.2,0.6l0.2-0.9c0-0.8-0.3-2.4-1.2-2.8c-0.6-0.2-1.2,0.1-1.4,0.7v0.1
			c-0.1,0.7,0.1,1.3,0.5,1.8c0.5,0.5,1.2,1,1.8,1.3c-0.2,0.5-0.3,0.9-0.4,1.3c-0.4,1.3-0.7,2.5-0.9,3.3s-0.3,1.3-0.3,1.3l0,0
			c0,0.2,0.1,0.3,0.2,0.4l0,0c0.2,0,0.3-0.1,0.4-0.2l0,0c0,0,0.1-0.5,0.3-1.2s0.5-1.9,0.9-3.2c0.1-0.4,0.2-0.8,0.4-1.2
			c0.7,0.2,1.5,0.3,2.2,0.3c0.7-0.1,1.3-0.4,1.6-1c0.3-0.5,0.1-1.2-0.5-1.5h-0.1c-0.9-0.3-2.2,0.6-2.7,1.3l-0.5,0.8
			c0.1-0.3,0.2-0.5,0.3-0.8l0.4-1.1l0.2-0.6c0.1-0.2,0.2-0.4,0.3-0.6l0.4-0.9c0.7,0.3,1.4,0.5,2.1,0.5s1.3-0.2,1.8-0.7
			c0.4-0.5,0.3-1.2-0.2-1.5c0,0-0.1,0-0.1-0.1c-0.8-0.5-2.3,0.3-2.9,0.8c0,0-0.1,0.1-0.3,0.3c0.1-0.3,0.3-0.5,0.5-0.8
			c0.5-0.8,1-1.5,1.5-2.3l0.3-0.5c0.7,0.3,1.4,0.5,2.1,0.6c0.7,0,1.3-0.3,1.8-0.8c0.4-0.5,0.3-1.2-0.2-1.5c0,0-0.1,0-0.1-0.1
			c-0.8-0.5-2.3,0.3-2.9,0.8l-0.3,0.4c0.3-0.4,0.5-0.9,0.8-1.3c0.4-0.7,0.8-1.5,1.1-2.3c0.7,0.3,1.4,0.5,2.2,0.6
			c0.7,0,1.3-0.3,1.8-0.8C354,296.2,354,295.5,353.5,295C353.5,295.1,353.5,295.1,353.5,295z"/>
		<path class="st4" d="M353.9,290.2c-0.9-0.2-2.1,0.9-2.6,1.5c0,0.1-0.5,1.1-0.5,1.1c0.8,0.1,1.5,0.1,2.3,0c0.6-0.2,1.2-0.6,1.5-1.2
			C354.8,291,354.6,290.4,353.9,290.2C354,290.2,353.9,290.2,353.9,290.2z"/>
		<path class="st4" d="M330.5,284.5c0.8,0.4,1.7,0.7,2.6,0.9c0,0-0.1-1.4-0.1-1.5c-0.2-1-1.2-2.8-2.4-2.8c-0.7-0.1-1.4,0.5-1.4,1.2
			c0,0.1,0,0.1,0,0.2C329.3,283.4,329.8,284.1,330.5,284.5z"/>
		<path class="st5" d="M338.5,303.4c-1.1,0-2.2,1.8-2.5,2.7c0,0-0.1,0.7-0.2,1.1c0-0.2,0-0.5,0-0.7c0-0.5,0-1,0-1.5l-0.1-0.8
			c0-0.3-0.1-0.5-0.1-0.8c-0.1-0.6-0.2-1.3-0.3-1.9c0.9,0,1.8-0.1,2.7-0.4c0.8-0.3,1.4-0.9,1.6-1.7c0.2-0.7-0.2-1.4-1-1.6
			c-0.1,0-0.1,0-0.2,0c-1.1-0.1-2.5,1.4-2.9,2.3c0,0.1-0.3,0.8-0.4,1.1c-0.1-0.4-0.2-0.8-0.3-1.1c-0.3-1.1-0.6-2.2-0.9-3.3l-0.3-1
			c0.9,0,1.9-0.1,2.8-0.4c0.8-0.3,1.4-0.9,1.6-1.7c0.2-0.7-0.2-1.4-1-1.6h-0.1c-1.1-0.1-2.5,1.4-2.9,2.3c0,0.1-0.4,1.1-0.4,1.3
			c-0.2-0.7-0.4-1.5-0.5-2.2c-0.2-1-0.4-2-0.5-3c0.9,0,1.9-0.1,2.8-0.4c0.8-0.3,1.4-0.9,1.6-1.7c0.2-0.7-0.2-1.4-1-1.6
			c-0.1,0-0.1,0-0.2,0c-1.1-0.1-2.5,1.4-2.9,2.3c0,0.1-0.4,1.1-0.4,1.4c0-0.1,0-0.1,0-0.2c-0.1-1,0-2,0.1-3.1
			c0.1-0.6,0.2-1.1,0.3-1.6c0.9,0.1,1.8,0.1,2.7-0.1c0.8-0.2,1.5-0.8,1.8-1.5s-0.1-1.5-0.8-1.7h-0.1c-1.1-0.3-2.6,1.1-3.1,2
			l-0.4,0.9c0-0.2,0.1-0.5,0.1-0.7c0.2-0.8,0.4-1.6,0.6-2.3c0.1-0.4,0.2-0.7,0.3-1c0.9-0.3,1.7-0.8,2.4-1.3c0.6-0.6,0.9-1.3,0.9-2.2
			c-0.1-0.7-0.8-1.3-1.5-1.2h-0.1c-1.1,0.3-1.8,2.2-1.9,3.2c0,0.1,0.1,1.5,0.1,1.5l0,0c-0.1,0.3-0.2,0.6-0.4,1
			c-0.2,0.7-0.5,1.4-0.7,2.2c-0.2,0.9-0.4,1.8-0.5,2.7c-0.1,1-0.2,2.1-0.2,3.1l0,0c-0.1-0.3-0.5-1.2-0.5-1.2c-0.5-0.9-1.9-2.3-3-2.1
			c-0.2,0.4-0.7,0.4-1.1,0.2c-0.1-0.1-0.1-0.1-0.2-0.2c-1.1-0.2-2.5,1.2-3,2.1c0,0.1-0.4,0.9-0.5,1.2l0,0c0-1,0-2.1-0.2-3.1
			c-0.1-0.9-0.3-1.8-0.5-2.7c-0.2-0.8-0.5-1.6-0.7-2.2c-0.1-0.4-0.2-0.7-0.4-1l0,0c0,0,0.1-1.4,0.1-1.5c0-1-0.8-2.9-1.9-3.2
			c-0.7-0.2-1.4,0.3-1.6,1v0.1c0,0.8,0.3,1.6,0.9,2.2c0.7,0.6,1.5,1,2.4,1.3c0.1,0.3,0.2,0.6,0.3,1c0.2,0.7,0.4,1.4,0.6,2.3
			c0,0.2,0.1,0.5,0.1,0.7c-0.2-0.4-0.4-0.9-0.4-0.9c-0.5-0.9-2-2.2-3.1-2c-0.7,0.2-1.1,0.9-1,1.6v0.1c0.4,0.7,1,1.3,1.8,1.5
			c0.9,0.2,1.8,0.2,2.7,0.1c0.1,0.5,0.2,1,0.3,1.6c0.1,1,0.2,2,0.1,3.1c0,0.1,0,0.1,0,0.2c0-0.2-0.4-1.3-0.4-1.4
			c-0.4-0.9-1.8-2.4-2.9-2.3c-0.7,0.1-1.2,0.8-1.1,1.5v0.1c0.3,0.8,0.9,1.4,1.6,1.7c0.9,0.3,1.8,0.4,2.8,0.4c-0.1,1-0.2,2-0.4,3
			c-0.2,0.7-0.4,1.5-0.5,2.2c-0.1-0.3-0.4-1.3-0.4-1.3c-0.4-0.9-1.8-2.5-2.9-2.3c-0.7,0.1-1.2,0.8-1.1,1.5v0.1
			c0.3,0.8,0.9,1.4,1.6,1.7c0.9,0.3,1.8,0.4,2.8,0.4c-0.1,0.3-0.2,0.7-0.3,1c-0.3,1.1-0.6,2.2-0.9,3.3c-0.1,0.4-0.2,0.8-0.3,1.1
			c-0.1-0.4-0.3-1.1-0.4-1.1c-0.4-0.9-1.8-2.5-2.9-2.3c-0.7,0.1-1.2,0.8-1.1,1.5v0.1c0.3,0.8,0.9,1.4,1.6,1.7
			c0.9,0.3,1.8,0.4,2.7,0.4c-0.1,0.6-0.2,1.3-0.3,1.9c0,0.3-0.1,0.5-0.1,0.8l-0.1,0.8c0,0.5,0,1,0,1.5c0,0.3,0,0.5,0,0.7
			c-0.1-0.4-0.2-1-0.2-1.1c-0.3-1-1.4-2.7-2.5-2.7c-0.7-0.1-1.4,0.4-1.5,1.1c0,0.1,0,0.3,0,0.4c0.2,0.8,0.7,1.5,1.4,1.9
			c0.8,0.4,1.7,0.6,2.6,0.8c0,0.6,0,1.2,0,1.7c0,1.7,0.1,3.1,0.2,4.1s0.2,1.6,0.2,1.6l0,0c0,0.2,0.3,0.4,0.5,0.3
			c0.2,0,0.3-0.2,0.3-0.4c0,0-0.1-0.5-0.2-1.5s-0.2-2.4-0.3-4.1c0-0.5,0-1-0.1-1.5c0.9-0.1,1.8-0.3,2.7-0.6c0.7-0.4,1.3-1,1.5-1.8
			c0.1-0.7-0.4-1.4-1.1-1.5h-0.1c-1.1,0-2.3,1.6-2.7,2.6c0,0.1-0.2,0.8-0.3,1.2c0-0.3,0-0.6,0-1s0-1,0-1.5v-0.8c0-0.3,0-0.5,0.1-0.8
			s0.1-0.8,0.2-1.2c0.9,0.1,1.8,0,2.6-0.2c0.8-0.2,1.4-0.8,1.7-1.6c0.2-0.7-0.2-1.5-0.9-1.7h-0.1c-1.1-0.2-2.5,1.2-3,2.1
			c0,0-0.1,0.2-0.2,0.5c0.1-0.4,0.1-0.8,0.2-1.1c0.2-1.1,0.5-2.2,0.8-3.3c0.1-0.2,0.1-0.5,0.2-0.7c0.9,0.1,1.8,0,2.7-0.2
			c0.8-0.2,1.4-0.8,1.7-1.6c0.2-0.7-0.1-1.4-0.8-1.7c-0.1,0-0.1,0-0.2,0c-1.1-0.2-2.5,1.2-3,2.1l-0.2,0.5c0.1-0.6,0.3-1.2,0.4-1.8
			c0.2-1,0.3-2.1,0.4-3.1c0.9,0.1,1.9,0,2.8-0.2c0.5-0.2,1-0.5,1.4-1c0.4,0.4,0.9,0.8,1.4,1c0.9,0.2,1.8,0.3,2.8,0.2
			c0.1,1.1,0.2,2.1,0.4,3.1c0.1,0.6,0.2,1.2,0.4,1.8c-0.1-0.3-0.2-0.5-0.2-0.5c-0.5-0.9-1.9-2.3-3-2.1c-0.7,0.2-1.2,0.9-1,1.6v0.1
			c0.3,0.8,1,1.3,1.8,1.6c0.9,0.2,1.8,0.3,2.7,0.2c0.1,0.2,0.1,0.5,0.2,0.7c0.3,1.1,0.5,2.2,0.8,3.3c0.1,0.4,0.2,0.8,0.2,1.1
			l-0.2-0.5c-0.5-0.9-1.9-2.3-3-2.1c-0.7,0.1-1.2,0.8-1,1.6c0,0.1,0,0.1,0,0.2c0.3,0.8,1,1.3,1.7,1.6c0.9,0.2,1.7,0.3,2.6,0.2
			c0.1,0.4,0.1,0.8,0.2,1.2c0,0.3,0.1,0.5,0.1,0.8s0,0.5,0,0.8c0,0.5,0,1,0,1.5s0,0.7,0,1c-0.1-0.4-0.3-1.1-0.3-1.2
			c-0.3-1-1.5-2.6-2.7-2.6c-0.7,0-1.3,0.7-1.3,1.4v0.1c0.2,0.8,0.7,1.5,1.5,1.8c0.9,0.3,1.8,0.5,2.7,0.6c0,0.5,0,1.1,0,1.5
			c-0.1,1.7-0.2,3.1-0.3,4.1s-0.2,1.5-0.2,1.5c0,0.2,0.1,0.4,0.3,0.5c0.2,0,0.4-0.1,0.4-0.3l0,0l0,0c0,0,0.1-0.6,0.1-1.6
			s0.2-2.4,0.2-4.1c0-0.5,0-1.1,0-1.7c0.9-0.1,1.8-0.4,2.6-0.8c0.7-0.4,1.2-1.1,1.4-1.9c0.1-0.7-0.4-1.4-1.1-1.5
			C338.6,303.4,338.5,303.4,338.5,303.4z"/>
	</g>
	<g class="st3">
		<path class="st5" d="M394.9,284.5c0.7-0.4,1.2-1.2,1.3-2c0-0.7-0.5-1.4-1.3-1.4c-0.1,0-0.1,0-0.2,0c-1.1,0.1-2.1,1.9-2.4,2.8
			c0,0.1-0.2,1.5-0.1,1.5C393.2,285.3,394.1,284.9,394.9,284.5z"/>
		<path class="st5" d="M385.2,305.9c-0.1-0.6-0.7-1-1.3-0.9h-0.1c-0.9,0.3-1.3,1.9-1.3,2.7c0,0,0.1,0.7,0.1,1
			c-0.1-0.3-0.2-0.5-0.3-0.8s-0.3-0.8-0.4-1.1l-0.2-0.6c-0.1-0.2-0.1-0.4-0.2-0.6s-0.1-0.6-0.2-0.9c0.7-0.2,1.3-0.5,2-0.9
			c0.5-0.4,0.9-1,0.9-1.7c0-0.6-0.6-1-1.1-1H383c-0.9,0.2-1.6,1.7-1.7,2.5c0,0,0,0.2,0,0.4l-0.1-0.9c-0.1-0.9-0.2-1.8-0.3-2.7
			c0-0.2,0-0.4-0.1-0.6c0.7-0.2,1.4-0.5,2-0.9c0.5-0.4,0.9-1,0.9-1.7c0-0.6-0.6-1-1.1-1h-0.1c-0.9,0.1-1.6,1.7-1.7,2.5
			c0,0.2,0,0.3,0,0.5c-0.1-0.5-0.1-1-0.2-1.5c-0.1-0.8-0.3-1.7-0.6-2.5c0.7-0.2,1.4-0.5,2.1-0.9c0.5-0.4,0.9-1,0.9-1.7
			c0-0.6-0.6-1-1.1-1h-0.1c-0.9,0.2-1.6,1.7-1.7,2.5c0,0,0,0.8,0,1.1l0,0c-0.3-0.8-0.6-1.6-1-2.3c-0.4-0.7-0.7-1.3-1.2-1.9
			c-0.4-0.6-0.8-1.1-1.1-1.5c-0.2-0.2-0.4-0.5-0.5-0.6l0,0l-0.3-1.1c-0.3-0.8-1.4-2-2.3-1.9c-0.6,0.1-1,0.6-0.9,1.2v0.1
			c0.2,0.6,0.7,1.1,1.3,1.4c0.7,0.2,1.4,0.3,2.2,0.3l0.5,0.7c0.3,0.4,0.7,1,1.1,1.5l0.3,0.5l-0.6-0.6c-0.6-0.5-2.2-1.1-2.9-0.6
			c-0.5,0.3-0.6,1-0.3,1.5c0,0,0,0.1,0.1,0.1c0.5,0.5,1.1,0.7,1.8,0.6c0.7-0.1,1.4-0.4,2.1-0.7c0.2,0.4,0.4,0.7,0.6,1.1
			c0.4,0.7,0.7,1.5,0.9,2.3v0.1c-0.1-0.1-0.7-0.9-0.7-0.9c-0.6-0.6-2-1.4-2.9-1c-0.5,0.3-0.7,0.9-0.4,1.5c0,0,0,0.1,0.1,0.1
			c0.4,0.5,1.1,0.8,1.7,0.8c0.8-0.1,1.5-0.2,2.2-0.5c0.2,0.8,0.4,1.6,0.5,2.4c0.1,0.6,0.2,1.2,0.2,1.9c-0.1-0.2-0.6-0.9-0.7-0.9
			c-0.6-0.6-2-1.4-2.9-1c-0.5,0.3-0.7,0.9-0.4,1.5c0,0,0,0.1,0.1,0.1c0.4,0.5,1.1,0.8,1.7,0.8c0.8-0.1,1.5-0.2,2.2-0.5
			c0,0.3,0,0.6,0.1,0.8c0.1,0.9,0.2,1.9,0.3,2.8c0,0.3,0.1,0.6,0.1,0.9c-0.2-0.3-0.6-0.7-0.6-0.8c-0.6-0.6-2-1.4-2.9-1
			c-0.5,0.3-0.7,0.9-0.4,1.5c0,0,0,0.1,0.1,0.1c0.4,0.5,1.1,0.8,1.7,0.8c0.7,0,1.4-0.2,2.1-0.5c0.1,0.5,0.2,1,0.3,1.5
			c0,0.2,0.1,0.4,0.2,0.6s0.1,0.4,0.2,0.6c0.1,0.4,0.3,0.8,0.4,1.2c0.1,0.2,0.1,0.4,0.2,0.6c-0.2-0.3-0.4-0.8-0.5-0.8
			c-0.5-0.7-1.8-1.7-2.7-1.4c-0.6,0.2-0.9,0.8-0.7,1.4v0.1c0.3,0.6,0.9,1,1.6,1.1c0.8,0.1,1.5,0,2.2-0.2c0.2,0.5,0.3,0.9,0.5,1.3
			c0.5,1.3,1,2.4,1.4,3.1s0.6,1.2,0.6,1.2l0,0c0.1,0.2,0.3,0.2,0.4,0.1s0.2-0.3,0.1-0.4c0,0-0.2-0.4-0.6-1.1s-0.9-1.8-1.4-3
			c-0.2-0.4-0.3-0.8-0.5-1.2c0.7-0.3,1.3-0.7,1.9-1.2C385.1,307.2,385.3,306.5,385.2,305.9z"/>
		<path class="st5" d="M378,291.3c0.7-0.4,1.3-0.9,1.8-1.4c0.4-0.5,0.6-1.2,0.4-1.9c-0.2-0.6-0.8-0.9-1.4-0.7h-0.1
			c-0.8,0.4-1.1,2-1,2.8C377.8,290.2,378,291.3,378,291.3z"/>
		<path class="st5" d="M422,295c-0.8-0.5-2.3,0.3-2.9,0.8l-0.7,0.8l0,0c0.3-0.8,0.5-1.6,0.7-2.4c0.2-0.7,0.3-1.5,0.3-2.2
			c0.1-0.7,0.1-1.3,0.1-1.9c0-0.3,0-0.6,0-0.9l0,0c0,0,0.4-1,0.5-1.1c0.2-0.8,0.2-2.4-0.6-3c-0.5-0.3-1.2-0.2-1.5,0.3
			c0,0,0,0.1-0.1,0.1c-0.2,0.6-0.2,1.3,0.1,1.9c0.4,0.6,0.9,1.2,1.5,1.6c0,0.3,0,0.6,0,0.9c0,0.6,0,1.2-0.1,1.9c0,0.2,0,0.4-0.1,0.6
			c0-0.3-0.1-0.8-0.1-0.8c-0.2-0.8-1-2.3-1.9-2.4c-0.6-0.1-1.1,0.4-1.2,1v0.1c0.1,0.7,0.4,1.3,1,1.6c0.7,0.4,1.4,0.6,2.1,0.8
			c-0.1,0.4-0.1,0.9-0.2,1.3c-0.2,0.8-0.4,1.6-0.7,2.4l-0.1,0.1c0-0.2,0-1.1,0-1.1c-0.1-0.8-0.7-2.4-1.6-2.6
			c-0.6-0.1-1.2,0.3-1.3,0.9v0.1c0,0.7,0.3,1.3,0.8,1.7c0.6,0.4,1.3,0.8,2,1c-0.3,0.8-0.7,1.5-1.1,2.2c-0.3,0.5-0.6,1-1,1.6
			c0-0.2,0-1.1,0-1.1c-0.1-0.8-0.7-2.4-1.6-2.5c-0.6-0.1-1.2,0.3-1.3,0.9v0.1c0,0.7,0.3,1.3,0.8,1.7c0.6,0.4,1.3,0.8,2,1l-0.5,0.7
			c-0.5,0.8-1,1.5-1.5,2.3c-0.2,0.3-0.3,0.5-0.5,0.8c0-0.3,0-0.9,0-1c-0.1-0.8-0.7-2.4-1.6-2.5c-0.6-0.1-1.2,0.3-1.3,0.8
			c0,0.1,0,0.1,0,0.2c0,0.7,0.3,1.3,0.8,1.7c0.6,0.4,1.3,0.8,2,1c-0.3,0.5-0.5,0.9-0.8,1.4c-0.1,0.2-0.2,0.4-0.3,0.6l-0.3,0.6
			c-0.2,0.4-0.3,0.8-0.4,1.2c-0.1,0.2-0.1,0.4-0.2,0.6c0.1-0.3,0.1-0.9,0.1-0.9c0.1-0.8-0.3-2.4-1.2-2.8c-0.6-0.2-1.2,0.1-1.4,0.7
			v0.1c-0.1,0.7,0.1,1.3,0.5,1.8c0.5,0.5,1.2,1,1.8,1.3c-0.2,0.5-0.3,0.9-0.4,1.3c-0.4,1.3-0.7,2.5-0.9,3.3s-0.3,1.3-0.3,1.3l0,0
			c0,0.2,0.1,0.3,0.3,0.4c0.2,0,0.3-0.1,0.4-0.2l0,0c0,0,0.1-0.5,0.3-1.2s0.5-1.9,0.9-3.2c0.1-0.4,0.2-0.8,0.4-1.2
			c0.7,0.2,1.5,0.3,2.2,0.3c0.7-0.1,1.3-0.4,1.6-1c0.3-0.5,0.1-1.2-0.5-1.5h-0.1c-0.9-0.3-2.2,0.6-2.7,1.3l-0.5,0.8
			c0.1-0.3,0.2-0.5,0.3-0.8l0.4-1.1l0.2-0.6c0.1-0.2,0.2-0.4,0.3-0.6s0.3-0.6,0.4-0.9c0.7,0.3,1.4,0.5,2.1,0.5s1.3-0.2,1.8-0.7
			c0.4-0.5,0.3-1.2-0.2-1.5c0,0-0.1,0-0.1-0.1c-0.8-0.5-2.3,0.3-2.9,0.8c0,0-0.1,0.1-0.3,0.3c0.1-0.3,0.3-0.5,0.5-0.8
			c0.5-0.8,1-1.5,1.5-2.3c0.1-0.2,0.2-0.3,0.3-0.5c0.7,0.3,1.4,0.5,2.1,0.6c0.7,0,1.3-0.3,1.8-0.8c0.4-0.5,0.3-1.2-0.2-1.5
			c0,0-0.1,0-0.1-0.1c-0.8-0.5-2.3,0.3-2.9,0.8l-0.3,0.4c0.3-0.4,0.5-0.9,0.8-1.3c0.4-0.7,0.8-1.5,1.1-2.3c0.7,0.3,1.4,0.5,2.2,0.6
			c0.7,0,1.3-0.3,1.8-0.8C422.6,296.2,422.5,295.5,422,295C422.1,295.1,422,295.1,422,295z"/>
		<path class="st5" d="M422.4,290.2c-0.9-0.2-2.1,0.9-2.6,1.5c0,0.1-0.5,1.1-0.5,1.1c0.8,0.1,1.5,0.1,2.3,0c0.6-0.2,1.2-0.6,1.5-1.2
			C423.3,291,423.1,290.4,422.4,290.2C422.4,290.2,422.4,290.2,422.4,290.2z"/>
		<path class="st5" d="M398.9,284.5c0.8,0.4,1.7,0.7,2.6,0.9c0,0-0.1-1.4-0.1-1.5c-0.2-1-1.2-2.8-2.4-2.8c-0.7-0.1-1.4,0.5-1.4,1.2
			c0,0.1,0,0.1,0,0.2C397.8,283.4,398.2,284.1,398.9,284.5z"/>
		<path class="st5" d="M407,303.4c-1.1,0-2.2,1.8-2.5,2.7c0,0-0.1,0.7-0.2,1.1c0-0.2,0-0.5,0-0.7c0-0.5,0-1,0-1.5l-0.1-0.8
			c0-0.3-0.1-0.5-0.1-0.8c-0.1-0.6-0.2-1.3-0.3-1.9c0.9,0,1.8-0.1,2.7-0.4c0.8-0.3,1.4-0.9,1.6-1.7c0.2-0.7-0.3-1.4-1-1.6H407
			c-1.1-0.1-2.5,1.4-2.9,2.3c0,0.1-0.3,0.8-0.4,1.1c-0.1-0.4-0.2-0.8-0.3-1.1c-0.3-1.1-0.6-2.2-0.9-3.3l-0.3-1
			c0.9,0,1.9-0.1,2.8-0.4c0.8-0.3,1.4-0.9,1.6-1.7c0.2-0.7-0.2-1.4-1-1.6h-0.1c-1.1-0.1-2.5,1.4-2.9,2.3c0,0.1-0.4,1.1-0.4,1.3
			c-0.2-0.7-0.4-1.5-0.5-2.2c-0.2-1-0.4-2-0.5-3c0.9,0,1.9-0.1,2.8-0.4c0.8-0.3,1.4-0.9,1.6-1.7c0.2-0.7-0.2-1.4-1-1.6
			c-0.1,0-0.1,0-0.2,0c-1.1-0.1-2.5,1.4-2.9,2.3c0,0.1-0.4,1.1-0.4,1.4c0-0.1,0-0.1,0-0.2c-0.1-1,0-2,0.1-3.1
			c0.1-0.6,0.2-1.1,0.3-1.6c0.9,0.1,1.8,0.1,2.7-0.1c0.8-0.2,1.5-0.8,1.8-1.5s-0.1-1.5-0.8-1.7h-0.1c-1.1-0.3-2.6,1.1-3.1,2
			c0,0-0.3,0.6-0.4,0.9c0-0.2,0.1-0.5,0.1-0.7c0.2-0.8,0.4-1.6,0.6-2.3c0.1-0.4,0.2-0.7,0.3-1c0.9-0.3,1.7-0.8,2.4-1.3
			c0.6-0.6,0.9-1.3,0.9-2.2c-0.1-0.7-0.8-1.3-1.5-1.2h-0.1c-1.1,0.3-1.8,2.2-1.9,3.2c0,0.1,0.1,1.5,0.1,1.5l0,0
			c-0.1,0.3-0.2,0.6-0.4,1c-0.2,0.7-0.5,1.4-0.7,2.2c-0.2,0.9-0.4,1.8-0.5,2.7c-0.1,1-0.2,2.1-0.2,3.1l0,0c-0.1-0.3-0.5-1.2-0.5-1.2
			c-0.5-0.9-1.9-2.3-3-2.1c-0.2,0.4-0.7,0.4-1.1,0.2c-0.1-0.1-0.1-0.1-0.2-0.2c-1.1-0.2-2.5,1.2-3,2.1l-0.5,1.2l0,0
			c0-1,0-2.1-0.2-3.1c-0.1-0.9-0.3-1.8-0.5-2.7c-0.2-0.8-0.5-1.6-0.7-2.2c-0.1-0.4-0.2-0.7-0.4-1l0,0c0,0,0.1-1.4,0.1-1.5
			c0-1-0.8-2.9-1.9-3.2c-0.7-0.2-1.4,0.3-1.6,1v0.1c0,0.8,0.3,1.6,0.9,2.2c0.7,0.6,1.5,1,2.4,1.3c0.1,0.3,0.2,0.6,0.3,1
			c0.2,0.7,0.4,1.4,0.6,2.3c0,0.2,0.1,0.5,0.1,0.7c-0.2-0.4-0.4-0.9-0.4-0.9c-0.5-0.9-2-2.2-3.1-2c-0.7,0.2-1.1,0.9-1,1.6v0.1
			c0.4,0.7,1,1.3,1.8,1.5c0.9,0.2,1.8,0.2,2.7,0.1c0.1,0.5,0.2,1,0.3,1.6c0.1,1,0.2,2,0.1,3.1c0,0.1,0,0.1,0,0.2
			c0-0.2-0.4-1.3-0.4-1.4c-0.4-0.9-1.8-2.4-2.9-2.3c-0.7,0.1-1.2,0.8-1.1,1.5v0.1c0.3,0.8,0.9,1.4,1.6,1.7c0.9,0.3,1.8,0.4,2.8,0.4
			c-0.1,1-0.2,2-0.4,3c-0.2,0.7-0.4,1.5-0.5,2.2c-0.1-0.3-0.4-1.3-0.4-1.3c-0.4-0.9-1.8-2.5-2.9-2.3c-0.7,0.1-1.2,0.8-1.1,1.5v0.1
			c0.3,0.8,0.9,1.4,1.6,1.7c0.9,0.3,1.8,0.4,2.8,0.4c-0.1,0.3-0.2,0.7-0.3,1c-0.3,1.1-0.6,2.2-0.9,3.3c-0.1,0.4-0.2,0.8-0.3,1.1
			c-0.1-0.4-0.3-1.1-0.4-1.1c-0.4-0.9-1.8-2.5-2.9-2.3c-0.7,0.1-1.2,0.8-1.1,1.5v0.1c0.3,0.8,0.9,1.4,1.6,1.7
			c0.9,0.3,1.8,0.4,2.7,0.4c-0.1,0.6-0.2,1.3-0.3,1.9c0,0.3-0.1,0.5-0.1,0.8l-0.1,0.8c0,0.5,0,1,0,1.5c0,0.3,0,0.5,0,0.7
			c-0.1-0.4-0.2-1-0.2-1.1c-0.3-1-1.4-2.7-2.5-2.7c-0.7,0-1.3,0.6-1.4,1.3v0.1c0.2,0.8,0.7,1.5,1.4,1.9c0.8,0.4,1.7,0.6,2.6,0.8
			c0,0.6,0,1.2,0,1.7c0,1.7,0.1,3.1,0.2,4.1s0.2,1.6,0.2,1.6l0,0c0,0.2,0.3,0.4,0.5,0.3c0.2,0,0.3-0.2,0.3-0.4c0,0-0.1-0.5-0.2-1.5
			s-0.2-2.4-0.3-4.1c0-0.5,0-1-0.1-1.5c0.9-0.1,1.8-0.3,2.7-0.6c0.7-0.4,1.3-1,1.5-1.8c0.1-0.7-0.4-1.4-1.1-1.5h-0.1
			c-1.1,0-2.3,1.6-2.7,2.6c0,0.1-0.2,0.8-0.3,1.2c0-0.3,0-0.6,0-1s0-1,0-1.5c0-0.2,0-0.5,0-0.8s0-0.5,0.1-0.8s0.1-0.8,0.2-1.2
			c0.9,0.1,1.8,0,2.6-0.2c0.8-0.2,1.4-0.8,1.7-1.6c0.2-0.7-0.2-1.5-0.9-1.7H393c-1.1-0.2-2.5,1.2-3,2.1c0,0-0.1,0.2-0.2,0.5
			c0.1-0.4,0.1-0.8,0.2-1.1c0.2-1.1,0.5-2.2,0.8-3.3c0.1-0.2,0.1-0.5,0.2-0.7c0.9,0.1,1.8,0,2.7-0.2c0.8-0.2,1.4-0.8,1.7-1.6
			c0.2-0.7-0.1-1.4-0.8-1.7c-0.1,0-0.1,0-0.2,0c-1.1-0.2-2.5,1.2-3,2.1l-0.2,0.5c0.1-0.6,0.3-1.2,0.4-1.8c0.2-1,0.3-2.1,0.4-3.1
			c0.9,0.1,1.9,0,2.8-0.2c0.5-0.2,1-0.5,1.4-1c0.4,0.4,0.9,0.8,1.4,1c0.9,0.2,1.8,0.3,2.8,0.2c0.1,1.1,0.2,2.1,0.4,3.1
			c0.1,0.6,0.3,1.2,0.4,1.8c-0.1-0.3-0.2-0.5-0.2-0.5c-0.5-0.9-1.9-2.3-3-2.1c-0.7,0.2-1.2,0.9-1,1.6v0.1c0.3,0.8,1,1.3,1.8,1.6
			c0.9,0.2,1.8,0.3,2.7,0.2c0.1,0.2,0.1,0.5,0.2,0.7c0.3,1.1,0.5,2.2,0.8,3.3c0.1,0.4,0.2,0.8,0.2,1.1l-0.2-0.5
			c-0.5-0.9-1.9-2.3-3-2.1c-0.7,0.1-1.2,0.8-1,1.6c0,0.1,0,0.1,0,0.2c0.3,0.8,1,1.3,1.7,1.6c0.9,0.2,1.7,0.3,2.6,0.2
			c0.1,0.4,0.1,0.8,0.2,1.2s0.1,0.5,0.1,0.8s0,0.5,0,0.8c0,0.5,0,1,0,1.5s0,0.7,0,1c-0.1-0.4-0.3-1.1-0.3-1.2
			c-0.3-1-1.5-2.6-2.7-2.6c-0.7,0-1.3,0.7-1.3,1.4v0.1c0.2,0.8,0.7,1.4,1.4,1.8c0.9,0.3,1.8,0.5,2.7,0.6c0,0.5,0,1.1,0,1.5
			c-0.1,1.7-0.2,3.1-0.3,4.1s-0.2,1.5-0.2,1.5c0,0.2,0.1,0.4,0.3,0.5c0.2,0,0.4-0.1,0.4-0.3l0,0l0,0c0,0,0.1-0.6,0.1-1.6
			s0.2-2.4,0.2-4.1c0-0.5,0-1.1,0-1.7c0.9-0.1,1.8-0.4,2.6-0.8c0.7-0.4,1.2-1.1,1.4-1.9c0.1-0.7-0.5-1.4-1.2-1.5
			C407.1,303.4,407,303.4,407,303.4z"/>
	</g>
	<g class="st3">
		<path class="st5" d="M92.7,284.5c0.7-0.4,1.2-1.2,1.3-2c0-0.7-0.5-1.4-1.2-1.4c-0.1,0-0.1,0-0.2,0c-1.1,0.1-2.1,1.9-2.4,2.8
			c0,0.1-0.2,1.5-0.2,1.5C91,285.3,91.9,284.9,92.7,284.5z"/>
		<path class="st5" d="M83,305.9c-0.1-0.6-0.7-1-1.3-0.9h-0.1c-0.9,0.3-1.3,1.9-1.3,2.7c0,0,0.1,0.7,0.1,1l-0.3-0.8
			c-0.1-0.4-0.3-0.8-0.4-1.1c-0.1-0.2-0.1-0.4-0.2-0.6s-0.1-0.4-0.2-0.6s-0.1-0.6-0.2-0.9c0.7-0.2,1.3-0.5,1.9-0.9
			c0.5-0.4,0.9-1,0.9-1.7c0-0.6-0.6-1.1-1.2-1h-0.1c-0.9,0.2-1.6,1.7-1.7,2.5c0,0,0,0.2,0,0.4c0-0.3-0.1-0.6-0.2-0.9
			c-0.1-0.9-0.2-1.8-0.3-2.7l-0.1-0.6c0.7-0.2,1.4-0.5,2-0.9c0.5-0.4,0.9-1,0.9-1.7c0-0.6-0.5-1-1.1-1H80c-0.9,0.1-1.6,1.7-1.7,2.5
			c0,0,0,0.2,0,0.5c-0.1-0.5-0.1-1-0.2-1.5c-0.1-0.8-0.3-1.7-0.6-2.5c0.7-0.2,1.4-0.5,2.1-0.9c0.5-0.4,0.9-1,0.9-1.7
			c0-0.6-0.6-1.1-1.2-1c0,0,0,0-0.1,0c-0.9,0.2-1.6,1.7-1.7,2.5c0,0,0,0.8,0,1.1l0,0c-0.3-0.8-0.6-1.6-1-2.3
			c-0.4-0.7-0.8-1.3-1.2-1.9c-0.4-0.6-0.8-1.1-1.2-1.5c-0.2-0.2-0.4-0.5-0.5-0.6l0,0l-0.3-1.1c-0.3-0.8-1.4-2-2.3-1.9
			c-0.6,0.1-1,0.6-0.9,1.2v0.1c0.2,0.6,0.7,1.1,1.3,1.4c0.7,0.2,1.4,0.3,2.2,0.3c0.2,0.2,0.4,0.4,0.6,0.7c0.3,0.4,0.7,1,1.1,1.5
			l0.3,0.5L75,291c-0.6-0.5-2.2-1.1-2.9-0.6c-0.5,0.3-0.6,1-0.3,1.5c0,0,0,0.1,0.1,0.1c0.5,0.5,1.1,0.7,1.8,0.6
			c0.7-0.1,1.4-0.4,2.1-0.7c0.2,0.4,0.4,0.7,0.7,1.1c0.4,0.7,0.7,1.5,0.9,2.3v0.1c-0.1-0.1-0.7-0.9-0.7-0.9c-0.6-0.6-2-1.4-2.8-1
			c-0.5,0.3-0.7,0.9-0.4,1.5c0,0,0,0.1,0.1,0.1c0.4,0.5,1.1,0.8,1.7,0.8c0.8-0.1,1.5-0.2,2.2-0.5c0.2,0.8,0.4,1.6,0.5,2.4
			c0.1,0.6,0.2,1.2,0.2,1.9c-0.1-0.2-0.7-0.9-0.7-0.9c-0.6-0.6-2-1.4-2.8-1c-0.5,0.3-0.7,0.9-0.4,1.5c0,0,0,0.1,0.1,0.1
			c0.4,0.5,1.1,0.8,1.7,0.8c0.8-0.1,1.5-0.2,2.2-0.5c0,0.3,0.1,0.6,0.1,0.8c0.1,0.9,0.2,1.9,0.3,2.8c0,0.3,0.1,0.6,0.1,0.9
			c-0.2-0.3-0.6-0.7-0.6-0.8c-0.6-0.6-2-1.4-2.8-1c-0.5,0.3-0.7,0.9-0.4,1.5c0,0,0,0.1,0.1,0.1c0.4,0.5,1.1,0.8,1.7,0.8
			c0.7,0,1.5-0.2,2.1-0.5c0.1,0.5,0.2,1,0.3,1.5c0.1,0.2,0.1,0.4,0.2,0.6l0.2,0.6c0.1,0.4,0.3,0.8,0.4,1.2c0.1,0.2,0.1,0.4,0.2,0.6
			c-0.2-0.3-0.4-0.8-0.4-0.8c-0.5-0.7-1.8-1.7-2.7-1.4c-0.6,0.2-0.9,0.8-0.6,1.4v0.1c0.3,0.6,0.9,1,1.6,1.1c0.8,0.1,1.5,0,2.3-0.2
			c0.2,0.5,0.3,0.9,0.5,1.3c0.5,1.3,1,2.4,1.3,3.1s0.6,1.2,0.6,1.2l0,0c0.1,0.2,0.3,0.2,0.4,0.1c0.2-0.1,0.2-0.3,0.1-0.4l0,0
			c0,0-0.2-0.4-0.6-1.1s-0.9-1.8-1.4-3l-0.5-1.3c0.7-0.3,1.3-0.7,1.9-1.2C82.8,307.2,83.1,306.5,83,305.9z"/>
		<path class="st5" d="M75.8,291.3c0.7-0.4,1.3-0.9,1.8-1.4c0.4-0.5,0.5-1.2,0.4-1.9c-0.2-0.6-0.8-0.9-1.3-0.7h-0.1
			c-0.8,0.4-1.1,2-1,2.8C75.5,290.2,75.8,291.3,75.8,291.3z"/>
		<path class="st5" d="M96.7,284.5c0.8,0.4,1.7,0.7,2.7,0.9c0,0-0.1-1.4-0.1-1.5c-0.2-1-1.2-2.8-2.4-2.8c-0.7-0.1-1.4,0.5-1.4,1.2
			c0,0.1,0,0.1,0,0.2C95.5,283.4,96,284.1,96.7,284.5z"/>
		<path class="st5" d="M104.8,303.4c-1.1,0-2.2,1.8-2.5,2.7c0,0-0.1,0.7-0.2,1.1v-0.7c0-0.5,0-1,0-1.5c0-0.3,0-0.5,0-0.8
			s-0.1-0.5-0.1-0.8c-0.1-0.6-0.2-1.3-0.3-1.9c0.9,0,1.8-0.1,2.7-0.4c0.8-0.3,1.4-0.9,1.6-1.7c0.2-0.7-0.2-1.4-1-1.6h-0.1
			c-1.1-0.1-2.5,1.4-2.9,2.3c0,0.1-0.3,0.8-0.4,1.1c-0.1-0.4-0.2-0.8-0.3-1.1c-0.3-1.1-0.6-2.2-0.9-3.3c-0.1-0.3-0.2-0.7-0.3-1
			c0.9,0,1.9-0.1,2.8-0.4c0.8-0.3,1.4-0.9,1.6-1.7c0.2-0.7-0.2-1.4-1-1.6c-0.1,0-0.1,0-0.2,0c-1.1-0.1-2.5,1.4-2.9,2.3
			c0,0.1-0.3,1.1-0.4,1.3c-0.2-0.7-0.4-1.5-0.5-2.2c-0.2-1-0.4-2-0.4-3c0.9,0,1.9-0.1,2.8-0.4c0.8-0.3,1.4-0.9,1.6-1.7
			c0.2-0.7-0.2-1.4-0.9-1.6c-0.1,0-0.1,0-0.2,0c-1.1-0.1-2.5,1.4-2.9,2.3c0,0.1-0.4,1.1-0.4,1.4c0-0.1,0-0.1,0-0.2c0-1,0-2,0.1-3.1
			c0.1-0.6,0.2-1.1,0.3-1.6c0.9,0.1,1.8,0.1,2.7-0.1c0.8-0.2,1.4-0.8,1.7-1.5c0.3-0.7-0.1-1.5-0.8-1.7H103c-1.1-0.3-2.6,1.1-3.1,2
			c0,0-0.3,0.6-0.4,0.9c0-0.2,0.1-0.5,0.1-0.7c0.2-0.8,0.4-1.6,0.6-2.3c0.1-0.4,0.2-0.7,0.3-1c0.9-0.3,1.7-0.8,2.4-1.3
			c0.6-0.5,0.9-1.3,0.9-2.2c-0.1-0.7-0.7-1.3-1.5-1.2h-0.1c-1.1,0.3-1.8,2.2-1.8,3.2c0,0.1,0.1,1.5,0.1,1.5l0,0
			c-0.1,0.3-0.2,0.6-0.3,1c-0.2,0.7-0.5,1.4-0.7,2.2c-0.2,0.9-0.4,1.8-0.5,2.7c-0.1,1-0.2,2.1-0.2,3.1l0,0c-0.1-0.3-0.5-1.2-0.5-1.2
			c-0.5-0.9-1.9-2.3-3-2.1c-0.2,0-0.5,0.2-0.7,0.3c-0.2-0.2-0.4-0.3-0.7-0.3c-1.1-0.2-2.6,1.2-3,2.1c0,0.1-0.4,0.9-0.5,1.2l0,0
			c0-1,0-2.1-0.2-3.1c-0.1-0.9-0.3-1.8-0.5-2.7c-0.2-0.8-0.4-1.6-0.7-2.2c-0.1-0.4-0.2-0.7-0.4-1l0,0c0,0,0.1-1.4,0.1-1.5
			c-0.1-1-0.8-2.9-1.8-3.2c-0.7-0.2-1.4,0.3-1.6,1v0.1c0,0.8,0.3,1.6,0.9,2.2c0.7,0.6,1.5,1,2.4,1.3c0.1,0.3,0.2,0.6,0.3,1
			c0.2,0.7,0.4,1.4,0.6,2.3c0,0.2,0.1,0.5,0.1,0.7c-0.2-0.4-0.4-0.9-0.4-0.9c-0.5-0.9-2-2.2-3.1-2c-0.7,0.2-1.1,0.9-1,1.6v0.1
			c0.4,0.7,1,1.3,1.8,1.5c0.9,0.2,1.8,0.2,2.7,0.1c0.1,0.5,0.2,1,0.3,1.6c0.1,1,0.2,2,0.1,3.1c0,0.1,0,0.1,0,0.2
			c0-0.2-0.4-1.3-0.4-1.4c-0.4-0.9-1.8-2.4-2.9-2.3c-0.7,0.1-1.2,0.8-1.1,1.5c0,0.1,0,0.1,0,0.2c0.3,0.8,0.9,1.4,1.6,1.7
			c0.9,0.3,1.8,0.4,2.8,0.4c-0.1,1-0.2,2-0.4,3c-0.2,0.7-0.3,1.5-0.5,2.2c-0.1-0.3-0.4-1.3-0.4-1.3c-0.4-0.9-1.8-2.5-2.9-2.3
			c-0.7,0.1-1.2,0.8-1.1,1.5v0.1c0.3,0.8,0.9,1.4,1.6,1.7c0.9,0.3,1.8,0.4,2.8,0.4l-0.3,1c-0.3,1.1-0.6,2.2-0.9,3.3
			c-0.1,0.4-0.2,0.8-0.3,1.1c-0.1-0.4-0.3-1.1-0.4-1.1c-0.4-0.9-1.8-2.5-2.9-2.3c-0.7,0.1-1.2,0.8-1.1,1.5v0.1
			c0.3,0.8,0.9,1.4,1.6,1.7c0.9,0.3,1.8,0.4,2.7,0.4c-0.1,0.6-0.2,1.3-0.3,1.9c0,0.3-0.1,0.5-0.1,0.8L87,305c0,0.5,0,1,0,1.5v0.7
			c-0.1-0.4-0.2-1-0.2-1.1c-0.3-1-1.4-2.7-2.5-2.7c-0.7,0-1.4,0.5-1.4,1.2c0,0.1,0,0.2,0,0.3c0.1,0.8,0.6,1.5,1.4,1.9
			s1.7,0.6,2.7,0.8c0,0.6,0,1.2,0,1.7c0,1.7,0.1,3.1,0.2,4.1s0.2,1.6,0.2,1.6l0,0c0,0.2,0.2,0.4,0.4,0.3l0,0c0.2,0,0.4-0.2,0.3-0.5
			c0,0-0.1-0.5-0.2-1.5s-0.2-2.4-0.3-4.1c0-0.5,0-1,0-1.5c0.9-0.1,1.8-0.3,2.7-0.6c0.7-0.4,1.3-1,1.5-1.8c0.1-0.7-0.4-1.4-1.1-1.5
			h-0.1c-1.1,0-2.3,1.6-2.7,2.6c0,0.1-0.2,0.8-0.3,1.2c0-0.3,0-0.6,0-1s0-1,0-1.5c0-0.3,0-0.5,0-0.8s0.1-0.5,0.1-0.8
			s0.1-0.8,0.2-1.2c0.9,0.1,1.8,0,2.6-0.2c0.8-0.2,1.4-0.8,1.7-1.6c0.2-0.7-0.1-1.4-0.8-1.7c-0.1,0-0.1,0-0.2,0
			c-1.1-0.2-2.6,1.2-3,2.1c0,0-0.1,0.2-0.2,0.5c0.1-0.4,0.1-0.8,0.2-1.1c0.2-1.1,0.5-2.2,0.8-3.3c0.1-0.2,0.1-0.5,0.2-0.7
			c0.9,0.1,1.8,0,2.7-0.2c0.8-0.2,1.4-0.8,1.8-1.6c0.2-0.7-0.2-1.5-0.9-1.7h-0.1c-1.1-0.2-2.6,1.2-3,2.1c0,0-0.1,0.3-0.2,0.5
			c0.1-0.6,0.3-1.2,0.4-1.8c0.2-1,0.3-2.1,0.4-3.1c0.9,0.1,1.9,0,2.8-0.2c0.5-0.2,1-0.5,1.4-1c0.4,0.4,0.9,0.8,1.4,1
			c0.9,0.2,1.8,0.3,2.8,0.2c0.1,1.1,0.2,2.1,0.4,3.1c0.1,0.6,0.3,1.2,0.4,1.8c-0.1-0.3-0.2-0.5-0.2-0.5c-0.5-0.9-1.9-2.3-3-2.1
			c-0.7,0.1-1.2,0.8-1,1.6c0,0.1,0,0.1,0,0.2c0.3,0.8,1,1.3,1.7,1.6c0.9,0.2,1.8,0.3,2.7,0.2c0,0.2,0.1,0.5,0.2,0.7
			c0.3,1.1,0.6,2.2,0.8,3.3c0.1,0.4,0.2,0.8,0.2,1.1c-0.1-0.2-0.2-0.4-0.2-0.5c-0.5-0.9-1.9-2.3-3-2.1c-0.7,0.2-1.2,0.9-1,1.6v0.1
			c0.3,0.8,1,1.3,1.7,1.6c0.9,0.2,1.7,0.3,2.6,0.2c0.1,0.4,0.1,0.8,0.2,1.2s0.1,0.5,0.1,0.8s0,0.5,0,0.8c0,0.5,0,1,0,1.5s0,0.7,0,1
			c-0.1-0.4-0.3-1.1-0.3-1.2c-0.3-1-1.5-2.6-2.7-2.6c-0.7,0-1.3,0.7-1.3,1.4v0.1c0.2,0.8,0.7,1.5,1.5,1.8c0.9,0.3,1.8,0.5,2.7,0.6
			c0,0.5,0,1.1-0.1,1.5c-0.1,1.7-0.2,3.1-0.3,4.1s-0.2,1.5-0.2,1.5c0,0.2,0.1,0.4,0.3,0.5c0.2,0,0.4-0.1,0.4-0.3l0,0
			c0,0,0.1-0.6,0.2-1.6s0.2-2.4,0.2-4.1c0-0.5,0-1.1,0-1.7c0.9-0.1,1.8-0.4,2.7-0.8c0.7-0.4,1.2-1.1,1.4-1.9
			c0.1-0.7-0.4-1.4-1.2-1.5C104.9,303.4,104.8,303.4,104.8,303.4z"/>
		<path class="st4" d="M112.1,285.4c0,0,0.1-1.4,0.1-1.5c0-1-0.7-2.9-1.8-3.2c-0.7-0.2-1.4,0.3-1.6,1v0.1c0,0.8,0.3,1.6,0.9,2.2
			C110.4,284.6,111.2,285.1,112.1,285.4z"/>
		<path class="st5" d="M113.7,282.5c0.2-0.3,0.4-0.6,0.5-0.9c0.9-0.1,1.8-0.4,2.6-0.8c0.7-0.4,1.2-1.1,1.3-2
			c0.1-0.7-0.5-1.4-1.2-1.4h-0.1c-1.1,0.1-2.2,1.8-2.4,2.8c0,0.1-0.2,1.4-0.2,1.4l0,0L113.7,282.5c-0.4,0.6-0.8,1.3-1.2,2
			c-0.4,0.8-0.7,1.7-1,2.6c-0.3,1-0.6,2-0.8,3l0,0c0-0.3-0.2-1.2-0.3-1.3c-0.3-1-1.4-2.6-2.6-2.6c-0.7,0-1.3,0.6-1.3,1.3
			c0,0.1,0,0.1,0,0.2c0.2,0.8,0.7,1.5,1.4,1.9c0.9,0.4,1.8,0.6,2.7,0.7c-0.1,1-0.2,2.1-0.2,3.1c0,0.6,0,1.2,0,1.9
			c-0.1-0.3-0.1-0.5-0.1-0.6c-0.3-1-1.4-2.6-2.6-2.7c-0.7,0-1.3,0.6-1.3,1.3c0,0.1,0,0.1,0,0.2c0.2,0.8,0.7,1.5,1.4,1.9
			c0.8,0.4,1.7,0.6,2.6,0.7v0.7c0.1,1.1,0.1,2.3,0.2,3.4c0,0.4,0,0.8,0,1.2c0-0.3-0.1-0.5-0.1-0.5c-0.3-1-1.4-2.6-2.6-2.7
			c-0.7,0-1.3,0.6-1.3,1.4v0.1c0.2,0.8,0.7,1.5,1.4,1.9c0.8,0.4,1.7,0.6,2.5,0.7c0,0.4,0,0.8-0.1,1.2s0,0.5-0.1,0.8
			s-0.1,0.5-0.1,0.8c-0.1,0.5-0.2,1-0.3,1.5c-0.1,0.3-0.1,0.6-0.2,1c0-0.4,0-1.1,0-1.2c-0.2-1-1-2.8-2.1-3c-0.7-0.1-1.4,0.4-1.5,1.1
			v0.1c0,0.8,0.5,1.6,1.1,2.1c0.8,0.5,1.6,0.9,2.5,1.1c-0.1,0.5-0.2,1-0.3,1.5c-0.4,1.6-0.8,3-1.1,4s-0.5,1.5-0.5,1.5
			c0,0.2,0.1,0.4,0.3,0.5c0.2,0,0.4-0.1,0.4-0.2l0,0c0,0,0.2-0.5,0.5-1.5s0.6-2.4,1-4c0.1-0.5,0.2-1.1,0.3-1.7
			c0.9,0.1,1.9,0,2.8-0.3c0.8-0.3,1.4-0.9,1.7-1.6c0.2-0.7-0.2-1.5-0.9-1.7h-0.1c-1.1-0.2-2.5,1.3-3,2.2c0,0-0.3,0.7-0.4,1
			c0-0.2,0.1-0.5,0.1-0.7c0.1-0.5,0.2-1,0.2-1.5l0.1-0.8c0-0.3,0-0.5,0.1-0.8c0-0.6,0-1.3,0-1.9c0.9,0.2,1.8,0.2,2.7,0.1
			c0.8-0.1,1.5-0.6,1.9-1.4c0.3-0.7,0-1.5-0.7-1.8c0,0-0.1,0-0.1-0.1c-1.1-0.3-2.7,0.9-3.3,1.7c0,0-0.4,0.7-0.6,1c0-0.4,0-0.8,0-1.2
			c0-1.1-0.1-2.3-0.2-3.4c0-0.4,0-0.7-0.1-1c0.9,0.2,1.9,0.3,2.8,0.2c0.8-0.1,1.5-0.6,1.9-1.4c0.3-0.7,0-1.5-0.6-1.8h-0.1
			c-1.1-0.3-2.7,0.9-3.3,1.7c0,0.1-0.5,1-0.7,1.2c-0.1-0.8-0.1-1.5-0.1-2.3c0-1,0-2,0.1-3c0.9,0.2,1.9,0.2,2.8,0.2
			c0.8-0.1,1.5-0.6,1.9-1.3c0.3-0.7,0-1.5-0.7-1.8c0,0-0.1,0-0.1-0.1c-1.1-0.3-2.7,0.9-3.3,1.7c0,0.1-0.6,1-0.7,1.2
			c0-0.1,0-0.1,0-0.2c0.1-1,0.4-2,0.7-3c0.2-0.5,0.4-1,0.6-1.5c0.9,0.3,1.8,0.4,2.7,0.5c0.8-0.1,1.6-0.5,2.1-1.1
			c0.4-0.6,0.2-1.5-0.5-1.8c0,0-0.1,0-0.1-0.1c-1-0.5-2.8,0.6-3.4,1.4l-0.6,0.8c0.1-0.2,0.2-0.4,0.3-0.6
			C113,283.8,113.3,283.1,113.7,282.5z"/>
	</g>
	<path class="st0" d="M29.3,314.6c-0.9,1.9-1.7,3.8-2.3,5.8h426.2c0.4-1.3,0.5-2.7,0.3-4.1c-0.3-4.7-3.7-5-7.8-8.3H40
		C35.4,309.5,30.9,311.1,29.3,314.6z"/>
	<path class="st2" d="M29.3,314.6c-0.9,1.9-1.7,3.8-2.3,5.8h426.2c0.4-1.3,0.5-2.7,0.3-4.1c-0.3-4.7-3.7-5-7.8-8.3H40
		C35.4,309.5,30.9,311.1,29.3,314.6z"/>
</g>
<g id="freepik--Clouds--inject-1--inject-167">
	<path class="st0" d="M412,77.5c0,0-1.4-20-30.8-20.8s-21.5,20-29.3,25c-7.9,5-10-2.9-17.9,2.1s-4.3,15-10.7,16.5s-15-6.4-22.9-1.4
		s-7.9,9.3-11.5,9.3s-10.7-2.9-15,0s-9.3,6.4-9.3,6.4h181c0,0,2.1-6.4-5.7-10.7s-11.5-0.7-14.3-4.3S433.5,86.9,412,77.5z"/>
	<path class="st1" d="M412,77.5c0,0-1.4-20-30.8-20.8s-21.5,20-29.3,25c-7.9,5-10-2.9-17.9,2.1s-4.3,15-10.7,16.5s-15-6.4-22.9-1.4
		s-7.9,9.3-11.5,9.3s-10.7-2.9-15,0s-9.3,6.4-9.3,6.4h181c0,0,2.1-6.4-5.7-10.7s-11.5-0.7-14.3-4.3S433.5,86.9,412,77.5z"/>
	<path class="st0" d="M249.1,44.7c0,0-1-13.8-21.2-14.3S213,44.2,207.6,47.6s-6.9-2-12.4,1.5s-3,10.4-7.4,11.4s-10.4-4.4-15.8-1
		s-5.4,6.4-7.9,6.4s-7.4-2-10.4,0s-6.4,4.4-6.4,4.4h125c0,0,1.5-4.4-4-7.4c-5.4-3-7.9-0.5-9.9-3S263.9,51.1,249.1,44.7z"/>
	<path class="st1" d="M249.1,44.7c0,0-1-13.8-21.2-14.3S213,44.2,207.6,47.6s-6.9-2-12.4,1.5s-3,10.4-7.4,11.4s-10.4-4.4-15.8-1
		s-5.4,6.4-7.9,6.4s-7.4-2-10.4,0s-6.4,4.4-6.4,4.4h125c0,0,1.5-4.4-4-7.4c-5.4-3-7.9-0.5-9.9-3S263.9,51.1,249.1,44.7z"/>
	<path class="st0" d="M146.1,81.6c0,0-0.5-7.4-11.4-7.7s-8,7.4-10.9,9.3s-3.7-1.1-6.6,0.8s-1.6,5.6-4,6.1s-5.6-2.4-8.5-0.5
		s-2.9,3.4-4.2,3.4s-4-1.1-5.6,0s-3.4,2.4-3.4,2.4h67c0,0,0.8-2.4-2.1-4s-4.2-0.3-5.3-1.6S154,85.1,146.1,81.6z"/>
	<path class="st1" d="M146.1,81.6c0,0-0.5-7.4-11.4-7.7s-8,7.4-10.9,9.3s-3.7-1.1-6.6,0.8s-1.6,5.6-4,6.1s-5.6-2.4-8.5-0.5
		s-2.9,3.4-4.2,3.4s-4-1.1-5.6,0s-3.4,2.4-3.4,2.4h67c0,0,0.8-2.4-2.1-4s-4.2-0.3-5.3-1.6S154,85.1,146.1,81.6z"/>
</g>
<g id="freepik--Shadows--inject-1--inject-167">
	<path class="st2" d="M366,359.4c0,2.5-18.1,4.5-40.5,4.5s-40.5-2.1-40.5-4.5s18.1-4.5,40.5-4.5S366,356.9,366,359.4z"/>
	<path class="st2" d="M445.8,357.3c0,2.5-18.1,4.5-40.5,4.5s-40.5-2-40.5-4.5s18.1-4.5,40.5-4.5S445.8,354.8,445.8,357.3z"/>
	<ellipse class="st2" cx="208.1" cy="354.4" rx="40.5" ry="4.5"/>
	<ellipse class="st2" cx="117.4" cy="358.1" rx="40.5" ry="4.5"/>
</g>
<g id="freepik--character-3--inject-1--inject-167">
	<path class="st7" d="M452.8,309.3c0,0,5.8-2.6,7.1-4.4s2.4-1.1,1.8,1s-3.7,4-3.7,4"/>
	<path class="st7" d="M431.9,333c0,0,2,7.2,3.2,10s1.9,4.1-0.5,5.9s-8.5,4.5-10.2,4.6s-4-3.7-2.9-3.7c1,0.1,1.9,0.3,2.8,0.6
		c0,0,3.4-1.2,4.4-2.6s-2.9-12.7-2.9-12.7"/>
	<path class="st7" d="M394.1,326.1c0,0,3.2,2,0.7,8.7s-8.3,10.7-8.2,12.5c0.4,2.4,1.2,4.7,2.3,6.9c0.7,1,4.2,1.2,3.9,2.3
		s-0.3,1.4-2.4,1.5c-2,0.2-4-0.7-5.3-2.2c-1.5-1.7-3.8-7.9-4.2-9.9s3.2-6.4,3.8-8.8s-1.7-7.6,1-10.8S392.6,324.5,394.1,326.1z"/>
	<path class="st7" d="M440.9,305.3c-2.2-0.3-4.4-0.2-6.6,0.3c-2.8,0.8-10,2.1-22.5,2.6s-17.6-5.2-26.9-3.5s-13.4,13.4-12.8,19.9
		s4.2,9.6,2.9,11.7s-5.3-1.9-5,5.1s3.5,18.3,5.5,17.9s0.8-14.6,0.8-16s9.7-1.4,12.3-5s4.8-9.9,4.8-9.9s2.8,0.2,8.1,3.9
		s18,6.3,26.9,5.2s11.2-7,11.2-7l3-1.9L440.9,305.3z"/>
	<path class="st7" d="M449,307.9c0,0-6.4-3.7-8.1-2.6s0.8,21.5,1.9,23.2c0.9,1.4,3.3,1.4,16.9,0c1,0.1,1.9,0.3,2.8,0.8
		c1.1,0.5,2.4,0.7,3.6,0.5l3.8-0.6c0,0,3.4-2.6,1.9-4.6s-4.6-2.8-5.4-5.6s-4.9-8.6-4.9-8.6C457.6,308.7,453.3,307.8,449,307.9z"/>
	<path class="st7" d="M459.1,311.9c1.9-0.1,3.7-0.4,5.5-1.1c2.3-1,3.7-2.5,3.8-0.4s-2.7,5.9-4.4,6.9c-1.3,0.5-2.7,0.6-4.1,0.2"/>
	<path class="st7" d="M422.2,329.6c0,0,1,8.3,2.6,12.8S433,358,435.1,359s6.3,2.2,7,0.1s0.3-2.4-1.9-3.1l-2.1-0.6
		c0,0-6.3-10.5-6.5-15s1.6-11.9,1.6-11.9"/>
	<path class="st2" d="M464.7,312.2c-6.8,0-5.6,2.4-7.8,1.9s3-3.5-1.3-3.9s-10.1-1.2-10.1-1.2l-2.9-1.8c0,0-4.9,0.1-13.8,0.9
		s-16.4,1-23.3,1.8c-4.2,0.5-8.5,0.4-12.8-0.3c0,0,1.5-11.9-5.9-13.7s-8.7,14.4-8.7,14.4s-3,5.7-3.5,10s4.4,10,3.9,12.6
		s-3.5,5.2-0.9,5.2s6.1,1.7,8.7-4.4s3.6-9,7.7-7.6s19.3,6.3,25,5.8s4.4,7.8,7.8,8.3s3.9-7.8,3.9-9.1s6.1-3.9,5.7-6.1
		s-5.5-7.4-4.8-10.9s6.8-5.2,6.8-5.2s0.4,11.1,3.3,13.2s4.7,5.5,8.2,2s3.1-6.3,6.5-6.5S471.5,312.2,464.7,312.2z M381.7,305.8
		c-1.6,0.5-1.6,0.4-2-1.5s1.1-3.4,3.8-3.4s5.9,4.7,5.9,4.7C387.3,303.5,383.4,305.3,381.7,305.8L381.7,305.8z"/>
	<path class="st7" d="M374.8,312.6c0,0,2.6-3.2-0.1-10.8s3.7-12.3,9.6-13.2s11.4,6.5,12.6,11.3s-0.7,10.1-4.1,9.5s-4.1-6.5-7.6-7.7
		s-6.1,2.7-5,4.4"/>
	<path class="st2" d="M392.8,309.5c0,0,1.5-11.9-5.9-13.7c-5.8-1.4-7.9,8.2-8.5,12.5l1.7-2.1c-0.2-0.4-0.3-0.8-0.2-1.2
		c-0.1-0.2-0.1-0.4-0.1-0.6c0-1,2.2-3,4.8-3c1.3,0,3.3,2.6,3.3,2.6c-0.3-0.3,0.9,1.1,0.5,1C389.6,307,390.7,309.2,392.8,309.5z"/>
	<path class="st8" d="M463.6,326.6c1.3,0.7,2.5,1.4,3.6,2.4"/>
	<path class="st9" d="M466.4,319.7c0,0.7-0.2,1.2-0.5,1.2s-0.5-0.5-0.6-1.2s0.2-1.2,0.5-1.2S466.4,319.1,466.4,319.7z"/>
	<path class="st9" d="M472.2,325.7c0,0.7-0.2,1.2-0.5,1.2s-0.5-0.5-0.6-1.2s0.2-1.2,0.5-1.2S472.2,325,472.2,325.7z"/>
	<line class="st10" x1="459.7" y1="328.5" x2="456.5" y2="327.1"/>
	<path class="st10" d="M377.6,304.7c0,0,0.9-4.7,2.3-5.5"/>
	<path class="st10" d="M381.7,300.1c0,0,1.2-2.3,3.2-2.3"/>
	<path class="st10" d="M385.2,299.8c1.7-0.9,3.8-0.4,5,1.2"/>
	<path class="st10" d="M389,301.5c0,0,2.9,2,2.9,4.1"/>
	<path class="st10" d="M396.8,327.1c1.4,0.5,3,0.5,4.4,0c2.3-0.9,3.5-1.2,3.5-1.2"/>
	<line class="st10" x1="408.5" y1="324.8" x2="406.7" y2="325.7"/>
	<path class="st10" d="M401.8,328.9c0,0,3.2,0.6,5-0.6"/>
	<path class="st10" d="M411.4,333.3c0,0,4.4,0.9,6.4,0.3"/>
	<path class="st10" d="M423.3,308.5c0,0-3.5,1.5-4.4,2.6l-0.9,1.2"/>
	<path class="st10" d="M417.5,310c0,0-2.3,2.6-2.6,3.8"/>
	<line class="st10" x1="414" y1="311.4" x2="412" y2="313.7"/>
	<path class="st10" d="M441,313.3c0.6,2,2.5,3.3,4.5,3.4"/>
	<path class="st10" d="M442.9,317.9c0,0,2.9,1.2,4.7,0.6"/>
	<path class="st10" d="M385.2,310c0,0-3.5,2-2.3,5.5"/>
	<path class="st10" d="M380.5,314.9c0,0,0.9,5.8,6.4,6.1"/>
	<path class="st0" d="M347.7,237.5c-0.6,3-1.1,6-1.4,9c0,2.1,11.5,41.6,11.5,47.5s4.9,57.3,4.9,57.3l-8,1.7c0,0-6.6-24.6-9.7-33.7
		s-4.5-24.6-4.5-24.6l-7.3-26c0,0-5.9-11.8-8.7-16.3s-5.2-8-4.9-11.8s4.2-6.2,4.2-6.2L347.7,237.5z"/>
	<path class="st11" d="M347.7,237.5c-0.6,3-1.1,6-1.4,9c0,2.1,11.5,41.6,11.5,47.5s4.9,57.3,4.9,57.3l-8,1.7c0,0-6.6-24.6-9.7-33.7
		s-4.5-24.6-4.5-24.6l-7.3-26c0,0-5.9-11.8-8.7-16.3s-5.2-8-4.9-11.8s4.2-6.2,4.2-6.2L347.7,237.5z"/>
	<path class="st12" d="M363.1,253.9c0,0-3.2,1.8-2.5,3.9c0.7,2.1,4.6,5,6.7,5.7s9.9-3.5,10.6-6.4s-1.4-8.1-2.8-8.9l-1.4-0.7
		L363.1,253.9z"/>
	<line class="st13" x1="375.5" y1="259.8" x2="440.9" y2="305.3"/>
	<path class="st9" d="M438.6,305.3c0,0-0.1,4.1-0.1,9.4s3.1,14.1,3.1,14.1l1.2-0.5c0,0-1.8-12.6-1.8-15.1s0.2-8.2,0.2-8.2
		L438.6,305.3z"/>
	<path class="st12" d="M442,305.4c0,0-5.9-5.7-7.4-5.7s-2,1.1-1.3,2s5.4,3.6,5.4,3.6S440.5,307.6,442,305.4z"/>
	<path class="st14" d="M442,305.4c0,0-5.9-5.7-7.4-5.7s-2,1.1-1.3,2s5.4,3.6,5.4,3.6S440.5,307.6,442,305.4z"/>
	<path class="st7" d="M367.7,240.7c0,0,3.5,3.9,4.3,5c1,2,1.6,4.2,1.8,6.4c0,1.4-6,4.6-8.1,4.3s-3.5-3.2-3.9-4.3s-1.8-4.6-1.8-4.6
		L367.7,240.7z"/>
	<path class="st0" d="M313.7,235.7c-0.6,4.3-0.3,8.6,0.7,12.9c1.7,6.2,4.5,11.8,4.5,12.8s-2.1,31.2-2.4,32.3s-24,54.2-23.6,55.2
		s5.5,3.1,5.5,3.1s34.7-48.2,36.4-50.7s8-45.8,9-48.2s2.1-18,2.1-18S322.4,234.4,313.7,235.7z"/>
	<path class="st11" d="M313.7,235.7c-0.6,4.3-0.3,8.6,0.7,12.9c1.7,6.2,4.5,11.8,4.5,12.8s-2.1,31.2-2.4,32.3s-24,54.2-23.6,55.2
		s5.5,3.1,5.5,3.1s34.7-48.2,36.4-50.7s8-45.8,9-48.2s2.1-18,2.1-18S322.4,234.4,313.7,235.7z"/>
	<line class="st15" x1="345.3" y1="247.9" x2="339.4" y2="280.5"/>
	<path class="st15" d="M334.5,243.5c-0.9,1.7-2,3.2-3.2,4.7c-0.8,0.8-1.8,1.4-2.9,1.8"/>
	<path class="st15" d="M327.2,243c0,0,0.3,8.5,0.6,11.9c0.3,5.8,0.1,11.7-0.6,17.5c-0.9,8.5-0.9,12.5-0.9,12.5"/>
	<path class="st7" d="M362.6,351.3c0,0,12.8,2.1,12.8,3.5s-19.8,8-20.8,6.3s0-8,0-8L362.6,351.3z"/>
	<path class="st7" d="M292.9,348.9c0,0-4.9,5.5-4.5,6.9s5.9,4.2,8.7,4.5s9,0.4,10.8-0.7s-3.8-2.4-5.2-3.8s-4.2-3.8-4.2-3.8
		L292.9,348.9z"/>
	<path class="st16" d="M307.8,359.6c0,0-7.4-0.2-10.6-1s-7.9-4.1-7.9-4.1l-0.5-0.2c-0.3,0.4-0.5,0.9-0.5,1.5
		c0.3,1.4,5.9,4.2,8.7,4.5S306.1,360.7,307.8,359.6z"/>
	<path class="st16" d="M363.3,358c-3.5,1.5-7.9,0.9-8.7,0.9h-0.4c0,0.7,0.1,1.4,0.4,2.1c1,1.7,20.8-4.9,20.8-6.3
		c0-0.2-0.3-0.4-0.8-0.6l-0.6,0.1C374.1,354.2,366.8,356.6,363.3,358z"/>
	<path class="st9" d="M389.7,165.5l2,0.9c1,0.4,1.4,1.5,1,2.5c-0.1,0.2-0.2,0.3-0.3,0.5l-9,11.4c-0.6,0.8-1.8,0.9-2.6,0.3
		c0,0,0,0-0.1-0.1l-1.5-1.3c-0.7-0.6-0.8-1.7-0.3-2.4l8.3-11.1C387.9,165.4,388.9,165.2,389.7,165.5z"/>
	<path class="st7" d="M370.1,185.1c0,0,2.5-1.8,2.8-2.8s-0.4-2.1,1.4-4.6c1.3-1.7,3.1-3,5-3.9c0,0,1.4-2.1,2.5-1.8s1.4,1.1,0.7,2.5
		c-0.8,1.4-1.8,2.7-2.8,3.9c0,0,7.5-3.9,9.2-3.2c0.9,0.4-0.7,2.7-0.7,2.7s-2.1,5.5-3.2,6.5s-12.8,6.4-12.8,6.4L370.1,185.1z"/>
	<path class="st7" d="M365.2,246.7v2.1l2.5,1.1c0,0-4.3,6-2.1,6.4c2.2,0.4,5.3-4.3,5.7-5.3c0.2-1.2,0.2-2.4,0-3.5"/>
	<line class="st13" x1="361.6" y1="252" x2="367.7" y2="249.9"/>
	<path class="st12" d="M350.7,207.8c0,0,7.4,16.6,8.9,19.1s9.2,11.7,9.6,13.1s-6,6-7.8,7.4l-1.8,1.4c0,0-5.3-4.3-5.3-6
		s-5.7-14.9-6-15.9s-3.5-12-3.5-12S345,205.3,350.7,207.8z"/>
	<path class="st17" d="M350.7,207.8c0,0,7.4,16.6,8.9,19.1s9.2,11.7,9.6,13.1s-6,6-7.8,7.4l-1.8,1.4c0,0-5.3-4.3-5.3-6
		s-5.7-14.9-6-15.9s-3.5-12-3.5-12S345,205.3,350.7,207.8z"/>
	<path class="st12" d="M338.6,161l6,6.4c0,0,2.1,5,1.1,5.3l-1.1,0.4c0,0,8.9,42.1,10.6,50.6s2.8,13.5,2.1,15.2s-4.3,1.8-4.3,1.8
		l-7.4-2.1l-10.3-75.1C335.4,163.5,334.4,158.6,338.6,161z"/>
	<path class="st17" d="M338.6,161l6,6.4c0,0,2.1,5,1.1,5.3l-1.1,0.4c0,0,8.9,42.1,10.6,50.6s2.8,13.5,2.1,15.2s-4.3,1.8-4.3,1.8
		l-7.4-2.1l-10.3-75.1C335.4,163.5,334.4,158.6,338.6,161z"/>
	<line class="st10" x1="364.2" y1="234.5" x2="359" y2="238"/>
	<path class="st4" d="M360,142.5c0.2-1.4,0.3-2.7,0.4-4.1c0.4-5.1-0.5-10.5-5-13.5s-13.3-3.9-17.8-0.4c-3.9,3-5.8,8.1-6,12.9
		c-0.1,2.1,0.3,4.2,1.3,6.1c0.9,1.8,2.7,3.9,2.2,6.1c-0.6,2.6-5.7,8.5-5.7,8.5l6.1,7.8c1.6-1.9,3.6-3.6,5.7-4.9
		c2.1-1.3,4.6-1.9,7.1-1.8c2.9,1.6,6.2,2.2,7.1,0.9c0.8-1.2,2.2-5.2,3.4-10.4c1,0.2,2.1-0.2,2.7-1.1
		C362.2,147.1,360.5,143.4,360,142.5z"/>
	<g>
		<g>
			<defs>
				<path id="SVGID_1_" d="M360,142.5c0.2-1.4,0.3-2.7,0.4-4.1c0.4-5.1-0.5-10.5-5-13.5s-13.3-3.9-17.8-0.4c-3.9,3-5.8,8.1-6,12.9
					c-0.1,2.1,0.3,4.2,1.3,6.1c0.9,1.8,2.7,3.9,2.2,6.1c-0.6,2.6-5.7,8.5-5.7,8.5l6.1,7.8c1.6-1.9,3.6-3.6,5.7-4.9
					c2.1-1.3,4.6-1.9,7.1-1.8c2.9,1.6,6.2,2.2,7.1,0.9c0.8-1.2,2.2-5.2,3.4-10.4c1,0.2,2.1-0.2,2.7-1.1
					C362.2,147.1,360.5,143.4,360,142.5z"/>
			</defs>
			<clipPath id="SVGID_2_">
				<use xlink:href="#SVGID_1_"  style="overflow:visible;"/>
			</clipPath>
			<g class="st18">
				<path class="st6" d="M359.4,131c0,0-8.4,0.2-8.5,1.2c-0.1,0.9-0.2,1.7-0.2,2.6c0,0-2.6-3.8,1.4-4.2
					C354.5,130.4,357,130.5,359.4,131z"/>
				<path class="st6" d="M330.5,156.7l3.7,3.5l6.6-13.1l-6-0.1c0.4,0.8,0.5,1.7,0.3,2.6C334.6,151.4,332,154.9,330.5,156.7z"/>
			</g>
		</g>
	</g>
	<path class="st13" d="M360,142.5c0.2-1.4,0.3-2.7,0.4-4.1c0.4-5.1-0.5-10.5-5-13.5s-13.3-3.9-17.8-0.4c-3.9,3-5.8,8.1-6,12.9
		c-0.1,2.1,0.3,4.2,1.3,6.1c0.9,1.8,2.7,3.9,2.2,6.1c-0.6,2.6-5.7,8.5-5.7,8.5l6.1,7.8c1.6-1.9,3.6-3.6,5.7-4.9
		c2.1-1.3,4.6-1.9,7.1-1.8c2.9,1.6,6.2,2.2,7.1,0.9c0.8-1.2,2.2-5.2,3.4-10.4c1,0.2,2.1-0.2,2.7-1.1
		C362.2,147.1,360.5,143.4,360,142.5z"/>
	<path class="st9" d="M343.7,141.1c0,0,3.3,0.4,3.7-1.1s1.3-2.2,3.3-3.1s-0.4-2.6-0.9-4.8s6.5-2.2,10.7-1.1s8.5,1.1,7.4-4.6
		s-5.5-4.6-7.6-4.6s2.2-4.1-2.4-5.7s-5.5,1.1-5.9,2.6s-2.6,1.5-4.6,1.5s-3.9-2.4-11.4,0.4s-8.7,12.7-7,18.6s2.7,8.8,6.1,10.2
		s8.6-4.9,8.6-6.7L343.7,141.1z"/>
	<path class="st19" d="M348.8,131.7c0,0,0.3-1.2-2.9,1.4s-4.4,5.3-9,5.5"/>
	<path class="st19" d="M332.7,142.2c0,0,3.5,1.5,5.5,0"/>
	<path class="st9" d="M357.9,139.4l-1,6c-0.1,0.5,0.2,1,0.7,1.1l0.3,0.1l1-6c0.1-0.5-0.2-0.9-0.7-1.1L357.9,139.4z"/>
	<path class="st9" d="M357.9,139.4c0,0-16.1-0.3-17,0c-0.7,0.8-1.2,1.7-1.7,2.6c-0.3,0.8,0.5,0.7,1,0.2s1.3-2.2,1.7-2.3
		s15.8,0.9,15.8,0.9l0.4-1.4H357.9z"/>
	<path class="st7" d="M346.2,142.1c0,0-0.4-5.3-3.9-1.8s-0.9,7.4,0.9,7.9c1.1,0.2,2.1-0.3,2.6-1.3"/>
	<path class="st7" d="M356.5,154c0,0-3.7-0.6-3.7-2"/>
	<path class="st7" d="M353.9,142.4c0,0,2.4,0.2,2.6,1.5"/>
	<path class="st7" d="M354.8,137.4c0,0,2.2-2.2,3.5-0.2"/>
	<path class="st10" d="M343.1,148.2c0,0,0.4,4.4,2.1,7.1"/>
	<path class="st12" d="M329.7,154.9l11.1,12.1c0,0,3.8,27.1,7.3,47.5s3.5,27.8,3.5,27.8c-7.2,0.6-14.4,0.6-21.5,0
		c-7.1-0.7-14.2-2-21.2-3.8c0,0,3.1-47.6,5.6-60.7c2.2-11.7,12.3-21,14.5-22.9C329.1,154.7,329.5,154.7,329.7,154.9z"/>
	<path class="st20" d="M329.7,154.9l11.1,12.1c0,0,3.8,27.1,7.3,47.5s3.5,27.8,3.5,27.8c-7.2,0.6-14.4,0.6-21.5,0
		c-7.1-0.7-14.2-2-21.2-3.8c0,0,3.1-47.6,5.6-60.7c2.2-11.7,12.3-21,14.5-22.9C329.1,154.7,329.5,154.7,329.7,154.9z"/>
	<path class="st12" d="M325.2,158.3c0,0,9,13.2,10.1,14.2s5.6-5.6,5.6-5.6s-9.7-11.8-11.5-12.5S325.2,158.3,325.2,158.3z"/>
	<path class="st12" d="M333.6,178c2.3,3.2,7.5,20.6,7.5,20.6s25.5-13.7,27.3-13.7c2.1-0.7,3.9,2.8,5.7,7.8s0.7,5.7,0.7,5.7l-11,2.4
		c-12,7.7-30.9,20.1-31.9,19.1c-1.4-1.4-6.7-14.9-9.6-21.3s-3.2-13.8-1.1-19.1c0.5-1.4,1.2-2.7,1.9-4c0,0,3.1-3.4,4.9-2.7"/>
	<path class="st20" d="M333.6,178c2.3,3.2,7.5,20.6,7.5,20.6s25.5-13.7,27.3-13.7c2.1-0.7,3.9,2.8,5.7,7.8s0.7,5.7,0.7,5.7l-11,2.4
		c-12,7.7-30.9,20.1-31.9,19.1c-1.4-1.4-6.7-14.9-9.6-21.3s-3.2-13.8-1.1-19.1c0.5-1.4,1.2-2.7,1.9-4c0,0,3.1-3.4,4.9-2.7"/>
	<circle class="st7" cx="370.6" cy="196.2" r="1.1"/>
	<line class="st10" x1="358.7" y1="191.4" x2="362.3" y2="198.6"/>
	<path class="st10" d="M341.1,198.6c0,0-3.6,2.7-4.1,5.2"/>
	<path class="st10" d="M337.7,199.6c0,0-3.4,2.7-3.2,6.1"/>
	<line class="st10" x1="343.2" y1="185.3" x2="338.6" y2="185.3"/>
	<line class="st10" x1="344.4" y1="191.1" x2="339.7" y2="191.1"/>
	<path class="st10" d="M310.6,234.2c5.5,1.5,11.2,2.6,16.9,3.2l8.7,0.9"/>
	<line class="st10" x1="339.7" y1="238.3" x2="347.7" y2="237.5"/>
	<line class="st10" x1="345.5" y1="215" x2="347.9" y2="231.6"/>
	<path class="st10" d="M324.3,173.9c0,0,1.8-7,4.1-9.3"/>
	<line class="st10" x1="330.4" y1="166.6" x2="327.8" y2="169.5"/>
	<path class="st9" d="M395.7,129.6h40.1c2.2,0,4,1.8,4,4.1v16.2c0,2.2-1.8,4.1-4,4.1h-40.1c-2.2,0-4-1.8-4-4.1v-16.2
		C391.7,131.4,393.5,129.6,395.7,129.6z"/>
	<polyline class="st9" points="391.7,147.5 391.7,160.6 399,152.2 	"/>
	<path class="st4" d="M408.5,142.2c0-1.4-1.1-2.5-2.5-2.5s-2.5,1.1-2.5,2.5s1.1,2.5,2.5,2.5l0,0
		C407.3,144.7,408.5,143.6,408.5,142.2z"/>
	<path class="st4" d="M419.2,142.2c0-1.4-1.1-2.5-2.5-2.5s-2.5,1.1-2.5,2.5s1.1,2.5,2.5,2.5l0,0C418,144.7,419.2,143.6,419.2,142.2z
		"/>
	<path class="st4" d="M429.9,142.2c0-1.4-1.1-2.5-2.5-2.5s-2.5,1.1-2.5,2.5s1.1,2.5,2.5,2.5l0,0
		C428.7,144.7,429.9,143.6,429.9,142.2z"/>
	<line class="st10" x1="316.4" y1="195.5" x2="322.3" y2="198.6"/>
	<path class="st10" d="M315.3,201.6c0,0,5.5,0.3,7.6-1.2"/>
	<path class="st15" d="M327.8,295.4c0,0-11.1-1.5-8.1,0.3c2.3,1.2,4.7,2.2,7.3,2.9h-6.7"/>
</g>
<g id="freepik--character-2--inject-1--inject-167">
	<path class="st7" d="M224.6,260.6c0,0-3,37.3-4.2,40.1s-21,44.7-21,44.7l-3.8-2.1l14.2-51.4l-2.7-57.5L224.6,260.6z"/>
	<path class="st7" d="M230.7,226.3c0,0,5.6,30.3,6.8,39.3s0.3,83.7,0.3,83.7l-4.4,0.6L220.6,267c0,0-7.7-18.1-11.6-22.7
		c-4.5-5.2-6.8-11.5-4.2-16.6C206.6,224.3,230.7,226.3,230.7,226.3z"/>
	<path class="st12" d="M204.4,334.9c6-12.6,15.2-32.3,16-34.1c1.2-2.8,4.2-40.1,4.2-40.1l-17.5-26.3l2.7,57.5l-11.3,40.8
		L204.4,334.9z"/>
	<path class="st12" d="M237.9,338.1c0.2-21,0.5-65.8-0.4-72.6c-1.2-8.9-6.8-39.3-6.8-39.3s-24.1-2-25.9,1.4
		c-2.6,5.2-0.4,11.4,4.2,16.6c3.9,4.5,11.6,22.6,11.6,22.6l11.3,71.5C233.8,338.7,235.9,338.6,237.9,338.1z"/>
	<path class="st16" d="M216.4,229.6c0,0-2.1,2.1-0.7,3.3s7-0.5,5.4,0.7s-7.9,5.1-4.4,4.7s7.7-0.9,6.1,0.7s-2.3,1.6-1.2,4.2
		s2.8,8,2.8,8"/>
	<line class="st10" x1="225.1" y1="253.2" x2="227.2" y2="259.1"/>
	<path class="st16" d="M218.3,277.1c0,0-0.9,15.4-1.6,17.8s-4.2-0.5-2.8,1.4s3,2.6,2.3,2.8s-2.8-0.2-2.8,0.7s-2.3,8.4-2.3,8.4"/>
	<path class="st4" d="M237.8,349.3c0,0,11.8,3,11.4,4.2s-13.6,3.2-14.5,3.1s-1.2-6.6-1.2-6.6L237.8,349.3z"/>
	<g>
		<g>
			<defs>
				<path id="SVGID_3_" d="M237.8,349.3c0,0,11.8,3,11.4,4.2s-13.6,3.2-14.5,3.1s-1.2-6.6-1.2-6.6L237.8,349.3z"/>
			</defs>
			<clipPath id="SVGID_4_">
				<use xlink:href="#SVGID_3_"  style="overflow:visible;"/>
			</clipPath>
			<g class="st21">
				<path class="st0" d="M234.8,356.6c0.9,0.1,14.1-2,14.5-3.1c0.1-0.2-0.4-0.6-1.2-0.9l-14.1,1.9
					C234.1,355.6,234.4,356.6,234.8,356.6z"/>
			</g>
		</g>
	</g>
	<path class="st22" d="M237.8,349.3c0,0,11.8,3,11.4,4.2s-13.6,3.2-14.5,3.1s-1.2-6.6-1.2-6.6L237.8,349.3z"/>
	<path class="st4" d="M199.4,345.4c0.6,0.9,1.3,1.8,2.1,2.5c0.9,0.7,4.4,2.1,4.4,3s-7,1.4-8.4,1.2s-3-3-4.4-4s2.5-4.9,2.5-4.9
		C196.9,344,198.1,344.8,199.4,345.4z"/>
	<g>
		<g>
			<defs>
				<path id="SVGID_5_" d="M199.4,345.4c0.6,0.9,1.3,1.8,2.1,2.5c0.9,0.7,4.4,2.1,4.4,3s-7,1.4-8.4,1.2s-3-3-4.4-4s2.5-4.9,2.5-4.9
					C196.9,344,198.1,344.8,199.4,345.4z"/>
			</defs>
			<clipPath id="SVGID_6_">
				<use xlink:href="#SVGID_5_"  style="overflow:visible;"/>
			</clipPath>
			<g class="st23">
				<path class="st0" d="M206,351c0-0.2-0.2-0.5-0.6-0.8c-2.2,0.2-5.2,0.4-6.5,0s-4-2.6-5.6-4c-0.5,0.8-0.7,1.6-0.2,1.9
					c1.4,0.9,3,3.7,4.4,4S206,351.9,206,351z"/>
			</g>
		</g>
	</g>
	<path class="st13" d="M199.4,345.4c0.6,0.9,1.3,1.8,2.1,2.5c0.9,0.7,4.4,2.1,4.4,3s-7,1.4-8.4,1.2s-3-3-4.4-4s2.5-4.9,2.5-4.9
		C196.9,344,198.1,344.8,199.4,345.4z"/>
	<path class="st10" d="M265.3,174.9c0,0,3.5-1.2,4-2.3c0.4-1.3,0.6-2.6,0.7-4C270,168.6,265.5,173.3,265.3,174.9z"/>
	<path class="st7" d="M258.2,167.8c0,0-3.8,6.1-3.8,6.8s-17.2,15.8-17.2,15.8s-4,2.4-4.7,3.8s-0.5,10.1,0.5,10.3s22.8-26.6,24-27
		c1.2-0.4,5.2-1.9,5.2-1.9l3.8-4.7L258.2,167.8z"/>
	<path class="st9" d="M269.4,162l1.9,0.8c0.9,0.4,1.3,1.5,0.9,2.4c-0.1,0.1-0.1,0.3-0.2,0.4l-8.5,10.8c-0.6,0.8-1.7,0.9-2.4,0.3
		c0,0,0,0-0.1-0.1l-1.4-1.3c-0.7-0.6-0.8-1.6-0.2-2.3l7.8-10.5C267.7,161.9,268.6,161.7,269.4,162z"/>
	<path class="st7" d="M260.3,165.9c0,0,3.8,4,3.5,4.9s-1.4,1.6-2.1,0.9s-3.3-2.8-3.5-4c-0.2-0.8,0.3-1.7,1.1-1.9
		C259.6,165.7,260,165.7,260.3,165.9z"/>
	<path class="st4" d="M237,181c-1.6-4.2-4.2-18.8-4.2-18.8c-1.9-3.3-6.6-8.2-8.7-8.9s-0.5,0-2.6,1.4s-7.1,9.9-10.6,21.6
		c-1.1,3.8-2.5,9.6-3.8,15.9c-1.9,6.3-3.2,12.7-3.8,19.3c-0.9,5.3-1.6,9.1-1.6,9.8c0.1,0.8,0.6,1.5,1.3,1.8c0,7.6,0.1,11.1,0.1,11.1
		s5.6-4.4,8.4-5.6c5.2-1.9,11-1.1,15.5,2.1c4.3,2.9,7.7,5.4,8.2,4.2s-0.6-5.2-1.4-8.6c-0.9-4-2.6-15.7-2.6-15.7c0-2.8,3-17,4.4-19.2
		C237.7,188.3,238.2,184.4,237,181z"/>
	<g>
		<g>
			<defs>
				<path id="SVGID_7_" d="M237,181c-1.6-4.2-4.2-18.8-4.2-18.8c-1.9-3.3-6.6-8.2-8.7-8.9s-0.5,0-2.6,1.4s-7.1,9.9-10.6,21.6
					c-1.1,3.8-2.5,9.6-3.8,15.9c-1.9,6.3-3.2,12.7-3.8,19.3c-0.9,5.3-1.6,9.1-1.6,9.8c0.1,0.8,0.6,1.5,1.3,1.8
					c0,7.6,0.1,11.1,0.1,11.1s5.6-4.4,8.4-5.6c5.2-1.9,11-1.1,15.5,2.1c4.3,2.9,7.7,5.4,8.2,4.2s-0.6-5.2-1.4-8.6
					c-0.9-4-2.6-15.7-2.6-15.7c0-2.8,3-17,4.4-19.2C237.7,188.3,238.2,184.4,237,181z"/>
			</defs>
			<clipPath id="SVGID_8_">
				<use xlink:href="#SVGID_7_"  style="overflow:visible;"/>
			</clipPath>
			<g class="st24">
				<path class="st6" d="M213.4,205.2l-8.1,14.8c0,0,7.2-22.1,7.8-30.8s8.9-22.7,11.1-26.2s2.7-4.6,2.7-4.6l2.3-1.1
					c-1.9-2.1-3.9-3.8-5.1-4.2c-2.1-0.7-0.5,0-2.6,1.4s-7.1,9.9-10.6,21.6c-1.1,3.8-2.5,9.6-3.8,15.9c-1.9,6.3-3.2,12.7-3.8,19.3
					c-0.9,5.3-1.6,9.1-1.6,9.8c0.1,0.8,0.6,1.5,1.3,1.8c0,7.6,0.1,11.1,0.1,11.1c2.3-1.8,4.8-3.5,7.3-5.1c-0.1-0.7-0.3-1.3-0.5-2
					c-0.7-2.3-0.4-4.9,0.8-7c2.4-3,5-5.8,7.8-8.4c2.4-2.2-7.3-1.6-5.1-3s11.6-5.9,13.2-7.6S213.4,205.2,213.4,205.2z"/>
			</g>
		</g>
	</g>
	<path class="st13" d="M237,181c-1.6-4.2-4.2-18.8-4.2-18.8c-1.9-3.3-6.6-8.2-8.7-8.9s-0.5,0-2.6,1.4s-7.1,9.9-10.6,21.6
		c-1.1,3.8-2.5,9.6-3.8,15.9c-1.9,6.3-3.2,12.7-3.8,19.3c-0.9,5.3-1.6,9.1-1.6,9.8c0.1,0.8,0.6,1.5,1.3,1.8c0,7.6,0.1,11.1,0.1,11.1
		s5.6-4.4,8.4-5.6c5.2-1.9,11-1.1,15.5,2.1c4.3,2.9,7.7,5.4,8.2,4.2s-0.6-5.2-1.4-8.6c-0.9-4-2.6-15.7-2.6-15.7c0-2.8,3-17,4.4-19.2
		C237.7,188.3,238.2,184.4,237,181z"/>
	<path class="st10" d="M229.8,173.3c0,0,0,2.6,0.9,3s3.3-0.2,2.8,1.6s-0.7,3.3,0.2,4c0.7,0.5,1.5,0.8,2.3,0.9"/>
	<g class="st3">
		<path class="st0" d="M219.3,190.6c0,0,7.1,0.5,9.1-0.3s-3.8-7.9-3.8-7.9L219.3,190.6z"/>
	</g>
	<path class="st4" d="M229,140.6c1.4,5.1-1.6,12-4.5,13.5c-0.9,0.4,2.1,4.6,4.4,7.4l2,3.5l0.9,4.7l1.4-0.2c0,0-1.2-5-0.5-7.2
		s1.2-3.3,1.2-3.3c1.1-2.1,2.9-3.9,5-5C239.4,149.5,228.4,138.5,229,140.6z"/>
	<g>
		<g>
			<defs>
				<path id="SVGID_9_" d="M229,140.6c1.4,5.1-1.6,12-4.5,13.5c-0.9,0.4,2.1,4.6,4.4,7.4l2,3.5l0.9,4.7l1.4-0.2c0,0-1.2-5-0.5-7.2
					s1.2-3.3,1.2-3.3c1.1-2.1,2.9-3.9,5-5C239.4,149.5,228.4,138.5,229,140.6z"/>
			</defs>
			<clipPath id="SVGID_10_">
				<use xlink:href="#SVGID_9_"  style="overflow:visible;"/>
			</clipPath>
			<g class="st25">
				<polygon class="st6" points="236,156 229.2,157.4 226.9,158.5 224.1,155.7 230.2,149.8 				"/>
			</g>
		</g>
	</g>
	<path class="st13" d="M229,140.6c1.4,5.1-1.6,12-4.5,13.5c-0.9,0.4,2.1,4.6,4.4,7.4l2,3.5l0.9,4.7l1.4-0.2c0,0-1.2-5-0.5-7.2
		s1.2-3.3,1.2-3.3c1.1-2.1,2.9-3.9,5-5C239.4,149.5,228.4,138.5,229,140.6z"/>
	<path class="st4" d="M244.6,125c3.3,1.7,6.9,4.4,6.9,8.5c0,7-2.9,9.8-2.9,11.6s2.4,4.1,1.5,5s-2.9,0.6-2.9,0.6
		c-1.4,2.6-3,5-4.7,7.4c-1.8,2.1-5-0.9-8.5-3.5s-5.3-5-5.3-10s-2.5-8.7-0.3-13.5c2.7-6.1,9.8-8.8,15.8-6.1
		C244.3,124.8,244.4,124.9,244.6,125z"/>
	<g>
		<g>
			<defs>
				<path id="SVGID_11_" d="M244.6,125c3.3,1.7,6.9,4.4,6.9,8.5c0,7-2.9,9.8-2.9,11.6s2.4,4.1,1.5,5s-2.9,0.6-2.9,0.6
					c-1.4,2.6-3,5-4.7,7.4c-1.8,2.1-5-0.9-8.5-3.5s-5.3-5-5.3-10s-2.5-8.7-0.3-13.5c2.7-6.1,9.8-8.8,15.8-6.1
					C244.3,124.8,244.4,124.9,244.6,125z"/>
			</defs>
			<clipPath id="SVGID_12_">
				<use xlink:href="#SVGID_11_"  style="overflow:visible;"/>
			</clipPath>
			<g class="st26">
				<path class="st6" d="M244.6,125c-6-2.9-13.1-0.4-16,5.6c-0.1,0.1-0.1,0.3-0.2,0.4c-2.2,4.9,0.3,8.6,0.3,13.5s1.8,7.4,5.3,10
					l2.1,1.6c-3-1.9-2.1-8.1-2.1-10s3.2-2.4,5.9-3.5c2.1-0.8,8.4-3.5,11.2-4.8c0.3-1.4,0.4-2.9,0.4-4.4
					C251.5,129.4,247.9,126.6,244.6,125z"/>
			</g>
		</g>
	</g>
	<path class="st13" d="M244.6,125c3.3,1.7,6.9,4.4,6.9,8.5c0,7-2.9,9.8-2.9,11.6s2.4,4.1,1.5,5s-2.9,0.6-2.9,0.6
		c-1.4,2.6-3,5-4.7,7.4c-1.8,2.1-5-0.9-8.5-3.5s-5.3-5-5.3-10s-2.5-8.7-0.3-13.5c2.7-6.1,9.8-8.8,15.8-6.1
		C244.3,124.8,244.4,124.9,244.6,125z"/>
	<path class="st7" d="M243.6,153.4c0,0-2.1-0.5-2.6-1.6"/>
	<path class="st7" d="M246.6,144.3l-0.7,1.2c-0.8,0.1-1.6-0.1-2.1-0.7"/>
	<path class="st7" d="M243.6,142.2c0,0,2.3-2.1,3.7-1.2"/>
	<polyline class="st13" points="168.8,273.6 190.3,249.5 194,275.9 	"/>
	<polygon class="st27" points="198,276.1 163.4,273.1 151,311.2 204.5,316.6 	"/>
	<line class="st13" x1="190" y1="247.6" x2="177.4" y2="276.1"/>
	<line class="st13" x1="191.7" y1="250.4" x2="197" y2="278.5"/>
	<polygon class="st9" points="201.5,279.2 170.9,275.7 160.1,317.5 204.9,321.5 	"/>
	<path class="st9" d="M261.1,140.9c-1.4-7.9-8.9-16.1-8.9-16.1l0,0c-1.6-1.7-3.6-3-5.8-3.7c-6.1-2.1-14.5-2.3-21.3,3.3
		c-6.8,5.6-8,17.1-10.3,23.1s-3.7,10.1-3.3,12.1s7-1.4,8.2-1.2s0.2,1.6,2.3,1.6s4.9-3.7,6.1-3.7s4.8,0.4,5.8-1.8s-4.4-9.4-2.5-12.7
		c0,0,1.2,0.5,9.4-1.9c3.7-1,7.2-2.3,10.6-4c-0.5,5.3-2.7,7.6-2.7,9.2c0,1.8,2.4,4.1,1.5,5s-2.9,0.6-2.9,0.6c-1.4,2.6-3,5-4.7,7.4
		c-1.4,1.6-3.8,0.1-6.5-1.9c-0.8,0.8-1.5,1.7-2,2.8c0,0-0.3,0.6-0.7,1.8c0.7,1,1.6,1.8,2.8,2.1c2.6,0.5,4-0.9,5.1-1.6s3.5,0.5,5.9,0
		s1.9-2.6,2.8-3.7s2.6,1.9,4.4,0S262.5,148.8,261.1,140.9z"/>
	<path class="st19" d="M251.3,125.8c1.2,1.7,5.3,5.3,3.8,7c-1,1.1-2.2,2-3.6,2.6"/>
	<path class="st19" d="M250.1,130.6c0,0-9.6,6.7-14.6,7.4s-11-1.2-11-1.2"/>
	<path class="st19" d="M247.3,123.9c-2.3,3.4-5.2,6.2-8.6,8.4c-3.1,2-6.6,3-10.3,3.1"/>
	<path class="st7" d="M233.3,143.2c0,0-1.6-5.6-3.3-4.9s-1.9,3.5-1.2,5.9s2.3,2.1,3.3,1.4"/>
	<path class="st4" d="M233.3,143.2c0,0-1.6-5.6-3.3-4.9s-1.9,3.5-1.2,5.9s2.3,2.1,3.3,1.4"/>
	<g>
		<g>
			<defs>
				<path id="SVGID_13_" d="M233.3,143.2c0,0-1.6-5.6-3.3-4.9s-1.9,3.5-1.2,5.9s2.3,2.1,3.3,1.4"/>
			</defs>
			<clipPath id="SVGID_14_">
				<use xlink:href="#SVGID_13_"  style="overflow:visible;"/>
			</clipPath>
			<g class="st28">
				<g class="st29">
					<path class="st0" d="M233.3,143.2c0,0-1.6-5.6-3.3-4.9s-1.9,3.5-1.2,5.9s2.3,2.1,3.3,1.4"/>
				</g>
			</g>
		</g>
	</g>
	<path class="st4" d="M227.4,164c-2.5-2.1-6.3-1.2-8,3.2c-2.8,7.2-5.6,14.3-8.5,21.5c-2.8,7-14,41.4-15,43.9s-3,9.1-3,9.1
		s-4.7,3.5-4.7,4.2s1.2,3.3,2.1,3.5c1.4,0.1,2.8-0.3,4-1.2c0.9-0.7,1.4-2.1,2.6-5.6c0,0,7-18.7,11.7-24.5s8.4-21,9.4-22.7
		c3.1-5,5.9-10.1,8.4-15.4c1.6-3.4,3.7-7.6,3.2-11.5C229.4,166.8,228.6,165.2,227.4,164z"/>
	<g>
		<g>
			<defs>
				<path id="SVGID_15_" d="M227.4,164c-2.5-2.1-6.3-1.2-8,3.2c-2.8,7.2-5.6,14.3-8.5,21.5c-2.8,7-14,41.4-15,43.9s-3,9.1-3,9.1
					s-4.7,3.5-4.7,4.2s1.2,3.3,2.1,3.5c1.4,0.1,2.8-0.3,4-1.2c0.9-0.7,1.4-2.1,2.6-5.6c0,0,7-18.7,11.7-24.5s8.4-21,9.4-22.7
					c3.1-5,5.9-10.1,8.4-15.4c1.6-3.4,3.7-7.6,3.2-11.5C229.4,166.8,228.6,165.2,227.4,164z"/>
			</defs>
			<clipPath id="SVGID_16_">
				<use xlink:href="#SVGID_15_"  style="overflow:visible;"/>
			</clipPath>
			<g class="st30">
				<path class="st6" d="M228.4,165.2c-0.3-0.4-0.6-0.8-1-1.2c-2.5-2.1-6.3-1.2-8,3.2c-2.8,7.2-5.6,14.3-8.5,21.5
					c-2.8,7-14,41.4-15,43.9s-3,9.1-3,9.1s-4.7,3.5-4.7,4.2c0.1,0.8,0.4,1.5,0.9,2.2c0.6-0.4,1-1,1.2-1.7c0.2-1.2,3.8-3.5,4.6-5.4
					s14.6-34.3,15.1-37.5s8.4-27.5,10.8-31.8s7.8-5.7,7.8-5.7L228.4,165.2z"/>
			</g>
		</g>
	</g>
	<path class="st13" d="M227.4,164c-2.5-2.1-6.3-1.2-8,3.2c-2.8,7.2-5.6,14.3-8.5,21.5c-2.8,7-14,41.4-15,43.9s-3,9.1-3,9.1
		s-4.7,3.5-4.7,4.2s1.2,3.3,2.1,3.5c1.4,0.1,2.8-0.3,4-1.2c0.9-0.7,1.4-2.1,2.6-5.6c0,0,7-18.7,11.7-24.5s8.4-21,9.4-22.7
		c3.1-5,5.9-10.1,8.4-15.4c1.6-3.4,3.7-7.6,3.2-11.5C229.4,166.8,228.6,165.2,227.4,164z"/>
	<path class="st7" d="M193.3,245.8c-0.7,0.9-1.5,1.8-2.3,2.6c-0.9,1.1-1.5,2.4-1.6,3.7c0,0,0.5,1.4,1.2,0.7s2.3-2.8,2.3-2.8
		c1-0.3,1.8-1,2.3-1.9c1.2-1.6,1.6-5.4,1.6-5.4"/>
	<path class="st0" d="M236,156l0.1,0.1C236.2,156.2,236.2,156.2,236,156z"/>
	<path class="st10" d="M215.9,203.3c0,0,9-2.7,12.4-5.9"/>
	<line class="st10" x1="216.4" y1="206" x2="221" y2="204.8"/>
	<path class="st0" d="M273.1,129.6h40.1c2.2,0,4,1.8,4,4.1v16.2c0,2.2-1.8,4.1-4,4.1h-40.1c-2.2,0-4-1.8-4-4.1v-16.2
		C269,131.4,270.8,129.6,273.1,129.6z"/>
	<polyline class="st0" points="269,147.5 269,160.6 276.3,152.2 	"/>
	<path class="st4" d="M285.8,142.2c0-1.4-1.1-2.5-2.5-2.5s-2.5,1.1-2.5,2.5s1.1,2.5,2.5,2.5l0,0
		C284.7,144.7,285.8,143.6,285.8,142.2z"/>
	<path class="st4" d="M296.5,142.2c0-1.4-1.1-2.5-2.5-2.5s-2.5,1.1-2.5,2.5s1.1,2.5,2.5,2.5l0,0
		C295.4,144.7,296.5,143.6,296.5,142.2z"/>
	<path class="st4" d="M307.2,142.2c0-1.4-1.1-2.5-2.5-2.5s-2.5,1.1-2.5,2.5s1.1,2.5,2.5,2.5l0,0
		C306.1,144.7,307.2,143.6,307.2,142.2z"/>
</g>
<g id="freepik--character-1--inject-1--inject-167">
	<path class="st9" d="M102.2,250.5l-0.3-0.3C102,250.3,102.1,250.4,102.2,250.5z"/>
	<path class="st4" d="M93.4,353.5c0,0-12.4,1.6-12.2,2.8s13.5,5,14.4,5s2.1-6.6,2.1-6.6L93.4,353.5z"/>
	<g>
		<g>
			<defs>
				<path id="SVGID_17_" d="M93.4,353.5c0,0-12.4,1.6-12.2,2.8s13.5,5,14.4,5s2.1-6.6,2.1-6.6L93.4,353.5z"/>
			</defs>
			<clipPath id="SVGID_18_">
				<use xlink:href="#SVGID_17_"  style="overflow:visible;"/>
			</clipPath>
			<g class="st31">
				<path class="st0" d="M96.5,360.1l-13.7-4.7c-1,0.3-1.6,0.6-1.5,0.9c0.2,1.2,13.5,5,14.4,5C95.9,361.3,96.2,360.9,96.5,360.1z"/>
			</g>
		</g>
	</g>
	<path class="st22" d="M93.4,353.5c0,0-12.4,1.6-12.2,2.8s13.5,5,14.4,5s2.1-6.6,2.1-6.6L93.4,353.5z"/>
	<path class="st4" d="M142.6,350.9c-0.6,0.9-1.3,1.8-2.1,2.6c-1,0.7-4.6,2.2-4.6,3.1s7.2,1.4,8.7,1.2s3.1-3.1,4.6-4.1s-2.6-5-2.6-5
		C145.2,349.5,143.9,350.2,142.6,350.9z"/>
	<g>
		<g>
			<defs>
				<path id="SVGID_19_" d="M142.6,350.9c-0.6,0.9-1.3,1.8-2.1,2.6c-1,0.7-4.6,2.2-4.6,3.1s7.2,1.4,8.7,1.2s3.1-3.1,4.6-4.1
					s-2.6-5-2.6-5C145.2,349.5,143.9,350.2,142.6,350.9z"/>
			</defs>
			<clipPath id="SVGID_20_">
				<use xlink:href="#SVGID_19_"  style="overflow:visible;"/>
			</clipPath>
			<g class="st32">
				<path class="st0" d="M149.1,353.6c0.5-0.3,0.3-1-0.1-1.8c-1.6,1.5-3.3,2.8-5.1,4c-1.7,0.8-7.3-0.1-7.3-0.1h-0.1
					c-0.4,0.3-0.6,0.6-0.6,0.8c0,1,7.2,1.4,8.7,1.2S147.6,354.6,149.1,353.6z"/>
			</g>
		</g>
	</g>
	<path class="st13" d="M142.6,350.9c-0.6,0.9-1.3,1.8-2.1,2.6c-1,0.7-4.6,2.2-4.6,3.1s7.2,1.4,8.7,1.2s3.1-3.1,4.6-4.1s-2.6-5-2.6-5
		C145.2,349.5,143.9,350.2,142.6,350.9z"/>
	<path class="st12" d="M116.6,263.4c0,0,3.1,38.4,4.3,41.4s21.6,46,21.6,46l3.9-2.2l-14.6-53l2.8-59.3L116.6,263.4z"/>
	<path class="st2" d="M116.6,263.4c0,0,3.1,38.4,4.3,41.4s21.6,46,21.6,46l3.9-2.2l-14.6-53l2.8-59.3L116.6,263.4z"/>
	<path class="st12" d="M110.4,228.1c0,0-5.8,31.3-7,40.5s-9.9,84.9-9.9,84.9l4.4,1.2l23-84.7c0,0,8-17.9,11.1-23.3
		s6.1-13.3,5.1-17.2S110.4,228.1,110.4,228.1z"/>
	<path class="st2" d="M110.4,228.1c0,0-5.8,31.3-7,40.5s-9.9,84.9-9.9,84.9l4.4,1.2l23-84.7c0,0,8-17.9,11.1-23.3s6.1-13.3,5.1-17.2
		S110.4,228.1,110.4,228.1z"/>
	<path class="st10" d="M122.4,234.6c-3.3,7.2-5.9,14.7-7.8,22.4c-2.6,11.5-6.6,26.9-6.6,30.2s0.2,7.8-0.9,9.5s-3.1,2.2-3.3,6.4
		s1.6,10.2-1.1,17.1s-4.2,10.2-4.2,14.9S96,353.2,96,353.2"/>
	<path class="st10" d="M122,270.9V288c0,11.1,5.1,8,4.7,9.3s-3.1,4.4-2.2,5.5s2.2,0.4,2.2,2s11,28,11,28"/>
	<line class="st10" x1="138.8" y1="335.3" x2="140.6" y2="340.1"/>
	<path class="st7" d="M70.4,167.9c-0.2,1.1-0.3,2.1-0.3,3.2c0.3,1,4.5,2.5,4.5,2.5L70.4,167.9z"/>
	<path class="st7" d="M82,167.7c0,0,3.9,6.3,3.9,7s17.7,16.2,17.7,16.2s4.1,2.4,4.8,3.9s0.5,10.4-0.5,10.7s-23.5-27.4-24.7-27.8
		s-5.3-1.9-5.3-1.9l-3.9-4.9L82,167.7z"/>
	<path class="st4" d="M108.4,194.9c-0.9-1.1-2-2.1-3.2-2.8c-0.4,1.6-1.1,3.1-1.9,4.5c-0.5,0.8-1.1,1.5-1.8,2.2
		c3.4,4,6.1,6.9,6.4,6.8C108.9,205.3,109.2,196.3,108.4,194.9z"/>
	<g>
		<g>
			<defs>
				<path id="SVGID_21_" d="M108.4,194.9c-0.9-1.1-2-2.1-3.2-2.8c-0.4,1.6-1.1,3.1-1.9,4.5c-0.5,0.8-1.1,1.5-1.8,2.2
					c3.4,4,6.1,6.9,6.4,6.8C108.9,205.3,109.2,196.3,108.4,194.9z"/>
			</defs>
			<clipPath id="SVGID_22_">
				<use xlink:href="#SVGID_21_"  style="overflow:visible;"/>
			</clipPath>
			<g class="st33">
				<path class="st6" d="M108.4,194.9c-0.9-1.1-2-2.1-3.2-2.8c-0.4,1.6-1.1,3.1-1.9,4.5c-0.5,0.8-1.1,1.5-1.8,2.2
					c3.4,4,6.1,6.9,6.4,6.8C108.9,205.3,109.2,196.3,108.4,194.9z"/>
			</g>
		</g>
	</g>
	<path class="st13" d="M108.4,194.9c-0.9-1.1-2-2.1-3.2-2.8c-0.4,1.6-1.1,3.1-1.9,4.5c-0.5,0.8-1.1,1.5-1.8,2.2
		c3.4,4,6.1,6.9,6.4,6.8C108.9,205.3,109.2,196.3,108.4,194.9z"/>
	<path class="st9" d="M70.5,161.8l-2,0.9c-1,0.4-1.4,1.5-1,2.5c0.1,0.1,0.1,0.3,0.2,0.4l8.7,11.1c0.6,0.8,1.7,0.9,2.5,0.3
		c0,0,0.1,0,0.1-0.1l1.5-1.3c0.7-0.6,0.8-1.7,0.3-2.4l-8.1-10.8C72.2,161.7,71.3,161.5,70.5,161.8z"/>
	<path class="st7" d="M79.8,165.8c0,0-3.8,4.1-3.6,5.1s1.5,1.7,2.2,1s3.4-2.9,3.6-4.1c0.2-0.9-0.3-1.8-1.2-2
		C80.5,165.7,80.2,165.7,79.8,165.8z"/>
	<path class="st4" d="M109.4,222.8l0.3,6.3c0,0,3.9,3.1,12.8,3.6c5.6,0.2,11.2-1,16.2-3.6l-1.7-9.7L109.4,222.8z"/>
	<g>
		<g>
			<defs>
				<path id="SVGID_23_" d="M109.4,222.8l0.3,6.3c0,0,3.9,3.1,12.8,3.6c5.6,0.2,11.2-1,16.2-3.6l-1.7-9.7L109.4,222.8z"/>
			</defs>
			<clipPath id="SVGID_24_">
				<use xlink:href="#SVGID_23_"  style="overflow:visible;"/>
			</clipPath>
			<g class="st34">
				<path class="st6" d="M109.4,222.8l0.2,3.9c2.3,0.8,4.4,1.4,4.4,1.4l-0.2,3c1.4,0.5,2.9,0.9,4.4,1.1l2.3-2.5
					c6.9,0.9,15.9-2.4,17.9-3.2l-1.3-7.1l-0.5,0.1L109.4,222.8z"/>
			</g>
		</g>
	</g>
	<path class="st13" d="M109.4,222.8l0.3,6.3c0,0,3.9,3.1,12.8,3.6c5.6,0.2,11.2-1,16.2-3.6l-1.7-9.7L109.4,222.8z"/>
	<path class="st4" d="M108.2,161.9c0,0-2.7,15-4.4,19.4c-1.3,3.6-0.7,7.5,1.4,10.7c1.5,2.2,2.2,18.9,2.2,21.8c0,2.9-1.9,6.8,0.7,9.9
		s16,3.9,23.5,2.9s9.7-5.6,9.7-7.8s-7-30.3-10.7-42.4s-8.7-20.8-10.9-22.3s-0.5-2.2-2.7-1.4S110.1,158.5,108.2,161.9z"/>
	<g>
		<g>
			<defs>
				<path id="SVGID_25_" d="M108.2,161.9c0,0-2.7,15-4.4,19.4c-1.3,3.6-0.7,7.5,1.4,10.7c1.5,2.2,2.2,18.9,2.2,21.8
					c0,2.9-1.9,6.8,0.7,9.9s16,3.9,23.5,2.9s9.7-5.6,9.7-7.8s-7-30.3-10.7-42.4s-8.7-20.8-10.9-22.3s-0.5-2.2-2.7-1.4
					S110.1,158.5,108.2,161.9z"/>
			</defs>
			<clipPath id="SVGID_26_">
				<use xlink:href="#SVGID_25_"  style="overflow:visible;"/>
			</clipPath>
			<g class="st35">
				<path class="st6" d="M112.1,224.3c-1.5,0.3-2.4-0.3-3.8-0.2c2.2,1.4,6.5,2.5,10.9,3.2c2-3,6.3-10,6.8-14.2
					c0.7-5.4,3.1-17,1.4-21.1s-6.8-26.5-8.2-26.5s-3.1-5.4-6.1,2.4c0,0-2,3.4-0.7,11.2s3.7,11.2,2.4,17s0,10.2,2.4,10.5
					s3.1,1,2.4,5.1C118.9,215.8,115.8,223.6,112.1,224.3z"/>
				<path class="st6" d="M105.4,189.3c-1-0.8-1.8-1.8-2.2-2.9c0.2,2,1,3.9,2.1,5.6c1.5,2.2,2.2,18.9,2.2,21.8c0,0.1,0,0.2,0,0.3
					c0.5-2.8,0.6-5.7,0.5-8.5c-0.5-4.1,4.9-9.5,4.9-11.9S108.8,191.7,105.4,189.3z"/>
			</g>
		</g>
	</g>
	<path class="st13" d="M108.2,161.9c0,0-2.7,15-4.4,19.4c-1.3,3.6-0.7,7.5,1.4,10.7c1.5,2.2,2.2,18.9,2.2,21.8
		c0,2.9-1.9,6.8,0.7,9.9s16,3.9,23.5,2.9s9.7-5.6,9.7-7.8s-7-30.3-10.7-42.4s-8.7-20.8-10.9-22.3s-0.5-2.2-2.7-1.4
		S110.1,158.5,108.2,161.9z"/>
	<path class="st10" d="M107.8,167.4c0,0,1.8,0.9,4.2-2.2"/>
	<path class="st4" d="M135.8,199.5l-10.4,3.9c0,0-2.4,8.7-3.9,12.9c-1.4,4.1-9,22.3-9,22.3s-4.4,4.9-5.3,6.3s-1.2,6.3-0.5,7
		s2.4-1.7,2.4-1.7s0.5,1.2,2.4,0.2s4.5-10.1,4.5-10.1s10.2-17.5,13.8-23s6.5-10.9,6.5-13.1C136.3,202.6,136.1,201,135.8,199.5z"/>
	<g>
		<g>
			<defs>
				<path id="SVGID_27_" d="M135.8,199.5l-10.4,3.9c0,0-2.4,8.7-3.9,12.9c-1.4,4.1-9,22.3-9,22.3s-4.4,4.9-5.3,6.3s-1.2,6.3-0.5,7
					s2.4-1.7,2.4-1.7s0.5,1.2,2.4,0.2s4.5-10.1,4.5-10.1s10.2-17.5,13.8-23s6.5-10.9,6.5-13.1C136.3,202.6,136.1,201,135.8,199.5z"
					/>
			</defs>
			<clipPath id="SVGID_28_">
				<use xlink:href="#SVGID_27_"  style="overflow:visible;"/>
			</clipPath>
			<g class="st36">
				<path class="st6" d="M136.1,201.5c-0.1-0.6-0.1-1-0.2-1.4l-2.2,0.1l-8.3,3.1c0,0-2.4,8.7-3.9,12.9c-1.4,4.1-9,22.3-9,22.3
					s-4.4,4.9-5.3,6.3s-1.2,6.3-0.5,7s2.4-1.7,2.4-1.7c-0.7-1-1.2-2.2-1.4-3.5c0-1.5,5.5-6.7,5.5-6.7l17.1-34.1L136.1,201.5z"/>
			</g>
		</g>
	</g>
	<path class="st13" d="M135.8,199.5l-10.4,3.9c0,0-2.4,8.7-3.9,12.9c-1.4,4.1-9,22.3-9,22.3s-4.4,4.9-5.3,6.3s-1.2,6.3-0.5,7
		s2.4-1.7,2.4-1.7s0.5,1.2,2.4,0.2s4.5-10.1,4.5-10.1s10.2-17.5,13.8-23s6.5-10.9,6.5-13.1C136.3,202.6,136.1,201,135.8,199.5z"/>
	<path class="st7" d="M125.4,203.4c0,0-0.7,2.6-1.6,5.5c1.8,0.6,3.8,1.1,5.7,1.3c1.5,0.1,2.9,0.2,4.4,0.1c1.4-2.7,2.4-4.9,2.4-6.1
		c0-1.5-0.2-3.1-0.5-4.6L125.4,203.4z"/>
	<path class="st4" d="M118.1,162.2c-2,1.7-3.3,4.1-3.6,6.8c-0.5,4.4,3.4,15,3.4,19.9s1,10.9,1.9,13.3s5.3,3.9,9.9,2.7
		c4.6-1.2,8.5-1.9,8.5-7.3S133.4,183,130,175S123.7,160,118.1,162.2z"/>
	<g>
		<g>
			<defs>
				<path id="SVGID_29_" d="M118.1,162.2c-2,1.7-3.3,4.1-3.6,6.8c-0.5,4.4,3.4,15,3.4,19.9s1,10.9,1.9,13.3s5.3,3.9,9.9,2.7
					c4.6-1.2,8.5-1.9,8.5-7.3S133.4,183,130,175S123.7,160,118.1,162.2z"/>
			</defs>
			<clipPath id="SVGID_30_">
				<use xlink:href="#SVGID_29_"  style="overflow:visible;"/>
			</clipPath>
			<g class="st37">
				<path class="st6" d="M118.1,162.2c0,0-1.9,1.5-1,6.7s2.2,12.3,2.5,15.7s6.8-7.2,6.1-3.6s-3.8,14.3-3.8,16.6s3.1,5.4,6,6
					c2.9,0.6,8.4-1,8.4-1c-1.4,0.8-2.9,1.4-4.4,1.8c-1.9,0.5-3.8,0.8-5.7,1l-1.3-0.3c0,0-4.5,0-6-4.1s-0.4-12.1-2.2-18
					s-2.5-9.6-2.7-12.3S116.3,163.2,118.1,162.2z"/>
			</g>
		</g>
	</g>
	<path class="st13" d="M118.1,162.2c-2,1.7-3.3,4.1-3.6,6.8c-0.5,4.4,3.4,15,3.4,19.9s1,10.9,1.9,13.3s5.3,3.9,9.9,2.7
		c4.6-1.2,8.5-1.9,8.5-7.3S133.4,183,130,175S123.7,160,118.1,162.2z"/>
	<path class="st10" d="M127.9,172.7c-0.7,4.7-2.2,9.3-4.4,13.5"/>
	<line class="st10" x1="122.6" y1="187.1" x2="120.6" y2="189.6"/>
	<path class="st7" d="M101.8,153.3c2.2,1.2,4,3,5.2,5.2c1.5,3.3,1.8,5.9,3,5.2s8.1-9.5,6.8-10.1c-3-1.5-6.1-8.6-4.6-13.9
		C112.7,137.5,101.4,148.9,101.8,153.3z"/>
	<path class="st4" d="M96.1,123.6c-3.4,1.7-7.2,4.6-7.2,8.7c0,7.3,2.9,10.1,2.9,11.9s-2.4,4.3-1.5,5.2s3,0.6,3,0.6
		c1.4,2.6,3.1,5.2,4.8,7.6c1.8,2.1,5.2-0.9,8.8-3.6s5.4-5.1,5.4-10.3s2.6-9,0.3-14c-2.8-6.2-10.2-9-16.4-6.2
		C96.2,123.5,96.1,123.6,96.1,123.6z"/>
	<g>
		<g>
			<defs>
				<path id="SVGID_31_" d="M96.1,123.6c-3.4,1.7-7.2,4.6-7.2,8.7c0,7.3,2.9,10.1,2.9,11.9s-2.4,4.3-1.5,5.2s3,0.6,3,0.6
					c1.4,2.6,3.1,5.2,4.8,7.6c1.8,2.1,5.2-0.9,8.8-3.6s5.4-5.1,5.4-10.3s2.6-9,0.3-14c-2.8-6.2-10.2-9-16.4-6.2
					C96.2,123.5,96.1,123.6,96.1,123.6z"/>
			</defs>
			<clipPath id="SVGID_32_">
				<use xlink:href="#SVGID_31_"  style="overflow:visible;"/>
			</clipPath>
			<g class="st38">
				<path class="st6" d="M96.5,122.6c-3.4,1.7-7.2,4.6-7.2,8.7c1.7-0.6,4.1-1.2,5.3-0.5c1.9,1.3-0.3,8.5,6,11.4s7.6,2.5,8.5,4.7
					c0.6,1.4-0.4,4.2-2.3,6.4l0.6-0.4c3.6-2.7,5.5-5.1,5.5-10.3s2.6-8.9,0.3-14c-2.8-6.3-10.2-9-16.4-6.2
					C96.7,122.5,96.6,122.6,96.5,122.6z"/>
			</g>
		</g>
	</g>
	<path class="st13" d="M96.1,123.6c-3.4,1.7-7.2,4.6-7.2,8.7c0,7.3,2.9,10.1,2.9,11.9s-2.4,4.3-1.5,5.2s3,0.6,3,0.6
		c1.4,2.6,3.1,5.2,4.8,7.6c1.8,2.1,5.2-0.9,8.8-3.6s5.4-5.1,5.4-10.3s2.6-9,0.3-14c-2.8-6.2-10.2-9-16.4-6.2
		C96.2,123.5,96.1,123.6,96.1,123.6z"/>
	<path class="st6" d="M92.9,145.4l-0.8,1.7c0,0,1.7,1.7,1.7,0.4S94.4,144.2,92.9,145.4z"/>
	<path class="st7" d="M97.6,151.2c1.4-0.5,2.4-1.8,2.7-3.3"/>
	<path class="st7" d="M94.4,141.4l0.4,2c1.2,0.4,2.4-0.1,3.1-1.1"/>
	<path class="st7" d="M92.7,139.7c0.8-1.4,2.5-2.1,4-1.6"/>
	<path class="st9" d="M104.9,155.6c-0.8,0.6-1.7,1.2-2.4,1.7c2.5,7.2-5.7,15.4-2.2,23.2c0.8,1.7,1.7,3.3,2.9,4.8c0-0.3,0-0.6,0-0.9
		c0-0.1,0-0.2,0-0.3c0-0.2,0-0.4,0.1-0.6s0-0.2,0-0.3s0.1-0.4,0.2-0.6s0-0.2,0.1-0.3c0.1-0.3,0.2-0.6,0.3-0.9
		c1.7-4.4,4.4-19.4,4.4-19.4v-0.1c-0.3-0.9-0.7-2.1-1.3-3.3C106.3,157.4,105.7,156.5,104.9,155.6z"/>
	<path class="st9" d="M165.3,200.4c-8.2-7-6.8-10.2-4.6-15.5s1.7-16.7-7-24.5s-19.9-3.4-25-13.3s-0.2-11.6-3.2-20.1
		S112,112.4,104,112.9c-2,0.1-4,0.6-5.8,1.4c-13,0.3-17.4,7-14.7,13.4c1.2,2.5,4.1,3.7,6.7,2.8c2.2-0.8,5.2-1.3,6.6,1
		c2.4,3.9,1.5,9.9,8.8,11.4c3.6,0.7,5.8,1.6,6.8,2.8c0,0.3-0.1,0.6-0.1,0.9c0.2,0.8,0.5,1.6,0.8,2.4c-0.1,0.7-0.3,1.3-0.5,1.9
		c-1.7,4.6-5.3,9,0.3,11.9s4.1-0.8,7.9-0.8s5.9,5,5.9,5c1.6,3.1,3,6.3,4.1,9.6l0.2,0.7c3.3,7.4,7.3,15.5,7.3,20.4
		c0.1,1.2-0.3,2.5-0.9,3.6c0.8,3.3,1.6,6.5,2.3,9.2l0,0c0.1,0.4,0.2,0.9,0.3,1.3v0.1c0.1,0.4,0.2,0.8,0.3,1.2l0,0
		c0.1,0.3,0.1,0.7,0.2,1v0.2c0.1,0.3,0.1,0.5,0.2,0.8s0.1,0.2,0.1,0.3c0,0.2,0.1,0.5,0.1,0.7l0.1,0.3c0,0.2,0.1,0.4,0.1,0.6l0.1,0.3
		c0,0.2,0.1,0.3,0.1,0.5c0,0.1,0,0.2,0.1,0.3c0,0.1,0,0.2,0.1,0.4s0,0.1,0,0.2s0,0.2,0,0.3s0,0.1,0,0.2c0,0.1,0,0.2,0,0.3
		c0,0.2,0,0.3,0,0.5v0.1c0,0.1-0.1,0.3-0.1,0.4c0,0.1,0,0.1,0,0.2s-0.1,0.4-0.2,0.6v0.1c-0.2,0.5-0.5,1-0.8,1.4v0.1
		c-0.2,0.2-0.4,0.5-0.6,0.7l0,0c-0.5,0.5-1,1-1.6,1.4l0.8,4.6c0,0-0.6,0.3-1.7,0.8c1.9,0.9,3.9,1.5,5.9,1.8
		c12.6,1.9,18.7-1.5,23.3-8S173.5,207.4,165.3,200.4z"/>
	<path class="st19" d="M84.7,128c0,0,3.5,2.7,9.2,0.4s10.7-2.7,14.3,1.8s5.9,6.6,8.4,6.6s8.8,5.1,9.4,11.3s3.9,8.2,8.4,9.8"/>
	<path class="st19" d="M137.4,158.5c2,0.5,3.9,0.8,5.9,1c2.9,0.2,4.9,0.2,7,2.5"/>
	<path class="st19" d="M99.1,130.9c2,1.8,3.5,4,4.5,6.6c1.2,3.7,7.6,4.7,10.8,4.5"/>
	<path class="st19" d="M117.1,126.1c0,0-2.7-4.9-7.4-7s-8.6,0.8-15,3.5s-10.2,0.8-10.2,0.8"/>
	<path class="st19" d="M131,165.6c0,0,3.7,5.9,8.6,9.4s10.4,6.1,7.8,14.7s-4.9,13.3,1.4,18.8s8.6,14.3,6.1,17.8"/>
	<path class="st19" d="M115.3,144.3c0,0,4.1,3.6,2.9,7.1s-6.8,5.6-3.6,8.5s9.8,0.3,11.3,0.9c1,0.3,1.8,0.9,2.5,1.7"/>
	<path class="st19" d="M117.1,142.5c0,0,4.6,2,4.9,6.1s-2.9,6.3-2.2,8s3.2-0.2,6,0.8"/>
	<path class="st5" d="M74.9,158.9H34.8c-2.2,0-4.1-1.8-4.1-4.1v-16.2c0-2.2,1.8-4.1,4.1-4.1h40.1c2.2,0,4,1.8,4,4.1v16.2
		C78.9,157.1,77.1,158.9,74.9,158.9z"/>
	<polyline class="st5" points="78.9,152.5 78.9,165.6 71.7,157.2 	"/>
	<circle class="st4" cx="64.7" cy="147.2" r="2.5"/>
	<path class="st4" d="M51.5,147.2c0-1.4,1.1-2.5,2.5-2.5s2.5,1.1,2.5,2.5s-1.1,2.5-2.5,2.5S51.5,148.6,51.5,147.2z"/>
	<circle class="st4" cx="43.3" cy="147.2" r="2.5"/>
	<line class="st19" x1="156.2" y1="203.7" x2="159.1" y2="207"/>
	<path class="st19" d="M161.1,208.4c3,3.6,3.8,8.5,2.3,12.9"/>
</g>
</svg>
