<?xml version="1.0" encoding="utf-8"?>
<!-- Generator: Adobe Illustrator 23.0.0, SVG Export Plug-In . SVG Version: 6.00 Build 0)  -->
<svg version="1.1" id="Capa_1" xmlns="http://www.w3.org/2000/svg" xmlns:xlink="http://www.w3.org/1999/xlink" x="0px" y="0px"
	 viewBox="0 0 380.8 427.6" style="enable-background:new 0 0 380.8 427.6;" xml:space="preserve">
<style type="text/css">
	.st0{fill:#90CAF9;}
	.st1{fill:#DDFBF6;}
	.st2{fill:none;stroke:#263238;stroke-linecap:round;stroke-linejoin:round;}
	.st3{fill:#15B54A;stroke:#263238;stroke-linecap:round;stroke-linejoin:round;}
	.st4{fill:none;stroke:#263238;stroke-miterlimit:10;}
	.st5{fill:#263238;}
	.st6{fill:#999999;stroke:#263238;stroke-linecap:round;stroke-linejoin:round;}
	.st7{fill:#3592F1;stroke:#263238;stroke-linecap:round;stroke-linejoin:round;}
	.st8{fill:#FFFFFF;}
	.st9{clip-path:url(#SVGID_2_);}
	.st10{opacity:0.4;fill:#90CAF9;enable-background:new    ;}
	.st11{clip-path:url(#SVGID_4_);}
	.st12{opacity:0.3;fill-opacity:0.7;enable-background:new    ;}
	.st13{opacity:0.3;fill:#FFFFFF;fill-opacity:0.7;enable-background:new    ;}
	.st14{clip-path:url(#SVGID_6_);}
	.st15{clip-path:url(#SVGID_8_);}
	.st16{clip-path:url(#SVGID_10_);}
	.st17{fill:#999999;}
	.st18{clip-path:url(#SVGID_12_);}
	.st19{opacity:0.2;enable-background:new    ;}
	.st20{fill:#FFFFFF;stroke:#263238;stroke-linecap:round;stroke-linejoin:round;}
	.st21{fill:none;stroke:#FFFFFF;stroke-linecap:round;stroke-linejoin:round;}
	.st22{fill:#BFBFBF;}
	.st23{clip-path:url(#SVGID_14_);}
	.st24{clip-path:url(#SVGID_16_);}
	.st25{clip-path:url(#SVGID_18_);}
	.st26{clip-path:url(#SVGID_20_);}
	.st27{fill:#757575;stroke:#263238;stroke-linecap:round;stroke-linejoin:round;}
	.st28{clip-path:url(#SVGID_22_);}
	.st29{clip-path:url(#SVGID_24_);}
	.st30{clip-path:url(#SVGID_26_);}
</style>
<g id="freepik--background-simple--inject-286">
	<path class="st0" d="M61,72.6c13.5-16.1,31.6-28.5,53.3-28.3c37,0.5,57,33.2,78.2,58.5c11,13.1,23.5,25.7,39.8,31.9
		c24.5,9.2,51.8,3.8,75.7-4.7c10.7-3.8,23.4-9.2,35.4-6.5c36.6,8.4,32.8,53.1,26.8,81.4c-8.2,38.2-21.4,78.9-48.4,108.2
		c-64.4,70.3-180.4,27.2-238.5-28.9c-4.3-4.1-8.4-8.4-12.2-13c-10-11.7-18.5-24.6-25.2-38.4c-18.7-38.9-21.3-86.3-5-126.5
		C45.9,94.1,52.6,82.7,61,72.6z"/>
	<path class="st1" d="M61,72.6c13.5-16.1,31.6-28.5,53.3-28.3c37,0.5,57,33.2,78.2,58.5c11,13.1,23.5,25.7,39.8,31.9
		c24.5,9.2,51.8,3.8,75.7-4.7c10.7-3.8,23.4-9.2,35.4-6.5c36.6,8.4,32.8,53.1,26.8,81.4c-8.2,38.2-21.4,78.9-48.4,108.2
		c-64.4,70.3-180.4,27.2-238.5-28.9c-4.3-4.1-8.4-8.4-12.2-13c-10-11.7-18.5-24.6-25.2-38.4c-18.7-38.9-21.3-86.3-5-126.5
		C45.9,94.1,52.6,82.7,61,72.6z"/>
</g>
<g id="freepik--Floor--inject-286">
	<line class="st2" x1="5" y1="403.6" x2="375.5" y2="403.6"/>
</g>
<g id="freepik--Window--inject-286">
	<polyline class="st2" points="243,200.9 243,53.8 252.1,53.8 	"/>
	<line class="st2" x1="243" y1="218.4" x2="243" y2="214.5"/>
	<polyline class="st2" points="275.5,53.8 369.5,53.8 369.5,232.1 243,232.1 	"/>
	<line class="st2" x1="264" y1="53.8" x2="272.3" y2="53.8"/>
	<rect x="247.7" y="58.5" class="st2" width="117" height="168.9"/>
	<polyline class="st2" points="359.3,67.5 359.3,137.7 253.2,137.7 253.2,133.1 	"/>
	<polyline class="st2" points="253.2,122.4 253.2,63.5 359.3,63.5 	"/>
	<line class="st2" x1="253.2" y1="129.6" x2="253.2" y2="125.1"/>
	<line class="st2" x1="341.4" y1="142.9" x2="364.8" y2="142.9"/>
	<line class="st2" x1="333.1" y1="142.9" x2="336.4" y2="142.9"/>
	<line class="st2" x1="247.7" y1="142.9" x2="329.1" y2="142.9"/>
	<polyline class="st2" points="300.4,137.7 300.4,135.3 310.1,135.3 310.1,136.6 306.3,136.6 306.3,137.7 	"/>
	<path class="st2" d="M247.9,206.1c0,0,1.6,1.2,2.8,8.7c0,0,2-11.9,4.3-12.1c2.3-0.2,1.9,7.7,1.9,7.7s0.4-3.9,2.3-3.7s0,8,0,8
		s2.2-6.1,4.4-6s-1.4,11.1-1.4,11.1s5.4-3.9,7.6-2s-1.2,6.8-1.2,6.8s7.8-1.7,9,2.9"/>
	<path class="st2" d="M277.6,223.1c0,0,3.4-2.2,6.1-1.2c0,0-1.7-2.6,0-4.2s3.9,4.2,3.9,4.2s0.3-9.6,3.6-9.2s0,9.2,0,9.2
		s6.1-5.4,7.5-3.5s-1,4.7-1,4.7c2.2-0.6,4.6,0,6.3,1.5c0,0,4.1-4.1,8.6-4.8c0,0-3-8.7-1.5-10.5s4.1,7.6,4.1,7.6s1.2-6.1,5-6.6
		c0,0-3.2-1.7-2.2-4.3s5.3,0.6,5.3,0.6s-1.8-4.6,1-5.9s4,3.8,4,3.8s0.8-5.3,4.1-5s2.3,6.4,2.3,6.4s3.1-4.9,4.8-4.4
		c3.4,1,2.4,8.7,2.4,8.7s4.7-3.3,5.9-1.8s-4.9,5.8-4.9,5.8s4.7,0.5,7.6,3.2"/>
	<path class="st2" d="M364.8,207.9c0,0-0.5-4.9-5.4-5.2s1.4,10.8,1.4,10.8s-4-3.4-5.5-2.3s4.1,6.7,4.1,6.7s-2.7-2.5-5.5-1.7
		s1.6,8.7,1.6,8.7c-4.2-0.8-8.5-0.3-12.4,1.5"/>
</g>
<g id="freepik--Table--inject-286">
	<line class="st2" x1="197.7" y1="359.7" x2="197.7" y2="403.3"/>
	<line class="st2" x1="197.7" y1="345.5" x2="197.7" y2="354.8"/>
	<polyline class="st2" points="14.5,403.5 14.5,322.4 197.7,322.4 197.7,340.2 	"/>
	<polyline class="st2" points="41.2,331.3 25.3,331.3 25.3,396.1 	"/>
	<polyline class="st2" points="186.9,403.3 186.9,331.3 50.4,331.3 	"/>
	<line class="st2" x1="179.3" y1="314" x2="174.2" y2="314"/>
	<polyline class="st2" points="167,314 9.9,314 9.9,322.4 202.2,322.4 202.2,314 182.5,314 	"/>
	<path class="st3" d="M20.8,260.6c0,0,15,1.2,15.7,12.3C36.4,272.9,21.2,279.9,20.8,260.6z"/>
	<path class="st3" d="M50.5,263.4c0,0,8.4-11.4,22-5.5C72.5,257.8,64.2,271.6,50.5,263.4z"/>
	<path class="st3" d="M71.4,227.5c0,0,2.4,21.9-17.5,15.9C53.9,243.3,60.2,227.2,71.4,227.5z"/>
	<path class="st3" d="M46.9,215.3c0,0,15.8,8.5,4.2,21.4C51.1,236.6,40.1,227.5,46.9,215.3z"/>
	<path class="st3" d="M27.6,234.8c0,0,17.1-1.7,17.1,14.1C44.7,248.9,27.6,249.6,27.6,234.8z"/>
	<path class="st2" d="M40.4,281.8c-0.3-5.3-0.3-12.2,3-19.4c7.5-16.7,10-30.7,6.1-40.6"/>
	<path class="st2" d="M33.2,239.1c0,0,10.3,4.1,13.8,14.6"/>
	<path class="st2" d="M66,236.2c0,0-5.9,8.1-16,7.2"/>
	<path class="st2" d="M66,260.1c0,0-16.4,4.7-23,3.2"/>
	<path class="st2" d="M25.7,265.6c0,0,7.3,8.1,14.7,7.9"/>
	<path class="st4" d="M59.9,281.8H24.2c-0.5,0-0.9,0.4-0.9,0.9v2.7c0,0.5,0.4,0.9,0.9,0.9l0,0h1l3.2,27.8h27.3l3.2-27.8H60
		c0.5,0,0.9-0.4,0.9-0.8l0,0v-2.7C60.8,282.2,60.4,281.8,59.9,281.8L59.9,281.8z"/>
	<line class="st2" x1="27.6" y1="286.3" x2="48.3" y2="286.3"/>
	<line class="st2" x1="52.2" y1="286.3" x2="55.4" y2="286.3"/>
</g>
<g id="freepik--character-3--inject-286">
	<path class="st5" d="M279.7,171.2l-4,21.7l-32.6,19.8l4.5,8.3c0,0,37.7-11.5,38.6-14.2s9.6-31.2,9.6-31.2L279.7,171.2z"/>
	<path class="st6" d="M294,134.4l-2.2,26.4l-1.1,13.8c-6.3,3.1-12.4-1.5-12.8-1.8l0,0C279.6,167.8,281.5,139.4,294,134.4z"/>
	<path class="st5" d="M291.8,160.8l-1.1,13.8c-6.3,3.1-12.4-1.5-12.8-1.8c0.3,0.1,3.6,1.5,5.7,0c-0.8-0.8-1.4-1.7-2-2.6
		c-0.1-0.5,2-0.7,2-0.7s-1.4-11.2,2.3-16C287.3,151.7,289.6,155.5,291.8,160.8z"/>
	<path class="st7" d="M316.6,378.5l1,2.9c-1.5,2.5-3.2,4.9-5.1,7.1c0,0-1-0.3-2.6,1.1c-1,1-1.6,2.3-1.8,3.8c0,0-7.6,9.2-17.3,9.3
		s-6.8-4.6-6.8-4.6L316.6,378.5z"/>
	<path class="st8" d="M307.5,355.2c0,0-13-4.8-15.5,4.8c0,0,2.3,10.5,0.9,16.3s-8.4,16.8-8.8,18.9c-0.9,4.1-0.2,4.4-0.2,4.4
		s5.1,2.9,11.9-0.2s18.7-16.7,20.5-19.5s-5.8-13.8-5.8-13.8L307.5,355.2z"/>
	<g>
		<g>
			<g>
				<g>
					<defs>
						<path id="SVGID_1_" d="M307.5,355.2c0,0-13-4.8-15.5,4.8c0,0,2.3,10.5,0.9,16.3s-8.4,16.8-8.8,18.9c-0.9,4.1-0.2,4.4-0.2,4.4
							s5.1,2.9,11.9-0.2s18.7-16.7,20.5-19.5s-5.8-13.8-5.8-13.8L307.5,355.2z"/>
					</defs>
					<clipPath id="SVGID_2_">
						<use xlink:href="#SVGID_1_"  style="overflow:visible;"/>
					</clipPath>
					<g class="st9">
						<path class="st10" d="M307.5,355.2c0,0-13-4.8-15.5,4.8c0,0,2.3,10.5,0.9,16.3s-8.4,16.8-8.8,18.9c-0.9,4.1-0.2,4.4-0.2,4.4
							s5.1,2.9,11.9-0.2s18.7-16.7,20.5-19.5s-5.8-13.8-5.8-13.8L307.5,355.2z"/>
					</g>
				</g>
			</g>
		</g>
	</g>
	<path class="st2" d="M307.5,355.2c0,0-13-4.8-15.5,4.8c0,0,2.3,10.5,0.9,16.3s-8.4,16.8-8.8,18.9c-0.9,4.1-0.2,4.4-0.2,4.4
		s5.1,2.9,11.9-0.2s18.7-16.7,20.5-19.5s-5.8-13.8-5.8-13.8L307.5,355.2z"/>
	<path class="st2" d="M300.8,368.8c1.1,6.5,0,13.1-3.3,18.8"/>
	<path class="st7" d="M297.6,390.1c-1,2.5-3,4.4-5.6,5.1s-5.4,0.7-8,0l3.1-6.3C290.5,390.2,294.1,390.6,297.6,390.1z"/>
	<path class="st2" d="M299.4,386.3c0,0-6.8,0.4-10.4-1"/>
	<path class="st2" d="M300.7,382.5c0,0-6.4,1-9.9-1"/>
	<path class="st2" d="M301.8,378.4c0,0-5.6,0.8-9.2-0.9"/>
	<path class="st2" d="M302.4,373.6c0,0-6.2,1.9-9.1,0"/>
	<path class="st7" d="M303.3,362l1.1,6.8c0,0-8.2,5.4-13.6-1.4v-7.1C290.8,360.3,292.8,365.1,303.3,362z"/>
	<path class="st5" d="M296.2,209.1c-8.3,26.3-34.1,68.6-31.5,79.4c1.4,5.9,9.9,39.3,16.6,54c2.5,5.6,8,9.4,8,9.4l4,8.5
		c9.6,4.2,13.1-4.3,13.1-4.3l-1.9-9.6c5.2-9.4,3-9.4-3.7-58c-0.8-5.7,12.5-23.4,12.5-23.4l6.8,44.6l1.1,36.5l3.5,11.3
		c0,0,0.9,10.6,0.8,11.2h15.8l1.7-11.6c0,0,7.4-6.9,7.4-14.9s-1.6-48.8,0-60.6s-3.7-67.2-3.7-67.2L296.2,209.1z"/>
	<path class="st7" d="M188.6,185.6l22,2c1,0.1,1.8,1,1.7,2l0,0l-1.4,15.7l0,0l-25.8-2.3l0,0l1.4-15.7
		C186.6,186.3,187.5,185.5,188.6,185.6L188.6,185.6z"/>
	<g>
		<g>
			<g>
				<g>
					<defs>
						<path id="SVGID_3_" d="M188.6,185.6l22,2c1,0.1,1.8,1,1.7,2l0,0l-1.4,15.7l0,0l-25.8-2.3l0,0l1.4-15.7
							C186.6,186.3,187.5,185.5,188.6,185.6L188.6,185.6z"/>
					</defs>
					<clipPath id="SVGID_4_">
						<use xlink:href="#SVGID_3_"  style="overflow:visible;"/>
					</clipPath>
					<g class="st11">
						<path class="st12" d="M188.6,185.6l22,2c1,0.1,1.8,1,1.7,2l0,0l-1.4,15.7l0,0l-25.8-2.3l0,0l1.4-15.7
							C186.6,186.3,187.5,185.5,188.6,185.6L188.6,185.6z"/>
						
							<rect x="200.8" y="190.3" transform="matrix(8.559854e-02 -0.9963 0.9963 8.559854e-02 -3.3095 383.2533)" class="st13" width="12.7" height="6.3"/>
					</g>
				</g>
			</g>
		</g>
	</g>
	<path class="st2" d="M188.6,185.6l22,2c1,0.1,1.8,1,1.7,2l0,0l-1.4,15.7l0,0l-25.8-2.3l0,0l1.4-15.7
		C186.6,186.3,187.5,185.5,188.6,185.6L188.6,185.6z"/>
	<path class="st7" d="M226.5,187l21.9,1.9c1,0.1,1.8,1,1.7,2l0,0l-1.3,15.6l0,0l-25.7-2.2l0,0l1.3-15.6
		C224.6,187.7,225.5,186.9,226.5,187L226.5,187z"/>
	<g>
		<g>
			<g>
				<g>
					<defs>
						<path id="SVGID_5_" d="M226.5,187l21.9,1.9c1,0.1,1.8,1,1.7,2l0,0l-1.3,15.6l0,0l-25.7-2.2l0,0l1.3-15.6
							C224.6,187.7,225.5,186.9,226.5,187L226.5,187z"/>
					</defs>
					<clipPath id="SVGID_6_">
						<use xlink:href="#SVGID_5_"  style="overflow:visible;"/>
					</clipPath>
					<g class="st14">
						<path class="st12" d="M226.5,187l21.9,1.9c1,0.1,1.8,1,1.7,2l0,0l-1.3,15.6l0,0l-25.7-2.2l0,0l1.3-15.6
							C224.6,187.7,225.5,186.9,226.5,187L226.5,187z"/>
						
							<rect x="239.6" y="194.8" transform="matrix(8.559854e-02 -0.9963 0.9963 8.559854e-02 28.9027 424.8722)" class="st13" width="12.7" height="3.8"/>
					</g>
				</g>
			</g>
		</g>
	</g>
	<path class="st2" d="M226.5,187l21.9,1.9c1,0.1,1.8,1,1.7,2l0,0l-1.3,15.6l0,0l-25.7-2.2l0,0l1.3-15.6
		C224.6,187.7,225.5,186.9,226.5,187L226.5,187z"/>
	<path class="st7" d="M218.6,186.3l21.9,1.9c1,0.1,1.8,1,1.7,2l0,0l-1.3,15.6l0,0l-25.7-2.2l0,0l1.3-15.6
		C216.6,187,217.6,186.3,218.6,186.3z"/>
	<path class="st7" d="M256.4,189.6l21.9,1.9c1,0.1,1.8,1,1.7,2l0,0l-1.3,15.6l0,0l-25.7-2.2l0,0l1.3-15.6
		C254.5,190.3,255.4,189.5,256.4,189.6z"/>
	
		<rect x="230.8" y="192.7" transform="matrix(8.559854e-02 -0.9963 0.9963 8.559854e-02 21.6556 415.3692)" class="st13" width="12.7" height="6.3"/>
	
		<rect x="268.2" y="196" transform="matrix(8.559854e-02 -0.9963 0.9963 8.559854e-02 52.6292 455.6002)" class="st13" width="12.7" height="6.3"/>
	<path class="st7" d="M290.2,206.5l-6.2,71.9l-115.9-10l6.2-71.9c0.2-2.5,2.4-4.4,4.9-4.1l0,0l106.8,9.2
		C288.5,201.7,290.4,203.9,290.2,206.5L290.2,206.5z"/>
	<g>
		<g>
			<g>
				<g>
					<defs>
						<path id="SVGID_7_" d="M290.2,206.5l-6.2,71.9l-115.9-10l6.2-71.9c0.2-2.5,2.4-4.4,4.9-4.1l0,0l106.8,9.2
							C288.5,201.7,290.4,203.9,290.2,206.5L290.2,206.5z"/>
					</defs>
					<clipPath id="SVGID_8_">
						<use xlink:href="#SVGID_7_"  style="overflow:visible;"/>
					</clipPath>
					<g class="st15">
						<path class="st12" d="M290.2,206.5l-6.2,71.9l-115.9-10l6.2-71.9c0.2-2.5,2.4-4.4,4.9-4.1l0,0l106.8,9.2
							C288.5,201.7,290.4,203.9,290.2,206.5L290.2,206.5z"/>
					</g>
				</g>
			</g>
		</g>
	</g>
	<path class="st2" d="M290.2,206.5l-6.2,71.9l-115.9-10l6.2-71.9c0.2-2.5,2.4-4.4,4.9-4.1l0,0l106.8,9.2
		C288.5,201.7,290.4,203.9,290.2,206.5L290.2,206.5z"/>
	<path class="st7" d="M290.2,206.5l-6.2,71.9l-86-7.4l6.2-71.9c0.2-2.5,2.4-4.4,4.9-4.1l0,0l76.9,6.6
		C288.5,201.8,290.4,204,290.2,206.5L290.2,206.5z"/>
	<path class="st13" d="M284.1,208.5l-73.5-6.3c-1-0.1-1.8-1-1.7-2l0,0c0.1-1,1-1.8,2-1.7l73.5,6.3c1,0.1,1.8,1,1.7,2l0,0
		C286.1,207.9,285.2,208.6,284.1,208.5z"/>
	<path class="st8" d="M341.8,368.9c0,0-5.5-4-17-3.2c0,0-0.8,13.8-2.4,17.8s-9.8,10.9-11.3,12.1s-1.5,5.3-1.5,5.3h34.8
		c-0.4-6-1.4-11.9-2.8-17.7L341.8,368.9z"/>
	<g>
		<g>
			<g>
				<g>
					<defs>
						<path id="SVGID_9_" d="M341.8,368.9c0,0-5.5-4-17-3.2c0,0-0.8,13.8-2.4,17.8s-9.8,10.9-11.3,12.1s-1.5,5.3-1.5,5.3h34.8
							c-0.4-6-1.4-11.9-2.8-17.7L341.8,368.9z"/>
					</defs>
					<clipPath id="SVGID_10_">
						<use xlink:href="#SVGID_9_"  style="overflow:visible;"/>
					</clipPath>
					<g class="st16">
						<path class="st10" d="M341.8,368.9c0,0-5.5-4-17-3.2c0,0-0.8,13.8-2.4,17.8s-9.8,10.9-11.3,12.1s-1.5,5.3-1.5,5.3h34.8
							c-0.4-6-1.4-11.9-2.8-17.7L341.8,368.9z"/>
					</g>
				</g>
			</g>
		</g>
	</g>
	<path class="st2" d="M341.8,368.9c0,0-5.5-4-17-3.2c0,0-0.8,13.8-2.4,17.8s-9.8,10.9-11.3,12.1s-1.5,5.3-1.5,5.3h34.8
		c-0.4-6-1.4-11.9-2.8-17.7L341.8,368.9z"/>
	<path class="st2" d="M334.6,370.7c0,0-0.8,12.7-2.8,16c-1.1,1.8-2.4,3.5-3.9,5"/>
	<path class="st7" d="M327,393.4c0,0-1.8,2.2-3.7,2.5s-12.2-0.3-12.2-0.3l4.2-3.6C315.3,392,323.8,390.6,327,393.4z"/>
	<path class="st2" d="M330.6,390.5c0,0-7.4-4.3-12.7-1"/>
	<path class="st2" d="M332.4,387.6c0,0-5.2-4-11.3-1.8"/>
	<path class="st2" d="M334.6,383.2c0,0-5.6-4.3-11.5-1.6"/>
	<path class="st2" d="M335.4,377.7c0,0-6.8-3.6-11.7-0.9"/>
	<path class="st7" d="M344.4,401v2.6h-4c0,0-3.4-2-6.7,0h-18.8c-2,0-3.9-0.4-5.7-1.3l0.4-1.3L344.4,401L344.4,401z"/>
	<path class="st7" d="M339.4,368.1l-0.9,5.6c0,0-10.5-3.4-16.2-1.2v-6.9C322.3,365.6,333,361.9,339.4,368.1z"/>
	<path class="st17" d="M350.7,228.3c0,0-22.2,4.4-44-2.7c-5-1.6-9.7-3.8-14.1-6.5c0,0,0.1-1.4,0.1-3.7c0.2-8.9,0.1-31.4-4.6-37
		c-3-3.5-5.4-25.2,0.4-36.2l17.7-14.2c24.5,4.8,29.7,11.3,33.8,25.3c0.8,2.6,1.5,5.4,2.2,8.5c0.9,3.4,1.6,7.5,2.4,12
		C348.3,196.1,350.7,228.3,350.7,228.3z"/>
	<g>
		<g>
			<g>
				<g>
					<defs>
						<path id="SVGID_11_" d="M350.7,228.3c0,0-22.2,4.4-44-2.7c-5-1.6-9.7-3.8-14.1-6.5c0,0,0.1-1.4,0.1-3.7
							c0.2-8.9,0.1-31.4-4.6-37c-3-3.5-5.4-25.2,0.4-36.2l17.7-14.2c24.5,4.8,29.7,11.3,33.8,25.3c0.8,2.6,1.5,5.4,2.2,8.5
							c0.9,3.4,1.6,7.5,2.4,12C348.3,196.1,350.7,228.3,350.7,228.3z"/>
					</defs>
					<clipPath id="SVGID_12_">
						<use xlink:href="#SVGID_11_"  style="overflow:visible;"/>
					</clipPath>
					<g class="st18">
						<path class="st19" d="M344.6,173.7l-10,44.7c0,0-14.5,4-27.9,7.2c-5-1.6-9.7-3.8-14.1-6.5c0,0,0.1-1.4,0.1-3.7
							c12.1-6.2,29.8-15.3,29.6-15.7c-0.2-0.7,0-24,0-24s16-3.7,17.7-22.4c0.8,2.6,1.5,5.4,2.2,8.5
							C343,165.1,343.9,169.2,344.6,173.7z"/>
					</g>
				</g>
			</g>
		</g>
	</g>
	<path class="st2" d="M350.7,228.3c0,0-22.2,4.4-44-2.7c-5-1.6-9.7-3.8-14.1-6.5c0,0,0.1-1.4,0.1-3.7c0.2-8.9,0.1-31.4-4.6-37
		c-3-3.5-5.4-25.2,0.4-36.2l17.7-14.2c24.5,4.8,29.7,11.3,33.8,25.3c0.8,2.6,1.5,5.4,2.2,8.5c0.9,3.4,1.6,7.5,2.4,12
		C348.3,196.1,350.7,228.3,350.7,228.3z"/>
	<path class="st20" d="M307,109.3c0,0-7.8,11.2,2.6,19.9c0,0-12.6,14.2-16.8,12.2c-1.8-0.8,0-5.9,0-5.9l-7.3-13.5L307,109.3z"/>
	<path class="st20" d="M304.5,115.1c2.4-10.7,1.3-26.6-13.7-25.1c-10.5,1-18,6.8-15,20.9c1.2,5.9,2.2,14.3,7.7,21.9
		c1.5,2.1,17.3-5.3,16.4-11.3"/>
	<path class="st2" d="M283.1,108.4c2.1-0.8,4.5-0.6,6.5,0.6"/>
	<path class="st2" d="M275.5,109.7c0.4-0.8,1.4-1.3,2.3-1"/>
	<path class="st20" d="M279.3,112c0,0-3.1,5.6-3.1,6.4s3.8,1.1,3.8,1.1"/>
	<path class="st5" d="M285.9,113.1c0,0.6-0.3,1.1-0.6,1.1s-0.7-0.5-0.7-1.1s0.3-1.1,0.6-1.1S285.9,112.5,285.9,113.1z"/>
	<path class="st2" d="M281.5,123.5c0,0,5.9-1.1,7-3.2"/>
	<path class="st5" d="M275.5,101.1l4.6-1.3c0,0,6.5-3,7.8-2.6s4.1,4.7,4.1,7.1c0,0,4.3,3.8,4.9,9.4l1.3-0.6c0,0-0.1-5,2.8-4.9
		s4.1,3.5,3.9,4.6s-3.3,5.5-3.3,5.5s7.1-1.1,7.4-15s-15.1-16.2-22.5-15.6c-3.8,0.4-7.5,0.5-11.3,0.4l0.4,4l-3,0.8l2.3,2.8l-2.5,1.1
		L275.5,101.1z"/>
	<path class="st21" d="M301.3,253.1c0,0,18.1,4.8,23,18.3"/>
	<path class="st21" d="M309.5,260.4c0,0-9.8,16.3-24.8,24.8"/>
	<path class="st21" d="M295.8,352c0,0,5.6-1.3,7.1-3.4"/>
	<path class="st21" d="M326.8,354c0,0,5.4-2.8,10.9,0"/>
	<path class="st21" d="M344.4,278.2c0,0-9.1,23.6-13.8,25.8"/>
	<path class="st21" d="M304.4,241.1c0.3,2.6,11,14.5,19.9,19.2"/>
	<path class="st21" d="M313.6,231.1c1.3,3.2,1.6,6.7,0.8,10c-0.9,2.9-0.9,6,0,8.9"/>
	<path class="st2" d="M294,181.9c0,0,16.8,21.8,34.9,28.9"/>
	<path class="st2" d="M311.4,146.7c0,0-0.1,14.8,10.6,21.5"/>
	<path class="st20" d="M317.4,168.3c-2.3,2.2,0.2,30.1,0.2,30.1s-13.1,5.1-17.2,8.4s-23.6,10.9-23.6,10.9s-3,10.2,0.7,10.6
		s42.5-12.9,51.3-17.5c0,0,5.8-34,5.7-42.7"/>
	<path class="st20" d="M278.4,217.1c-1.8-0.3-5-1.5-6.7-1.1s-4.8,2.2-7.9,3s-1.9,2,0,2.4c1.4,0.2,2.7,0.2,4.1,0l-2.6,2.5
		c-1.5,0.8-3,1.5-4.5,2.1c-0.9,0-4.2,0.9-4,2.3s2.1,1.2,4.2,1.3c0,0-3.4,0.7-3,2.6c0.2,1.3,4,0.1,5.9,0.1c0,0-1.6,1.7-0.4,2.3
		s3.8-0.8,3.8-0.8s-0.1,1.4,1.1,1.6s4.1-1,6.2-2.2c2-1.3,3.9-2.7,5.7-4.2c0.8-0.7,1.6-1.3,2.6-1.7"/>
	<path class="st2" d="M261,229.7c0.9-0.1,1.9-0.2,2.8-0.3c0.8-0.2,1.6-0.5,1.6-0.5"/>
	<path class="st2" d="M263.9,232.4c1.2-0.2,2.4-0.6,3.4-1.2"/>
	<path class="st2" d="M267.3,233.8c0.9-0.1,1.7-0.4,2.5-0.9"/>
	<path class="st2" d="M265.6,224.7c0,0-0.7,1.6,0,2.6s1.6,1,1.7,2s1.9,1,2.5,1.6s1.1,1.9,3.1,2"/>
	<path class="st6" d="M316.6,139.4c-6.8,15.4,0,36.8,0,36.8s16.5,5.6,18,3.2s4.3-14.2,4.8-19.7"/>
	<path class="st2" d="M334.6,161.4c0,0-7,9.6-12.6,9.8"/>
</g>
<g id="freepik--character-2--inject-286">
	<path class="st5" d="M84.4,403.5c0,0-1.7-6.5,0.3-9c3.6-4.3-0.4-8,3.2-9.5l1.5,1.8c0.3-1.8-0.6-7.2,6.1-7.9c8.1-0.9,8.2,5,8.7,7
		l-0.1-2.7c3.4,0,1.7,3.4,6.9,9.1c2.8,3.1,4.1,7.1,3.8,11.3L84.4,403.5z"/>
	<path class="st5" d="M146,403.5c-3.3-1.5-0.3-13.7-0.3-13.7s-4.4-2.9,0-6c3.4,2.9,8.2,3.7,12.4,2c0,0,0.9-8.2,6-7.1
		c0,0,1.3,5.2,4.3,8.2c8.1,8,18.7,9,20.4,12.8c0.5,1.2-0.1,3.8-0.1,3.8L146,403.5z"/>
	<path class="st22" d="M132.1,208l4,8.5c0,0,16.5,34.2,26.7,73.3c0.2,0.9,5.5,19.5,1.3,65.6l2.4,8.1l-2.6,13.4c0,0,3.9,5.7,3.8,7.5
		c0,0-9.7,1.8-13,3.5c-2.5,1.4-10.1,8.8-10.1,8.8c-2.1-0.4-2.3-9.1-2.3-9.1s-4.5-77.1-5.8-80.4s-9.2-17.6-21.5-50.4
		c0,0-0.3,45.8-3.6,57.4c-2.9,10.3,0.5,39.1,0.5,39.1l-2,32.1c0,0,6.9,7.2,1.3,9.1c0,0-3.8-7.2-14.4-8.9c-5.4-0.8-12.2,8.8-12.2,8.8
		c-2.4-0.8,1-12.9,1-12.9c-7.6-57.1-2-46.8-3.5-74.7c-1-17.9-6.1-94.6-0.1-100.8L132.1,208z"/>
	<g>
		<g>
			<g>
				<g>
					<defs>
						<path id="SVGID_13_" d="M132.1,208l4,8.5c0,0,16.5,34.2,26.7,73.3c0.2,0.9,5.5,19.5,1.3,65.6l2.4,8.1l-2.6,13.4
							c0,0,3.9,5.7,3.8,7.5c0,0-9.7,1.8-13,3.5c-2.5,1.4-10.1,8.8-10.1,8.8c-2.1-0.4-2.3-9.1-2.3-9.1s-4.5-77.1-5.8-80.4
							s-9.2-17.6-21.5-50.4c0,0-0.3,45.8-3.6,57.4c-2.9,10.3,0.5,39.1,0.5,39.1l-2,32.1c0,0,6.9,7.2,1.3,9.1c0,0-3.8-7.2-14.4-8.9
							c-5.4-0.8-12.2,8.8-12.2,8.8c-2.4-0.8,1-12.9,1-12.9c-7.6-57.1-2-46.8-3.5-74.7c-1-17.9-6.1-94.6-0.1-100.8L132.1,208z"/>
					</defs>
					<clipPath id="SVGID_14_">
						<use xlink:href="#SVGID_13_"  style="overflow:visible;"/>
					</clipPath>
					<g class="st23">
						<path class="st19" d="M79.3,234.4c26.7,2.1,49.9-6.6,59.9-11.2c-1.9-4.3-3.1-6.7-3.1-6.7l-4-8.5l-50-1.8
							C80,208.5,79.3,219.9,79.3,234.4z"/>
						<path class="st19" d="M115.2,257.5c12.2,32.4,20,46.5,21.3,49.8c0.7,1.9,2.5,28.1,3.9,50c1.6-20,3.3-41.1,3.4-45.2
							c0.3-8.2-5.6-19.5-6.5-22.5s1.1-6.1,1.1-6.1L127.7,270c0.4-4.6-5.3-24.6-5.3-24.6C119,248.8,116,255.6,115.2,257.5z"/>
					</g>
				</g>
			</g>
		</g>
	</g>
	<path class="st2" d="M132.1,208l4,8.5c0,0,16.5,34.2,26.7,73.3c0.2,0.9,5.5,19.5,1.3,65.6l2.4,8.1l-2.6,13.4c0,0,3.9,5.7,3.8,7.5
		c0,0-9.7,1.8-13,3.5c-2.5,1.4-10.1,8.8-10.1,8.8c-2.1-0.4-2.3-9.1-2.3-9.1s-4.5-77.1-5.8-80.4s-9.2-17.6-21.5-50.4
		c0,0-0.3,45.8-3.6,57.4c-2.9,10.3,0.5,39.1,0.5,39.1l-2,32.1c0,0,6.9,7.2,1.3,9.1c0,0-3.8-7.2-14.4-8.9c-5.4-0.8-12.2,8.8-12.2,8.8
		c-2.4-0.8,1-12.9,1-12.9c-7.6-57.1-2-46.8-3.5-74.7c-1-17.9-6.1-94.6-0.1-100.8L132.1,208z"/>
	<path class="st2" d="M115,256.9c0,0,6.1-11.8,11.3-15.1"/>
	<path class="st2" d="M128.6,238c0,0-18.6,5.6-25,6.7"/>
	<path class="st2" d="M119.1,219.1c0.8,15.5,6.3,18.1,1,21.5c0,0,0.1,7.2-2.5,11.8"/>
	<path class="st2" d="M86.6,213.2c0,0,2.2,23.8-5.1,28.2"/>
	<path class="st2" d="M81.5,220.9c0,0-0.6,15.8,0,28.5c0,0,1.8,53.9,3.7,60.6s-2.8,17-2.4,46.2"/>
	<path class="st2" d="M99,379.1c-1.7-0.4-3.5-0.1-5.1,0.7"/>
	<path class="st2" d="M110,385.5c-2.3-2.2-5-4.1-7.9-5.4"/>
	<path class="st2" d="M107,260.7c-4.1,4.6-10.6,13.3-17.3,14"/>
	<path class="st2" d="M113.3,253.2c-1.3,1.6-2.6,3.1-3.9,4.7"/>
	<path class="st2" d="M107.4,307c0,0-9.3,12.7-14.4,13.4"/>
	<path class="st2" d="M118.4,254.6c0,0,16.6,46.2,22.4,50.8c0,0,0.6,34,0.8,45.9s2.9,27.6,2.9,27.6"/>
	<path class="st2" d="M162.2,378.6c0,0-6.4,2.2-9.5,3.6c-1.9,0.9-3.4,2.5-4.2,4.5"/>
	<path class="st2" d="M146.1,288.8c-8.9-5.6-20.7-12.6-25.4-22.4"/>
	<path class="st2" d="M153.8,293.4c-1.7-0.9-3.4-1.9-5-2.9"/>
	<path class="st2" d="M125.8,225.4c-4.8-0.1-10-0.7-14.1-3.4"/>
	<path class="st2" d="M133.4,224.9c-1.4,0.2-2.8,0.3-4.1,0.4"/>
	<path class="st5" d="M142.3,118.7c-3.7-5.5-22.3-6.9-34.3-6.9s-26.5-2-33.1,11.5c-5,10.3,6.5,64.8,6.5,64.8l-2.8,23.5
		c21.7,6.8,58.8,5.3,58.8,5.3l-5-21.3C132.4,195.7,145.9,124.3,142.3,118.7z"/>
	<path class="st20" d="M100.9,98.1c0,0,1.6,12.8-3.3,15.6c0,0,2.4,9.4,11,10s12.3-8.6,12.3-8.6L100.9,98.1z"/>
	<path class="st7" d="M146.2,65.2l21.9-2c1-0.1,1.9,0.7,2,1.7l0,0l1.4,15.6l0,0l-25.6,2.4l0,0l-1.4-15.6
		C144.5,66.2,145.2,65.3,146.2,65.2z"/>
	<g>
		<g>
			<g>
				<g>
					<defs>
						<path id="SVGID_15_" d="M146.2,65.2l21.9-2c1-0.1,1.9,0.7,2,1.7l0,0l1.4,15.6l0,0l-25.6,2.4l0,0l-1.4-15.6
							C144.5,66.2,145.2,65.3,146.2,65.2z"/>
					</defs>
					<clipPath id="SVGID_16_">
						<use xlink:href="#SVGID_15_"  style="overflow:visible;"/>
					</clipPath>
					<g class="st24">
						<path class="st12" d="M146.2,65.2l21.9-2c1-0.1,1.9,0.7,2,1.7l0,0l1.4,15.6l0,0l-25.6,2.4l0,0l-1.4-15.6
							C144.5,66.2,145.2,65.3,146.2,65.2z"/>
						
							<rect x="163" y="65" transform="matrix(0.9958 -9.184185e-02 9.184185e-02 0.9958 -5.8509 15.5615)" class="st13" width="6.3" height="12.7"/>
					</g>
				</g>
			</g>
		</g>
	</g>
	<path class="st2" d="M146.2,65.2l21.9-2c1-0.1,1.9,0.7,2,1.7l0,0l1.4,15.6l0,0l-25.6,2.4l0,0l-1.4-15.6
		C144.5,66.2,145.2,65.3,146.2,65.2z"/>
	<path class="st7" d="M184.1,61.6l21.9-2c1-0.1,1.9,0.7,2,1.7l0,0l1.4,15.6l0,0l-25.7,2.4l0,0l-1.4-15.6
		C182.3,62.7,183.1,61.7,184.1,61.6L184.1,61.6z"/>
	<g>
		<g>
			<g>
				<g>
					<defs>
						<path id="SVGID_17_" d="M184.1,61.6l21.9-2c1-0.1,1.9,0.7,2,1.7l0,0l1.4,15.6l0,0l-25.7,2.4l0,0l-1.4-15.6
							C182.3,62.7,183.1,61.7,184.1,61.6L184.1,61.6z"/>
					</defs>
					<clipPath id="SVGID_18_">
						<use xlink:href="#SVGID_17_"  style="overflow:visible;"/>
					</clipPath>
					<g class="st25">
						<path class="st12" d="M184.1,61.6l21.9-2c1-0.1,1.9,0.7,2,1.7l0,0l1.4,15.6l0,0l-25.7,2.4l0,0l-1.4-15.6
							C182.3,62.7,183.1,61.7,184.1,61.6L184.1,61.6z"/>
						
							<rect x="203" y="61.4" transform="matrix(0.9958 -9.184185e-02 9.184185e-02 0.9958 -5.3565 19.1052)" class="st13" width="3.8" height="12.7"/>
					</g>
				</g>
			</g>
		</g>
	</g>
	<path class="st2" d="M184.1,61.6l21.9-2c1-0.1,1.9,0.7,2,1.7l0,0l1.4,15.6l0,0l-25.7,2.4l0,0l-1.4-15.6
		C182.3,62.7,183.1,61.7,184.1,61.6L184.1,61.6z"/>
	<path class="st7" d="M176.2,62.4l21.9-2c1-0.1,1.9,0.7,2,1.7l0,0l1.4,15.6l0,0l-25.7,2.4l0,0l-1.4-15.6
		C174.3,63.4,175.1,62.5,176.2,62.4C176.1,62.4,176.1,62.4,176.2,62.4z"/>
	<path class="st7" d="M214,58.9l21.9-2c1-0.1,1.9,0.7,2,1.7l0,0l1.4,15.6l0,0l-25.7,2.4l0,0L212.2,61C212.2,59.9,213,59,214,58.9
		L214,58.9z"/>
	
		<rect x="192.9" y="62.2" transform="matrix(0.9958 -9.184185e-02 9.184185e-02 0.9958 -5.4674 18.2958)" class="st13" width="6.3" height="12.7"/>
	
		<rect x="230.3" y="58.8" transform="matrix(0.9958 -9.184185e-02 9.184185e-02 0.9958 -4.9971 21.7164)" class="st13" width="6.3" height="12.7"/>
	<path class="st7" d="M250.2,69.5l6.6,71.9L141,152.1l-6.6-71.9c-0.2-2.5,1.6-4.7,4.1-4.9l106.8-9.8C247.8,65.2,250,67,250.2,69.5
		L250.2,69.5z"/>
	<g>
		<g>
			<g>
				<g>
					<defs>
						<path id="SVGID_19_" d="M250.2,69.5l6.6,71.9L141,152.1l-6.6-71.9c-0.2-2.5,1.6-4.7,4.1-4.9l106.8-9.8
							C247.8,65.2,250,67,250.2,69.5L250.2,69.5z"/>
					</defs>
					<clipPath id="SVGID_20_">
						<use xlink:href="#SVGID_19_"  style="overflow:visible;"/>
					</clipPath>
					<g class="st26">
						<path class="st12" d="M250.2,69.5l6.6,71.9L141,152.1l-6.6-71.9c-0.2-2.5,1.6-4.7,4.1-4.9l106.8-9.8
							C247.8,65.2,250,67,250.2,69.5L250.2,69.5z"/>
					</g>
				</g>
			</g>
		</g>
	</g>
	<path class="st2" d="M250.2,69.5l6.6,71.9L141,152.1l-6.6-71.9c-0.2-2.5,1.6-4.7,4.1-4.9l106.8-9.8C247.8,65.2,250,67,250.2,69.5
		L250.2,69.5z"/>
	<path class="st7" d="M250.2,69.5l6.6,71.9l-86,7.9l-6.6-71.9c-0.2-2.5,1.6-4.7,4.1-4.9l76.9-7.1C247.7,65.1,249.9,67,250.2,69.5
		L250.2,69.5z"/>
	<path class="st13" d="M244.6,72.6l-73.5,6.8c-1,0.1-1.9-0.7-2-1.7l0,0c-0.1-1,0.7-1.9,1.7-2l73.5-6.8c1-0.1,1.9,0.7,2,1.7l0,0
		C246.4,71.6,245.6,72.5,244.6,72.6z"/>
	<path class="st5" d="M115.5,72.7c0,0-16.9-3.4-18.9,7.5s4.3,15.5,4.3,15.5L115.5,72.7z"/>
	<path class="st20" d="M101,101.7c-1.9-5.4-2.2-11.3-0.9-16.9c1.7-7,10-16.6,22.6-7.9c6.5,4.5,6.9,14.3,4.9,23.3
		c-0.5,2.1-0.1,4.2-0.8,6.2c-2.5,6.9-7.1,12.2-9.6,12.3c-4.2,0.2-12.5-4.8-12.2-9.2"/>
	<path class="st2" d="M117.9,98.5c0,0-3.4-2.4-6.6-0.4"/>
	<path class="st2" d="M124.3,98.1c0,0,2.6-2.3,4.2-2"/>
	<path class="st5" d="M113.1,102.3c0,0.6,0.3,1.1,0.7,1.1s0.7-0.5,0.7-1.1s-0.3-1.1-0.7-1.1S113.1,101.7,113.1,102.3z"/>
	<ellipse class="st5" cx="124.3" cy="101.7" rx="0.7" ry="1.1"/>
	<path class="st2" d="M122.8,100.5c-1.2,1.6,0.5,7.8,0,8.2s-3.7-0.8-3.7-0.8s-0.7-0.9,0.8-1.4"/>
	<path class="st2" d="M120,111.8c0,0-4.3,0-5.4-1.6"/>
	<path class="st27" d="M109.8,88.7l-0.3,5.2c0,0-3.7,1.9-4.6,3.8c-0.5,1.3-0.7,2.6-0.6,4c0,0-2.2-3.9-3.4-3.6
		c-0.4,0.1-0.4,1.7-0.4,1.7s-5-11.2-0.5-17.1S109.8,88.7,109.8,88.7z"/>
	<path class="st20" d="M102.7,100.5c0,0-1-3.8-4.4-4.7s-1.1,8,1.8,9.2s3.6,2,3.8,0.9"/>
	<path class="st5" d="M98.1,88c-0.3-0.4-1.5-10,4.8-14.3s17.1-3.9,23.9,2.1s4.9,16.3,0,19.9v-4.3c0,0-2.3,4.3-9,4.7l2.1-3.2
		c0,0-3.3,2-9.2,1.8c0,0,2.8-2.2,2.4-4.1C113.1,90.6,103.8,95.8,98.1,88z"/>
	<path class="st20" d="M99.3,122.7c-4.7,0.6-11.3,6.7-7,17.5c2.8,6.9,25.5,2.8,25.5,2.8c8.4-3.5,20.8-16,29.8-21.8
		c0,0-1.9-12-4.1-10.3c-10.2,7.8-18.6,8.4-32.9,15.2C110.7,126.1,102.3,122.4,99.3,122.7z"/>
	<path class="st20" d="M109.8,136c-0.1,4.5,1.7,5.3,4.8,6.3"/>
	<path class="st20" d="M142.9,111.8c0.2-0.6,4-7.3,5.1-9s5.9-3.2,7.7-4.2s2-2.6,3-1.5s0,3.6-5.5,6.3c2,0.1,3.9,0.1,5.9,0
		c1.5-0.2,2.8-1.6,3.5-0.6s0.8,2.6-2.5,3.6c-1.6,0.6-3.2,0.9-4.9,1c1.6,0.3,3.2,0.8,4.8,1.4c0.5,0.4,1.3,1.3,2.1,1.4s1.6,1,0.2,2
		c-1,0.6-2.3,0.6-3.4,0.1c0,0,3.8,1.9,2.6,3s-5,0.9-5,0.9s-5.7,6.9-10.4,5.5"/>
	<path class="st2" d="M149.7,102.8c0.7,0.2,1.2,0.7,1.3,1.3c0.3,1.2,1.3,1.3,1.9,2.6s0.4,3.4,1,4.1s0,3.6,0,3.6"/>
	<path class="st21" d="M100.3,121.9c-2.4-3.1-7.9-1.7-7.9-1.7"/>
	<path class="st21" d="M89.4,114.4c0,0,5.7,0.8,7.3,5.5"/>
	<path class="st21" d="M99.3,144.2c0,0-5.5,4.3-13.9-1.9"/>
	<path class="st21" d="M92.4,145.5c0,0-2.8,3.9-9.6,3.8"/>
	<path class="st21" d="M127.4,194.2c0,0-14.4,11.5-29.1,10"/>
	<path class="st21" d="M88.4,168.9c0,0,22.4,16.4,39,17.5"/>
</g>
<g id="freepik--character-1--inject-286">
	<path class="st5" d="M89,290.6c3.9-2.1,8.4-2.7,12.6-1.6c7.3,1.8,26.3,29,28.9,31.6s7.6,4,12.1,8.8c7.2,7.5,17.7,14.1,18.7,14.1
		s1.9-0.7,3.2-0.9s11.5-1.2,11.5-1.2s3.4,0.8,0,2.2s-3.2,2.8-3.2,2.8s-0.7,1.1,0.7,2.2s2.2,0.5,4.2,3.3s-2.8,1.2-2.8,1.2
		s1.1,3-1.1,2.7s-0.3,2.9-3.7,2.5s-10.8-5.1-12.6-9.9c0,0-29.9-14.3-34.4-18s-23.3-23.5-24.6-23.7"/>
	<path class="st7" d="M167.3,317.4h22c1,0,1.9,0.8,1.9,1.9l0,0V335l0,0h-25.8l0,0v-15.7C165.4,318.3,166.3,317.4,167.3,317.4
		L167.3,317.4z"/>
	<g>
		<g>
			<g>
				<g>
					<defs>
						<path id="SVGID_21_" d="M167.3,317.4h22c1,0,1.9,0.8,1.9,1.9l0,0V335l0,0h-25.8l0,0v-15.7
							C165.4,318.3,166.3,317.4,167.3,317.4L167.3,317.4z"/>
					</defs>
					<clipPath id="SVGID_22_">
						<use xlink:href="#SVGID_21_"  style="overflow:visible;"/>
					</clipPath>
					<g class="st28">
						<path class="st12" d="M167.3,317.4h22c1,0,1.9,0.8,1.9,1.9l0,0V335l0,0h-25.8l0,0v-15.7C165.4,318.3,166.3,317.4,167.3,317.4
							L167.3,317.4z"/>
						<rect x="183.4" y="319.1" class="st13" width="6.3" height="12.7"/>
					</g>
				</g>
			</g>
		</g>
	</g>
	<path class="st2" d="M167.3,317.4h22c1,0,1.9,0.8,1.9,1.9l0,0V335l0,0h-25.8l0,0v-15.7C165.4,318.3,166.3,317.4,167.3,317.4
		L167.3,317.4z"/>
	<path class="st7" d="M205.3,317.4h22c1,0,1.9,0.8,1.9,1.9l0,0V335l0,0h-25.8l0,0v-15.7C203.4,318.3,204.3,317.4,205.3,317.4
		L205.3,317.4z"/>
	<g>
		<g>
			<g>
				<g>
					<defs>
						<path id="SVGID_23_" d="M205.3,317.4h22c1,0,1.9,0.8,1.9,1.9l0,0V335l0,0h-25.8l0,0v-15.7
							C203.4,318.3,204.3,317.4,205.3,317.4L205.3,317.4z"/>
					</defs>
					<clipPath id="SVGID_24_">
						<use xlink:href="#SVGID_23_"  style="overflow:visible;"/>
					</clipPath>
					<g class="st29">
						<path class="st12" d="M205.3,317.4h22c1,0,1.9,0.8,1.9,1.9l0,0V335l0,0h-25.8l0,0v-15.7C203.4,318.3,204.3,317.4,205.3,317.4
							L205.3,317.4z"/>
						<rect x="223.5" y="319.1" class="st13" width="3.8" height="12.7"/>
					</g>
				</g>
			</g>
		</g>
	</g>
	<path class="st2" d="M205.3,317.4h22c1,0,1.9,0.8,1.9,1.9l0,0V335l0,0h-25.8l0,0v-15.7C203.4,318.3,204.3,317.4,205.3,317.4
		L205.3,317.4z"/>
	<path class="st7" d="M197.3,317.4h22c1,0,1.9,0.8,1.9,1.9l0,0V335l0,0h-25.8l0,0v-15.7C195.4,318.3,196.3,317.4,197.3,317.4
		L197.3,317.4z"/>
	<path class="st7" d="M235.3,317.4h22c1,0,1.9,0.8,1.9,1.9l0,0V335l0,0h-25.8l0,0v-15.7C233.5,318.3,234.3,317.4,235.3,317.4z"/>
	<rect x="213.5" y="319.1" class="st13" width="6.3" height="12.7"/>
	<rect x="251" y="319.1" class="st13" width="6.3" height="12.7"/>
	<path class="st7" d="M270.4,331.3v72.2H154.1v-72.2c0-2.5,2-4.5,4.6-4.5h107.2C268.4,326.8,270.4,328.8,270.4,331.3L270.4,331.3z"
		/>
	<g>
		<g>
			<g>
				<g>
					<defs>
						<path id="SVGID_25_" d="M270.4,331.3v72.2H154.1v-72.2c0-2.5,2-4.5,4.6-4.5h107.2C268.4,326.8,270.4,328.8,270.4,331.3
							L270.4,331.3z"/>
					</defs>
					<clipPath id="SVGID_26_">
						<use xlink:href="#SVGID_25_"  style="overflow:visible;"/>
					</clipPath>
					<g class="st30">
						<path class="st12" d="M270.4,331.3v72.2H154.1v-72.2c0-2.5,2-4.5,4.6-4.5h107.2C268.4,326.8,270.4,328.8,270.4,331.3
							L270.4,331.3z"/>
					</g>
				</g>
			</g>
		</g>
	</g>
	<path class="st2" d="M270.4,331.3v72.2H154.1v-72.2c0-2.5,2-4.5,4.6-4.5h107.2C268.4,326.8,270.4,328.8,270.4,331.3L270.4,331.3z"
		/>
	<path class="st7" d="M270.4,331.3v72.2h-86.3v-72.2c0-2.5,2-4.5,4.6-4.5h77.2C268.4,326.8,270.4,328.8,270.4,331.3L270.4,331.3z"/>
	<path class="st13" d="M264.6,333.9h-73.8c-1,0-1.9-0.8-1.9-1.9l0,0l0,0c0-1,0.8-1.9,1.8-1.9l0,0h73.8c1,0,1.9,0.8,1.9,1.9l0,0l0,0
		C266.5,333,265.7,333.9,264.6,333.9L264.6,333.9z"/>
	<path class="st27" d="M128,403.5c-6,0-14.4-3.9-24.1-7.9c-10.1-4.2-21.5-8.7-33.2-9.4c-4.3-0.3-1.7,17.3-1.7,17.3h-9.5
		c0,0-9.4-12.5-10.5-23.7c0,0,7.7-4.7,9.5-5c0.6-0.1,1.3-0.1,1.9-0.1c2.1,0,4.8,0.1,4.8,0.1l0,0c-0.4-0.3-7.4-4.5-11.3-8.8
		c-3.2-3.5-4.7-9.1-4.8-12.5c0.1-2.2,0.4-4.4,0.7-6.6l49.9,0.8c0,0,0.5,0.4,1.5,1.1c5.8,4.2,26.9,19.9,37.5,31.8
		c3.4,3.8,5.7,7.3,6.1,9.8C146.5,401.9,137.1,403.5,128,403.5z"/>
	<path class="st5" d="M138.8,380.6l-24.3,5.5c-4.2,2.4-7.8,5.6-10.7,9.4c-10.1-4.2-21.5-8.7-33.2-9.4c-4.3-0.3-1.7,17.3-1.7,17.3
		h-9.5c0,0-9.4-12.5-10.4-23.7c0,0,8.8,12.6,11,19c0,0,3.4-11.8,9-16.6c-2.5-2.8-5.4-5.3-8.5-7.5c2.1,0,4.8,0.1,4.8,0.1l0,0
		c-0.4-0.3-7.4-4.5-11.3-8.8c-3.2-3.5-4.5-9.1-4.8-12.5c-0.1-1.6,0.1-6.6,0.1-6.6s37.2,5.3,52.1,1.9
		C107.1,353.1,128.3,368.8,138.8,380.6z"/>
	<path class="st2" d="M99.8,379.8c0,0,19.8,9.9,25.1,13.8s6.9,2.8,6.9,2.8"/>
	<path class="st2" d="M53.9,378.7c0,0,4.8,7.3,5,9.4"/>
	<path class="st5" d="M133.5,239.6c0,0,10.5-4.6,9.5,14.9s2.6,20.5,2.6,20.5s-26.5,10.9-33.2,1.6S112,241.8,133.5,239.6z"/>
	<path class="st20" d="M132,275c0,0-10.9,5.1-11.9,9.9s-14.6-2.4-14.6-2.4l9.9-14.2L132,275z"/>
	<path class="st27" d="M60.5,327.1c-25,31.8-4.7,47.2,23.6,44.7l-5.7,9l14.3,2.5c0,0,10.9-7.1,25.8-14.8c25.4-13,35.6-12.2,33-25.2
		s-33.7-21.5-64.9-7.7C86.7,335.5,69.8,315.4,60.5,327.1z"/>
	<path class="st20" d="M69.3,396.4c0,0,6.5-18,9.2-19s13,2.9,14.3,5.8c0,0,3.5-5.3,4.9-3.1s-0.6,6,0,8.9s7.7,6.9,10.5,7.4
		s4.4,2.1,4.4,3.7v3.4H69.3C68.3,401.2,68.3,398.7,69.3,396.4z"/>
	<path class="st2" d="M97.6,386.2c0,0-5.7,2.8-7.8,2s1.1,4.8,1.9,5.3s6-1.9,6-1.9"/>
	<path class="st2" d="M74.7,383.2c0,0,7.8,0.1,10.1,3"/>
	<path class="st2" d="M69.3,396.4c0,0,12.4,2.9,13.4,2.9c1.7-0.3,3.4-0.8,5-1.5c0,0,3.4,1.7,5.7,2.8s17,0,17,0"/>
	<path class="st2" d="M84.2,371.8c11.8-1.3,34.8-15.9,42.8-20.9s10-3.7,10-3.7"/>
	<path class="st3" d="M49.2,346.9l1.9-14.4l4.6-3.4c7.4-17.9,40.9-51.4,50-51.3c13.7,0.2,16.1,14.5,17.8,30.3s-19.7,13.4-19.7,13.4
		v4l-12.1,6.3l7.4-0.2C99,331.5,77.8,352.1,49.2,346.9z"/>
	<path class="st20" d="M108.6,250.1c2.9-9,16-11.4,20.7-9.9c3.9,1.5,7,4.4,8.9,8.1c1.2,2.6-1.3,7.2,0.5,9.8c2.6,3.8,2.3,11.9,1.4,17
		c-0.5,2.7-11.7,4.3-20.9-2C109.3,266.3,105.8,258.8,108.6,250.1z"/>
	<path class="st5" d="M121.8,237.5c0,0,11.6-1.9,11.6,1.1c0.5,19.7-11.3,23.9-11.3,23.9s-4.8-3.9-5.9-1.2s1.7,9.9,5.1,10.1
		c-1.6,2.5-1.7,5.7-0.1,8.2c0,0-19.6,3.3-21.2-5.8c0.8-3.2,1.3-6.4,1.6-9.6C102.9,251.5,99.9,242.9,121.8,237.5z"/>
	<path class="st20" d="M137.3,257.6c2.4,2.2,4.1,2.2,4.1,3c-0.1,2.4-3,3.6-3,3.6"/>
	<path class="st2" d="M138.3,268.2c-1.7,0.6-3.5,0.6-5.3,0.1"/>
	<path class="st5" d="M131.9,245.5c0,0,7.7-2.2,6.3,10.3c0,0,3.2-4.4,3.2-9.2c0-8.5-11.3-6.8-11.3-6.8l1.5,6"/>
	<path class="st2" d="M138.9,251.6c-0.6-0.4-1.3-0.5-2-0.4"/>
	<path class="st2" d="M133.7,251.5c0,0-4.1,0.2-5.9,3"/>
	<path class="st5" d="M132.7,258c0.1,0.7-0.2,1.2-0.6,1.3s-0.8-0.5-0.9-1.1s0.2-1.2,0.6-1.3S132.7,257.4,132.7,258z"/>
	<path class="st2" d="M84.8,374.8c0,0,9.2,1,11.2,5"/>
	<path class="st20" d="M108.1,284.6c3.9-2.1,8.4-2.7,12.6-1.6c7.3,1.9,26.3,29,28.9,31.6s7.6,4,12.1,8.8
		c7.2,7.5,17.7,14.1,18.7,14.1s1.9-0.7,3.2-0.9s11.5-1.2,11.5-1.2s3.4,0.8,0,2.2s-3.2,2.8-3.2,2.8s-0.7,1.1,0.7,2.2s2.2,0.5,4.2,3.3
		s-2.8,1.2-2.8,1.2s1.1,3-1.1,2.7s-0.3,2.9-3.7,2.5s-10.8-5.1-12.6-9.9c0,0-29.9-14.3-34.4-18s-23.3-23.5-24.6-23.7"/>
	<path class="st3" d="M103.8,281.7c0,0,14.8-4,19.9-1s14.9,16.4,14.9,16.4s-11.9,10.6-15.6,9.7s-14.9-2.6-14.9-2.6"/>
	<path class="st2" d="M116.6,305.4c0,0-5.4,2.9-7.3,2.9"/>
	<path class="st2" d="M108.1,290.6c0.4,0.8,0.3,9.4,9.7,12.1"/>
	<path class="st2" d="M57.9,329.4c0,0,20,3.4,26.9-2.6"/>
	<path class="st2" d="M91.6,331.7c0,0-5-0.9-6.8,1.7s-11.9,5-11.9,5"/>
	<path class="st2" d="M51.4,350.8c0,0-2.9,12.5,9.4,18"/>
	<path class="st2" d="M57.9,351.7c0,0,0.1,6.1,2,9.5l6.1,2l6.9-3.8c0,0-1.5-7.9-1.6-9.4"/>
</g>
</svg>
