<?xml version="1.0" encoding="utf-8"?>
<!-- Generator: Adobe Illustrator 23.0.0, SVG Export Plug-In . SVG Version: 6.00 Build 0)  -->
<svg version="1.1" id="Capa_1" xmlns="http://www.w3.org/2000/svg" xmlns:xlink="http://www.w3.org/1999/xlink" x="0px" y="0px"
	 viewBox="0 0 133.7 266.8" style="enable-background:new 0 0 133.7 266.8;" xml:space="preserve">
<style type="text/css">
	.st0{fill:none;stroke:#FFFFFF;stroke-miterlimit:10;}
	.st1{fill:none;stroke:#FFFFFF;stroke-width:0.75;stroke-miterlimit:10;}
	.st2{fill:none;stroke:#FFFFFF;stroke-width:1.5;stroke-miterlimit:10;}
	.st3{fill:none;stroke:#FFFFFF;stroke-width:1.25;stroke-miterlimit:10;}
</style>
<path class="st0" d="M-606,63.6c19.9-17.7,85.7-46.5,116.7-13.3s5.9,73.1-7.4,88.6s-31,51.7-7.4,68.7c23.6,17,59.1,11.8,77.5-31"/>
<path class="st1" d="M243.2,165.7c-79.8,51.7-178.7,60.6-195,34.7s27.3-42.1,27.3-73.8S29.1,72.7,29.1,72.7"/>
<polygon class="st2" points="-417.7,183.8 -426.6,176.6 -438,176.7 -417.7,151.5 "/>
<line class="st0" x1="-426.6" y1="176.6" x2="-417.7" y2="151.5"/>
<polygon class="st3" points="37.5,65 29.1,72.7 27.5,84 5.5,60.2 "/>
<line class="st1" x1="29.1" y1="72.7" x2="5.5" y2="60.2"/>
</svg>
