<?xml version="1.0" encoding="utf-8"?>
<!-- Generator: Adobe Illustrator 23.0.0, SVG Export Plug-In . SVG Version: 6.00 Build 0)  -->
<svg version="1.1" id="Capa_1" xmlns="http://www.w3.org/2000/svg" xmlns:xlink="http://www.w3.org/1999/xlink" x="0px" y="0px"
	 viewBox="0 0 133.7 266.8" style="enable-background:new 0 0 133.7 266.8;" xml:space="preserve">
<style type="text/css">
	.st0{fill:none;stroke:#FFFFFF;stroke-width:0.75;stroke-miterlimit:10;}
	.st1{fill:none;stroke:#FFFFFF;stroke-miterlimit:10;}
	.st2{fill:none;stroke:#FFFFFF;stroke-width:1.5;stroke-miterlimit:10;}
	.st3{fill:none;stroke:#FFFFFF;stroke-width:1.25;stroke-miterlimit:10;}
</style>
<path class="st0" d="M-60,63.6c20-17.7,85.7-46.5,116.7-13.3s5.9,73.1-7.4,88.6s-31,51.7-7.4,68.7s59.1,11.8,77.5-31"/>
<path class="st1" d="M789.3,165.7c-79.8,51.7-178.7,60.6-195,34.7s27.3-42.1,27.3-73.8s-46.5-53.9-46.5-53.9"/>
<line class="st0" x1="119.5" y1="176.6" x2="128.3" y2="151.5"/>
<polygon class="st2" points="583.6,65 575.1,72.7 573.5,84 551.5,60.2 "/>
<polygon class="st3" points="128.3,183.9 119.4,176.6 108,176.7 128.3,151.4 "/>
<line class="st1" x1="575.1" y1="72.7" x2="551.5" y2="60.2"/>
</svg>
