<?xml version="1.0" encoding="utf-8"?>
<!-- Generator: Adobe Illustrator 23.0.0, SVG Export Plug-In . SVG Version: 6.00 Build 0)  -->
<svg version="1.1" id="Capa_1" xmlns="http://www.w3.org/2000/svg" xmlns:xlink="http://www.w3.org/1999/xlink" x="0px" y="0px"
	 viewBox="0 0 422 442.3" style="enable-background:new 0 0 422 442.3;" xml:space="preserve">
<style type="text/css">
	.st0{fill:#90CAF9;}
	.st1{fill:#DDFBF6;}
	.st2{fill:none;stroke:#263238;stroke-width:0.25;stroke-miterlimit:10;}
	.st3{fill:none;stroke:#263238;stroke-width:0.5;stroke-miterlimit:10;}
	.st4{fill:none;stroke:#263238;stroke-miterlimit:10;}
	.st5{fill:#3592F1;}
	.st6{fill:none;stroke:#263238;stroke-linecap:round;stroke-linejoin:round;stroke-dasharray:2,3;}
	.st7{fill:#263238;stroke:#263238;stroke-linecap:round;stroke-linejoin:round;}
	.st8{fill:#263238;}
	.st9{fill:#FFFFFF;}
	.st10{fill:#3592F1;stroke:#263238;stroke-linecap:round;stroke-linejoin:round;}
	.st11{fill:#FFFFFF;stroke:#3592F1;stroke-linecap:round;stroke-linejoin:round;}
	.st12{fill:none;stroke:#263238;stroke-linecap:round;stroke-linejoin:round;}
	.st13{fill:none;stroke:#FFFFFF;stroke-linecap:round;stroke-linejoin:round;}
	.st14{fill:#FFFFFF;stroke:#263238;stroke-linecap:round;stroke-linejoin:round;}
	.st15{fill:#15B54A;stroke:#263238;stroke-linecap:round;stroke-linejoin:round;}
</style>
<g id="freepik--background-simple--inject-117">
	<path class="st0" d="M238.1,26.1c-87.8-15.9-222,48-188.4,145.7c7.1,20.6,17.3,39.9,25.3,60.1c12.7,32.4-0.8,64.8,24.6,93.7
		c23.2,26,56.6,40.4,91.4,39.6c41.8-1.2,88.7-18.5,116.2-49.2c29.3-32.7,41.1-74.5,62.3-111.3C392.5,164.7,377.1,51.2,238.1,26.1z"
		/>
	<path class="st1" d="M238.1,26.1c-87.8-15.9-222,48-188.4,145.7c7.1,20.6,17.3,39.9,25.3,60.1c12.7,32.4-0.8,64.8,24.6,93.7
		c23.2,26,56.6,40.4,91.4,39.6c41.8-1.2,88.7-18.5,116.2-49.2c29.3-32.7,41.1-74.5,62.3-111.3C392.5,164.7,377.1,51.2,238.1,26.1z"
		/>
</g>
<g id="freepik--Floor--inject-117">
	<ellipse class="st2" cx="209.3" cy="402.1" rx="145" ry="18.1"/>
	<ellipse class="st3" cx="209.3" cy="400.3" rx="118.6" ry="15.6"/>
	<ellipse class="st4" cx="209.3" cy="400.3" rx="91.6" ry="12.1"/>
	<ellipse class="st0" cx="210.3" cy="399.9" rx="75.2" ry="7.9"/>
	<ellipse class="st5" cx="210.3" cy="399.9" rx="75.2" ry="7.9"/>
</g>
<g id="freepik--Lines--inject-117">
	<circle class="st6" cx="209.3" cy="188" r="135.5"/>
	<path class="st0" d="M160,325c-20.8,0-38.1-6.4-50.5-18.8c-36.6-36.6-17.9-115,41.7-174.6c28.9-28.9,62.9-49.1,95.9-57
		s61-2.5,78.7,15.3c15.4,15.4,21.6,39.2,17.6,67l-0.5-0.1c4.1-27.6-2.1-51.3-17.4-66.6c-17.6-17.6-45.4-23-78.2-15.2
		s-66.8,28.1-95.6,56.9C92.2,191.4,73.5,269.4,110,305.8c14.5,14.5,35.8,20.8,61.6,18l0.1,0.5C167.7,324.8,163.8,325,160,325z"/>
	<path class="st0" d="M267.7,302.1c-34.4,0-74.4-13.7-110.4-40.6c-66.2-49.6-93.6-125.3-61-168.8c14.3-19.1,38.6-29.7,68.4-29.8v0.5
		C135,63.5,110.9,74,96.7,93c-32.4,43.3-5.1,118.7,60.9,168.1s146.1,54.3,178.5,11c13.4-18,17.1-41.6,10.6-68.3l0.5-0.1
		c6.5,26.9,2.8,50.6-10.7,68.7C321.7,292.3,296.7,302,267.7,302.1z"/>
	<path class="st0" d="M146,243.8c-10.5,0.1-21-0.7-31.5-2.2c-31-4.6-50.3-16.1-54.2-32.3s8-35.2,33.5-53.5s61.5-33.6,101.4-43.2
		s78.9-12.4,109.9-7.8s50.3,16.1,54.2,32.3s-8,35.2-33.5,53.5s-61.5,33.6-101.4,43.2C197.1,240.4,170.2,243.8,146,243.8z
		 M273.7,103.2c-23.6,0-50.5,3.2-78.4,9.9c-39.8,9.6-75.8,24.9-101.2,43.1s-37.2,37-33.3,53s23,27.3,53.8,31.9s69.9,1.8,109.7-7.8
		l0.1,0.2l-0.1-0.2c82.2-19.9,142.5-63,134.5-96.1C353.5,115.3,319.7,103.2,273.7,103.2z"/>
	<path class="st0" d="M175.7,340.2c-2,0-4-0.2-6-0.7c-16.2-3.9-27.6-23.6-32-55.4s-1.4-71.7,8.5-112.7s25.5-77.9,43.9-104.1
		s37.5-38.6,53.8-34.7s27.6,23.6,32,55.4s1.4,71.7-8.5,112.7s-25.5,77.9-43.9,104.2C207.2,327.8,190.5,340.2,175.7,340.2z
		 M237.8,32.4c-32.2,0-72,59.7-91.2,139.1c-20.3,84.3-10,159.4,23.2,167.5c16,3.9,34.9-8.4,53.2-34.5s33.9-63.1,43.8-104l0.2,0.1
		l-0.2-0.1c20.4-84.3,10-159.4-23.2-167.4C241.7,32.6,239.8,32.4,237.8,32.4z"/>
	<path class="st0" d="M227.1,298.1c1,1,2.6,1,3.5,0c1-1,1-2.6,0-3.5c-1-1-2.6-1-3.5,0C226.2,295.6,226.2,297.1,227.1,298.1z"/>
	<path class="st0" d="M228.9,299.1c-1.5,0-2.8-1.2-2.8-2.8c0-1.5,1.2-2.8,2.8-2.8c1.5,0,2.8,1.2,2.8,2.8c0,0.7-0.3,1.5-0.8,2
		C230.3,298.8,229.6,299.1,228.9,299.1z M228.9,294.1c-1.2,0-2.3,1-2.3,2.2s1,2.3,2.2,2.3c0.6,0,1.2-0.2,1.6-0.7
		c0.9-0.9,0.9-2.3,0-3.2C230.1,294.3,229.5,294.1,228.9,294.1z"/>
	<path class="st0" d="M134.5,244.7c1,1,2.6,1,3.5,0c1-1,1-2.6,0-3.5c-1-1-2.6-1-3.5,0C133.5,242.1,133.5,243.7,134.5,244.7
		L134.5,244.7z"/>
	<path class="st0" d="M136.2,245.7c-0.7,0-1.4-0.3-1.9-0.9l0,0c-1.1-1.1-1.1-2.8,0-3.9c1.1-1.1,2.8-1.1,3.9,0c1.1,1.1,1.1,2.8,0,3.9
		C137.7,245.4,137,245.6,136.2,245.7L136.2,245.7z M136.2,240.7c-1.2,0-2.2,1-2.2,2.3c0,0.6,0.2,1.2,0.7,1.6l0,0
		c0.9,0.9,2.3,0.9,3.2,0s0.9-2.3,0-3.2C137.4,240.9,136.8,240.7,136.2,240.7z"/>
	<path class="st0" d="M101.3,203.7c1,1,2.6,1,3.5,0c1-1,1-2.6,0-3.5s-2.6-1-3.5,0l0,0C100.3,201.1,100.3,202.7,101.3,203.7z"/>
	<path class="st0" d="M103.1,204.6c-1.5,0-2.7-1.2-2.7-2.8c0-1.5,1.2-2.7,2.8-2.7s2.7,1.2,2.7,2.8c0,0.7-0.3,1.4-0.8,1.9
		C104.5,204.4,103.8,204.6,103.1,204.6z M103.1,199.6c-1.2,0-2.2,1-2.2,2.3s1,2.2,2.3,2.2c1.2,0,2.2-1,2.2-2.3
		c0-0.6-0.2-1.2-0.7-1.6C104.2,199.9,103.6,199.6,103.1,199.6L103.1,199.6z"/>
	<path class="st0" d="M84.4,164c1,1,2.6,1,3.5,0c1-1,1-2.6,0-3.5c-1-1-2.6-1-3.5,0C83.4,161.4,83.4,163,84.4,164L84.4,164z"/>
	<path class="st0" d="M86.2,165c-0.7,0-1.4-0.3-1.9-0.8l0,0c-1.1-1.1-1.1-2.8,0-3.9c1.1-1.1,2.8-1.1,3.9,0s1.1,2.8,0,3.9
		C87.6,164.7,86.9,165,86.2,165z M84.6,163.8c0.9,0.9,2.3,0.9,3.2,0c0.9-0.9,0.9-2.3,0-3.2s-2.3-0.9-3.2,0l0,0
		C83.7,161.5,83.7,163,84.6,163.8z"/>
	<path class="st0" d="M90.7,238.2c1,1,2.6,1,3.5,0c1-1,1-2.6,0-3.5c-1-1-2.6-1-3.5,0C89.7,235.7,89.7,237.2,90.7,238.2L90.7,238.2z"
		/>
	<path class="st0" d="M92.5,239.2c-0.7,0-1.4-0.3-1.9-0.8l0,0c-1.1-1.1-1.1-2.8,0-3.9c1.1-1.1,2.8-1.1,3.9,0s1.1,2.8,0,3.9
		C93.9,238.9,93.2,239.2,92.5,239.2z M92.5,234.2c-1.2,0-2.2,1-2.2,2.3c0,0.6,0.2,1.2,0.7,1.6l0,0c0.9,0.9,2.3,0.9,3.2,0
		c0.9-0.9,0.9-2.3,0-3.2C93.6,234.4,93,234.2,92.5,234.2z"/>
	<path class="st0" d="M160,124.1c1,1,2.6,1,3.5,0c1-1,1-2.6,0-3.5s-2.6-1-3.5,0l0,0C159,121.6,159,123.2,160,124.1L160,124.1z"/>
	<path class="st0" d="M161.8,125.1c-1.5,0-2.8-1.2-2.8-2.7s1.2-2.8,2.7-2.8c0.7,0,1.4,0.3,2,0.8c1.1,1.1,1.1,2.8,0,3.9
		C163.2,124.8,162.5,125.1,161.8,125.1z M161.8,120.1c-0.6,0-1.2,0.2-1.6,0.6c-0.9,0.9-0.9,2.3,0,3.2c0.9,0.9,2.3,0.9,3.2,0
		s0.9-2.3,0-3.2C163,120.4,162.4,120.1,161.8,120.1z"/>
	<path class="st0" d="M270.9,72.5c1,1,2.6,1,3.5,0s1-2.6,0-3.5c-1-1-2.6-1-3.5,0l0,0C270,69.9,270,71.5,270.9,72.5L270.9,72.5z"/>
	<path class="st0" d="M272.7,73.5c-0.7,0-1.4-0.3-1.9-0.8l0,0c-1.1-1.1-1.1-2.8,0-3.9s2.8-1.1,3.9,0s1.1,2.8,0,3.9
		C274.1,73.2,273.4,73.5,272.7,73.5z M272.7,68.5c-1.2,0-2.2,1-2.2,2.2l0,0c0,0.6,0.2,1.2,0.6,1.6l0,0c0.9,0.9,2.3,0.9,3.2,0
		c0.9-0.9,0.9-2.3,0-3.2C273.9,68.7,273.3,68.5,272.7,68.5z"/>
	<path class="st0" d="M275.6,104.7c1,1,2.6,1,3.5,0c1-1,1-2.6,0-3.5c-1-1-2.6-1-3.5,0l0,0C274.7,102.1,274.7,103.7,275.6,104.7
		L275.6,104.7z"/>
	<path class="st0" d="M277.4,105.7c-0.7,0-1.4-0.3-2-0.8l0,0c-1.1-1.1-1.1-2.8,0-3.9s2.8-1.1,3.9,0s1.1,2.8,0,3.9
		C278.8,105.4,278.1,105.7,277.4,105.7z M275.8,104.5c0.9,0.9,2.3,0.9,3.2,0c0.4-0.4,0.7-1,0.7-1.6s-0.2-1.2-0.7-1.6
		c-0.9-0.9-2.3-0.9-3.2,0C274.9,102.2,274.9,103.6,275.8,104.5z"/>
	<path class="st0" d="M259.5,224.1c1,1,2.6,1,3.5,0c1-1,1-2.6,0-3.5c-1-1-2.6-1-3.5,0l0,0C258.6,221.5,258.6,223.1,259.5,224.1
		L259.5,224.1z"/>
	<path class="st0" d="M261.3,225.1c-0.7,0-1.4-0.3-2-0.8l0,0c-1.1-1.1-1.1-2.8,0-3.9c1.1-1.1,2.8-1.1,3.9,0s1.1,2.8,0,3.9
		C262.7,224.8,262,225.1,261.3,225.1z M259.7,223.9c0.9,0.9,2.3,0.9,3.2,0c0.9-0.9,0.9-2.3,0-3.2s-2.3-0.9-3.2,0
		C258.8,221.6,258.8,223,259.7,223.9z"/>
	<path class="st0" d="M149,325.6c1,1,2.6,1,3.5,0c1-1,1-2.6,0-3.5s-2.6-1-3.5,0l0,0C148,323,148,324.6,149,325.6z"/>
	<path class="st0" d="M150.8,326.6c-0.7,0-1.4-0.3-1.9-0.8l0,0c-1.1-1.1-1.1-2.8,0-3.9s2.8-1.1,3.9,0c1.1,1.1,1.1,2.8,0,3.9
		C152.2,326.3,151.5,326.6,150.8,326.6z M149.2,325.4c0.9,0.9,2.3,0.9,3.2,0s0.9-2.3,0-3.2c-0.9-0.9-2.3-0.9-3.2,0
		C148.3,323.1,148.3,324.5,149.2,325.4z"/>
	<path class="st0" d="M339.1,118.3c1,1,2.6,1,3.5,0c1-1,1-2.6,0-3.5c-1-1-2.6-1-3.5,0l0,0C338.1,115.7,338.1,117.3,339.1,118.3
		C339.1,118.2,339.1,118.2,339.1,118.3z"/>
	<path class="st0" d="M340.8,119.2c-0.7,0-1.5-0.3-2-0.8c-1.1-1.1-1.1-2.8,0-3.9s2.8-1.1,3.9,0s1.1,2.8,0,3.9l0,0
		C342.2,118.9,341.5,119.2,340.8,119.2z M340.8,114.2c-1.2,0-2.2,1-2.2,2.3c0,0.6,0.2,1.2,0.7,1.6c0.9,0.9,2.3,0.9,3.2,0
		c0.9-0.9,0.9-2.3,0-3.2C342,114.5,341.4,114.2,340.8,114.2z"/>
	<rect x="175.7" y="52.9" transform="matrix(0.99 -0.1414 0.1414 0.99 -6.1372 25.4417)" class="st0" width="0.5" height="6"/>
	<path class="st0" d="M256.9,324.3c-3.8,0-7.7-0.2-11.5-0.6v-0.5c25.8,2.7,47.1-3.5,61.6-18c36.4-36.4,17.7-114.5-41.7-173.9
		c-28.8-28.8-62.8-49-95.6-56.9S109.1,72,91.5,89.6c-15.3,15.3-21.5,39-17.4,66.6l-0.5,0.1c-4.1-27.8,2.1-51.6,17.6-67
		C109,71.5,136.9,66.1,169.9,74s67,28.1,95.9,57c59.6,59.6,78.4,138,41.7,174.6C295,317.9,277.7,324.3,256.9,324.3z"/>
	<path class="st0" d="M149,301.5c-30,0-54.2-10.4-68.7-29.8c-13.5-18.1-17.2-41.8-10.7-68.7l0.5,0.1c-6.5,26.7-2.8,50.3,10.6,68.3
		c15.7,21,42.9,31.4,76.6,29.3s70-16.4,101.9-40.3c66-49.4,93.3-124.8,60.9-168.1c-14.2-19-38.3-29.5-68-29.6v-0.5
		c29.8,0.1,54.1,10.7,68.4,29.8c32.6,43.5,5.2,119.3-61,168.8c-32.1,24-68.4,38.4-102.2,40.4C154.5,301.4,151.8,301.4,149,301.5z"/>
	<path class="st0" d="M270.9,243.2c-24.2,0-51.1-3.4-78.5-10c-39.9-9.6-75.9-25-101.4-43.2s-37.4-37.3-33.5-53.5
		s23.2-27.7,54.2-32.3s70-1.8,109.9,7.8s75.9,25,101.4,43.2s37.4,37.3,33.5,53.5s-23.2,27.7-54.2,32.3
		C291.9,242.5,281.4,243.2,270.9,243.2z M143.3,102.5c-10.5,0-21,0.7-31.4,2.1c-30.8,4.6-49.9,15.9-53.8,31.9s8,34.8,33.3,53
		s61.3,33.5,101.2,43.1c82.2,19.9,155.5,9,163.5-24.1c3.9-16-8-34.8-33.3-53s-61.4-33.5-101.2-43.1
		C194.3,105.8,167.4,102.5,143.3,102.5z"/>
	<path class="st0" d="M241.2,339.5c-14.8,0-31.5-12.3-47.7-35.4c-18.4-26.2-34-63.2-43.9-104.1s-12.9-81-8.5-112.7
		s15.8-51.5,32-55.4s35.3,8.4,53.8,34.7s34,63.2,43.9,104.1s12.9,81,8.5,112.7s-15.8,51.4-31.9,55.4
		C245.3,339.3,243.2,339.5,241.2,339.5z M179.2,31.7c-2,0-4,0.2-5.9,0.7c-16,3.9-27.3,23.4-31.6,55s-1.4,71.6,8.5,112.5
		s25.4,77.8,43.8,104s37.2,38.3,53.3,34.5c33.2-8.1,43.5-83.2,23.2-167.5c-9.9-40.9-25.4-77.8-43.8-104
		C210.4,44,193.8,31.7,179.2,31.7L179.2,31.7z"/>
	<path class="st0" d="M189.8,297.4c-1,1-2.6,1-3.5,0c-1-1-1-2.6,0-3.5s2.6-1,3.5,0l0,0C190.7,294.9,190.7,296.5,189.8,297.4
		L189.8,297.4z"/>
	<path class="st0" d="M188,298.4c-0.7,0-1.4-0.3-1.9-0.8c-1.1-1.1-1.1-2.8,0-3.9s2.8-1.1,3.9,0s1.1,2.8,0,3.9l0,0l0,0
		C189.4,298.1,188.7,298.4,188,298.4z M188,293.4c-0.6,0-1.2,0.2-1.6,0.7c-0.9,0.8-1,2.3-0.1,3.2s2.3,1,3.2,0.1l0.1-0.1
		c0.9-0.9,0.9-2.3,0-3.2C189.2,293.7,188.6,293.4,188,293.4z"/>
	<path class="st0" d="M282.4,244c-1,1-2.6,1-3.5,0c-1-1-1-2.6,0-3.5c1-1,2.6-1,3.5,0l0,0C283.4,241.5,283.4,243,282.4,244L282.4,244
		z"/>
	<path class="st0" d="M280.7,245c-1.5,0-2.8-1.2-2.8-2.7s1.2-2.8,2.7-2.8s2.8,1.2,2.8,2.7c0,0.7-0.3,1.4-0.8,2l0,0
		C282.1,244.7,281.4,245,280.7,245z M280.7,240c-0.6,0-1.2,0.2-1.6,0.7c-0.4,0.4-0.7,1-0.6,1.6c0,0.6,0.2,1.2,0.6,1.6
		c0.9,0.9,2.3,0.9,3.2,0l0,0c0.9-0.9,0.9-2.3,0-3.2C281.8,240.3,281.3,240,280.7,240z"/>
	<path class="st0" d="M315.6,203c-1,1-2.6,1-3.5,0c-1-1-1-2.6,0-3.5c1-1,2.6-1,3.5,0C316.6,200.4,316.6,202,315.6,203L315.6,203z"/>
	<path class="st0" d="M313.9,204c-1.5,0-2.8-1.2-2.8-2.8c0-1.5,1.2-2.8,2.8-2.8c1.5,0,2.8,1.2,2.8,2.8c0,0.7-0.3,1.5-0.8,2l0,0
		C315.3,203.7,314.6,204,313.9,204z M313.9,199c-0.6,0-1.2,0.2-1.6,0.7c-0.8,0.9-0.8,2.3,0.1,3.2c0.9,0.8,2.2,0.8,3.1,0l0,0
		c0.9-0.9,0.9-2.3,0-3.2C315,199.2,314.4,199,313.9,199z"/>
	<path class="st0" d="M332.5,163.3c-1,1-2.6,1-3.5,0c-1-1-1-2.6,0-3.5c1-1,2.6-1,3.5,0l0,0C333.5,160.8,333.5,162.3,332.5,163.3
		L332.5,163.3z"/>
	<path class="st0" d="M330.7,164.3c-1.5,0-2.8-1.2-2.8-2.8c0-1.5,1.2-2.8,2.8-2.8c1.5,0,2.8,1.2,2.8,2.8c0,0.7-0.3,1.4-0.8,2l0,0
		C332.2,164,331.5,164.3,330.7,164.3z M330.7,159.3c-0.6,0-1.2,0.2-1.6,0.7c-0.9,0.9-0.9,2.3,0,3.2s2.3,0.9,3.2,0
		c0.9-0.9,0.9-2.3,0-3.2C331.9,159.6,331.3,159.3,330.7,159.3z"/>
	<path class="st0" d="M326.2,237.6c-1,1-2.6,1-3.5,0c-1-1-1-2.6,0-3.5c1-1,2.6-1,3.5,0l0,0C327.2,235,327.2,236.6,326.2,237.6z"/>
	<path class="st0" d="M324.5,238.5c-1.5,0-2.7-1.2-2.8-2.7c0-1.5,1.2-2.8,2.7-2.8s2.8,1.2,2.8,2.7c0,0.7-0.3,1.4-0.8,2l0,0
		C325.9,238.2,325.2,238.5,324.5,238.5z M324.5,233.5c-1.2,0-2.3,1-2.3,2.3l0,0c0,1.2,1,2.2,2.3,2.2c0.6,0,1.2-0.2,1.6-0.7l0,0
		c0.9-0.9,0.9-2.3,0-3.2C325.6,233.8,325,233.5,324.5,233.5z"/>
	<path class="st0" d="M256.9,123.5c-1,1-2.6,1-3.5,0c-1-1-1-2.6,0-3.5c1-1,2.6-1,3.5,0C257.9,120.9,257.9,122.5,256.9,123.5z"/>
	<path class="st0" d="M255.1,124.5c-0.7,0-1.4-0.3-1.9-0.8c-1.1-1.1-1.1-2.8,0-3.9l0,0c0.5-0.5,1.2-0.8,1.9-0.8s1.4,0.3,1.9,0.8
		c1.1,1.1,1.1,2.8,0,3.9C256.5,124.2,255.9,124.5,255.1,124.5z M255.1,119.5c-0.6,0-1.2,0.2-1.6,0.7c-0.9,0.9-0.9,2.3,0,3.2
		c0.9,0.9,2.3,0.9,3.2,0l0,0c0.9-0.9,0.9-2.3,0-3.2C256.3,119.7,255.7,119.5,255.1,119.5z"/>
	<path class="st0" d="M146,71.8c-1,1-2.6,1-3.5,0c-1-1-1-2.6,0-3.5c1-1,2.6-1,3.5,0S146.9,70.8,146,71.8z"/>
	<path class="st0" d="M144.2,72.8c-1.5,0-2.7-1.3-2.7-2.8s1.3-2.7,2.8-2.7s2.7,1.3,2.7,2.8c0,0.7-0.3,1.4-0.8,1.9
		C145.7,72.6,145,72.8,144.2,72.8z M144.2,67.8c-0.6,0-1.2,0.2-1.6,0.7c-0.9,0.9-0.9,2.3,0,3.2c0.9,0.9,2.3,0.9,3.2,0s0.9-2.3,0-3.2
		C145.4,68.1,144.8,67.8,144.2,67.8z"/>
	<path class="st0" d="M141.3,104c-1,1-2.6,1-3.5,0c-1-1-1-2.6,0-3.5c1-1,2.6-1,3.5,0C142.3,101.5,142.3,103.1,141.3,104z"/>
	<path class="st0" d="M139.5,105c-1.5,0-2.8-1.2-2.8-2.7s1.2-2.8,2.7-2.8s2.8,1.2,2.8,2.7c0,0.7-0.3,1.4-0.8,1.9
		C140.9,104.7,140.2,105,139.5,105z M139.5,100c-1.2,0-2.3,1-2.3,2.2s1,2.3,2.2,2.3s2.3-1,2.3-2.2c0-0.6-0.2-1.2-0.7-1.6
		C140.7,100.3,140.1,100,139.5,100z"/>
	<path class="st0" d="M157.4,223.4c-1,1-2.6,1-3.5,0c-1-1-1-2.6,0-3.5c1-1,2.6-1,3.5,0C158.3,220.9,158.3,222.4,157.4,223.4z"/>
	<path class="st0" d="M155.6,224.4c-1.5,0-2.8-1.2-2.8-2.8c0-1.5,1.2-2.8,2.8-2.8c1.5,0,2.8,1.2,2.8,2.8c0,0.7-0.3,1.5-0.8,2l0,0
		C157,224.1,156.3,224.4,155.6,224.4z M155.6,219.4c-0.6,0-1.2,0.2-1.6,0.7c-0.8,0.9-0.8,2.3,0.1,3.2c0.9,0.8,2.2,0.8,3.1,0
		c0.9-0.9,0.9-2.3,0-3.2C156.8,219.6,156.2,219.4,155.6,219.4z"/>
	<path class="st0" d="M267.9,324.9c-1,1-2.6,1-3.5,0c-1-1-1-2.6,0-3.5c1-1,2.6-1,3.5,0C268.9,322.4,268.9,323.9,267.9,324.9
		L267.9,324.9z"/>
	<path class="st0" d="M266.1,325.9c-1.5,0-2.7-1.3-2.7-2.8s1.3-2.7,2.8-2.7c0.7,0,1.4,0.3,1.9,0.8c1.1,1.1,1.1,2.8,0,3.9l0,0
		C267.6,325.6,266.9,325.9,266.1,325.9z M266.1,320.9c-1.2,0-2.2,1-2.2,2.3c0,0.6,0.2,1.2,0.7,1.6c0.9,0.9,2.3,0.9,3.2,0l0,0
		c0.9-0.9,0.9-2.3,0-3.2C267.3,321.1,266.7,320.9,266.1,320.9z"/>
	<path class="st0" d="M77.8,117.6c-1,1-2.6,1-3.5,0c-1-1-1-2.6,0-3.5s2.6-1,3.5,0l0,0C78.8,115,78.8,116.6,77.8,117.6z"/>
	<path class="st0" d="M76.1,118.6c-1.5,0-2.8-1.2-2.8-2.8c0-1.5,1.2-2.8,2.8-2.8c1.5,0,2.8,1.2,2.8,2.8c0,0.7-0.3,1.5-0.8,2
		C77.5,118.3,76.8,118.6,76.1,118.6z M76.1,113.6c-0.6,0-1.2,0.2-1.6,0.7c-0.9,0.9-0.9,2.3,0,3.2c0.9,0.9,2.3,0.9,3.2,0
		c0.9-0.9,0.9-2.3,0-3.2C77.2,113.8,76.7,113.6,76.1,113.6z"/>
</g>
<g id="freepik--Icons--inject-117">
	<path class="st7" d="M114.2,297.3L114.2,297.3c-10,0-18.1-8.1-18.1-18.1l0,0c0-10,8.1-18.1,18.1-18.1l0,0c10,0,18.1,8.1,18.1,18.1
		l0,0l0,0C132.3,289.2,124.2,297.3,114.2,297.3L114.2,297.3z"/>
	<path class="st5" d="M114.2,271.1c2.6,0,3,0,4,0.1c0.6,0,1.3,0.1,1.8,0.3c0.9,0.3,1.5,1,1.9,1.9c0.2,0.6,0.3,1.2,0.3,1.8
		c0,1,0.1,1.4,0.1,4s0,3-0.1,4c0,0.6-0.1,1.3-0.3,1.8c-0.3,0.9-1,1.5-1.9,1.9c-0.6,0.2-1.2,0.3-1.8,0.3c-1.1,0-1.4,0.1-4,0.1
		s-3,0-4-0.1c-0.6,0-1.3-0.1-1.8-0.3c-0.4-0.2-0.8-0.4-1.1-0.7c-0.3-0.3-0.6-0.7-0.7-1.1c-0.2-0.6-0.3-1.2-0.3-1.8
		c0-1-0.1-1.4-0.1-4s0-3,0.1-4c0-0.6,0.1-1.3,0.3-1.8c0.2-0.4,0.4-0.8,0.7-1.1c0.3-0.3,0.7-0.6,1.1-0.7c0.6-0.2,1.2-0.3,1.8-0.3
		C111.2,271.1,111.5,271.1,114.2,271.1 M114.2,269.3c-2.7,0-3,0-4.1,0.1c-0.8,0-1.6,0.2-2.4,0.5c-0.7,0.3-1.3,0.6-1.8,1.1
		s-0.9,1.1-1.1,1.8c-0.3,0.8-0.5,1.6-0.5,2.4c0,1.1-0.1,1.4-0.1,4.1s0,3,0.1,4.1c0,0.8,0.2,1.6,0.5,2.4c0.2,0.7,0.6,1.3,1.1,1.8
		s1.1,0.9,1.8,1.1c0.8,0.3,1.6,0.4,2.4,0.5c1.1,0,1.4,0.1,4.1,0.1s3,0,4.1-0.1c0.8,0,1.6-0.2,2.4-0.5c0.7-0.3,1.3-0.6,1.8-1.1
		s0.9-1.1,1.1-1.8c0.3-0.8,0.4-1.6,0.5-2.4c0.1-1.1,0.1-1.4,0.1-4.1s0-3-0.1-4.1c0-0.8-0.2-1.6-0.5-2.4c-0.3-0.7-0.6-1.3-1.1-1.8
		s-1.1-0.9-1.8-1.1c-0.8-0.3-1.6-0.4-2.4-0.5C117.2,269.3,116.9,269.3,114.2,269.3"/>
	<path class="st5" d="M114.2,274.2c-2.8,0-5.1,2.3-5.1,5.1c0,2.8,2.3,5.1,5.1,5.1c2.8,0,5.1-2.3,5.1-5.1l0,0
		C119.3,276.4,117,274.2,114.2,274.2 M114.2,282.6c-1.8,0-3.3-1.5-3.3-3.3s1.5-3.3,3.3-3.3s3.3,1.5,3.3,3.3l0,0
		C117.5,281.1,116,282.6,114.2,282.6L114.2,282.6"/>
	<path class="st5" d="M120.7,274c0,0.7-0.5,1.2-1.2,1.2s-1.2-0.5-1.2-1.2s0.5-1.2,1.2-1.2S120.7,273.3,120.7,274"/>
	<path class="st8" d="M272.3,85.6L272.3,85.6c-10,0-18.1-8.1-18.1-18.1l0,0c0-10,8.1-18.1,18.1-18.1l0,0l0,0
		c10,0,18.1,8.1,18.1,18.1l0,0l0,0C290.4,77.5,282.3,85.6,272.3,85.6L272.3,85.6z"/>
	<path class="st5" d="M269.5,78.4h4.4v-11h3.1l0.3-3.7h-3.4v-2.1c0-0.9,0.2-1.2,1-1.2h2.4v-3.9h-3c-3.3,0-4.8,1.4-4.8,4.2v3h-2.3
		v3.7h2.3V78.4z"/>
	<path class="st7" d="M96.9,120.1L96.9,120.1c-10,0-18.1-8.1-18.1-18.1l0,0c0-10,8.1-18.1,18.1-18.1l0,0c10,0,18.1,8.1,18.1,18.1
		l0,0C115,112,106.9,120.1,96.9,120.1z"/>
	<path class="st5" d="M87.3,108c5.2,3.4,12.2,1.8,15.5-3.4c1.3-2,1.9-4.3,1.8-6.6c0.8-0.5,1.5-1.2,2-2c-0.7,0.3-1.5,0.5-2.3,0.6
		c0.8-0.5,1.4-1.3,1.7-2.2c-0.8,0.5-1.6,0.8-2.5,1c-1.6-1.6-4.1-1.5-5.7,0c-0.9,0.9-1.3,2.3-1.1,3.6c-3.2-0.2-6.1-1.7-8.2-4.1
		c-1,1.8-0.5,4.1,1.2,5.3c-0.6,0-1.2-0.2-1.8-0.5c0,1.9,1.3,3.5,3.2,3.9c-0.6,0.2-1.2,0.2-1.8,0.1c0.5,1.6,2,2.7,3.7,2.7
		C91.5,107.8,89.4,108.3,87.3,108z"/>
	<circle class="st8" cx="307.4" cy="278" r="18.3"/>
	<path class="st9" d="M319.1,276.6c0.2,0,0.4,0,0.5,0c1.1,0,2-0.9,2-2s-0.9-2-2-2l0,0l0,0h-7.7c0,0,0.5-2.8,0.5-3.7s0.5-2.4-0.8-4.2
		s-4.2-1.1-4.2-1.1l0.4,3.8c0.1,0.6,0,1.2-0.3,1.7l-3.5,6.5l-1.6,1.4l-0.5,8c1,2.5,4.3,3.3,4.3,3.3h10.4c1.1,0,2.1-0.9,2.2-2
		c0-0.7-0.4-1.4-1-1.7c0.1,0,0.3,0,0.4,0c1.1,0,2.1-0.9,2.2-2c0-0.7-0.4-1.3-1-1.7c1-0.1,1.8-1,1.8-2
		C321.2,277.5,320.2,276.6,319.1,276.6L319.1,276.6z"/>
	<path class="st8" d="M316.7,288.4h-10.5c-0.1,0-3.4-0.9-4.5-3.5v-0.1l0.5-8c0-0.1,0-0.2,0.1-0.2l1.5-1.3l3.4-6.5
		c0.3-0.5,0.4-1,0.3-1.5l-0.5-3.8c0-0.2,0.1-0.3,0.2-0.4c0.1,0,3.2-0.7,4.5,1.2c0.8,1.1,1.1,2.5,0.9,3.8c0,0.2,0,0.4,0,0.6
		c-0.1,1.1-0.2,2.3-0.4,3.4h7.3h0.1c1.3,0,2.3,1.1,2.4,2.4c0,1-0.6,1.9-1.6,2.2c0.6,0.4,1,1.1,1,1.9c0,0.9-0.6,1.8-1.5,2.1
		c0.4,0.4,0.6,1,0.6,1.5c0,1.2-0.9,2.2-2.1,2.3c0.3,0.4,0.5,0.9,0.5,1.4C319.1,287.4,318,288.4,316.7,288.4L316.7,288.4z
		 M306.3,287.7h10.4c1,0,1.8-0.7,1.8-1.7c0-0.6-0.3-1.1-0.8-1.4c-0.1-0.1-0.2-0.2-0.1-0.4c0.1-0.1,0.2-0.2,0.4-0.2h0.4
		c1,0,1.8-0.7,1.8-1.7c0-0.6-0.3-1.1-0.8-1.4c-0.1-0.1-0.2-0.2-0.1-0.3c0-0.1,0.1-0.2,0.3-0.3c0.9-0.1,1.5-0.8,1.5-1.7
		c0-1-0.9-1.8-1.8-1.7l0,0l0,0c-0.2,0-0.3-0.2-0.3-0.3c0-0.4,0.3-0.4,0.9-0.4c0.9,0.1,1.8-0.6,1.8-1.6s-0.6-1.8-1.6-1.8
		c-0.1,0-0.2,0-0.3,0l0,0h-0.1H312c-0.1,0-0.2,0-0.3-0.1c-0.1-0.1-0.1-0.2-0.1-0.3c0.2-1.2,0.4-2.4,0.5-3.7c0-0.2,0-0.4,0-0.6
		c0.2-1.2-0.1-2.4-0.8-3.4c-0.9-1.3-2.9-1.1-3.6-1l0.4,3.5c0.1,0.7,0,1.3-0.4,1.9l-3.5,6.5c0,0,0,0.1-0.1,0.1l-1.5,1.3l-0.5,7.8
		C303.2,286.8,305.9,287.7,306.3,287.7z"/>
	<path class="st10" d="M297.1,273.8h4.1c1.2,0,2.1,1,2.1,2.1v11.2c0,1.2-1,2.1-2.1,2.1h-4.1c-1.2,0-2.1-1-2.1-2.1V276
		C295,274.8,295.9,273.8,297.1,273.8z"/>
	<path class="st8" d="M332.4,97c-7.8,0-14.2,6.4-14.2,14.2c0,7.9,14.2,24.9,14.2,24.9s14.2-17.1,14.2-24.9
		C346.6,103.4,340.3,97,332.4,97z M332.4,119.2c-4.2,0-7.5-3.4-7.5-7.5s3.4-7.5,7.5-7.5c4.2,0,7.5,3.4,7.5,7.5l0,0
		C339.9,115.8,336.6,119.2,332.4,119.2z"/>
	<polygon class="st10" points="365.6,193.1 365.7,193 365.5,193 343.1,176.2 320.7,193 320.5,193 320.6,193.1 320.5,193.1 
		320.7,193.1 343.3,209.4 365.5,193.1 365.7,193.1 	"/>
	<rect x="327.6" y="177.9" class="st11" width="30.3" height="37.6"/>
	<path class="st8" d="M349.2,188.1c0,4.4-2,6.9-4,6.9c-0.8,0.1-1.6-0.5-1.7-1.3c0-0.1,0-0.1,0-0.2c-0.4,0.9-1.3,1.5-2.3,1.5
		c-1.6,0-2.2-1.4-2-3.4l0.2-2.2c0.2-2,1.1-3.3,2.7-3.2c0.9,0,1.7,0.6,1.9,1.4l0.2-1.4h1.5l-0.7,6.3c-0.1,0.5,0.1,0.9,0.6,0.9
		c1.7,0,2.3-3.2,2.2-5.4c0-3.1-1.4-5-4.7-5c-4.4,0-6.4,3.6-6.4,8.6c0,3.8,1.7,6.1,5.6,6.1c1.6,0.1,3.1-0.4,4.3-1.4l-0.1,1.5
		c-1.3,0.8-2.8,1.3-4.3,1.2c-4.8,0-7-3-7-7.5c0-5.2,2.5-9.8,8-9.8C347.6,181.8,349.2,184.5,349.2,188.1z M340.9,189.5l-0.2,2
		c-0.1,1.1,0.2,2,1.3,2s1.6-0.8,1.7-2l0.2-2.1c0.1-1-0.3-1.8-1.3-1.8S341,188.3,340.9,189.5z"/>
	<polygon class="st10" points="320.5,193 320.5,219.2 365.7,219.2 365.7,193 343.1,206.1 	"/>
	<polyline class="st12" points="320.5,219.2 343.1,206.1 365.7,219.2 	"/>
	<rect x="152.5" y="48.1" class="st7" width="47.9" height="33.2"/>
	<circle class="st5" cx="176.5" cy="64.7" r="11"/>
	<polygon class="st7" points="184.5,64.9 171,57.2 171,72.7 	"/>
	<line class="st13" x1="153.6" y1="78" x2="199.1" y2="78"/>
	<path class="st11" d="M101.7,197.4c1.1-6.2-3-12.2-9.2-13.3c-2.9-0.5-5.9,0.1-8.4,1.7c-3.2-7.9-12.2-11.7-20.1-8.5
		c-5.9,2.4-9.7,8.1-9.7,14.4c0,0.2,0,0.4,0,0.6c-5.3,1.6-8.4,7.2-6.8,12.5c1.1,3.8,4.3,6.6,8.2,7.1v0.1h45.5c4,0.1,7.3-3.1,7.4-7.1
		S105.6,197.6,101.7,197.4L101.7,197.4z"/>
	<polygon class="st8" points="88.7,207.3 76.1,191.5 63.5,207.3 68.4,207.3 68.4,221.6 83.8,221.6 83.8,207.3 	"/>
</g>
<g id="freepik--Character--inject-117">
	<path class="st14" d="M181.9,388.4c-1.6,1.2-3.1,2.5-4.5,3.9c-2,2-7.8,4.3-11.2,6.7s-1.4,4.9,1.6,5.9s11.9,0.2,15.1-0.4
		s4.9-4.5,7.6-5.1s7.6,1.6,7.8-2.3s0.4-7.8,0.4-7.8L181.9,388.4z"/>
	<path class="st14" d="M198.3,397.2c0-0.8,0.1-1.6,0.1-2.3c-2.2,1.6-5,1.5-8.7,2.3c-4.7,1-6.3,5.5-15.7,5.9
		c-6.1,0.3-8.6-0.8-9.6-1.6c-0.2,1.5,1.4,2.8,3.4,3.5c3.1,1,11.9,0.2,15.1-0.4s4.9-4.5,7.6-5.1S198.1,401.1,198.3,397.2z"/>
	<path class="st14" d="M183.8,387.6c0,0-4.7,5.7-6.3,7.6s3.1,1.2,5.1-0.6c1.9-1.9,3.7-4,5.3-6.1L183.8,387.6z"/>
	<path class="st14" d="M248.1,388.4c1.6,1.2,3.1,2.5,4.5,3.9c2,2,7.8,4.3,11.2,6.7s1.4,4.9-1.6,5.9s-11.8,0.2-15.1-0.4
		s-4.9-4.5-7.6-5.1s-7.6,1.6-7.8-2.3s-0.4-7.8-0.4-7.8L248.1,388.4z"/>
	<path class="st14" d="M231.8,397.2c0-0.8-0.1-1.6-0.1-2.3c2.2,1.6,5,1.5,8.7,2.3c4.7,1,6.3,5.5,15.7,5.9c6.1,0.3,8.5-0.8,9.5-1.6
		c0.2,1.5-1.4,2.8-3.4,3.5c-3.1,1-11.8,0.2-15.1-0.4s-4.9-4.5-7.6-5.1S232,401.1,231.8,397.2z"/>
	<path class="st14" d="M246.3,387.6c0,0,4.7,5.7,6.3,7.6s-3.1,1.2-5.1-0.6c-1.9-1.9-3.7-4-5.3-6.1L246.3,387.6z"/>
	<path class="st7" d="M184.5,242.5c0,0-2.6,23-2.6,26.7s0,50.5,0.6,58.8s-2.3,11.7-0.6,22.2s2.3,29.1,2.3,29.1s-2.3,1.4-2.3,2.9v6.3
		l17.2,1.9c0,0,1.1-14.7,1.4-19.3s4.6-33.4,5.7-41.6s5.6-55.4,5.6-55.4s7.5,52.3,8.1,54c1.6,4.1,2.9,8.3,4,12.5
		c2.6,9.4,4.9,41.9,4.9,41.9l2.5,9.1l17.6-3.3c0,0-2.6-14.6-2.6-16.9s-0.6-1.4-1.1-7.1c-1.1-10.6-1.3-21.3-0.9-31.9
		c0.6-16.5-7.1-60.5-7.1-60.5l-2.3-29.4C234.7,242.4,206.4,248.9,184.5,242.5z"/>
	<path class="st13" d="M218.7,266.8l-4.6,8.6c0,0,9.9-5.9,16.2-6.9"/>
	<path class="st13" d="M203.5,272.4c0,0-4.3-6.9-11.9-8.9"/>
	<path class="st15" d="M183.6,244.9c0,0-3,7.5-1.5,9.7s15.3,7.8,29.1,7.8s27.2-4.9,27.2-8.2c0-3.4-2.6-11.6-2.6-11.6
		S213.4,253.1,183.6,244.9z"/>
	<path class="st15" d="M188.2,173.9c0,0-10,0-12.3,1.9s-2.5,9.5-2.8,10.9s-5.5,26.3-5.5,26.3l11.1,15.3l4.1-19.6l0.4,38
		c0,0,0.8,3.7,3.3,5.1s20.4,2.8,28.7,2.8s20.4-4.2,21.3-6.7s-1.8-31-1.8-31l4,8.8l9.5-16.2c0,0-6.5-21.5-7.4-26.1s-3.5-6-8.6-8.1
		s-20.2-1.4-26.2-1.4S188.2,173.9,188.2,173.9z"/>
	<path class="st12" d="M190.7,248.6c3.8-0.5,6.8-3.3,7.5-7.1c1.5-6.7,2.2-10.4,2.2-10.4l2.6-0.4c-0.1,3.7-0.3,7.5-0.8,11.2
		c-0.7,6.3-3,8.2-4.1,8.2"/>
	<path class="st12" d="M232.1,245.3c3-7.5-3.7-16-3.7-16l-2.6-0.4c0,0,7.5,9.7,3.7,17.1"/>
	<line class="st12" x1="182.8" y1="208.7" x2="181.2" y2="196.9"/>
	<line class="st12" x1="234.7" y1="216.8" x2="233.8" y2="195.2"/>
	<path class="st12" d="M236.6,218.1c0,0-2.9-5.4,6.6-9.9"/>
	<path class="st12" d="M238.3,206.9c0,0,5-2.1,8.3-2.1"/>
	<path class="st12" d="M171.4,208.2c0,0,7.8,2.5,9.5,8.7"/>
	<path class="st12" d="M180.5,211.1c0,0-2.9-4.9-7.4-5.8"/>
	<path class="st15" d="M202.6,163.5c0,0-5.3,0-6.8,1.2s-2.3,4.3-3.1,4.9s-4.3,0.4-5.1,2.5s-0.8,1.6,5.3,7.2s21,12.1,22.6,12.1
		s11.7-11.7,14.6-13s3.3-1.4,3.5-2.1s-0.2-4.7-2.7-6.2c-1.8-1-3.8-1.7-5.8-1.9c0,0-0.4-2.3-3.5-4.1s-7.4-2.1-10.5-2.1
		S202.6,163.5,202.6,163.5z"/>
	<path class="st12" d="M225,168c-0.3,2.9-0.9,5.7-2,8.4"/>
	<path class="st12" d="M193.7,172.3c0,0,0.8,2.5,5.4,4.9"/>
	<line class="st13" x1="211.8" y1="188.5" x2="212.3" y2="214"/>
	<line class="st13" x1="217.4" y1="188.7" x2="219.7" y2="212.4"/>
	<path class="st7" d="M151.4,174.7l9.3-3.2c0.8-0.3,1.7,0.2,1.9,0.9l6.8,19.9c0.3,0.8-0.2,1.7-0.9,1.9l-9.3,3.2
		c-0.8,0.3-1.7-0.2-1.9-0.9l-6.8-19.9C150.1,175.8,150.6,175,151.4,174.7z"/>
	<path class="st14" d="M160,205c-0.8-0.8-8.3-18.5-8.9-20.1s7.6-7.3,7.6-7.3s2.2-1.4,2.2-0.1s-4.2,4.9-4.7,5.8s1.2,3.9,1.2,3.9
		s5.3-2.8,5.7-2.8s6.2,5,6.8,5.5s2,2.2,1.6,3s-1.4,0.4-2,0.3s-6.6,2-6.6,2s2.3,3.3,2,5.1c-0.2,1.2-0.4,2.4-0.8,3.5
		c0,0,12.8,15.8,14.5,16.7s2.5,4.4,1.5,8.1s-3.6,3.4-7,3.3S160,205,160,205z"/>
	<path class="st12" d="M165.1,186.9c-1,0-1.9,0.1-2.8,0.4c-0.5,0.4-4.6,3.1-4.6,3.1"/>
	<path class="st12" d="M159.2,192.7c1.5-1.1,3-2.1,4.6-3c1.7-0.2,3.4-0.3,5.1-0.3"/>
	<path class="st12" d="M170.1,190.6c0,0-6,1.2-6.8,1.5c-1.1,0.6-2.1,1.4-3,2.3"/>
	<line class="st12" x1="157.3" y1="187.2" x2="155.5" y2="188.3"/>
	<path class="st14" d="M247.4,210.5l22.3-17.7c0,0-1-6.4-0.8-7.4s2-6.8,6.4-8.9s5.8-2.6,5.8-1s-1.6,2-2,2.6s-2.6,2.8-2.6,2.8
		s4.2-1.8,5.6-1.8s3.8-0.6,3.8,0.8s-1.6,1.4-2.6,1.4s-3.8,2.8-3.8,2.8c2.3-0.6,4.6-1.1,7-1.4c1.2,0,2.2,1.4,1.2,2
		c-0.9,0.4-1.8,0.8-2.8,1c-0.9,0.4-1.8,0.9-2.6,1.4c0,0,6-0.6,5.6,1s-3.2,1.2-3.8,1.2c-1.3,0.3-2.5,1-3.4,2c-0.4,0.8-1.2,4.2-2.8,5
		s-4.6,2-4.6,2s-10.1,12.3-14.3,17.1c-4.2,4.8-11.7,10.3-15.9,11.3s-5-0.2-5.2-2S237.9,216.4,247.4,210.5z"/>
	<path class="st12" d="M269.9,182.8c0,0,4.8-2.2,5.8-2.2s2.6,0.8,1.4,2.2c-1.3,1.3-2.8,2.4-4.4,3.4c0,0,5.8,2.4,3,6.8"/>
	<path class="st14" d="M213.7,129.3c0,0-6.2,1.1-9.1,4.6s-12.4,24.8-12.3,26.7s9.6,0.9,9.6,0.9s1,10.7,4.4,18.5
		c0.9,2.1,4.2,6.3,7.8,4.8s5.1-25.9,5.1-25.9s3.4,4.8,5.9,3.5c2.9-1.5,2.4-5,0.3-5.3s6.7-8,4.5-13.9S216.4,127.7,213.7,129.3z"/>
	<path class="st7" d="M212.1,122.4c0,0-11.8-1.1-12.9,4.4c-1.1,5.6,4.7,8.7,11.5,8.3s12.8,0.6,13.6,1.8s-8.5,2.4-6.5,4
		c1.1,1,2.6,1.6,4.1,1.7c0,0-3,0.6-3,2.7s0.9,11.6,2.4,11.7s4.3,0.2,4.3,0.2c2.8-1.1,5.4-2.6,7.6-4.5c3.5-3.1,5-10.1,1.4-14.7
		s-6.3-8.9-9.1-12.6c-2.8-3.6-5.4-7.5-11.6-9S203.9,117.2,212.1,122.4z"/>
	<path class="st13" d="M234.4,146.4c0.1,1.2,0,2.5-0.2,3.7"/>
	<path class="st13" d="M214.3,129.3c0,0-13,0-8.4,2.9s12.5-0.9,21.5,3.7c3.1,1.5,5.4,4.2,6.4,7.4"/>
	<path class="st13" d="M221.2,139.8c0,0,8.4,5.1,8.9,11.5"/>
	<path class="st12" d="M201.9,161.6c0,0,10.1,0.4,13.1-1.7"/>
	<path class="st12" d="M199.6,152.9c0,0,7.1,2.8,9.6-1.4"/>
	<line class="st12" x1="208" y1="150.6" x2="211.1" y2="152.1"/>
	<path class="st14" d="M202.8,143.5c0,0-6.6,0.2-6.7,1.3s3.8,4.4,3.8,4.4"/>
	<path class="st8" d="M203.8,141.6c-0.4,0.9-1.1,1.4-1.5,1.2s-0.5-1.1-0.1-1.9s1.1-1.4,1.5-1.2S204.2,140.7,203.8,141.6z"/>
	<path class="st8" d="M209.1,144.9c-0.4,0.9-1.1,1.4-1.5,1.2s-0.5-1.1-0.1-1.9s1.1-1.4,1.5-1.2S209.5,144,209.1,144.9z"/>
	<path class="st7" d="M210,139c0,0,3.1,0.6,2.4,4.9L210,139z"/>
	<path class="st7" d="M207.3,136.7c0,0-1.5-2.5-4.1,0.5L207.3,136.7z"/>
	<path class="st8" d="M154.3,169.5l-0.2-7.1c2,0,3.5-1.6,3.6-3.6v-19.4c0-2-1.6-3.6-3.6-3.6h-44.7c-2,0-3.5,1.6-3.6,3.6v19.4
		c0,2,1.6,3.5,3.6,3.6H148L154.3,169.5z"/>
	<path class="st0" d="M120.8,148.3c0-1.2-1-2.2-2.2-2.2s-2.2,1-2.2,2.2s1,2.2,2.2,2.2l0,0C119.8,150.5,120.8,149.5,120.8,148.3z"/>
	<path class="st0" d="M133.7,148.3c0-1.2-1-2.2-2.2-2.2s-2.2,1-2.2,2.2s1,2.2,2.2,2.2l0,0C132.7,150.5,133.7,149.5,133.7,148.3z"/>
	<path class="st0" d="M146.5,148.3c0-1.2-1-2.2-2.2-2.2s-2.2,1-2.2,2.2s1,2.2,2.2,2.2l0,0C145.5,150.5,146.5,149.5,146.5,148.3z"/>
</g>
</svg>
