<svg xmlns="http://www.w3.org/2000/svg" viewBox="0 0 679.37 77.32"><title>Recurso 2</title><g id="Capa_2" data-name="Capa 2"><g id="Capa_1-2" data-name="Capa 1"><path d="M23,15.87H0V.54H62.63V15.87h-23V76.13H23Z"/><path d="M75.38.54H92V30.45h30.67V.54h16.63V76.13H122.68V45.79H92V76.13H75.38Z"/><path d="M157.45.54h57V15.33H174V30.67h35.64V45.46H174V61.34h41V76.13H157.45Z"/><path d="M288.12,0h15.33l32.4,76.13H318.47l-6.92-16.95h-32l-6.91,16.95h-17Zm17.49,44.49L295.57,20l-10,24.51Z"/><path d="M355.4,15.87h-23V.54H395V15.87H372V76.13H355.4Z"/><path d="M407.78.54h34.55c9.61,0,17,2.59,22,7.67,4.32,4.32,6.48,10,6.48,17.27v.22c0,12.2-6.59,19.87-16.2,23.43l18.47,27H453.67l-16.2-24.19H424.41V76.13H407.78Zm33.47,36.72c8.21,0,12.75-4.22,12.75-10.7v-.21c0-7.24-4.86-10.8-13.07-10.8H424.41V37.26Z"/><path d="M486.61.54h16.63V76.13H486.61Z"/><path d="M521,43.73V.54h16.63V43.3c0,12.42,6,18.68,16.31,18.68s16.3-6,16.3-18.14V.54h16.63V43.19c0,22.9-12.85,34.13-33.15,34.13S521,66.09,521,43.73Z"/><path d="M603.78.54h17.93l19.87,32,19.87-32h17.92V76.13H662.85V26.78L641.58,59.07h-.43l-21.06-32v49H603.78Z"/></g></g></svg>