<?xml version="1.0" encoding="utf-8"?>
<!-- Generator: Adobe Illustrator 23.0.0, SVG Export Plug-In . SVG Version: 6.00 Build 0)  -->
<svg version="1.1" id="Capa_1" xmlns="http://www.w3.org/2000/svg" xmlns:xlink="http://www.w3.org/1999/xlink" x="0px" y="0px"
	 viewBox="0 0 500 412.3" style="enable-background:new 0 0 500 412.3;" xml:space="preserve">
<style type="text/css">
	.st0{fill:#7C7C7C;}
</style>
<g>
	<g>
		<path class="st0" d="M181.3,241.7h-0.2l0-0.9l-0.3-0.8c38.6-14.5,76.7-22.5,107.2-22.5c10.2,0,21.4,0.4,34.3,1.1l-0.1,1.7
			c-12.8-0.8-24-1.1-34.2-1.1c-30.4,0-68.2,8-106.6,22.4L181.3,241.7z"/>
	</g>
	<g>
		<path class="st0" d="M177.5,103c-44.1-4.1-84.9-11.5-98.8-56.2l1.6-0.5c13.6,43.7,53.8,51,97.4,55L177.5,103z"/>
	</g>
	<g>
		<path class="st0" d="M418.4,226.5c-3.6,0-7.4-0.1-11.3-0.2l0.1-1.7c39.2,1.3,61.7-3.8,75.2-16.8c9.5-9.2,14.2-22.5,14.2-40.4
			c0-16-4.8-28.5-14.7-38.2c-28.5-27.9-94.6-26.3-164.5-24.7c-16.3,0.4-33.2,0.8-49.7,0.8h-5.4v-1.7h5.4c16.4,0,33.3-0.4,49.6-0.8
			c70.3-1.6,136.7-3.2,165.7,25.2c10.2,10,15.2,22.9,15.2,39.4c0,18.5-4.8,32.1-14.7,41.7C471,221.1,451.2,226.5,418.4,226.5z"/>
	</g>
	<g>
		<path class="st0" d="M3.1,412.3H1.4c0-45.4,37.9-94.8,104.1-135.5l0.9,1.4C40.7,318.6,3.1,367.5,3.1,412.3z"/>
	</g>
	<g>
		<path class="st0" d="M220,143.1c-24.2,0-43.8-19.7-43.8-43.8s19.7-43.8,43.8-43.8s43.8,19.7,43.8,43.8S244.2,143.1,220,143.1z
			 M220,58c-22.7,0-41.3,18.5-41.3,41.3s18.5,41.3,41.3,41.3s41.3-18.5,41.3-41.3S242.8,58,220,58z"/>
	</g>
	<g>
		<path class="st0" d="M364.6,267.3c-24.2,0-43.8-19.7-43.8-43.8s19.7-43.8,43.8-43.8c24.2,0,43.8,19.7,43.8,43.8
			S388.8,267.3,364.6,267.3z M364.6,182.2c-22.7,0-41.3,18.5-41.3,41.3s18.5,41.3,41.3,41.3c22.7,0,41.3-18.5,41.3-41.3
			S387.4,182.2,364.6,182.2z"/>
	</g>
	<g>
		<path class="st0" d="M146.9,309.8c-24.2,0-43.8-19.7-43.8-43.8s19.7-43.8,43.8-43.8s43.8,19.7,43.8,43.8S171,309.8,146.9,309.8z
			 M146.9,224.7c-22.7,0-41.3,18.5-41.3,41.3s18.5,41.3,41.3,41.3s41.3-18.5,41.3-41.3S169.6,224.7,146.9,224.7z"/>
	</g>
	<g>
		<path class="st0" d="M63.1,61.4L63.5,0l38.1,48.1l-21.7-0.3L63.1,61.4z M66,7.3L65.6,56l13.4-10.8l17.2,0.2L66,7.3z"/>
	</g>
	<g>
		<g>
			<path class="st0" d="M146.9,239.8c3.2,0,6.3,0.1,9.5,0.1c2.2,0,4.3,0.2,6.4,0.8c5.2,1.6,8.3,5.1,9.6,10.3
				c0.5,2.1,0.6,4.3,0.6,6.4c0.1,2.9,0.1,5.8,0.1,8.7c0,2,0,3.9,0,5.9c0,2-0.1,4-0.2,6c-0.2,3-1,5.8-2.9,8.2
				c-2.1,2.7-4.8,4.4-8.1,5.2c-2.4,0.6-4.9,0.6-7.4,0.6c-2.7,0-5.4,0.1-8.1,0.1c-3,0-5.9-0.1-8.9-0.1c-1.8,0-3.7-0.1-5.4-0.6
				c-5.7-1.4-9.2-4.9-10.6-10.6c-0.6-2.4-0.6-4.9-0.6-7.4c0-2.4-0.1-4.7-0.1-7.1c0-3.8,0.1-7.7,0.2-11.5c0.1-2.4,0.5-4.7,1.6-6.9
				c1.8-3.8,4.8-6.2,8.8-7.3c1.6-0.5,3.3-0.7,5-0.7c3.1-0.1,6.2-0.1,9.4-0.1C146,239.8,146.4,239.9,146.9,239.8
				C146.9,239.8,146.9,239.8,146.9,239.8z M168.3,266C168.2,266,168.2,266,168.3,266c0-2.7,0-5.5-0.1-8.2c0-1.7-0.1-3.4-0.4-5.1
				c-0.7-3.9-2.9-6.4-6.8-7.4c-2.2-0.6-4.5-0.6-6.7-0.6c-5.4,0-10.8,0-16.3,0.1c-1.6,0-3.3,0.1-4.9,0.5c-2.1,0.5-3.8,1.4-5.2,3.1
				c-1.5,1.9-2.1,4.1-2.2,6.5c-0.1,1.7-0.2,3.3-0.2,5c0,5.9,0.1,11.8,0.2,17.7c0,1.7,0.4,3.4,1.2,4.9c1.5,2.9,4,4.4,7.2,4.8
				c1.8,0.2,3.7,0.3,5.5,0.4c5.1,0,10.3,0,15.4,0c1.7,0,3.4-0.1,5.1-0.4c4-0.6,6.7-3.2,7.6-7.2c0.5-2.1,0.5-4.2,0.5-6.4
				C168.3,271,168.3,268.5,168.3,266z"/>
		</g>
		<g>
			<path class="st0" d="M160.3,266c0,7.5-6,13.5-13.5,13.5c-7.4,0-13.4-6-13.4-13.5c0-7.4,6-13.4,13.6-13.4
				C154.3,252.6,160.3,258.6,160.3,266z M146.9,257.3c-4.8,0-8.7,3.9-8.7,8.6c0,4.8,3.9,8.8,8.6,8.8c4.9,0,8.8-3.8,8.8-8.6
				C155.6,261.2,151.6,257.3,146.9,257.3z"/>
		</g>
		<g>
			<path class="st0" d="M164,252.1c0,1.8-1.4,3.1-3.1,3.1c-1.7,0-3.1-1.4-3.1-3.1c0-1.7,1.4-3.2,3.1-3.2
				C162.6,248.9,163.9,250.2,164,252.1z"/>
		</g>
	</g>
	<g>
		<path class="st0" d="M369.3,240c0-3,0-5.9,0-8.9c0-0.4,0.1-0.5,0.5-0.5c1.8,0,3.5,0,5.3,0c0.4,0,0.5-0.1,0.6-0.5
			c0.3-2.2,0.7-4.4,1-6.7c0.1-0.7,0.1-0.7-0.5-0.7c-2.1,0-4.2,0-6.3,0c-0.4,0-0.5-0.1-0.5-0.5c0-1.5,0-3,0-4.5
			c0-0.9,0.1-1.7,0.6-2.5c0.7-1.2,1.8-1.7,3.2-1.8c1.2-0.1,2.3,0,3.5,0c0.4,0,0.6-0.1,0.6-0.5c0-1.9,0-3.8,0-5.6
			c0-0.2,0.1-0.5-0.3-0.5c-2.7-0.4-5.4-0.8-8.1-0.3c-4.4,0.8-7.2,3.7-7.7,8.2c-0.3,2.3-0.1,4.6-0.1,6.9c0,1.1,0,1.1-1.2,1.1
			c-1.7,0-3.5,0-5.2,0c-0.4,0-0.5,0.1-0.5,0.5c0,2.3,0,4.6,0,6.9c0,0.4,0.1,0.5,0.5,0.5c1.9,0,3.9,0,5.8,0c0.4,0,0.5,0.1,0.5,0.5
			c0,5.9,0,11.9,0,17.8c0,0.6-0.3,0.5-0.6,0.4c-5.3-1-10-3.4-13.9-7.2c-4.5-4.3-7.1-9.6-8-15.8c-1.5-10.9,4-21.9,13.7-27.2
			c11.4-6.2,25.4-3.5,33.7,6.5c3.7,4.5,5.8,9.7,6.1,15.6c0.7,13-7.8,24.4-20.3,27.6c-0.6,0.2-1.3,0.2-1.9,0.4
			c-0.4,0.1-0.4-0.1-0.4-0.4C369.3,246,369.3,243,369.3,240z"/>
	</g>
	<g>
		<path class="st0" d="M213.4,121.5c-0.2,0-0.4,0-0.6,0c-1.6-0.1-3.2-0.5-4.7-1.2c-2.1-0.9-3.9-2.1-5.4-3.8c-1.8-2-3.1-4.4-3.7-7
			c-0.3-1.1-0.4-2.3-0.3-3.5c0-0.6,0-1.2,0.1-1.7c0.1-1.1,0.4-2.2,0.7-3.3c0.9-2.7,2.5-5,4.7-6.8c1.8-1.5,3.9-2.6,6.2-3.2
			c1.4-0.3,2.7-0.5,4.1-0.4c0.7,0,1.3,0.1,2,0.2c0.1,0,0.1,0.1,0.1,0.1c0,1.1,0,2.2,0,3.3c0,1.9,0,3.7-0.1,5.6c0,0,0,0.1,0,0.1
			c-0.1,0-0.1,0-0.2,0c-1.5-0.4-3-0.5-4.5,0c-1.7,0.6-3,1.7-3.9,3.4c-0.3,0.6-0.6,1.2-0.7,1.9c-0.1,0.4-0.1,0.8-0.1,1.2
			c0,0.4,0,0.7,0,1.1c0,0.6,0.2,1.1,0.4,1.7c0.8,1.9,2.2,3.3,4.2,4c0.8,0.3,1.6,0.4,2.5,0.4c0.7,0,1.5-0.1,2.2-0.4
			c1.6-0.6,2.9-1.6,3.7-3.1c0.3-0.5,0.5-0.9,0.7-1.5c0.1-0.4,0.1-0.7,0.1-1.1c0.1-2.2,0.1-4.3,0.1-6.5c0-8.5,0-17,0-25.5
			c0-1,0-2.1,0-3.1c0,0,0-0.1,0-0.2c0.2,0,0.3,0,0.5,0c1.2,0,2.3,0,3.5,0c0.5,0,0.9,0,1.4,0c0,0,0.1,0,0.1,0c0.9,0,1.8,0,2.6,0
			c0,0.1,0,0.2,0,0.3c0.1,1.6,0.4,3.1,1,4.5c1.1,2.7,3,4.6,5.6,5.9c1.6,0.8,3.3,1.2,5,1.5c0.2,0,0.5,0.1,0.7,0.1c0,2.8,0,5.5,0,8.3
			c-2.1-0.1-4.2-0.4-6.3-1.1c-2-0.7-3.9-1.6-5.7-2.9c0,0.1,0,0.1,0,0.2c0,5.7,0,11.5,0,17.2c0,1.3-0.2,2.6-0.5,3.8
			c-1,3.6-2.9,6.5-6,8.6c-2.5,1.8-5.4,2.8-8.5,2.9c-0.1,0-0.2,0-0.3,0C214,121.5,213.7,121.5,213.4,121.5z"/>
	</g>
	<g>
		
			<rect x="71.3" y="2.4" transform="matrix(0.9456 -0.3253 0.3253 0.9456 -4.2361 24.8284)" class="st0" width="1.7" height="45.4"/>
	</g>
</g>
</svg>
