<?xml version="1.0" encoding="utf-8"?>
<!-- Generator: Adobe Illustrator 23.0.0, SVG Export Plug-In . SVG Version: 6.00 Build 0)  -->
<svg version="1.1" id="Capa_1" xmlns="http://www.w3.org/2000/svg" xmlns:xlink="http://www.w3.org/1999/xlink" x="0px" y="0px"
	 viewBox="0 0 457.5 443" style="enable-background:new 0 0 457.5 443;" xml:space="preserve">
<style type="text/css">
	.st0{fill:#FFFFFF;}
	.st1{fill:none;stroke:#263238;stroke-linecap:round;stroke-linejoin:round;}
	.st2{fill:none;stroke:#263238;stroke-miterlimit:10;}
	.st3{fill:#263238;}
	.st4{fill:#15B54A;stroke:#263238;stroke-linecap:round;stroke-linejoin:round;}
	.st5{fill:none;stroke:#FFFFFF;stroke-linecap:round;stroke-linejoin:round;}
	.st6{fill:#3592F1;stroke:#263238;stroke-linecap:round;stroke-linejoin:round;}
	.st7{opacity:0.2;fill-opacity:0.7;stroke:#263238;stroke-miterlimit:10;enable-background:new    ;}
	.st8{fill:#BFBFBF;}
	.st9{clip-path:url(#SVGID_2_);}
	.st10{opacity:0.3;fill-opacity:0.7;enable-background:new    ;}
	.st11{fill:#FFFFFF;stroke:#263238;stroke-linecap:round;stroke-linejoin:round;}
	.st12{fill:#3592F1;}
	.st13{clip-path:url(#SVGID_4_);}
	.st14{opacity:0.2;fill-opacity:0.7;enable-background:new    ;}
	.st15{fill:#757575;stroke:#263238;stroke-linecap:round;stroke-linejoin:round;}
	.st16{opacity:0.3;}
	.st17{opacity:0.2;}
</style>
<g id="freepik--background-simple--inject-74">
	<path class="st0" d="M378.2,56.7l-0.6-0.5C326,9.8,257.5,7.7,207.6,57.7c-26,26.1-72.2,21.1-105.2,30.5
		c-113.8,32.4-94.1,187-37.9,261.7c50.8,67.4,160.8,82.7,234.7,49.5c65-29.1,110.7-94.3,127-162.4c1.6-6.8,3-13.7,4-20.7
		C438.8,158.3,422.4,96.8,378.2,56.7z"/>
	<path class="st0" d="M378.2,56.7l-0.6-0.5C326,9.8,257.5,7.7,207.6,57.7c-26,26.1-72.2,21.1-105.2,30.5
		c-113.8,32.4-94.1,187-37.9,261.7c50.8,67.4,160.8,82.7,234.7,49.5c65-29.1,110.7-94.3,127-162.4c1.6-6.8,3-13.7,4-20.7
		C438.8,158.3,422.4,96.8,378.2,56.7z"/>
</g>
<g id="freepik--Clouds--inject-74">
	<path class="st1" d="M43.5,122.6c0,0,3.1-10.8,24.1-10.9s33.3,18.9,33.3,18.9s8.8-8.3,19.4-2.7c10.6,5.5,10.6,13.6,10.6,13.6
		l87.3,7H28.3"/>
	<path class="st1" d="M440.3,194.3c0,0-3.1-10.8-24.1-10.9s-33.3,18.9-33.3,18.9s-8.8-8.3-19.4-2.8s-10.6,8.6-10.6,8.6h-27.3"/>
	<path class="st1" d="M11.3,189.1c0,0,3.1-10.8,24.1-10.9s33.3,18.9,33.3,18.9s8.8-8.3,19.4-2.8s10.6,8.6,10.6,8.6H126"/>
	<path class="st1" d="M22.6,272.4l29.6-2c0,0-4.2-8,5.3-17.5s19.2-3.2,19.2-3.2s9.3-28.9,36.5-25.5s30.1,27.1,30.1,27.1
		s5.8-5.8,17.6-2s13.6,18.5,10.7,24.7c0,0,13.5,2.4,14.4,12.8c0,0,0.8-9.2,13.5-9.5s15.9,14,15.9,14h14.3"/>
	<path class="st1" d="M411.7,92.2l-41.3-5.1c0,0-1.2-11.8-13.9-11.2c0,0-2.8-11.5-16.5-14.9c-13.7-3.5-20.8,10.9-20.8,10.9
		c-4.9-1.2-10-0.4-14.3,2.2c-6.5,4.1-3.9,12-3.9,12l-72,7.2c0,0,105.8,2.4,173,0.2"/>
	<path class="st1" d="M370.5,249.8l-71.1-3.2c-7.8-23.7-37.4-13.8-37.4-13.8c-11.2-24.5-37.3-12.8-37.3-12.8s-13.3-23.6-39.5-18.7
		s-31.6,25.9-31.6,25.9l-18.1,0.7"/>
	<line class="st1" x1="83.3" y1="231.2" x2="13.2" y2="233"/>
</g>
<g id="freepik--Stone--inject-74">
	<path class="st2" d="M400.6,302.8c-3.6,6.5-7.6,12.9-11.8,19.1c-1.9,2.8-3.9,5.6-5.9,8.3l0,0c-3.6,4.8-7.3,9.5-11.3,14.1
		c-1.2,1.5-2.5,2.9-3.8,4.4c-3,3.3-6,6.5-9.2,9.6l-1.8,1.7c-16.8,16.4-36.3,29.7-57.6,39.4c-39.5,17.7-89.3,21.6-134.9,11.1
		c-2.7-0.6-5.3-1.3-8-2c-1.9-0.5-3.9-1.1-5.8-1.7c-2.1-0.6-4.1-1.3-6.2-2c-1-0.3-2-0.7-3-1c-4.4-1.6-8.8-3.3-13.1-5.1l-1.4-0.6
		c-14.5-6.4-28-14.8-40.2-24.9"/>
	<path class="st3" d="M366.5,267.6c0,0,16.4,5.5,14,18C380.4,285.6,361.5,289.1,366.5,267.6z"/>
	<path class="st4" d="M398.8,279c0,0,12.5-10.3,26,0C424.7,279,411.7,291.9,398.8,279z"/>
	<path class="st4" d="M432,245c0,0-3.5,25-23.9,12.7C408.1,257.7,419.6,241.6,432,245z"/>
	<path class="st4" d="M408.2,224.6c0,0,15.1,13.9-1.4,24.9C406.9,249.5,397.2,236.2,408.2,224.6z"/>
	<path class="st4" d="M381.3,240.9c0,0,19.5,2.9,15,20.5C396.3,261.4,377.1,257.3,381.3,240.9z"/>
	<path class="st1" d="M381.4,305.2c0,0-3.3-12.8,9.7-29.2s19.8-31.3,18.2-43.4"/>
	<path class="st1" d="M386.3,247.2c0,0,10.3,7.4,11.2,20.1"/>
	<path class="st1" d="M423.5,253.2c0,0-8.9,7.3-19.8,3.5"/>
	<path class="st1" d="M416.8,279.8c0,0-19.6,0.6-26.4-2.9"/>
	<path class="st1" d="M370.5,274.5c0,0,5.5,10.6,13.8,12.5"/>
	<path class="st4" d="M408.4,244.6c1-3.9,1.3-8,0.9-12.1"/>
	<path class="st4" d="M386.3,247.2c4,3.1,7.1,7.1,9.1,11.7"/>
	<path class="st4" d="M423.5,253.2c-3.1,2.4-6.9,3.9-10.8,4.4"/>
	<path class="st4" d="M416.8,279.8c-4.8,0.1-9.6,0-14.4-0.4"/>
	<path class="st5" d="M370.5,274.5c1.9,3.4,4.3,6.4,7.1,9"/>
	<path class="st4" d="M114,336.8c0,0-15.4,7.9-11.1,19.9C102.9,356.7,122.1,357.3,114,336.8z"/>
	<path class="st4" d="M83.8,352.9c0,0-13.9-8.2-25.7,4C58.1,356.9,73,367.7,83.8,352.9z"/>
	<path class="st4" d="M45.9,324.3c0,0,7.2,24.2,25.5,9C71.4,333.2,57.5,319.1,45.9,324.3z"/>
	<path class="st4" d="M66.2,300.6c0,0-12.8,16,5.1,24.4C71.3,325,78.9,310.4,66.2,300.6z"/>
	<path class="st4" d="M95.4,312.6c0,0-18.8,5.8-11.8,22.5C83.6,335.1,102,328.2,95.4,312.6z"/>
	<path class="st1" d="M105.1,377.8c0,0,1.2-14.7-14.1-29s-24.3-28-24.5-40.2"/>
	<path class="st1" d="M91.3,319.6c0,0-9,8.9-8,21.6"/>
	<path class="st1" d="M55.5,331.1c0,0,9.8,5.9,20.1,0.5"/>
	<path class="st1" d="M66.1,356.4c0,0,19.4-2.3,25.6-6.8"/>
	<path class="st1" d="M111.1,344.2c0,0-3.8,11.6-11.6,14.8"/>
	<path class="st4" d="M69.1,320.4c-1.6-3.7-2.5-7.7-2.7-11.8"/>
	<path class="st4" d="M91.3,319.6c-3.5,3.6-5.9,8.1-7.2,13"/>
	<path class="st4" d="M55.5,331.1c3.5,1.9,7.4,2.9,11.3,2.8"/>
	<path class="st4" d="M66.1,356.4c4.8-0.6,9.5-1.4,14.2-2.5"/>
	<path class="st4" d="M111.1,344.2c-1.3,3.6-3.3,7-5.7,10"/>
	<path class="st6" d="M336.6,334.9c12.2,6.1,17.9,18.2,20.3,25.1l1.8-1.7c3.1-3.1,6.2-6.3,9.2-9.6c1.3-1.4,2.6-2.9,3.8-4.4
		c0.6-2.3,1.2-4.8,2-7.3c0.6-2.2,1.4-4.4,2.1-6.7c0.8-2.5,1.7-5,2.7-7.5c0.9-2.1,1.8-4.3,2.7-6.4s1.9-4.2,2.5-6.1
		c2.8-7.8,2.6-12.7,1.1-15.2c-1.7-2.8-5-2.6-7.5,0c-0.6,0.6-1.1,1.2-1.5,1.9l0,0c-2.2,3.5-3.9,7.2-5.4,11.1c-2.6,6.6-4.5,13-4.5,13
		s3-21.6,2.1-33.1c-0.6-8.1-1.5-15.4-3-20.5c-1.7-5.6-4.3-8.7-8.4-7.7c-5.7,1.4-2.9,15-1.1,33.4c0.6,6.4,1.1,13.4,1.1,20.6
		c0,5.1-0.3,10.1-0.8,15.1c0,0-0.3-0.5-0.8-1.4c-2.7-4.7-11.3-20.3-14.6-33.8c-3.9-16.2-14.7-9.4-11.2,5.1s17.7,22.8,23,38.5
		c0,0-18.2-17.5-24.3-10.8C324.6,330.2,333,333.1,336.6,334.9z"/>
	<path class="st7" d="M336.6,334.9c12.2,6.1,17.9,18.2,20.3,25.1l1.8-1.7c3.1-3.1,6.2-6.3,9.2-9.6c1.3-1.4,2.6-2.9,3.8-4.4
		c0.6-2.3,1.2-4.8,2-7.3c0.6-2.2,1.4-4.4,2.1-6.7c0.8-2.5,1.7-5,2.7-7.5c0.9-2.1,1.8-4.3,2.7-6.4s1.9-4.2,2.5-6.1
		c2.8-7.8,2.6-12.7,1.1-15.2c-1.7-2.8-5-2.6-7.5,0c-0.6,0.6-1.1,1.2-1.5,1.9l0,0c-2.2,3.5-3.9,7.2-5.4,11.1c-2.6,6.6-4.5,13-4.5,13
		s3-21.6,2.1-33.1c-0.6-8.1-1.5-15.4-3-20.5c-1.7-5.6-4.3-8.7-8.4-7.7c-5.7,1.4-2.9,15-1.1,33.4c0.6,6.4,1.1,13.4,1.1,20.6
		c0,5.1-0.3,10.1-0.8,15.1c0,0-0.3-0.5-0.8-1.4c-2.7-4.7-11.3-20.3-14.6-33.8c-3.9-16.2-14.7-9.4-11.2,5.1s17.7,22.8,23,38.5
		c0,0-18.2-17.5-24.3-10.8C324.6,330.2,333,333.1,336.6,334.9z"/>
	<path class="st6" d="M349.7,309.2c2.4,5.9,4.2,12,5.3,18.3c1.8,10,2.5,20.3,2,30.5l1.6,0.3c3.1-3.1,6.2-6.3,9.2-9.6
		c1.3-1.4,2.6-2.9,3.8-4.4c3.9-4.5,7.7-9.2,11.3-14.1l0,0c2-2.7,4-5.5,5.9-8.3c-4.9,2.1-10.1,6-13,8.4c-1.4,1.1-2.2,1.9-2.2,1.9
		c1.3-3.3,3-6.4,5-9.3c6.8-10,16.3-17.1,19.4-28.3c4-14.3-6.6-21.5-11-5.5c-0.6,2-1.2,4-2,6.1c-5.3,14.3-14.7,28.6-14.7,28.6
		c2.6-8.7,4.5-17.6,5.7-26.7l0,0c3-21.4,2.4-42.3-4-42.5c-4.9-0.1-6.7,4.5-6.7,12.9c0,4.9,0.3,9.8,0.9,14.6
		c1.8,17.7-3.3,43.1-3.3,43.1s-2.8-23.5-7.2-32.1c-0.4-0.8-0.8-1.5-1.4-2.1C349.1,285.4,340.4,287,349.7,309.2z"/>
	<path class="st1" d="M354.7,308.2c7.9,18.7,7.9,45.8,7.9,45.8s11.8-53.6,9.5-76.4"/>
	<path class="st1" d="M390.5,298.1c0,0-12.5,25.3-23.8,34.9"/>
	<path class="st1" d="M364.1,346.4c1.8-2.8,5.5-6.2,9.5-9.4c3.1-2.5,6.4-4.9,9.3-6.8l0,0"/>
	<path class="st6" d="M119.2,389.9L119.2,389.9c1.3,1.4,2.9,3,4.7,4.6c1.5,1.4,3,2.8,4.4,4.2c4.3,1.9,8.6,3.6,13.1,5.1
		c1,0.4,2,0.7,3,1c2,0.7,4.1,1.3,6.2,2c1.9,0.6,3.8,1.1,5.8,1.7c2.6,0.7,5.3,1.4,8,2c1.2-6.1,3.9-11.8,7.9-16.6
		c2.6-3.1,9.2-9.1,4.6-11.2c-8.2-3.7-18,19.5-18,19.5c-1.3-16.5,8.5-29.8,6-44.4s-15.1-16.6-12.3-0.3c2.3,13.7,0.5,31.4-0.1,36.8
		c-0.1,1-0.2,1.6-0.2,1.6c-2.5-4.4-4.7-8.9-6.7-13.6l0,0c-2.9-6.7-5.1-13.3-7.1-19.4c-5.6-17.6-8.4-31.2-14.2-30.2
		c-4.1,0.7-5.3,4.5-4.7,10.4c0.6,5.4,2.6,12.4,5.3,20c3.7,10.8,14.6,29,15,29.6c-0.3-0.3-4.4-5.3-9.2-10.2c-2.8-3-5.9-5.7-9.3-8.1
		l0,0c-0.7-0.4-1.4-0.8-2.1-1.1c-3.4-1.4-6.5-0.3-6.9,3C111.8,379.2,113.6,383.8,119.2,389.9z"/>
	<path class="st7" d="M119.2,389.9L119.2,389.9c1.3,1.4,2.9,3,4.7,4.6c1.5,1.4,3,2.8,4.4,4.2c4.3,1.9,8.6,3.6,13.1,5.1
		c1,0.4,2,0.7,3,1c2,0.7,4.1,1.3,6.2,2c1.9,0.6,3.8,1.1,5.8,1.7c2.6,0.7,5.3,1.4,8,2c1.2-6.1,3.9-11.8,7.9-16.6
		c2.6-3.1,9.2-9.1,4.6-11.2c-8.2-3.7-18,19.5-18,19.5c-1.3-16.5,8.5-29.8,6-44.4s-15.1-16.6-12.3-0.3c2.3,13.7,0.5,31.4-0.1,36.8
		c-0.1,1-0.2,1.6-0.2,1.6c-2.5-4.4-4.7-8.9-6.7-13.6l0,0c-2.9-6.7-5.1-13.3-7.1-19.4c-5.6-17.6-8.4-31.2-14.2-30.2
		c-4.1,0.7-5.3,4.5-4.7,10.4c0.6,5.4,2.6,12.4,5.3,20c3.7,10.8,14.6,29,15,29.6c-0.3-0.3-4.4-5.3-9.2-10.2c-2.8-3-5.9-5.7-9.3-8.1
		l0,0c-0.7-0.4-1.4-0.8-2.1-1.1c-3.4-1.4-6.5-0.3-6.9,3C111.8,379.2,113.6,383.8,119.2,389.9z"/>
	<path class="st6" d="M100,380.9c6.8,8.5,17.3,11.5,27,17.1l1.4,0.6c4.3,1.9,8.6,3.6,13.1,5.1c1,0.4,2,0.7,3,1c2,0.7,4.1,1.3,6.2,2
		c1.9,0.6,3.9,1.1,5.8,1.7c-1.6-4.6-2.9-9.4-4-14.2c-1.4-6.2-2.2-12.6-2.3-18.9c-0.2-24.1-8.8-22.1-11.3-14.9
		c-0.2,0.8-0.4,1.7-0.4,2.5c-0.6,9.4,5.8,31.6,6,32.3c-0.4-0.6-14.7-21.7-20-38.4c-1.4-4.7-3.1-9.3-5-13.8
		c-3.4-7.7-6.8-11.2-11.3-9.2c-5.9,2.6,1.9,22.1,13,40.6l0,0c4.6,7.8,9.9,15.3,15.7,22.3c-0.4-0.3-14.4-9.6-24.7-20.5
		c-1.5-1.6-2.9-3.2-4.2-4.8C97.6,358.6,90.7,369.3,100,380.9z"/>
	<path class="st1" d="M144.4,404.9c-0.2-0.3-0.4-0.6-0.6-0.9c-4.2-6.4-9-13.9-13.4-21.4c-5.9-10-11.1-20-13.4-27.4"/>
	<path class="st1" d="M145.1,376.4c0,2,0.1,4,0.3,6l0,0c0.9,8.3,2.6,16.5,5.2,24.4"/>
	<path class="st1" d="M108.3,381.3c0,0,21.5,18.3,35.6,22.7"/>
	<path class="st8" d="M141.4,403.8c51.2,18.1,111.6,16.3,157.8-4.5c26.2-11.8,49.3-29.4,68.6-50.7l-17.2-17.7h-19l-8.4-26.9
		c0,0-133.8-1.9-146-1.2s-21.3,18-21.3,18l14.8,23.5l-19.6,29.1L141.4,403.8z"/>
	<g>
		<g>
			<g>
				<g>
					<defs>
						<path id="SVGID_1_" d="M141.4,403.8c51.2,18.1,111.6,16.3,157.8-4.5c26.2-11.8,49.3-29.4,68.6-50.7l-17.2-17.7h-19l-8.4-26.9
							c0,0-133.8-1.9-146-1.2s-21.3,18-21.3,18l14.8,23.5l-19.6,29.1L141.4,403.8z"/>
					</defs>
					<clipPath id="SVGID_2_">
						<use xlink:href="#SVGID_1_"  style="overflow:visible;"/>
					</clipPath>
					<g class="st9">
						<path class="st10" d="M191.1,314.5c18.4,2.8,47.6-4.7,47.6-4.7c15.9,4.3,32.4,5.9,48.8,4.7c17.9-1.3,26.1-6.9,29.6-10.6
							c-26.6-0.4-129.1-1.7-139.7-1.1c-1,0.1-2,0.2-3,0.5l8.5,2.6C182.8,305.9,172.7,311.7,191.1,314.5z"/>
						<path class="st10" d="M331.7,330.9c0,0-32.4,16.3-33.2,15.4s-21.6-7.7-21.6-7.7l-13.2,4.1l13.2-16.8l35.3-1.1l11.2-21
							L331.7,330.9z"/>
						<polygon class="st10" points="150.4,375.7 170.7,388.2 211.3,375 170.7,344.4 151.1,373.5 						"/>
						<path class="st10" d="M179.3,413.4c41.3,6.6,84.7,1.8,120-14c26.2-11.8,49.3-29.4,68.6-50.7l-17.2-17.8l-16.6,36h-49.5
							l-33.8,29.4l-45.9,2.1L179.3,413.4z"/>
						<polyline class="st1" points="248.1,346.7 226,350.2 205.5,341.2 201.3,326.1 172.7,323.1 155.9,320.8 						"/>
						<polyline class="st1" points="276.9,326.1 312.1,325 323.3,304 						"/>
						<polyline class="st1" points="284.6,367 250.8,396.3 226.5,388.2 229.1,371.3 218.3,371.6 						"/>
						<polyline class="st1" points="150,375.4 170.7,388.2 172.7,398.4 						"/>
					</g>
				</g>
			</g>
		</g>
	</g>
	<path class="st2" d="M141.4,403.8c51.2,18.1,111.6,16.3,157.8-4.5c26.2-11.8,49.3-29.4,68.6-50.7l-17.2-17.7h-19l-8.4-26.9
		c0,0-133.8-1.9-146-1.2s-21.3,18-21.3,18l14.8,23.5l-19.6,29.1L141.4,403.8z"/>
</g>
<g id="freepik--Character--inject-74">
	<path class="st4" d="M318.3,269.8c2.5,23.2-4.2,34.3-17.1,39.3c-14,5.4-34.5,3.9-50.8-0.6c-3-0.8-54.8-19.5-62.9-33.2
		c-6.8-11.4-7.7-22.5,6.9-23.3c6.9-0.4,68.6,16.2,68.6,16.2l5.8-2.1L318.3,269.8z"/>
	<path class="st11" d="M283.4,159.9c0.5,0.6,0.9,1.3,1.2,2c0.7,2.1,1.1,4.3,1.2,6.5c0.1,2.3,0.1,4.6,0,6.9l16.7-0.6
		c-1.7-8.8,3.8-15.8,3.8-15.8C306.6,131.2,280.2,156.4,283.4,159.9z"/>
	<path class="st12" d="M301.2,170.2c0,0-25.9,1.1-31.9,20c0,0-11.6,6.6-8.1,16.8s6.7,21.5,6.7,21.5s-2.1,14.9-1.3,22.5
		c0,0-4,9.8-2,11.9c0,0-4.4,3.5-4,4.5c3,7.4,48.2,15.5,59.4,7.3c3.4-2.5-13.2-44.7-11.6-46.8s8.3-21.2,7.5-24.4
		c0,0,7.5,2.3,7.5-13.3S312.4,168.1,301.2,170.2z"/>
	<g>
		<g>
			<g>
				<g>
					<defs>
						<path id="SVGID_3_" d="M301.2,170.2c0,0-25.9,1.1-31.9,20c0,0-11.6,6.6-8.1,16.8s6.7,21.5,6.7,21.5s-2.1,14.9-1.3,22.5
							c0,0-4,9.8-2,11.9c0,0-4.4,3.5-4,4.5c3,7.4,48.2,15.5,59.4,7.3c3.4-2.5-13.2-44.7-11.6-46.8s8.3-21.2,7.5-24.4
							c0,0,7.5,2.3,7.5-13.3S312.4,168.1,301.2,170.2z"/>
					</defs>
					<clipPath id="SVGID_4_">
						<use xlink:href="#SVGID_3_"  style="overflow:visible;"/>
					</clipPath>
					<g class="st13">
						<path class="st14" d="M323.3,190.2c0,15.6-7.5,13.3-7.5,13.3c0.2,0.9-0.1,3-0.8,5.6c-0.4-0.2-0.8-0.5-1.2-0.8
							c-10.4-7.4-8.1-28.6-31.7-27.7c0,0,8.6-6.2,16.4-4s14.5,9.9,16.8,9.8s-1.3-3.4-1.6-5.1c-0.2-1.3,4.7,1.6,8.7,2.3l0,0
							C323.1,185.7,323.3,188,323.3,190.2z"/>
						<path class="st14" d="M292.9,220.9c0,0-2.3,26.9-27.6,33.6c0.6-1.9,1.2-3.4,1.2-3.4c-0.8-7.6,1.3-22.5,1.3-22.5
							s-3.1-11.2-6.7-21.5c-0.1-0.2-0.1-0.3-0.2-0.5c3.5-0.9,6.5-3,8.6-5.9C275.1,193.4,292.9,220.9,292.9,220.9z"/>
						<path class="st14" d="M282.1,269.5c-6.8,0.8-13.7,0.7-20.4-0.6l0,0c-0.5-0.4-0.9-0.9-1.1-1.5c-0.4-0.9,3.4-4,4-4.4
							C269.3,265.2,277.3,268.7,282.1,269.5z"/>
					</g>
				</g>
			</g>
		</g>
	</g>
	<path class="st1" d="M301.2,170.2c0,0-25.9,1.1-31.9,20c0,0-11.6,6.6-8.1,16.8s6.7,21.5,6.7,21.5s-2.1,14.9-1.3,22.5
		c0,0-4,9.8-2,11.9c0,0-4.4,3.5-4,4.5c3,7.4,48.2,15.5,59.4,7.3c3.4-2.5-13.2-44.7-11.6-46.8s8.3-21.2,7.5-24.4
		c0,0,7.5,2.3,7.5-13.3S312.4,168.1,301.2,170.2z"/>
	<path class="st1" d="M315.8,203.5c-5.1-1.7-5-18.9-14.6-23.1s-22.6,0.3-26.2,4.5"/>
	<path class="st11" d="M202.8,247.4l-15.4,2.1l-4.8,4l-1.7,6.1c0,0,2.2-0.7,3.8-4.4c0,0,1.9-1.2,3.8-2.5c2.8,1,5.8,1.4,8.8,1.3
		c3.4,0,4.3,3.7,8.7,2.5C213.9,254.4,202.8,247.4,202.8,247.4z"/>
	<path class="st6" d="M288.6,186.8c-11.7-4.2-24.1,24-36,39.5c-1.7,2.2-34.8,14.2-45.9,18.2l-7.1,2.1c0,0,4.2,9.8,10.3,12.9l5.5-1.6
		c0,0,50.9-10.1,56.8-13.9c3-2,29-28.3,29-36.4"/>
	<path class="st15" d="M231,304.4c3.1-9.3-7.7-13-13.3-11.7s-13.2-1.2-19-0.3s-11.9,1.1-10.3,10.4S227.7,314.4,231,304.4z"/>
	<path class="st1" d="M210.5,294.1l-0.7,2c0,0-6.9-2.1-11.1-1s-6.2,0.9-6.7,2.6s-1.5,5.1,0,5.7s13.6,4,16.2,3.7l1.1,2.8"/>
	<line class="st1" x1="204.3" y1="306.6" x2="204.3" y2="308.8"/>
	<line class="st1" x1="199.4" y1="305.4" x2="198.7" y2="307.7"/>
	<line class="st1" x1="194.1" y1="304" x2="193.1" y2="306.5"/>
	<line class="st1" x1="191.2" y1="301.6" x2="189.2" y2="302"/>
	<line class="st1" x1="192" y1="297.7" x2="190.2" y2="296.6"/>
	<line class="st1" x1="194.9" y1="295.9" x2="194.1" y2="294.1"/>
	<line class="st1" x1="200" y1="294.1" x2="200" y2="293.1"/>
	<line class="st1" x1="204.9" y1="295" x2="205.5" y2="293.1"/>
	<path class="st1" d="M217.7,294l0.8,2.6c0,0,3-2.4,6.1-0.7s3.2,4.4,2,7.4s-6.9,3.2-6.9,3.2l-0.8,2.2"/>
	<line class="st1" x1="224" y1="307.7" x2="223.2" y2="305.9"/>
	<line class="st1" x1="229.1" y1="304" x2="226.5" y2="303.3"/>
	<line class="st1" x1="229.1" y1="298" x2="226.9" y2="298.5"/>
	<line class="st1" x1="223.6" y1="294.1" x2="223.2" y2="295.4"/>
	<path class="st1" d="M211.3,298c0,0-2.4,2.9-0.8,7.9"/>
	<path class="st1" d="M217.7,298.5c0,0,1.4,4.5,0,6.8"/>
	<path class="st1" d="M216.5,296.6c-1.3,0.2-2.7-0.1-3.8-0.7"/>
	<path class="st1" d="M217,308.8c-1.4-0.5-2.9-0.5-4.4,0"/>
	<path class="st1" d="M205.5,297.7c-0.2,2.1-0.3,4.2-0.3,6.3"/>
	<path class="st1" d="M200,297.1c-0.4,1.9-0.6,3.8-0.6,5.7"/>
	<path class="st1" d="M194.9,297.7c0,0-0.6,3-0.8,4.1"/>
	<path class="st1" d="M222.4,298c0,0-0.1,2.6,0,5.4"/>
	<g class="st16">
		<path class="st1" d="M280.3,278.1c0,0-5,2.1-4.2,4.2s2.1,4.9,2.1,4.9s-12.4,5.4-17.7,5c-5.2-0.3-23.4-7.1-23.4-7.1v-8.5l-5.5-3.4
			c0,0-3.3,11.3-2.9,15.8l5.1,4l2.1-5.1"/>
		<path class="st1" d="M288.7,279.4c0,0-6.9,9.7-8.4,10.7s-14.2,4.7-18.7,4.6s-22.9-6-22.9-6"/>
		<path class="st1" d="M229.1,274.1c0-0.6-10.8-3.8-10.8-3.8c0,3.7-0.4,7.3-1.3,10.9l-1.5,5.9c0,0,10.2,5.1,13.6,5.1"/>
		<path class="st1" d="M214.6,276.5c0,0-25.1-10.7-26.4-11.3c-1.1-0.3-2.3-0.3-3.5,0"/>
		<path class="st1" d="M217,281.2c0,0-12.8-4.7-17.3-8s-14.1-5.5-14.1-5.5"/>
		<path class="st1" d="M303.7,286.1c0,0,7.5,0.2,10.3-1l1.8,7.1c0,0-5.1,2.4-7.7,1.8s-4.4-4.4-4.4-4.4"/>
		<path class="st1" d="M302.1,291.3c0,0-4.1,9.6-9.1,11.5c0,0,5.1,3.2,13.1,1.2c0,0,6.8-5.6,7.7-11"/>
	</g>
	<path class="st3" d="M284.6,161.9c0.7,2.1,1.1,4.3,1.2,6.5c5.5-3.4,4.4-6.5,4.4-6.5H284.6z"/>
	<path class="st11" d="M305.3,159.6c20.5-23.3,5.2-35.8-7.1-36.8c-27.5-2.1-18.5,20.7-20.1,22.1c-2.6,2.2-5.1,3-5.2,4.1
		c-0.1,1.7,2.7,3.9,2.7,3.9l-1,3.7l0.9,0.4c0,0,0.3,9.8,2.8,9.8c7.4,0,11.8-2.4,12.8-4.7"/>
	<path class="st1" d="M279.8,136.2c2.1,0.2,4,1.6,4.6,3.7"/>
	<path class="st3" d="M280.1,144.2c-0.1,1,0.2,1.8,0.6,1.8s0.8-0.7,0.9-1.7s-0.2-1.8-0.6-1.8S280.2,143.2,280.1,144.2z"/>
	<path class="st1" d="M275.5,157c0,0,2.3,0.2,2.8-0.8"/>
	<path class="st3" d="M287.4,120.6c0,0-6.9,0-10.7,5c-2.2,3-2.5,7-0.8,10.3l1.5-3.1c0,0,2.4,3.9,8.7,3.9l-1-4.6c0,0,2.3,5.1,6.7,6.7
		l-0.6,8.1c0,0,3.1-3.3,6.3-1.4c6,3.7,4,13.5,4,13.5s5.2,3.1,9.9,0.8s17.8-17.9,6.8-32.6S289.1,119.1,287.4,120.6z"/>
	<path class="st11" d="M294.1,145.3c0,0,5.8-5.1,7.6-1.2s-0.6,8-3.5,10.4s-8.4,2.8-6-0.5"/>
	<path class="st3" d="M318,135.4c0,0,5.3-14,18.5-12c9.1,1.4,2.5,5.4,2.5,5.4s9.8,1.6,12.1,9.1c1.2,3.8-6.2,0.5-6.2,0.5
		s3.1,2.8,4,8.9c0.6,4-3.9,3.6-10.8-3.5c0,0,0.8,2.9,5.1,6s-6.8,4.7-12.6-2.7c0.2,1.7-0.5,3.4-1.9,4.6c-2.2,1.8-0.8-5.8-7.6-8.4
		S318,135.4,318,135.4z"/>
	<g class="st17">
		<path class="st5" d="M284.6,123.2c0,0-6.1,2.4-4.7,7.9"/>
		<path class="st5" d="M286.1,124.1c0,0-0.6,7.1,7.1,9.9"/>
		<path class="st5" d="M291.6,122.7c0,0,18.9-4,27,11.4"/>
		<path class="st5" d="M295.4,139.3c0,0,13.7,5,24,0"/>
		<path class="st5" d="M305.7,155c0,0,8.6-3.7,12.9-10.8"/>
		<path class="st5" d="M323.3,134c0,0,9.4-6.4,16.8,1.2"/>
		<path class="st5" d="M325.3,138c0,0,7.9-0.4,8.8,6.3"/>
	</g>
	<path class="st1" d="M264.5,262.9c0,0,17,10.3,37.7,7.4"/>
	<path class="st1" d="M301.2,216.5c0,0-4.7,8.1-10.9,8.8"/>
	<path class="st1" d="M308.3,227.9c0,0-5.5,6.9-9.7,6.6"/>
	<path class="st1" d="M204.9,245c1.4,4.2,4.2,7.9,7.8,10.4"/>
	<path class="st1" d="M252.6,226.3c0,0,7.4,3.9,13.2-1"/>
</g>
</svg>
