<?xml version="1.0" encoding="utf-8"?>
<!-- Generator: Adobe Illustrator 23.0.0, SVG Export Plug-In . SVG Version: 6.00 Build 0)  -->
<svg version="1.1" id="Capa_1" xmlns="http://www.w3.org/2000/svg" xmlns:xlink="http://www.w3.org/1999/xlink" x="0px" y="0px"
	 viewBox="0 0 391 387.9" style="enable-background:new 0 0 391 387.9;" xml:space="preserve">
<style type="text/css">
	.st0{fill:#353535;}
	.st1{fill:#FFFFFF;}
	.st2{fill:#263238;}
	.st3{fill:#15B54A;}
	.st4{fill:#3592F1;}
</style>
<rect x="527.4" y="-93.4" width="692.9" height="646.3"/>
<g>
	<path class="st0" d="M363,64.2c0,0-24.4-47.5-78.4-54.5S193,36.9,153.2,54.5c-20.8,9.2-44.6,5.6-66.6,10.1
		C16,78.8-10.6,168.2,18.8,219c25.5,44,70.3,66.9,138.5,72.1s116.1,11.4,177.2-31.7S391.5,126.6,363,64.2z"/>
	<g id="freepik--Books--inject-272">
		<path d="M348.1,157.2L348.1,157.2c-0.4,0-40.9-0.7-42-0.7s-4.5,0-6.1-1.6s-5-6.4-5.1-6.6c-0.1-0.1-0.1-0.3-0.1-0.4l10.5-43.8
			c0.1-0.3,0.3-0.4,0.6-0.4c0.3,0.1,0.4,0.3,0.4,0.6l0,0l-10.4,43.6c0.7,0.9,3.6,5,4.9,6.3s4.4,1.3,5.4,1.3s36.9,0.6,41.6,0.7
			l8-53.1c0-0.3,0.3-0.5,0.6-0.4c0.3,0,0.5,0.3,0.4,0.6l0,0l-8,53.6C348.6,157,348.4,157.2,348.1,157.2z"/>
		<path d="M314.5,96.4L314.5,96.4l-3.3-0.1c-0.3,0-0.5-0.2-0.5-0.5s0.2-0.5,0.5-0.5l3.3,0.1c0.3,0,0.5,0.2,0.5,0.5
			S314.8,96.4,314.5,96.4L314.5,96.4z"/>
		<path d="M297.5,149.2c-0.3,0-0.5-0.2-0.5-0.5s0.2-0.5,0.5-0.5l43.8-0.1l9.2-51l-31.8-0.6c-0.3,0-0.5-0.2-0.5-0.5s0.2-0.5,0.5-0.5
			l32.4,0.6c0.1,0,0.3,0.1,0.4,0.2s0.1,0.3,0.1,0.4l-9.4,52c0,0.2-0.2,0.4-0.5,0.4L297.5,149.2L297.5,149.2z"/>
		<path d="M346,154.7L346,154.7l-42.4-1.1c-0.1,0-0.3-0.1-0.4-0.2l-3.6-4c-0.2-0.2-0.2-0.5,0-0.7s0.5-0.2,0.7,0l0,0l3.5,3.8
			l41.7,1.1l7.6-45.8l-3.1-4.4c-0.2-0.2-0.1-0.5,0.1-0.7l0,0c0.2-0.2,0.5-0.1,0.7,0.1l0,0l3.3,4.6c0.1,0.1,0.1,0.2,0.1,0.4
			l-7.7,46.4C346.5,154.5,346.2,154.7,346,154.7z"/>
		<path d="M307.4,151.4h6.1c0,0-1,4.9-1.5,9.4s-0.8,10.5-0.8,10.5l-3.6-6.6l-4.4,5.6L307.4,151.4z"/>
		<path d="M49,161.5c-0.2,0-0.4-0.1-0.5-0.3c-0.1-0.3,0-0.5,0.3-0.7l25.9-10.4c0.5-1.5,1-3.1,1.4-4.6c0.1-0.7-0.3-1.8-1.3-3.1
			c-0.4-0.5-12.6-18.4-14.6-21.3l-29.8,15.1c-0.2,0.1-0.5,0-0.7-0.2l0,0c-0.1-0.2,0-0.5,0.2-0.7l0,0L60.1,120c0.2-0.1,0.5,0,0.6,0.2
			c0.2,0.2,14.4,21.1,14.8,21.6c0.7,1,1.7,2.5,1.4,3.8s-1.4,4.9-1.5,5c0,0.1-0.2,0.3-0.3,0.3L49,161.5
			C49.2,161.5,49.1,161.5,49,161.5z"/>
		<path d="M42.8,161.7c-0.2,0-0.3-0.1-0.4-0.2l-1.2-1.7c-0.2-0.2-0.1-0.5,0.1-0.7s0.5-0.1,0.7,0.1l1.2,1.7c0.1,0.2,0.1,0.5-0.1,0.7
			C43,161.7,42.9,161.7,42.8,161.7z"/>
		<path d="M40.2,157.9c-0.2,0-0.3-0.1-0.4-0.2L28.4,141c-0.1-0.1-0.1-0.3-0.1-0.4c0-0.1,0.1-0.3,0.3-0.3l29.9-14
			c0.2-0.1,0.5,0,0.6,0.2l16.1,22.4c0.2,0.2,0.1,0.5-0.1,0.7s-0.5,0.1-0.7-0.1l0,0l-15.8-22.1l-29,13.6l11.1,16.2
			c0.2,0.2,0.1,0.5-0.1,0.7C40.4,157.9,40.3,157.9,40.2,157.9z"/>
		<path d="M74,148.2L74,148.2c-0.4-0.1-0.5-0.3-0.5-0.6l0.7-3.1l-14.4-21.4L34,135.7l-1.1,3.2c-0.1,0.3-0.4,0.4-0.6,0.3
			c-0.3-0.1-0.4-0.4-0.3-0.6l1.1-3.4c0-0.1,0.1-0.2,0.3-0.3L59.8,122c0.2-0.1,0.5,0,0.6,0.2l14.8,22c0.1,0.1,0.1,0.2,0.1,0.4
			l-0.7,3.3C74.4,148.1,74.2,148.2,74,148.2z"/>
		<path d="M72.5,143.1l-2.2-3.1c0,0,2.8-1.2,5.4-2.6s5.6-3.4,5.6-3.4l-2.1,4.2l4.4,0.2L72.5,143.1z"/>
		<path d="M64.6,238.5L64.6,238.5c-0.2,0-0.4-0.1-0.4-0.3l-18.3-35c0-0.1,0-0.3,0-0.4c0-0.1,0.1-0.2,0.3-0.3l2.1-1
			c0.3-0.1,0.5,0,0.7,0.3c0.1,0.2,0,0.5-0.2,0.6l-1.6,0.8l17.7,33.9L95.1,205c0.1-0.1,0.1-0.1,0.2-0.1l36.8-11.4l-18.2-29l-1.3,0.1
			c-0.3,0-0.5-0.2-0.5-0.4l0,0c0-0.3,0.2-0.5,0.5-0.5l1.6-0.1c0.2,0,0.4,0.1,0.5,0.2l18.7,29.8c0.1,0.1,0.1,0.3,0,0.4
			c-0.1,0.1-0.2,0.3-0.3,0.3l-37.3,11.5L65,238.4C64.9,238.5,64.8,238.5,64.6,238.5z"/>
		<path d="M65,233.8L65,233.8c-0.2,0-0.4-0.1-0.4-0.3l-17.5-33.4c-0.1-0.2-0.1-0.5,0.1-0.6c0.1-0.1,8.3-6.8,12.2-16.1
			c3.6-8.6,9.7-12.9,16.5-11.4c0.1,0,0.3,0.1,0.3,0.3l16.3,29.4c0.1,0.2,0,0.5-0.2,0.7c-0.1,0.1-0.2,0.1-0.4,0.1
			c-0.3-0.1-6.7-1.4-8.1,4.8c-1.6,6.6-8.4,15.1-11.7,19.2l-0.4,0.5c-2,2.4-4.1,4.7-6.4,6.8C65.3,233.7,65.2,233.8,65,233.8z
			 M48.2,200l17,32.5c2.1-1.9,4-4,5.8-6.3l0.4-0.5c3.2-4,10-12.4,11.5-18.8c1.3-5.6,6.2-5.8,8.3-5.7l-15.7-28.4
			c-6.1-1.2-11.8,2.9-15.1,10.9C56.8,192.2,49.7,198.6,48.2,200z"/>
		<path d="M92.1,202.3c-0.2,0-0.3-0.1-0.4-0.3l-16.3-29.4c0-0.1,0-0.2,0-0.3c1.2-5.5,7.2-8,19.6-8c10.8,0,15.2-3.4,15.2-3.5
			c0.1-0.1,0.3-0.1,0.4-0.1s0.3,0.1,0.3,0.2l18.3,29.8c0.1,0.2,0.1,0.5-0.1,0.7c-0.1,0-1.3,0.9-8.9,3.2c-5.2,1.7-11,1.4-15.6,1.3
			c-1.8-0.1-3.7-0.1-5.5,0c-4.4,0.4-6.3,6-6.3,6C92.5,202.1,92.4,202.3,92.1,202.3L92.1,202.3z M76.3,172.3L92,200.7
			c0.8-1.8,2.9-5.4,6.8-5.7c1.9-0.1,3.8-0.1,5.7,0c4.6,0.2,10.2,0.4,15.3-1.2c2.8-0.8,5.5-1.8,8.2-2.9L110.3,162
			c-1.4,0.9-6.1,3.4-15.4,3.4C83.2,165.3,77.5,167.5,76.3,172.3z"/>
		<path d="M77.8,221.8c-0.1,0-0.2,0-0.3-0.1c-0.2-0.2-0.3-0.5-0.1-0.7c1.9-2.4,3.5-4.6,4.8-6.5c1.5-2.3,3.2-4.4,5.2-6.3
			c1.7-1.5,3.6-2.7,5.7-3.7c0.2-0.1,0.5,0,0.6,0.3l0,0c0.1,0.3,0,0.5-0.3,0.7c-2,0.9-3.8,2.1-5.4,3.5c-1.9,1.9-3.6,3.9-5,6.2
			c-1.4,1.9-2.9,4-4.8,6.5C78.1,221.8,77.9,221.8,77.8,221.8z"/>
		<path d="M96.5,203.1c-0.1,0-0.2,0-0.3-0.1c-0.2-0.2-0.3-0.5-0.1-0.7c1.9-2.3,4.6-3.8,7.5-4.2l1.8-0.1c7.7-0.4,15.2-2.1,22.3-5
			c0.3-0.1,0.6,0,0.6,0.3c0.1,0.3,0,0.6-0.3,0.6c-7.2,2.9-14.9,4.6-22.6,5.1l-1.8,0.1c-2.7,0.4-5.1,1.7-6.8,3.8
			C96.8,203.1,96.6,203.1,96.5,203.1z"/>
		<path d="M53.5,204.7c-0.3,0-0.5-0.2-0.5-0.5c0-0.1,0-0.3,0.1-0.3c3.4-3.9,6.6-8,9.5-12.3c5.7-8.1,9.8-11.4,14.3-11.4
			c0.3,0,0.5,0.2,0.5,0.5s-0.2,0.5-0.5,0.5c-4.2,0-8.1,3.2-13.5,10.9c-3,4.3-6.2,8.4-9.6,12.4C53.8,204.7,53.6,204.7,53.5,204.7z"/>
		<path d="M56.7,209.9c-0.1,0-0.2,0-0.3-0.1c-0.2-0.2-0.2-0.5,0-0.7l0,0c3.4-3.9,6.6-8,9.5-12.3c5.6-8.1,9.8-11.4,14.3-11.4
			c0.3,0,0.5,0.2,0.5,0.5s-0.2,0.5-0.5,0.5c-4.2,0-8.1,3.2-13.5,10.9c-3,4.3-6.2,8.4-9.6,12.4C57,209.8,56.8,209.9,56.7,209.9z"/>
		<path d="M59.9,215.1c-0.3,0-0.5-0.2-0.5-0.5c0-0.1,0-0.2,0.1-0.3c3.4-3.9,6.6-8,9.5-12.3c5.6-8.1,9.8-11.4,14.3-11.4
			c0.3,0,0.5,0.2,0.5,0.5s-0.2,0.5-0.5,0.5c-4.2,0-8.1,3.2-13.5,10.9c-3,4.3-6.2,8.4-9.6,12.4C60.1,215,60,215.1,59.9,215.1z"/>
		<path d="M63,220.2c-0.1,0-0.2,0-0.3-0.1c-0.2-0.2-0.2-0.5,0-0.7l0,0c3.4-3.9,6.6-8,9.5-12.3c5.6-8.1,9.8-11.4,14.3-11.4
			c0.3,0,0.5,0.2,0.5,0.5s-0.2,0.5-0.5,0.5c-4.2,0-8.1,3.2-13.5,10.9c-3,4.3-6.2,8.4-9.6,12.4C63.3,220.2,63.2,220.3,63,220.2z"/>
		<path d="M82.5,178.9h-0.2c-0.3-0.1-0.4-0.4-0.3-0.6c0-0.1,1.8-4.7,8-4.7c11.6,0,19.2-1.8,20.2-4.8c0.1-0.3,0.4-0.4,0.7-0.3
			s0.4,0.4,0.3,0.7c-1.6,4.8-13.9,5.5-21.2,5.5c-5.5,0-7,3.9-7.1,4.1C82.9,178.8,82.7,178.9,82.5,178.9z"/>
		<path d="M86.1,184.8c-0.1,0-0.2,0-0.3-0.1c-0.2-0.2-0.3-0.5-0.1-0.7c0.1-0.2,3-3.8,10.7-3.8c8.3,0,14.5-1.9,18.4-5.8
			c0.2-0.2,0.5-0.2,0.7,0s0.2,0.5,0,0.7l0,0c-4.1,4.1-10.5,6.2-19.1,6.2c-7.2,0-9.9,3.4-9.9,3.4C86.4,184.8,86.3,184.9,86.1,184.8z"
			/>
		<path d="M88.5,190.8c-0.1,0-0.1,0-0.2-0.1c-0.2-0.1-0.4-0.4-0.2-0.6l0,0c1.9-3.5,5.6-5.6,9.6-5.5c8.4,0,15.7-1.8,19.6-4.7
			c0.2-0.2,0.5-0.1,0.7,0.1l0,0c0.2,0.2,0.1,0.5-0.1,0.7c-5.9,4.4-16.1,4.9-20.2,4.9c-3.6-0.2-7,1.7-8.7,4.9
			C88.9,190.7,88.7,190.8,88.5,190.8z"/>
		<path d="M91.3,195.2L91.3,195.2c-0.4-0.1-0.5-0.4-0.4-0.6c0.1-0.2,1.4-4.3,8.4-4.7c7.3-0.4,14.5-2,21.3-4.7
			c0.2-0.1,0.5-0.1,0.7,0.2c0.1,0.2,0.1,0.5-0.2,0.7H121c-6.9,2.8-14.2,4.4-21.6,4.8c-6.3,0.4-7.5,3.9-7.5,4
			C91.7,195,91.5,195.2,91.3,195.2z"/>
		<path d="M285,78.4L285,78.4c-0.2,0-0.3-0.1-0.4-0.2l-14.1-22.8l-26.9-14.7c-0.1-0.1-0.2-0.2-0.3-0.4c0-0.2,0-0.3,0.2-0.4
			l20.1-18.2c0.1-0.1,0.2-0.1,0.4-0.1c0.1,0,0.3,0.1,0.3,0.2l1,1.2c0.2,0.2,0.1,0.5-0.1,0.7c-0.2,0.1-0.4,0.1-0.6,0l-0.7-0.8
			l-19.2,17.4l26.4,14.4c0.1,0,0.1,0.1,0.2,0.2l13.8,22.3l16-16.9l-0.3-0.8c-0.1-0.3,0-0.5,0.3-0.6s0.5,0,0.6,0.3l0.4,1.1
			c0.1,0.2,0,0.4-0.1,0.5l-16.6,17.6C285.2,78.3,285.1,78.4,285,78.4z"/>
		<path d="M272.7,52.8c-0.1,0-0.1,0-0.2,0c-0.2-0.1-0.3-0.3-0.3-0.4c0-0.2-0.2-4.6-4.4-4.4c-4.7,0.1-11.6-3-14.9-4.4l-0.4-0.2
			c-2-0.9-3.9-1.9-5.7-3.1c-0.1-0.1-0.2-0.2-0.2-0.4s0.1-0.3,0.2-0.4L266,21.9c0.2-0.2,0.5-0.2,0.6,0c3.8,2.7,8.2,4.5,12.8,5.3
			c6.4,0.9,10.4,4.3,10.6,9.1c0,0.1,0,0.3-0.1,0.4l-16.8,16C272.9,52.8,272.8,52.8,272.7,52.8z M267.9,46.8c2.6,0,4.8,1.8,5.1,4.4
			l16-15.1c-0.3-4.2-3.8-7.1-9.7-8c-4.6-0.8-9-2.6-12.9-5.2l-18.5,16.8c1.6,1,3.3,1.9,5,2.7l0.4,0.2c3.2,1.4,10,4.5,14.5,4.4h0.1
			V46.8z"/>
		<path d="M286.1,75.3c-0.1,0-0.2,0-0.3-0.1c-0.1-0.1-0.9-0.8-3.7-5.4c-2-3.2-2.9-7.1-3.6-10.3c-0.2-1.2-0.6-2.5-0.9-3.7
			c-1-2.8-4.9-3.1-5-3.1c-0.2,0-0.4-0.1-0.4-0.3c-0.1-0.2,0-0.4,0.1-0.5L289,36c0.1-0.1,0.2-0.1,0.3-0.1c3.9-0.2,6.7,3.4,8.8,11.8
			c1.9,7.2,4.9,9.4,4.9,9.4c0.1,0.1,0.2,0.2,0.2,0.4c0,0.1,0,0.3-0.1,0.4l-16.7,17.3C286.4,75.2,286.3,75.3,286.1,75.3z M273.7,52
			c1.4,0.3,4,1.2,4.8,3.6c0.4,1.2,0.7,2.5,1,3.8c0.7,3.1,1.5,6.9,3.4,9.9c1,1.7,2.1,3.2,3.2,4.8L302,57.5c-1-0.9-3.3-3.6-4.8-9.6
			c-2-7.5-4.4-11-7.6-11l0,0L273.7,52z"/>
		<path d="M270.7,54.1c-0.2,0-0.3-0.1-0.4-0.2c-0.9-1.1-2-2.2-3.2-3c-1.6-0.9-3.2-1.7-4.9-2.3c-1.5-0.6-3.2-1.2-5.2-2.1
			c-0.3-0.1-0.4-0.4-0.3-0.7c0.1-0.2,0.4-0.4,0.6-0.3l0,0c1.9,0.9,3.6,1.5,5.1,2.1c1.8,0.6,3.5,1.4,5.2,2.4c1.3,0.9,2.5,2,3.5,3.2
			c0.2,0.2,0.1,0.5-0.1,0.7C271,54.1,270.9,54.1,270.7,54.1z"/>
		<path d="M284.4,75.1c-0.2,0-0.3-0.1-0.4-0.2c-3.2-4.3-5.7-9.1-7.3-14.2c-0.1-0.4-0.3-0.8-0.4-1.2c-0.7-1.7-2-3-3.6-3.8
			c-0.3-0.1-0.4-0.4-0.3-0.6s0.4-0.4,0.6-0.3h0.1c1.9,0.9,3.4,2.4,4.2,4.4c0.1,0.4,0.3,0.8,0.4,1.2c1.6,5,4,9.8,7.2,14
			c0.2,0.2,0.1,0.5-0.1,0.7l0,0C284.6,75.1,284.5,75.2,284.4,75.1z"/>
		<path d="M284.1,39.1c-0.2,0-0.4-0.2-0.5-0.4c-0.7-2.7-3.5-4.7-9.5-7c-3.4-1.2-6.7-2.6-9.9-4.2c-0.3-0.1-0.4-0.4-0.3-0.7
			c0.1-0.3,0.4-0.4,0.7-0.3c0,0,0,0,0.1,0c3.2,1.6,6.5,3,9.8,4.2c6.4,2.4,9.3,4.6,10.1,7.7c0.1,0.3-0.1,0.5-0.4,0.6l0,0L284.1,39.1z
			"/>
		<path d="M281.2,42.1c-0.2,0-0.4-0.2-0.5-0.4c-0.7-2.7-3.5-4.7-9.5-7c-3.4-1.2-6.7-2.6-9.9-4.3c-0.3-0.1-0.4-0.4-0.3-0.7
			c0.1-0.3,0.4-0.4,0.7-0.3c0,0,0,0,0.1,0c3.2,1.6,6.5,3,9.8,4.2c6.4,2.4,9.3,4.6,10.1,7.7c0.1,0.3-0.1,0.5-0.3,0.6l0,0
			C281.3,42.1,281.2,42.1,281.2,42.1z"/>
		<path d="M278.3,45.1c-0.2,0-0.4-0.2-0.5-0.4c-0.7-2.7-3.5-4.7-9.5-7c-3.4-1.2-6.7-2.6-9.9-4.2c-0.2-0.1-0.3-0.4-0.2-0.7
			s0.4-0.3,0.7-0.2l0,0c3.2,1.6,6.5,3,9.8,4.2c6.4,2.4,9.3,4.6,10.1,7.7c0.1,0.3-0.1,0.5-0.4,0.6l0,0
			C278.4,45.1,278.3,45.1,278.3,45.1z"/>
		<path d="M275.4,48.1c-0.2,0-0.4-0.2-0.5-0.4c-0.7-2.7-3.5-4.7-9.5-7c-3.4-1.2-6.7-2.6-9.9-4.2c-0.2-0.1-0.3-0.4-0.2-0.7
			c0.1-0.2,0.4-0.3,0.7-0.2c3.2,1.6,6.5,3,9.8,4.2c6.4,2.4,9.3,4.6,10.1,7.7c0.1,0.3-0.1,0.5-0.4,0.6l0,0
			C275.5,48.1,275.4,48.1,275.4,48.1z"/>
		<path d="M297.9,59.5L297.9,59.5c-3.4-0.2-5.9-7.3-7.5-13.2c-0.9-3.6-3.7-3.9-3.8-3.9c-0.3,0-0.5-0.3-0.4-0.6
			c0-0.3,0.3-0.5,0.5-0.4c0.1,0,3.5,0.4,4.7,4.6c2,7.7,4.5,12.4,6.6,12.5c0.3,0,0.5,0.3,0.5,0.5l0,0
			C298.4,59.3,298.1,59.5,297.9,59.5z"/>
		<path d="M294.7,63.4c-0.1,0-0.2,0-0.3-0.1c-3.4-2-5.9-6-7.4-11.7c-1.2-4.7-3.9-5.9-3.9-5.9c-0.2-0.1-0.3-0.4-0.2-0.7
			c0.1-0.2,0.4-0.3,0.6-0.2c0.1,0,3.1,1.4,4.5,6.6c1.4,5.5,3.8,9.2,7,11.1c0.2,0.1,0.3,0.4,0.2,0.7C295,63.3,294.8,63.4,294.7,63.4z
			"/>
		<path d="M291.4,66c-0.1,0-0.2,0-0.3-0.1c-4-3.2-6.1-9.9-6.8-12.7c-0.5-2.4-2.3-4.2-4.6-4.8c-0.3-0.1-0.4-0.3-0.4-0.6
			c0.1-0.3,0.3-0.5,0.6-0.4c2.7,0.7,4.8,2.8,5.4,5.6c1.4,5.5,3.9,10.1,6.4,12.1c0.2,0.2,0.3,0.5,0.1,0.7l0,0
			C291.6,65.9,291.5,66,291.4,66z"/>
		<path d="M288.5,69c-0.2,0-0.3-0.1-0.4-0.2c-3.1-4.1-5.4-8.7-7-13.6c-1.3-4-3.7-4.2-3.8-4.2c-0.3,0-0.5-0.3-0.5-0.5
			c0-0.3,0.2-0.5,0.4-0.5c0,0,0,0,0.1,0s3.2,0.2,4.7,4.9c1.5,4.8,3.8,9.3,6.8,13.3c0.2,0.2,0.1,0.5-0.1,0.7
			C288.7,69,288.6,69,288.5,69z"/>
		<path d="M106.4,90.4L106.4,90.4l-3.7-0.9c-0.3-0.1-0.4-0.3-0.4-0.6c0-0.1,0-0.1,0.1-0.1l16.7-26.2c0.1-0.2,0.5-0.3,0.7-0.2
			s0.3,0.5,0.2,0.7l-16.3,25.6l2.6,0.6l16.5-24.6c0.1-0.2,0.4-0.3,0.7-0.2l26.3,15.2l2.9-2.9l-28.8-15c-0.2-0.1-0.3-0.4-0.2-0.7
			s0.4-0.3,0.7-0.2l29.4,15.4c0.1,0.1,0.2,0.2,0.3,0.4c0,0.2,0,0.3-0.1,0.4l-3.6,3.6c-0.2,0.2-0.4,0.2-0.6,0.1l-26.3-15.1
			l-16.4,24.5C106.7,90.4,106.6,90.4,106.4,90.4z"/>
		<path d="M152.5,121.6c-0.1,0-0.2,0-0.2-0.1l-22.1-12.6c-0.1-0.1-0.2-0.2-0.3-0.4l-7.2-43.4c0-0.3,0.1-0.5,0.4-0.6
			c0.3,0,0.5,0.1,0.6,0.4l0,0l7.2,43.1l21.1,12.1l-3.1-37.4c0-0.3,0.2-0.5,0.5-0.5s0.5,0.2,0.5,0.5l0,0L153,121
			c0,0.2-0.1,0.4-0.2,0.5C152.6,121.5,152.6,121.6,152.5,121.6z"/>
		<path d="M152.5,121.6c-0.3,0-0.5-0.2-0.5-0.5c0-0.1,0-0.2,0.1-0.2l3.6-6.6L153,77c0-0.3,0.2-0.5,0.5-0.5s0.5,0.2,0.5,0.5l2.7,37.5
			c0,0.1,0,0.2-0.1,0.3l-3.6,6.7C152.9,121.5,152.7,121.6,152.5,121.6z"/>
		<path d="M115.4,129.3L115.4,129.3c-0.3,0-0.4-0.2-0.5-0.4l-7.7-35.2c-0.1-0.3,0.1-0.5,0.4-0.6s0.5,0.1,0.6,0.4l0,0l7.4,34.1
			l14.3-19.5c0.2-0.2,0.5-0.3,0.7-0.1s0.3,0.5,0.1,0.7L115.8,129C115.8,129.2,115.6,129.3,115.4,129.3z"/>
		<path d="M115.4,129.3L115.4,129.3l-4.1-0.4c-0.2,0-0.4-0.2-0.4-0.4l-8.6-39.3c-0.1-0.3,0.1-0.5,0.4-0.6s0.5,0.1,0.6,0.4l8.5,38.9
			l3.7,0.4c0.3,0,0.5,0.2,0.5,0.5S115.8,129.3,115.4,129.3L115.4,129.3z"/>
		<path d="M112.3,96.7c-0.3,0-0.5-0.2-0.5-0.5c0-0.1,0-0.2,0.1-0.3l11.8-16.3c0.1-0.2,0.4-0.3,0.7-0.1l0,0c0.2,0.2,0.3,0.5,0.1,0.7
			l0,0l-11.8,16.3C112.6,96.7,112.4,96.7,112.3,96.7z"/>
		<path d="M113.2,104.4c-0.1,0-0.2,0-0.3-0.1c-0.2-0.2-0.3-0.5-0.1-0.7l11.7-16.3c0.2-0.2,0.5-0.3,0.7-0.1l0,0
			c0.2,0.2,0.3,0.5,0.1,0.7l-11.7,16.3C113.5,104.3,113.3,104.4,113.2,104.4z"/>
		<path d="M114.1,112.1c-0.1,0-0.2,0-0.3-0.1c-0.2-0.2-0.3-0.5-0.1-0.7L125.4,95c0.2-0.2,0.5-0.3,0.7-0.1l0,0
			c0.2,0.2,0.3,0.5,0.1,0.7l-11.7,16.3C114.4,112,114.2,112.1,114.1,112.1z"/>
		<path d="M115,119.8c-0.1,0-0.2,0-0.3-0.1c-0.2-0.2-0.3-0.5-0.1-0.7l0,0l11.8-16.3c0.2-0.2,0.5-0.3,0.7-0.1s0.3,0.5,0.1,0.7l0,0
			l-11.8,16.3C115.3,119.7,115.1,119.8,115,119.8z"/>
		<path d="M144.8,90c-0.1,0-0.2,0-0.3-0.1l-15.8-9c-0.2-0.1-0.3-0.4-0.2-0.7c0.1-0.2,0.4-0.3,0.7-0.2l15.8,9
			c0.2,0.1,0.3,0.4,0.2,0.7C145.1,89.9,145,90,144.8,90z"/>
		<path d="M144.8,97.2c-0.1,0-0.2,0-0.3-0.1l-15.8-9c-0.3-0.1-0.4-0.4-0.2-0.7s0.4-0.4,0.7-0.2c0,0,0.1,0,0.1,0.1l15.8,9
			c0.2,0.1,0.3,0.4,0.2,0.7C145.1,97.1,145,97.2,144.8,97.2z"/>
		<path d="M147.1,104.9c-0.1,0-0.2,0-0.2-0.1l-15.8-9c-0.2-0.1-0.3-0.4-0.2-0.7c0.1-0.2,0.4-0.3,0.7-0.2l15.8,9
			c0.2,0.1,0.3,0.4,0.2,0.7l0,0C147.4,104.8,147.2,104.9,147.1,104.9z"/>
		<path d="M147.5,112.5c-0.1,0-0.2,0-0.3-0.1l-15.8-9c-0.2-0.1-0.3-0.4-0.2-0.7s0.4-0.3,0.7-0.2l15.8,9c0.2,0.1,0.3,0.4,0.2,0.7
			C147.8,112.4,147.7,112.5,147.5,112.5L147.5,112.5z"/>
		<path d="M344,255.3c-0.1,0-0.1,0-0.2,0L313,243c-0.1-0.1-0.3-0.2-0.3-0.3c0-0.2,0-0.3,0.1-0.4l3.2-4c0.1-0.2,0.4-0.2,0.6-0.1
			l27.6,12.4l13.9-26c0.1-0.2,0.3-0.3,0.5-0.3l3.7,0.5c0.2,0,0.3,0.1,0.4,0.3c0.1,0.1,0.1,0.3,0,0.5l-14,27.7
			c-0.1,0.2-0.4,0.3-0.7,0.2c-0.2-0.1-0.3-0.4-0.2-0.7l13.7-27.1l-2.6-0.4l-13.9,26c-0.1,0.2-0.4,0.3-0.6,0.2l-27.7-12.4l-2.6,3.2
			l30.1,12c0.3,0.1,0.4,0.4,0.3,0.6C344.4,255.2,344.2,255.3,344,255.3z"/>
		<path d="M344.5,251.6c-0.2,0-0.4-0.1-0.5-0.4L332.5,209l-22.2-9.9l6.8,37c0,0.3-0.1,0.5-0.4,0.6c-0.3,0-0.5-0.1-0.6-0.4l-7-37.9
			c0-0.2,0-0.4,0.2-0.5c0.1-0.1,0.3-0.1,0.5-0.1l23.3,10.4c0.1,0.1,0.2,0.2,0.3,0.3L345,251C345,251.2,344.9,251.5,344.5,251.6
			L344.5,251.6z"/>
		<path d="M313.2,243c-0.2,0-0.5-0.2-0.5-0.4l-6.5-37c0-0.1,0-0.2,0-0.3l2.9-7.1c0.1-0.2,0.4-0.3,0.7-0.2c0.2,0.1,0.3,0.4,0.2,0.6
			l-2.9,7l6.5,36.9C313.7,242.7,313.5,243,313.2,243C313.3,243,313.3,243,313.2,243L313.2,243z"/>
		<path d="M357,221.7c-0.2,0-0.4-0.1-0.5-0.4l-10.8-33.2l-12.2,20.8c-0.1,0.2-0.5,0.3-0.7,0.2s-0.3-0.4-0.2-0.7l12.8-21.7
			c0.1-0.2,0.3-0.3,0.5-0.2c0.2,0,0.4,0.2,0.4,0.3l11.2,34.3c0.1,0.3,0,0.5-0.3,0.6l0,0L357,221.7z"/>
		<path d="M362.3,225.7c-0.2,0-0.4-0.1-0.5-0.3l-12.4-37.9h-3.7c-0.3,0-0.5-0.2-0.5-0.5s0.2-0.5,0.5-0.5h4.1c0.2,0,0.4,0.1,0.5,0.4
			l12.5,38.2c0.1,0.3,0,0.5-0.3,0.6l0,0H362.3z"/>
		<path d="M342.1,236.9c-0.1,0-0.2,0-0.3-0.1c-0.2-0.1-0.3-0.4-0.2-0.7l10-17.4c0.1-0.2,0.4-0.3,0.7-0.2c0.2,0.1,0.3,0.4,0.2,0.7
			l-10,17.4C342.4,236.8,342.3,236.8,342.1,236.9z"/>
		<path d="M340.4,229.3c-0.1,0-0.2,0-0.3-0.1c-0.2-0.1-0.3-0.4-0.2-0.7l10.1-17.4c0.1-0.3,0.4-0.4,0.7-0.2s0.4,0.4,0.2,0.7
			c0,0,0,0.1-0.1,0.1l-10,17.4C340.8,229.2,340.6,229.3,340.4,229.3z"/>
		<path d="M338.8,221.8c-0.1,0-0.2,0-0.3-0.1c-0.2-0.1-0.3-0.4-0.2-0.7l0,0l10-17.4c0.2-0.2,0.5-0.3,0.7-0.1
			c0.2,0.1,0.3,0.4,0.2,0.6l-10,17.4C339.1,221.7,339,221.8,338.8,221.8z"/>
		<path d="M337.1,214.2c-0.1,0-0.2,0-0.3-0.1c-0.2-0.1-0.3-0.4-0.2-0.7l0,0l10-17.4c0.1-0.2,0.4-0.3,0.7-0.2
			c0.2,0.1,0.3,0.4,0.2,0.7l0,0l-10,17.4C337.4,214.1,337.3,214.2,337.1,214.2z"/>
		<path d="M337.1,236.9c-0.1,0-0.1,0-0.2,0l-16.6-7.4c-0.2-0.1-0.4-0.4-0.3-0.6l0,0c0.1-0.3,0.4-0.4,0.7-0.3l0,0l16.6,7.4
			c0.3,0.1,0.5,0.3,0.4,0.6S337.4,237,337.1,236.9L337.1,236.9z"/>
		<path d="M336.4,229.7c-0.1,0-0.1,0-0.2,0l-16.6-7.4c-0.3-0.1-0.4-0.4-0.3-0.6s0.4-0.4,0.6-0.3c0,0,0,0,0.1,0l16.6,7.4
			c0.3,0.1,0.5,0.3,0.4,0.6S336.7,229.8,336.4,229.7L336.4,229.7L336.4,229.7z"/>
		<path d="M333.4,222.3c-0.1,0-0.1,0-0.2,0l-16.6-7.4c-0.2-0.1-0.4-0.4-0.3-0.6l0,0c0.1-0.3,0.4-0.4,0.7-0.3l0,0l16.6,7.4
			c0.3,0.1,0.4,0.4,0.3,0.7l0,0C333.7,222.2,333.6,222.3,333.4,222.3z"/>
		<path d="M332.2,214.7c-0.1,0-0.1,0-0.2,0l-16.6-7.4c-0.3-0.1-0.4-0.4-0.3-0.6c0.1-0.3,0.4-0.4,0.6-0.3h0.1l16.6,7.4
			c0.3,0.1,0.4,0.4,0.3,0.7l0,0C332.5,214.6,332.3,214.7,332.2,214.7z"/>
	</g>
	<rect x="139.6" y="308.7" class="st1" width="105.7" height="21.6"/>
	<path class="st2" d="M245.3,330.8H139.6c-0.3,0-0.5-0.2-0.5-0.5v-21.6c0-0.3,0.2-0.5,0.5-0.5h105.7c0.3,0,0.5,0.2,0.5,0.5v21.6
		C245.8,330.6,245.6,330.8,245.3,330.8z M140.1,329.8h104.7v-20.6H140.1V329.8z"/>
	<path class="st0" d="M160,313.3h-18.6c-0.3,0-0.5-0.2-0.5-0.5s0.2-0.5,0.5-0.5H160c0.3,0,0.5,0.2,0.5,0.5S160.2,313.3,160,313.3z"
		/>
	<path class="st0" d="M168.6,319.2h-2.5c-0.3,0-0.5-0.2-0.5-0.5s0.2-0.5,0.5-0.5h2.5c0.3,0,0.5,0.2,0.5,0.5S168.9,319.2,168.6,319.2
		z"/>
	<path class="st0" d="M161.9,319.2h-20.8c-0.3,0-0.5-0.2-0.5-0.5s0.2-0.5,0.5-0.5h20.8c0.3,0,0.5,0.2,0.5,0.5
		S162.2,319.2,161.9,319.2z"/>
	<path class="st0" d="M150.1,325.4h-8.6c-0.3,0-0.5-0.2-0.5-0.5s0.2-0.5,0.5-0.5h8.6c0.3,0,0.5,0.2,0.5,0.5S150.4,325.4,150.1,325.4
		z"/>
	<path class="st1" d="M224.3,309.4c-1.8,6.7-1.8,13.7,0,20.4h41.9c0,0-4.5-12.9,0-20.4H224.3z"/>
	<path class="st0" d="M266.2,330.3h-41.9c-0.2,0-0.4-0.2-0.5-0.4c-1.8-6.8-1.8-13.9,0-20.7c0.1-0.2,0.3-0.3,0.5-0.3h41.9
		c0.2,0,0.3,0.1,0.4,0.3c0.1,0.2,0.1,0.4,0,0.5c-4.3,7.2,0,19.8,0,20c0.1,0.2,0,0.3-0.1,0.5C266.5,330.2,266.4,330.3,266.2,330.3z
		 M224.7,329.3h40.9c-0.8-2.7-3.5-12.7-0.2-19.4h-40.7C223.1,316.3,223.1,322.9,224.7,329.3z"/>
	<path class="st0" d="M140.9,326.3v-14.8c0-0.8,0.6-1.4,1.4-1.4H268c0.6,0,1-0.4,1-1l0,0c0-0.6-0.4-1-1-1H138.8
		c-0.8,0-1.4,0.6-1.4,1.4v18.9c0,1.2,1,2.2,2.2,2.2H268c0.6,0,1-0.4,1-1l0,0c0-0.6-0.4-1-1-1H143.1c-1.2,0-2.2-1-2.2-2.2
		C140.8,326.4,140.8,326.4,140.9,326.3z"/>
	<path class="st0" d="M268,331.1H139.7c-1.5,0-2.7-1.2-2.7-2.7v-18.9c0-1,0.8-1.9,1.9-1.9H268c0.8-0.1,1.6,0.6,1.7,1.4
		s-0.6,1.6-1.4,1.7c-0.1,0-0.2,0-0.2,0H142.2c-0.5,0-0.9,0.4-0.9,0.9v14.8c0,0.9,0.8,1.7,1.7,1.7h125c0.8-0.1,1.6,0.6,1.7,1.4
		s-0.6,1.6-1.4,1.7C268.1,331.1,268,331.1,268,331.1z M138.9,308.6c-0.5,0-0.9,0.4-0.9,0.9v18.9c0,0.9,0.8,1.7,1.7,1.7H268
		c0.3,0,0.6-0.2,0.6-0.5s-0.2-0.6-0.5-0.6H268H143.1c-1.5,0-2.7-1.2-2.7-2.7v-14.8c0-1,0.8-1.9,1.9-1.9H268c0.3,0,0.6-0.2,0.6-0.5
		s-0.2-0.6-0.5-0.6H268H138.9V308.6z"/>
	<path class="st1" d="M141,351.8c0.7-2.5,3.5-12.8,0.1-19.3h121.7v19.3H141z"/>
	<path class="st3" d="M213.6,337.2H195c-0.3,0-0.5-0.2-0.5-0.5s0.2-0.5,0.5-0.5h18.6c0.3,0,0.5,0.2,0.5,0.5S213.9,337.2,213.6,337.2
		z"/>
	<path class="st3" d="M188.8,343.1h-2.5c-0.3,0-0.5-0.2-0.5-0.5s0.2-0.5,0.5-0.5h2.5c0.3,0,0.5,0.2,0.5,0.5S189.1,343.1,188.8,343.1
		z"/>
	<path class="st3" d="M213.9,343.1h-20.8c-0.3,0-0.5-0.2-0.5-0.5s0.2-0.5,0.5-0.5h20.8c0.3,0,0.5,0.2,0.5,0.5
		S214.1,343.1,213.9,343.1z"/>
	<path class="st3" d="M213.4,349.2h-8.6c-0.3,0-0.5-0.2-0.5-0.5s0.2-0.5,0.5-0.5h8.6c0.3,0,0.5,0.2,0.5,0.5S213.7,349.2,213.4,349.2
		z"/>
	<path class="st3" d="M214.3,349.8V335c0-0.8-0.6-1.4-1.4-1.4h-74.4c-0.6,0-1-0.4-1-1l0,0c0-0.6,0.4-1,1-1h129.1
		c0.8,0,1.4,0.6,1.4,1.4v18.9c0,1.2-1,2.2-2.2,2.2H138.5c-0.6,0-1-0.4-1-1l0,0c0-0.6,0.4-1,1-1h73.6c1.2,0,2.2-1,2.2-2.2
		C214.3,349.9,214.3,349.9,214.3,349.8z"/>
	<path class="st3" d="M266.7,354.6H138.5c-0.8,0.1-1.6-0.6-1.7-1.4c-0.1-0.8,0.6-1.6,1.4-1.7c0.1,0,0.2,0,0.2,0H212
		c0.9,0,1.7-0.8,1.7-1.7V335c0-0.5-0.4-0.9-0.8-0.9h-74.5c-0.8,0.1-1.6-0.6-1.7-1.4c-0.1-0.8,0.6-1.6,1.4-1.7c0.1,0,0.2,0,0.2,0
		h129.1c1,0,1.9,0.8,1.9,1.9v18.9C269.5,353.4,268.2,354.6,266.7,354.6L266.7,354.6z M138.5,352.5c-0.3,0-0.6,0.2-0.6,0.5
		s0.2,0.6,0.5,0.6h0.1h128.3c0.9,0,1.7-0.8,1.7-1.7V333c0-0.5-0.4-0.9-0.9-0.9H138.5c-0.3,0-0.6,0.2-0.6,0.5s0.2,0.6,0.5,0.6h0.1
		H213c1,0,1.9,0.8,1.9,1.9v14.8c0,1.5-1.2,2.7-2.7,2.7h-73.7V352.5z"/>
	<rect x="139.6" y="262" class="st1" width="105.7" height="21.6"/>
	<path class="st2" d="M245.3,284.1H139.6c-0.3,0-0.5-0.2-0.5-0.5V262c0-0.3,0.2-0.5,0.5-0.5h105.7c0.3,0,0.5,0.2,0.5,0.5v21.6
		C245.8,283.9,245.6,284.1,245.3,284.1z M140.1,283.1h104.7v-20.6H140.1V283.1z"/>
	<path class="st0" d="M160,266.6h-18.6c-0.3,0-0.5-0.2-0.5-0.5s0.2-0.5,0.5-0.5H160c0.3,0,0.5,0.2,0.5,0.5S160.2,266.6,160,266.6z"
		/>
	<path class="st0" d="M168.6,272.6h-2.5c-0.3,0-0.5-0.2-0.5-0.5s0.2-0.5,0.5-0.5h2.5c0.3,0,0.5,0.2,0.5,0.5S168.9,272.6,168.6,272.6
		z"/>
	<path class="st0" d="M161.9,272.6h-20.8c-0.3,0-0.5-0.2-0.5-0.5s0.2-0.5,0.5-0.5h20.8c0.3,0,0.5,0.2,0.5,0.5
		S162.2,272.6,161.9,272.6z"/>
	<path class="st0" d="M150.1,278.7h-8.6c-0.3,0-0.5-0.2-0.5-0.5s0.2-0.5,0.5-0.5h8.6c0.3,0,0.5,0.2,0.5,0.5S150.4,278.7,150.1,278.7
		z"/>
	<path class="st1" d="M224.3,262.7c-1.8,6.7-1.8,13.7,0,20.4h41.9c0,0-4.5-12.9,0-20.4H224.3z"/>
	<path class="st0" d="M266.2,283.6h-41.9c-0.2,0-0.4-0.2-0.5-0.4c-1.8-6.8-1.8-13.9,0-20.7c0.1-0.2,0.3-0.3,0.5-0.3h41.9
		c0.2,0,0.3,0.1,0.4,0.3c0.1,0.2,0.1,0.4,0,0.5c-4.3,7.2,0,19.8,0,20c0.1,0.2,0,0.3-0.1,0.5C266.5,283.5,266.4,283.6,266.2,283.6z
		 M224.7,282.6h40.9c-0.8-2.7-3.5-12.7-0.2-19.4h-40.7C223.1,269.6,223.1,276.3,224.7,282.6z"/>
	<path class="st0" d="M140.9,279.6v-14.8c0-0.8,0.6-1.4,1.4-1.4H268c0.6,0,1-0.4,1-1l0,0c0-0.6-0.4-1-1-1H138.8
		c-0.8,0-1.4,0.6-1.4,1.4v18.9c0,1.2,1,2.2,2.2,2.2H268c0.6,0,1-0.4,1-1l0,0c0-0.6-0.4-1-1-1H143.1c-1.2,0-2.2-1-2.2-2.2
		C140.8,279.7,140.8,279.7,140.9,279.6z"/>
	<path class="st0" d="M268,284.4H139.7c-1.5,0-2.7-1.2-2.7-2.7v-18.9c0-1,0.8-1.9,1.9-1.9H268c0.8-0.1,1.6,0.6,1.7,1.4
		s-0.6,1.6-1.4,1.7c-0.1,0-0.2,0-0.2,0H142.2c-0.5,0-0.9,0.4-0.9,0.9v14.8c0,0.9,0.8,1.7,1.7,1.7h125c0.8-0.1,1.6,0.6,1.7,1.4
		s-0.6,1.6-1.4,1.7C268.1,284.4,268,284.4,268,284.4z M138.9,261.9c-0.5,0-0.9,0.4-0.9,0.9v18.9c0,0.9,0.8,1.7,1.7,1.7H268
		c0.3,0,0.6-0.2,0.6-0.5s-0.2-0.6-0.5-0.6H268H143.1c-1.5,0-2.7-1.2-2.7-2.7v-14.8c0-1,0.8-1.9,1.9-1.9H268c0.3,0,0.6-0.2,0.6-0.5
		s-0.2-0.6-0.5-0.6H268H138.9V261.9z"/>
	<path class="st1" d="M141,305.1c0.7-2.5,3.5-12.8,0.1-19.3h121.7v19.3H141z"/>
	<path class="st4" d="M213.6,290.5H195c-0.3,0-0.5-0.2-0.5-0.5s0.2-0.5,0.5-0.5h18.6c0.3,0,0.5,0.2,0.5,0.5S213.9,290.5,213.6,290.5
		z"/>
	<path class="st4" d="M213.6,302.4H195c-0.3,0-0.5-0.2-0.5-0.5s0.2-0.5,0.5-0.5h18.6c0.3,0,0.5,0.2,0.5,0.5S213.9,302.4,213.6,302.4
		z"/>
	<path class="st4" d="M188.8,296.5h-2.5c-0.3,0-0.5-0.2-0.5-0.5s0.2-0.5,0.5-0.5h2.5c0.3,0,0.5,0.2,0.5,0.5S189.1,296.5,188.8,296.5
		z"/>
	<path class="st4" d="M213.9,296.5h-20.8c-0.3,0-0.5-0.2-0.5-0.5s0.2-0.5,0.5-0.5h20.8c0.3,0,0.5,0.2,0.5,0.5
		C214.4,296.2,214.1,296.5,213.9,296.5z"/>
	<path class="st4" d="M214.3,303.1v-14.8c0-0.8-0.6-1.4-1.4-1.4h-74.4c-0.6,0-1-0.4-1-1l0,0c0-0.6,0.4-1,1-1h129.1
		c0.8,0,1.4,0.6,1.4,1.4v18.9c0,1.2-1,2.2-2.2,2.2H138.5c-0.6,0-1-0.4-1-1l0,0c0-0.6,0.4-1,1-1h73.6c1.2,0,2.2-1,2.2-2.2
		C214.3,303.2,214.3,303.2,214.3,303.1z"/>
	<path class="st4" d="M266.7,307.9H138.5c-0.8,0.1-1.6-0.6-1.7-1.4c-0.1-0.8,0.6-1.6,1.4-1.7c0.1,0,0.2,0,0.2,0H212
		c0.9,0,1.7-0.8,1.7-1.7v-14.8c0-0.5-0.4-0.9-0.8-0.9h-74.5c-0.8,0.1-1.6-0.6-1.7-1.4c-0.1-0.8,0.6-1.6,1.4-1.7c0.1,0,0.2,0,0.2,0
		h129.1c1,0,1.9,0.8,1.9,1.9v18.9C269.5,306.7,268.2,307.9,266.7,307.9L266.7,307.9z M138.5,305.8c-0.3,0-0.6,0.2-0.6,0.5
		s0.2,0.6,0.5,0.6h0.1h128.3c0.9,0,1.7-0.8,1.7-1.7v-18.9c0-0.5-0.4-0.9-0.9-0.9H138.5c-0.3,0-0.6,0.2-0.6,0.5s0.2,0.6,0.5,0.6h0.1
		H213c1,0,1.9,0.8,1.9,1.9v14.8c0,1.5-1.2,2.7-2.7,2.7h-73.7V305.8z"/>
	<path class="st1" d="M141,375.4c0.7-2.5,3.5-12.8,0.1-19.3h121.7v19.3H141z"/>
	<path d="M213.5,361H195c-0.3,0-0.5-0.2-0.5-0.5s0.2-0.5,0.5-0.5h18.6c0.3,0,0.5,0.2,0.5,0.5C214,360.8,213.8,361,213.5,361z"/>
	<path d="M188.8,366.9h-2.5c-0.3,0-0.5-0.2-0.5-0.5s0.2-0.5,0.5-0.5h2.5c0.3,0,0.5,0.2,0.5,0.5S189.1,366.9,188.8,366.9z"/>
	<path d="M213.8,366.9H193c-0.3,0-0.5-0.2-0.5-0.5s0.2-0.5,0.5-0.5h20.8c0.3,0,0.5,0.2,0.5,0.5S214.1,366.9,213.8,366.9L213.8,366.9
		z"/>
	<path d="M213.4,373h-8.6c-0.3,0-0.5-0.2-0.5-0.5s0.2-0.5,0.5-0.5h8.6c0.3,0,0.5,0.2,0.5,0.5S213.6,373,213.4,373z"/>
	<path class="st1" d="M214.3,373.5v-14.8c0-0.8-0.6-1.4-1.4-1.4h-74.4c-0.6,0-1-0.4-1-1l0,0c0-0.6,0.4-1,1-1h129.1
		c0.8,0,1.4,0.6,1.4,1.4v18.8c0,1.2-1,2.2-2.2,2.2l0,0H138.5c-0.6,0-1-0.4-1-1l0,0c0-0.6,0.4-1,1-1h73.6
		C213.3,375.7,214.3,374.7,214.3,373.5L214.3,373.5z"/>
	<path d="M266.7,378.2H138.5c-0.8,0.1-1.6-0.6-1.7-1.4c-0.1-0.8,0.6-1.6,1.4-1.7c0.1,0,0.2,0,0.2,0H212c0.9,0,1.7-0.8,1.7-1.7v-14.8
		c0-0.5-0.4-0.9-0.9-0.9h-74.4c-0.8,0.1-1.6-0.6-1.7-1.4c-0.1-0.8,0.6-1.6,1.4-1.7c0.1,0,0.2,0,0.2,0h129.1c1,0,1.9,0.8,1.9,1.9
		v18.9C269.5,377,268.2,378.2,266.7,378.2z M138.5,376.2c-0.3,0-0.6,0.2-0.6,0.5s0.2,0.6,0.5,0.6h0.1h128.3c0.9,0,1.7-0.8,1.7-1.7
		v-18.9c0-0.5-0.4-0.9-0.9-0.9H138.5c-0.3,0-0.6,0.2-0.6,0.5s0.2,0.6,0.5,0.6h0.1H213c1,0,1.9,0.8,1.9,1.9v14.8
		c0,1.5-1.2,2.7-2.7,2.7h-73.7V376.2z"/>
	<path d="M185.6,215.6c0,0-10.3,0.3-25.3-3.3s-27.3-1-29.7,13.3s36,29,62.7,34.3s53.3,7.7,66.3,2s12.7-26,7.7-35.3
		s-21.7-10.7-30.3-9.3S185.6,215.6,185.6,215.6z"/>
	<path d="M253,152.9c-1.4-9.6-2.9-19.2-4.3-28.8c-1.3-8.9-1.9-18.5-4.2-27.2c-3-13-7.5-20-21-22.5S195,86.4,195,92.9
		s4.6,21.2-2.5,44.3c-2.4,7.9,7,9,18.4,5.5L253,152.9z"/>
	<path d="M253,153.4h-0.1l-42-10.2c-8.5,2.6-15.2,2.5-18-0.3c-1.4-1.4-1.7-3.4-0.9-5.9c5.5-17.9,3.9-30.8,3-38.5
		c-0.3-1.8-0.4-3.7-0.5-5.6c0-3.1,3.3-8,8.1-12c3.2-2.7,11.7-8.7,21-7c14.1,2.6,18.5,10.4,21.4,22.9c1.5,6.2,2.5,12.4,3.1,18.8
		c0.3,2.8,0.7,5.7,1.1,8.5c0.8,5.2,1.5,10.4,2.3,15.6l2,13.2c0,0.2,0,0.3-0.1,0.4C253.2,153.4,253.1,153.4,253,153.4z M210.9,142.2
		h0.1l41.4,10.1l-1.9-12.5c-0.8-5.2-1.6-10.4-2.3-15.6c-0.4-2.8-0.8-5.7-1.1-8.5c-0.6-6.3-1.6-12.5-3.1-18.6
		c-2.9-12.4-7-19.6-20.6-22.1c-6.2-1.1-13.7,1.4-20.2,6.8c-4.6,3.8-7.7,8.4-7.7,11.2c0.1,1.8,0.2,3.6,0.5,5.4c1,7.8,2.6,20.9-3,38.9
		c-0.7,2.1-0.4,3.8,0.7,4.9C196.1,144.7,202.7,144.6,210.9,142.2C210.8,142.2,210.8,142.2,210.9,142.2L210.9,142.2z"/>
	<path class="st3" d="M216.7,132.9c0,0-16.5,2.3-24.3,4.3s-10.5,4.8-13.3,10.1s-6.9,24.9-10.9,33.2s-11.3,10.4-12.5,19.2
		s5.8,11.8,11,12.8c3.9,0.7,7.8,1.1,11.8,1.3c0,0,8.5,20,25,21.5s28.8-10,36.3-14.3s8-14,8.3-25.3s6.9-36.6,5.1-43.6
		s-4.4-8.1-15.7-14C232.5,135.7,223.7,132.4,216.7,132.9z"/>
	<path d="M206.4,235.8c-1,0-2,0-3-0.1c-15.5-1.4-24.1-19-25.3-21.5c-3.9-0.2-7.7-0.6-11.5-1.2c-4.8-0.9-12.8-3.9-11.4-13.3
		c0.8-5.2,3.6-8.2,6.5-11.3c2.4-2.3,4.5-5.1,6.1-8.1c2.1-4.4,4.3-12.1,6.3-19c1.7-6,3.4-11.7,4.6-14.2c2.8-5.2,5.6-8.3,13.6-10.4
		c7.7-2,24.1-4.2,24.3-4.3l0,0c6.9-0.5,15.6,2.5,20.9,5.3l1,0.5c10.4,5.3,13.2,6.8,15,13.8c1,4.1-0.7,13.7-2.4,24
		c-1.3,7.3-2.6,14.9-2.7,19.7c-0.2,10.4-0.5,21.1-8.5,25.7c-1.5,0.9-3.2,2-5.1,3.3C227.8,229.4,218.3,235.8,206.4,235.8z
		 M216.8,133.4c-0.6,0.1-16.7,2.3-24.2,4.2c-7.7,2-10.3,4.8-13,9.8c-1.3,2.4-2.9,8.1-4.6,14c-2,6.9-4.2,14.7-6.4,19.1
		c-1.6,3.1-3.7,5.9-6.2,8.3c-3,3.1-5.6,5.9-6.2,10.8c-1.2,8.2,5.1,11.1,10.6,12.2c3.9,0.7,7.8,1.1,11.7,1.2c0.2,0,0.4,0.1,0.4,0.3
		c0.1,0.2,8.6,19.7,24.6,21.2c13,1.2,23.3-5.8,30.8-10.9c2-1.3,3.6-2.5,5.2-3.3c7-4,7.7-12.8,8-24.8c0.1-4.9,1.4-12.5,2.7-19.9
		c1.7-9.7,3.4-19.7,2.5-23.6c-1.6-6.6-4.1-7.8-14.5-13.1l-1-0.5C232,135.9,223.4,132.9,216.8,133.4z"/>
	<path class="st1" d="M164.8,185.6c-3.8,4.6-8.2,7.4-9.1,14.1c-0.2,1.3-0.2,2.7,0,4c1,1.5,4.2,5.2,10.3,3.5
		c7.6-2.2,6.8-12.8,2.2-19.4C167.4,186.6,166.2,185.8,164.8,185.6z"/>
	<path d="M162.9,208c-3.1,0-5.9-1.6-7.6-4.1c0-0.1-0.1-0.1-0.1-0.2c-0.2-1.4-0.3-2.8-0.1-4.1c0.8-5.2,3.6-8.2,6.5-11.3
		c0.9-1,1.8-1.9,2.7-3c0.1-0.1,0.3-0.2,0.4-0.2c1.5,0.2,2.9,1,3.7,2.3c3.3,4.6,4.5,10.8,3,15c-0.8,2.5-2.9,4.5-5.4,5.2
		C165.1,207.9,164,208,162.9,208z M156.2,203.4c1,1.6,4,4.8,9.6,3.2c2.3-0.6,4.1-2.3,4.8-4.5c1.4-4,0.2-9.7-2.9-14.1
		c-0.6-1-1.6-1.6-2.8-1.9c-0.9,1-1.7,1.9-2.6,2.8c-3,3.1-5.6,5.9-6.2,10.8C156,201,156,202.2,156.2,203.4L156.2,203.4z"/>
	<path class="st1" d="M215.5,166.7c7-3.2,10.8-8.7,14-19.2c1.2-3.8,2.1-7.6,2.9-11.5c-4.8-1.8-10.7-3.4-15.7-3c0,0-7.1,1-14.2,2.2
		c-0.6,3.7-2,14.2-0.4,22C204.2,166.7,208.5,169.9,215.5,166.7z"/>
	<path d="M210.8,168.4c-1.1,0-2.2-0.2-3.1-0.7c-2.8-1.4-4.8-4.9-6-10.5c-1.6-7.8-0.3-18.1,0.4-22.1c0-0.2,0.2-0.4,0.4-0.4
		c7-1.2,14.2-2.2,14.2-2.2c5.9-0.4,12.5,1.7,15.9,3c0.2,0.1,0.4,0.3,0.3,0.6c-0.7,3.9-1.7,7.8-2.9,11.6
		c-3.3,10.9-7.3,16.4-14.3,19.5l0,0C214.2,167.9,212.5,168.3,210.8,168.4z M203,135.6c-0.7,4.2-1.9,14-0.3,21.4
		c1.1,5.2,2.9,8.5,5.4,9.8c2,1,4.3,0.8,7.3-0.5c6.6-3,10.5-8.4,13.7-18.9c1.1-3.6,2-7.3,2.7-11c-3.4-1.3-9.6-3.2-15-2.8
		C216.7,133.4,209.8,134.4,203,135.6z M215.6,166.7L215.6,166.7z"/>
	<path d="M182.5,203.7c-0.1,0-0.1,0-0.2,0c-0.3-0.1-0.4-0.4-0.3-0.6l0,0c0.1-0.1,5-12.4,5-15.8c0-2.4-1.1-4.8-2.3-7.5
		c-0.6-1.2-1.1-2.4-1.6-3.8c-1.7-4.5,2.2-11.4,2.7-12.4c0.2-1.8,2.9-21.9,5.5-25.6c0.2-0.2,0.5-0.3,0.7-0.1l0,0
		c0.2,0.2,0.3,0.5,0.1,0.7c-2.5,3.6-5.4,25.1-5.4,25.3c0,0.1,0,0.1-0.1,0.2c0,0.1-4.4,7.4-2.7,11.6c0.5,1.3,1.1,2.6,1.6,3.8
		c1.3,2.9,2.4,5.4,2.4,7.9c0,3.6-4.8,15.7-5,16.2C182.9,203.6,182.7,203.7,182.5,203.7z"/>
	<path class="st1" d="M158.7,178.7l3.8-4c2.5,1.3,5.1,2.4,7.8,3.3c10.1,3.4,14.8,5.5,15.3,11.5c0,0,6.8-4.3,13.5-3.5
		s12.8,3.5,14.8,3.8l2,0.3l0.5,3.5l-3.8,19.8l-29.3-3l-20-17.5L158.7,178.7z"/>
	<path d="M212.5,213.7L212.5,213.7l-29.3-3c-0.1,0-0.2-0.1-0.3-0.1l-20-17.5c-0.1-0.1-0.1-0.1-0.1-0.2l-4.5-14
		c-0.1-0.2,0-0.4,0.1-0.5l3.8-4c0.2-0.2,0.4-0.2,0.6-0.1c2.4,1.3,5,2.4,7.6,3.2c10,3.3,14.7,5.5,15.5,11.2c1.9-1.1,7.5-3.8,13.1-3.2
		c3.9,0.5,7.8,1.5,11.5,2.8c1.1,0.4,2.2,0.7,3.3,0.9l2,0.3c0.2,0,0.4,0.2,0.4,0.4l0.5,3.5c0,0.1,0,0.1,0,0.2l-3.8,19.8
		C212.9,213.5,212.7,213.7,212.5,213.7z M183.5,209.7l28.6,2.9l3.7-19.2l-0.4-3l-1.6-0.2c-1.2-0.2-2.3-0.6-3.5-1
		c-3.7-1.3-7.4-2.2-11.3-2.8c-6.5-0.7-13.1,3.4-13.2,3.4c-0.2,0.1-0.3,0.1-0.5,0s-0.3-0.2-0.3-0.4c-0.5-5.7-4.9-7.7-14.9-11.1
		c-2.6-0.8-5.1-1.8-7.5-3.1l-3.3,3.5l4.4,13.6L183.5,209.7z"/>
	<polygon points="157.5,177.9 181.2,198.2 183.7,194.2 217.7,193.4 215.7,215.4 183.5,213.9 181.2,215.4 163.7,202.4 	"/>
	<path d="M215.7,215.9L215.7,215.9l-32.1-1.5l-2.1,1.4c-0.2,0.1-0.4,0.1-0.6,0l-17.5-13c-0.1-0.1-0.2-0.2-0.2-0.3L157,178
		c-0.1-0.2,0-0.4,0.2-0.6c0.2-0.1,0.4-0.1,0.6,0.1l23.3,19.9l2.2-3.5c0.1-0.1,0.2-0.2,0.4-0.2l34-0.8c0.1,0,0.3,0.1,0.4,0.2
		c0.1,0.1,0.1,0.2,0.1,0.4l-2,22C216.2,215.7,216,215.9,215.7,215.9z M183.5,213.4L183.5,213.4l31.8,1.5l1.9-21l-33.2,0.7l-2.4,3.8
		c-0.1,0.1-0.2,0.2-0.3,0.2s-0.3,0-0.4-0.1l-22.5-19.2l5.8,22.8l17.1,12.7l1.9-1.3C183.3,213.4,183.4,213.4,183.5,213.4z"/>
	<path class="st1" d="M240.2,171.2l-0.5,28.5c0,0-14.8,8.3-23,10.5c-4.5,1.4-9.3,2.1-14,2.3c-0.8,0-4-5.3-5.8-7s-3.2-1.8-6.4-3.4
		c-4.5-2.2-6.4-2.6-6.1-1.6s0.5,2,2.8,3.3s3.8,2.3,3.8,2.3l0.5,1c0,0-5.5-0.8-7.8-1.3s-8-4.5-8-4.5s-2.4-0.1-0.7,2.9
		s3.4,3.1,3.4,3.1c0.3,1.8,1.2,3.5,2.5,4.8c1.1,1,2.3,1.9,3.5,2.8c0,0-4.8-1.3-4.3,0s3.5,1.8,7.3,3.5s12.3,2,17,2.8
		c8.6,1.1,17.3,1.3,26,0.5c10-1,25-7.8,27.8-10s1-27.5,0.3-33.3s-2.3-16.5-3.3-21.5s-5-12-7.5-13.5S240.7,146.4,240.2,171.2z"/>
	<path d="M220,222.4c-5.2,0-10.4-0.3-15.6-1c-1.4-0.2-3.3-0.4-5.2-0.6c-4.4-0.4-9.3-0.9-12-2.2c-1.4-0.6-2.6-1.1-3.7-1.5
		c-2.1-0.8-3.4-1.3-3.8-2.3c-0.1-0.3-0.1-0.6,0.1-0.9c0.4-0.4,1.4-0.4,2.5-0.3c-0.5-0.4-1.1-0.9-1.7-1.4c-1.3-1.3-2.2-2.9-2.6-4.7
		c-0.7-0.2-2.1-0.9-3.4-3.3c-0.7-1.3-0.9-2.2-0.5-2.9c0.4-0.5,1-0.8,1.6-0.7c0.1,0,0.2,0,0.3,0.1c0.1,0,5.7,3.9,7.8,4.4
		c1.6,0.4,5.1,0.9,6.8,1.1l0,0c-0.4-0.3-1.7-1.1-3.6-2.2c-2.4-1.4-2.7-2.5-3-3.6c-0.1-0.3,0-0.7,0.3-0.9c0.3-0.3,1-0.8,6.6,2
		c1.1,0.6,2,0.9,2.7,1.2c1.4,0.5,2.7,1.2,3.8,2.3c1,1.2,2,2.4,2.9,3.7c0.8,1.2,1.6,2.2,2.6,3.2c4.7-0.2,9.3-0.9,13.8-2.3
		c7.5-2,20.7-9.2,22.6-10.3l0.5-28.2l0,0c0.3-16.1,2.5-26.5,6-28.4c0.7-0.4,1.6-0.4,2.3,0c2.7,1.6,6.7,8.9,7.7,13.8
		c1,4.9,2.5,15.9,3.3,21.5c0.3,2.6,2.9,31-0.4,33.7c-2.9,2.4-18.1,9.1-28,10.1C227,222.3,223.4,222.4,220,222.4z M180.8,214.6
		c0.4,0.5,1.6,1,3.1,1.5c1.1,0.4,2.4,0.9,3.8,1.5c2.5,1.2,7.4,1.7,11.6,2.1c1.9,0.2,3.8,0.4,5.2,0.6c8.6,1.1,17.3,1.3,25.9,0.5
		c9.8-1,24.7-7.6,27.5-9.9c2.4-1.9,1-25.4,0.1-32.8c-0.7-5.6-2.2-16.4-3.2-21.5s-5-11.8-7.3-13.2c-0.4-0.2-0.9-0.2-1.3,0
		c-1.2,0.6-5,4.5-5.5,27.6l-0.5,28.5c0,0.2-0.1,0.3-0.3,0.4c-0.1,0.1-14.9,8.3-23.1,10.6c-4.6,1.4-9.3,2.1-14.1,2.3
		c-0.6,0-1.2-0.7-3.3-3.6c-0.9-1.2-1.8-2.4-2.8-3.5c-1-0.9-2.2-1.6-3.4-2c-0.8-0.3-1.7-0.7-2.8-1.3c-3.8-1.9-5-2.1-5.4-2.1
		c0.2,0.9,0.5,1.8,2.5,2.8c2.2,1.3,3.8,2.3,3.8,2.3c0.1,0.1,0.1,0.1,0.2,0.2l0.5,1c0.1,0.2,0.1,0.4,0,0.5c-0.1,0.2-0.3,0.2-0.5,0.2
		s-5.5-0.8-7.8-1.3s-7.1-3.9-8-4.5c-0.2,0-0.5,0.1-0.6,0.3c-0.1,0.1-0.2,0.6,0.5,1.8c1.6,2.7,3.1,2.9,3.1,2.9c0.2,0,0.4,0.2,0.4,0.4
		c0.3,1.7,1.1,3.2,2.3,4.5c1.1,1,2.2,1.9,3.4,2.7c0.2,0.2,0.3,0.5,0.1,0.7c-0.1,0.2-0.3,0.3-0.6,0.2
		C183.2,214.8,182,214.6,180.8,214.6L180.8,214.6z M239.7,199.6L239.7,199.6z"/>
	<path class="st1" d="M178.5,207.2c0,0,5.9,3.5,10.4,4.5"/>
	<path d="M188.9,212.2h-0.1c-4.5-1-10.3-4.4-10.6-4.6c-0.2-0.1-0.3-0.4-0.2-0.7c0.1-0.2,0.4-0.3,0.7-0.2l0,0c0.1,0,5.9,3.5,10.3,4.5
		c0.3,0,0.5,0.3,0.4,0.6C189.4,212,189.1,212.2,188.9,212.2L188.9,212.2z"/>
	<path class="st1" d="M184.5,214.7c1.9,0.7,3.9,1.1,5.9,1.2"/>
	<path d="M190.3,216.4c-2.1-0.1-4.1-0.5-6.1-1.3c-0.3-0.1-0.4-0.4-0.3-0.6c0.1-0.3,0.4-0.4,0.6-0.3l0,0c1.8,0.7,3.8,1.1,5.7,1.2
		c0.3,0,0.5,0.2,0.5,0.5S190.6,216.4,190.3,216.4L190.3,216.4z"/>
	<path class="st1" d="M179.2,209.7c3.1,2.2,6.7,3.8,10.4,4.7"/>
	<path d="M189.6,214.9h-0.1c-3.8-0.9-7.4-2.6-10.5-4.8c-0.2-0.2-0.3-0.5-0.1-0.7s0.5-0.3,0.7-0.1c3.1,2.2,6.5,3.7,10.2,4.6
		c0.3,0.1,0.4,0.3,0.4,0.6l0,0C190.1,214.8,189.9,214.9,189.6,214.9z"/>
	<path class="st3" d="M233.4,221c9.8-1.8,22.3-7.5,24.8-9.6c2.8-2.3,1-27.5,0.3-33.3s-2.3-16.5-3.3-21.5s-5-12-7.5-13.5
		s-7,3.3-7.5,28l-0.5,28.5c0,0-5.7,3.2-12,6.2C230.1,208.5,234.2,214.1,233.4,221z"/>
	<path d="M233.4,221.5c-0.1,0-0.2,0-0.3-0.1s-0.2-0.3-0.1-0.4c0.7-6.7-3.2-12.1-5.7-14.8c-0.1-0.1-0.1-0.3-0.1-0.4
		c0-0.2,0.1-0.3,0.3-0.4c5.5-2.6,10.6-5.4,11.8-6l0.5-28.2c0.3-16.1,2.5-26.5,6-28.4c0.7-0.4,1.6-0.4,2.3,0
		c2.7,1.6,6.7,8.9,7.7,13.8s2.5,15.9,3.3,21.5c0.3,2.6,2.9,31-0.4,33.7c-2.7,2.2-15.3,7.9-25,9.7L233.4,221.5z M228.4,206
		c2.5,2.8,6,8,5.5,14.4c10-2,21.7-7.5,23.9-9.3c2.4-1.9,1-25.4,0.1-32.8c-0.7-5.6-2.2-16.4-3.2-21.5s-5-11.8-7.3-13.2
		c-0.4-0.2-0.9-0.2-1.3,0c-1.2,0.6-5,4.5-5.5,27.6l-0.5,28.5c0,0.2-0.1,0.3-0.3,0.4C239.9,200.1,234.5,203.2,228.4,206L228.4,206z"
		/>
	<path class="st1" d="M207.8,130c0,0-2.2,13-2.5,21s5.8,16.1,14.3,5.8s7.1-27.3,7.1-27.3C220.8,132.3,213.9,132.5,207.8,130z"/>
	<path d="M212.1,162.1c-0.6,0-1.3-0.1-1.9-0.4c-3.2-1.2-5.4-5.8-5.3-10.8c0.2-8,2.4-21,2.5-21.1c0-0.1,0.1-0.3,0.3-0.4
		c0.1-0.1,0.3-0.1,0.4,0c6,2.4,12.7,2.3,18.6-0.4c0.2-0.1,0.5,0,0.7,0.2c0,0.1,0,0.1,0.1,0.2c0.1,0.7,1.3,17.3-7.3,27.6
		C216.8,161,214.1,162.1,212.1,162.1z M208.2,130.6c-0.4,2.7-2.2,13.4-2.4,20.3c-0.1,4.7,1.8,8.8,4.7,9.9c2.6,1,5.6-0.6,8.8-4.4
		c7.3-8.8,7.2-22.8,7.1-26.2C220.6,132.8,214.1,132.9,208.2,130.6L208.2,130.6z"/>
	<path d="M208.3,146.8L208.3,146.8c-0.4,0-0.5-0.3-0.5-0.6l0,0c0.6-3.7,0.2-10.5,0.2-10.6c0-0.3,0.2-0.5,0.4-0.5l0,0
		c0.3,0,0.5,0.2,0.5,0.5s0.5,7-0.2,10.8C208.7,146.6,208.5,146.8,208.3,146.8z"/>
	<path class="st1" d="M158.1,197c-0.4,1.1-0.2,2.4,0.4,3.4c1,1.6,6.4,4.8,6.4,3.6c0-1.3-2.7-3-2.8-3.9c-0.2-0.8-0.5-1.5-0.9-2.2
		C161.2,197.9,159.3,195.5,158.1,197z"/>
	<path d="M164.5,204.8c-1.6,0-5.5-2.6-6.4-4.1c-0.7-1.2-0.8-2.6-0.4-3.9c0,0,0-0.1,0.1-0.1c0.3-0.4,0.8-0.7,1.3-0.7l0,0
		c1.2,0,2.4,1.4,2.5,1.6c0.5,0.7,0.8,1.6,1,2.4c0.3,0.5,0.6,0.9,1,1.3c0.9,0.9,1.8,1.8,1.8,2.7c0,0.4-0.2,0.7-0.6,0.8
		C164.7,204.8,164.6,204.8,164.5,204.8z M158.6,197.3c-0.3,1-0.1,2,0.4,2.9c0.8,1.3,4.3,3.4,5.4,3.6c-0.4-0.7-0.8-1.3-1.4-1.8
		c-0.6-0.5-1.1-1.1-1.3-1.8s-0.4-1.4-0.8-2c-0.4-0.6-1-1-1.7-1.1C158.8,197,158.7,197.1,158.6,197.3z"/>
	<path class="st1" d="M155.6,189.6c0,0-0.2,3.7,0.4,5.4s7.3,6.4,9,5.5s-3.6-5.5-4.8-6.9C158.7,192.2,157.2,190.8,155.6,189.6z"/>
	<path d="M164.4,201.1c-0.6,0-1.2-0.2-1.8-0.4c-2.5-1-6.6-3.9-7.2-5.5c-0.7-1.8-0.4-5.5-0.4-5.6c0-0.2,0.1-0.4,0.3-0.4
		c0.2-0.1,0.4,0,0.5,0.1c1.7,1.3,3.2,2.6,4.7,4.1c0.3,0.3,0.7,0.7,1.2,1.3c2.4,2.4,4.3,4.4,4.1,5.6c0,0.4-0.3,0.7-0.6,0.8
		C165,201.1,164.7,201.1,164.4,201.1z M156,190.6c-0.1,1.4,0,2.9,0.4,4.3c0.4,1.1,4,3.9,6.6,4.9c1.2,0.5,1.6,0.3,1.7,0.3
		c0.2-0.9-2.4-3.6-3.7-4.8c-0.5-0.5-1-1-1.3-1.3C158.6,192.7,157.4,191.6,156,190.6L156,190.6z"/>
	<path class="st1" d="M155.6,185.1c0,0-0.5,3.7,0,5.4s6.9,6.9,8.6,6.1s-3.2-5.7-4.3-7.2C158.6,187.9,157.1,186.4,155.6,185.1z"/>
	<path d="M163.8,197.2c-0.7,0-1.3-0.2-1.9-0.5c-2.5-1.2-6.4-4.4-6.8-6c-0.5-1.9,0-5.5,0-5.7s0.1-0.3,0.3-0.4c0.2-0.1,0.4,0,0.5,0.1
		c1.6,1.4,3,2.8,4.4,4.4c0.2,0.3,0.6,0.8,1.1,1.3c2.2,2.6,3.9,4.6,3.6,5.9c-0.1,0.3-0.3,0.6-0.6,0.8
		C164.2,197.2,164,197.2,163.8,197.2z M156,186.1c-0.2,1.4-0.2,2.9,0.1,4.3c0.3,1.1,3.7,4.1,6.3,5.4c1.2,0.6,1.6,0.4,1.7,0.4
		c0.3-0.9-2.2-3.7-3.4-5.1c-0.5-0.6-0.9-1.1-1.2-1.4C158.4,188.4,157.2,187.2,156,186.1z"/>
	<path class="st1" d="M158.6,180.9c0,0-3.8-2-4.4,0.5s2.3,5.2,4.9,7.4s3.8,1.8,3.8-0.3S158.6,180.9,158.6,180.9z"/>
	<path d="M161.9,190.7c-1.2-0.2-2.2-0.7-3.1-1.6c-3.1-2.5-5.8-5.1-5.1-7.9c0.1-0.6,0.6-1.2,1.1-1.4c1.5-0.7,3.8,0.5,4,0.6
		c0.1,0,0.1,0.1,0.2,0.1c0.5,0.6,4.4,5.8,4.4,7.9c0,1.1-0.3,1.8-0.9,2.1C162.3,190.7,162.1,190.7,161.9,190.7z M155.9,180.6
		c-0.2,0-0.5,0-0.7,0.1c-0.3,0.1-0.5,0.4-0.6,0.8c-0.5,2.2,2.1,4.7,4.8,6.9c1.9,1.5,2.5,1.4,2.6,1.3s0.3-0.5,0.3-1.2
		c0-1.5-2.9-5.6-4.1-7.2C157.5,180.9,156.8,180.7,155.9,180.6L155.9,180.6z"/>
	<path class="st1" d="M158.3,260.3c0,0-5,2.7-14.3,3s-17-4.7-12.7-8.7c4.6-4.2,10.8-6.2,17-5.3c6,1,15,3.3,15,3.3L158.3,260.3z"/>
	<path d="M143.1,263.8c-6.3,0-12-2.3-13.3-5.5c-0.6-1.5-0.1-3.1,1.1-4.1c4.7-4.3,11.1-6.3,17.4-5.5c6,1,15,3.3,15,3.3
		c0.2,0,0.3,0.2,0.3,0.3c0.1,0.2,0,0.3-0.1,0.5l-5,7.7c0,0.1-0.1,0.1-0.2,0.2c-0.2,0.1-5.2,2.7-14.6,3.1L143.1,263.8L143.1,263.8z
		 M145.4,249.5c-5.1,0.1-10,2-13.8,5.4c-1,0.7-1.3,1.9-0.9,3c1,2.5,6.4,5.1,13.2,4.8c8.4-0.3,13.2-2.5,14-2.9l4.5-7
		c-2.2-0.5-9.3-2.3-14.3-3.1C147.3,249.6,146.3,249.5,145.4,249.5z M158.3,260.3L158.3,260.3z"/>
	<path class="st1" d="M159.6,251.9c0.4,0,0.9,0.1,1.4,0.1c-3.1-0.8-8.6-2.1-12.8-2.8c-6.2-0.8-12.4,1.1-17,5.3
		c-2.2,2-1.3,4.3,1.4,6.1c-0.3-2.9,1.3-5.6,4-6.7C142.3,251.3,154,251.3,159.6,251.9z"/>
	<path d="M132.6,261.1c-0.1,0-0.2,0-0.3-0.1c-1.7-1.1-2.7-2.4-2.8-3.8c0-1.2,0.5-2.3,1.4-3.1c4.7-4.3,11.1-6.3,17.4-5.5
		c4.1,0.7,9.8,2,12.8,2.8c0.3,0.1,0.4,0.3,0.4,0.6c-0.1,0.2-0.3,0.4-0.5,0.4c-0.5,0-1,0-1.4-0.1l0,0c-6-0.7-17.4-0.6-22.7,2
		c-2.5,1-4,3.5-3.7,6.2c0,0.2-0.1,0.4-0.2,0.5C132.8,261.1,132.7,261.2,132.6,261.1z M145.4,249.5c-5.1,0.1-10,2-13.8,5.4
		c-0.7,0.5-1.1,1.4-1.1,2.3c0.2,1,0.7,1.9,1.6,2.4c0.1-2.7,1.7-5.2,4.3-6.2c4.6-2.2,12.7-2.6,18.5-2.4c-2.3-0.5-4.7-1-6.7-1.4
		C147.3,249.6,146.4,249.5,145.4,249.5z"/>
	<path d="M262.6,232.6c0,0-10,15-20,21s-55.7,6.7-65,6.7h-19.3v-7c0,0,30.7-4.4,47.7-14s26-20.3,39.3-24.7s25,3,24.7,21"/>
	<path class="st1" d="M226.7,259c-0.3,0-0.5-0.2-0.5-0.5s0.2-0.5,0.5-0.5c10.8-1.9,20.9-6.8,28.9-14.3c0.2-0.2,0.5-0.2,0.7,0l0,0
		c0.2,0.2,0.2,0.5,0,0.7l0,0c-8.2,7.6-18.4,12.7-29.4,14.5L226.7,259z"/>
	<path class="st1" d="M259.6,240.5c-0.1,0-0.2,0-0.3-0.1c-0.2-0.2-0.3-0.5-0.1-0.7c1-1.2,2-2.6,2.8-4c0.1-0.2,0.4-0.3,0.7-0.2
		c0.2,0.1,0.4,0.4,0.2,0.7l0,0c-0.8,1.5-1.8,2.9-2.9,4.2C259.9,240.5,259.8,240.5,259.6,240.5z"/>
	<path class="st1" d="M196,243.9c-0.3,0-0.5-0.2-0.5-0.5s0.2-0.5,0.5-0.5c5.7-0.4,11.2-2.4,15.7-5.9c0.2-0.2,0.5-0.2,0.7,0l0,0
		c0.2,0.2,0.1,0.5-0.1,0.7C207.6,241.4,201.9,243.6,196,243.9z"/>
	<path class="st2" d="M152.4,218.4l-1.1-0.1"/>
	<path class="st2" d="M152.4,218.9L152.4,218.9l-1.1-0.1c-0.3,0-0.5-0.3-0.5-0.5c0-0.3,0.3-0.5,0.5-0.5l1.1,0.1
		c0.3,0,0.5,0.3,0.5,0.5S152.7,218.9,152.4,218.9L152.4,218.9z"/>
	<path class="st1" d="M246.3,261.6c5-1.8,10.1-3.1,15.3-4c7-1,12.7,0,14.7,4.3s0.7,9.7-6.3,11s-19.7-1.3-21-1.3
		c-1.2-0.1-2.3-0.5-3.3-1L246.3,261.6z"/>
	<path d="M265.2,273.8c-4.7-0.1-9.3-0.6-13.9-1.4c-1.2-0.2-2.1-0.3-2.4-0.3c-1.2-0.1-2.4-0.5-3.6-1c-0.2-0.1-0.3-0.3-0.3-0.5l0.7-9
		c0-0.2,0.1-0.4,0.3-0.4c5-1.8,10.2-3.1,15.4-4c8-1.1,13.3,0.5,15.2,4.6c1.1,2.3,1.2,5,0.1,7.3c-0.8,1.6-2.6,3.6-6.8,4.4
		C268.4,273.7,266.8,273.8,265.2,273.8z M246.1,270.3c0.9,0.4,1.8,0.7,2.8,0.8c0.8,0.1,1.7,0.2,2.5,0.3c4.2,0.7,13.1,2,18.4,1
		c3-0.6,5.1-1.9,6.1-3.9c0.9-2,0.9-4.4-0.1-6.4c-2.2-4.7-8.9-4.8-14.1-4c-5.1,0.9-10.1,2.2-14.9,3.9L246.1,270.3z"/>
	<path class="st1" d="M268.2,257.3c2.1,0.8,6.1,3.1,5.4,8.3c-1,7-9.3,7-15,7c-0.4,0-0.8,0.1-1.2,0.2c4.2,0.5,9.1,0.8,12.6,0.2
		c7-1.3,8.3-6.7,6.3-11C275,259.1,272.1,257.7,268.2,257.3z"/>
	<path d="M265.2,273.8c-2.6,0-5.3-0.2-7.9-0.5c-0.2,0-0.4-0.2-0.4-0.5c0-0.2,0.1-0.5,0.4-0.5c0.4-0.1,0.9-0.2,1.4-0.2
		c5.7,0,13.6,0,14.5-6.6c0.7-4.8-2.9-6.9-5.1-7.7c-0.2-0.1-0.4-0.3-0.3-0.6c0.1-0.2,0.3-0.4,0.5-0.4c4.3,0.4,7.2,2,8.5,4.9
		c1.1,2.3,1.2,5,0.1,7.3c-0.8,1.6-2.6,3.6-6.8,4.4C268.4,273.7,266.8,273.8,265.2,273.8z M265.1,272.8c1.6,0,3.2-0.1,4.8-0.4
		c3-0.6,5.1-1.9,6.1-3.9c0.9-2,0.9-4.4-0.1-6.4c-0.9-1.9-2.7-3.3-4.7-3.8c2.3,1.6,3.5,4.5,3,7.3
		C273.4,270.6,269.4,272.2,265.1,272.8z"/>
	<path d="M148.6,210.9c0,0-11.3-2-18.7,3.7s-6.3,11.7,0.7,20.3s25,24,64,31s51,4.7,51,4.7l0.7-9c-16.7,0.1-33.1-5.2-46.7-15
		c-21.8-16-31.6-26.5-47.2-28.2"/>
	<path class="st1" d="M144.5,219.4c-0.2,0-0.5-0.2-0.5-0.4c-0.1-0.3,0.1-0.5,0.4-0.6l0,0c1.2-0.2,2.4-0.4,3.6-0.4
		c0.3,0,0.5,0.2,0.5,0.5s-0.2,0.5-0.5,0.5l0,0C146.9,219.1,145.7,219.2,144.5,219.4L144.5,219.4z"/>
	<path class="st1" d="M241.5,261.9L241.5,261.9c-0.2,0-23.5-0.7-49.3-20.6c-18-13.8-28.9-20.1-37.7-21.9c-0.3-0.1-0.5-0.3-0.4-0.6
		s0.3-0.5,0.6-0.4c9,1.7,20.1,8.1,38.2,22c25.6,19.7,48.5,20.4,48.7,20.4c0.3,0,0.5,0.2,0.5,0.5l0,0
		C242,261.7,241.7,261.9,241.5,261.9z"/>
	<path class="st1" d="M241.2,116.1c-6.1,3.2-7-3.3-7-7.2c0.1,0,0.1-0.1,0.1-0.2c0.4-1.8,0-10.8-5.2-14.4c-4.6-3.2-10.6-5.9-16.2-5.9
		c-4,0-7.5,2.5-9.6,5.8c-2.5,3.8-2.3,8.3-2.5,12.7s-0.6,9.3,0.3,13.7c1.2,5.9,6.7,18.3,13.4,18.3c6.1,0,16.9-9.1,20.5-14.4
		c0.8-0.3,1.6-0.7,2.3-1.3C238.7,122,241.4,120,241.2,116.1z"/>
	<path d="M214.5,139.4c-7.2,0-12.8-13.2-13.9-18.7c-0.8-3.9-0.6-8.1-0.4-12.1l0.1-1.8l0.1-1.8c0.1-3.8,0.3-7.8,2.6-11.2
		c2.5-3.7,6.2-6,10-6l0,0c5,0,11.1,2.2,16.5,6s5.9,13,5.4,14.9c0,0.1-0.1,0.2-0.1,0.2c0,2.2,0.3,5.9,2.2,7c1,0.6,2.3,0.4,4-0.5
		c0.1-0.1,0.3-0.1,0.5,0c0.1,0.1,0.2,0.2,0.3,0.4c0.2,3.9-2.3,6-3.8,7.2l-0.3,0.3c-0.7,0.6-1.4,1.1-2.3,1.4
		C231.8,129.9,221,139.4,214.5,139.4z M213,88.9c-3.5,0-6.9,2.1-9.2,5.5c-2.1,3.2-2.2,6.8-2.4,10.7l-0.1,1.8l-0.1,1.8
		c-0.2,4-0.4,8,0.3,11.8c1.3,6.2,6.8,17.9,12.9,17.9c5.7,0,16.3-8.6,20.1-14.2c0.1-0.1,0.2-0.2,0.3-0.2c0.8-0.3,1.5-0.7,2.1-1.2
		l0.3-0.3c1.3-1.1,3.3-2.7,3.4-5.6c-1.3,0.7-2.9,0.8-4.3,0.1c-2.2-1.4-2.7-5.1-2.7-8.1c0-0.1,0.1-0.3,0.2-0.4
		c0.4-1.7-0.1-10.4-5-13.8C223.6,91,217.8,88.9,213,88.9L213,88.9z"/>
	<path d="M213,122.5c-0.4,0-0.8-0.1-1.1-0.2c-0.2-0.1-0.4-0.4-0.4-0.6c-0.2-1,1.9-7.7,2.6-9.7c0.1-0.3,0.4-0.4,0.6-0.3
		c0.3,0.1,0.4,0.4,0.3,0.6l0,0c-1.3,4-2.6,8.6-2.5,9.2c1,0.1,2-0.1,2.9-0.4c0.3-0.1,0.5,0.1,0.6,0.3l0,0c0.1,0.3-0.1,0.5-0.3,0.6
		C214.7,122.3,213.8,122.5,213,122.5z"/>
	<path d="M215.1,126.5c-1.2,0-2.4-0.3-3.5-1c-0.2-0.2-0.3-0.5-0.1-0.7s0.5-0.3,0.7-0.1l0,0c0.1,0.1,3.4,2.4,8.9-1.6
		c0.2-0.2,0.5-0.1,0.7,0.1l0,0c0.2,0.2,0.1,0.5-0.1,0.7C219.8,125.5,217.5,126.4,215.1,126.5z"/>
	<path class="st2" d="M225.5,118.1c-2.1,0.1-4.1-1-5.2-2.8c-0.1-0.2,0-0.5,0.2-0.7l0,0c0.2-0.1,0.5,0,0.7,0.2l0,0
		c0.1,0.2,1.9,3.7,7.6,1.5c0.3-0.1,0.5,0,0.6,0.3s0,0.5-0.3,0.6l0,0C228,117.8,226.8,118,225.5,118.1z"/>
	<path class="st2" d="M207.7,113.6c-4.3,0-5.3-3.2-5.3-3.3c-0.1-0.3,0.1-0.5,0.4-0.6c0.3-0.1,0.5,0.1,0.6,0.3c0,0.2,1.2,3.6,6.9,2.2
		c0.3-0.1,0.6,0.1,0.6,0.4s-0.1,0.6-0.4,0.6C209.6,113.5,208.6,113.6,207.7,113.6z"/>
	<path d="M214,107.5c-0.2,0-0.4-0.2-0.5-0.4c0,0-1-3.3-3.5-4.4c-1.5-0.6-3.3-0.4-5.3,0.8c-0.2,0.1-0.5,0-0.7-0.2
		c-0.1-0.2,0-0.5,0.2-0.7c2.3-1.3,4.4-1.6,6.2-0.8c3,1.3,4.1,4.9,4.1,5.1c0.1,0.3-0.1,0.5-0.4,0.6H214z"/>
	<path d="M224.1,124c-4.6,0-8.4-3.7-8.4-8.4s3.7-8.4,8.4-8.4c4.6,0,8.4,3.7,8.4,8.4l0,0C232.5,120.3,228.7,124,224.1,124z
		 M224.1,108.3c-4.1,0-7.4,3.3-7.4,7.4s3.3,7.4,7.4,7.4s7.4-3.3,7.4-7.4l0,0C231.5,111.6,228.2,108.3,224.1,108.3L224.1,108.3z"/>
	<path d="M206,120.5c-4.6,0-8.4-3.7-8.4-8.4c0-4.6,3.7-8.4,8.4-8.4c4.6,0,8.4,3.7,8.4,8.4l0,0C214.4,116.7,210.6,120.5,206,120.5z
		 M206,104.8c-4.1,0-7.4,3.3-7.4,7.4s3.3,7.4,7.4,7.4c4.1,0,7.4-3.3,7.4-7.4l0,0C213.4,108.1,210.1,104.8,206,104.8z"/>
	<path class="st2" d="M231.6,117.7c-0.2,0-0.4-0.2-0.5-0.4c0-0.3,0.1-0.5,0.4-0.6l6.5-1.2c0.3,0,0.5,0.1,0.6,0.4
		c0,0.3-0.1,0.5-0.4,0.6L231.6,117.7L231.6,117.7z"/>
	<path d="M198.4,110.7c-0.2,0-0.3-0.1-0.4-0.2c-0.2-0.2-0.1-0.5,0.1-0.7l2.4-1.8c0.2-0.2,0.5-0.1,0.7,0.1s0.1,0.5-0.1,0.7l-2.4,1.8
		C198.6,110.6,198.5,110.7,198.4,110.7z"/>
	<path d="M206.1,91.4c0,0,7-4.3,9.4-0.2c2.4,4,13.6,30.9,25.7,24.9s-0.1-25.8-11.8-32.1S208,83.1,206.1,91.4z"/>
	<path d="M237.7,117.4c-9.2,0-17.3-15.8-21-23.1c-0.7-1.3-1.2-2.3-1.5-2.9c-0.4-0.7-1.1-1.2-1.9-1.4c-2.8-0.7-6.8,1.8-6.8,1.8
		c-0.2,0.1-0.5,0.1-0.7-0.2c-0.1-0.1-0.1-0.2-0.1-0.4c0.9-4.1,3.6-7.5,7.4-9.2c4.9-2.2,10.8-1.7,16.7,1.4c8.1,4.4,17.1,15.8,17,24.6
		c0.1,3.6-2,6.9-5.3,8.4C240.3,117.1,239,117.4,237.7,117.4z M212.1,88.9c0.4,0,0.9,0,1.3,0.1c1.1,0.2,2,0.9,2.5,1.8
		c0.4,0.6,0.9,1.6,1.6,3c4.1,8,13.6,26.7,23.5,21.7c2.9-1.3,4.8-4.3,4.7-7.5c0.1-8.4-8.6-19.4-16.5-23.7c-5.6-3-11.2-3.5-15.8-1.4
		c-3.1,1.4-5.5,4.1-6.6,7.4C208.5,89.6,210.3,89.1,212.1,88.9z"/>
	<path class="st1" d="M204.5,90.6L204.5,90.6c-0.3,0-0.5-0.2-0.5-0.5c0.2-1.6,1.1-3.1,2.5-3.9c2.6-1.7,6.6,1.7,6.8,1.8
		c0.2,0.2,0.2,0.5,0.1,0.7c-0.2,0.2-0.5,0.2-0.7,0.1c-1-0.9-4-2.8-5.6-1.8c-1.1,0.6-1.9,1.7-2.1,3C205,90.3,204.8,90.5,204.5,90.6
		L204.5,90.6z"/>
	<path class="st1" d="M244.6,110.8h-0.1c-1.1-0.3-2.1-0.8-3-1.4c-0.2-0.1-0.3-0.4-0.2-0.7c0.1-0.2,0.4-0.3,0.7-0.2l0,0
		c0.9,0.5,1.8,1,2.8,1.2c0.3,0,0.5,0.3,0.4,0.6S244.9,110.9,244.6,110.8L244.6,110.8z"/>
	<path class="st1" d="M237.5,105.4c-0.2,0-0.3-0.1-0.4-0.2c-2.1-3.1-4-6.3-5.5-9.7c-1.8-3.8-3.9-7.4-6.1-11c-2.6-4-5.3-6.1-8.1-6.4
		c-2.1-0.1-4.1,0.7-5.6,2.2c-0.2,0.2-0.5,0.2-0.7,0l0,0c-0.2-0.2-0.2-0.5,0-0.7l0,0c1.7-1.7,4-2.7,6.4-2.6c3.1,0.3,6.1,2.6,8.9,6.8
		c2.2,3.6,4.3,7.2,6.2,11c1.6,3.3,3.4,6.5,5.5,9.5c0.2,0.2,0.1,0.5-0.1,0.7C237.8,105.3,237.6,105.4,237.5,105.4z"/>
	<path class="st1" d="M232.8,108c-0.1,0-0.2-0.1-0.3-0.1c-2.6-2.5-6.4-3.1-9.6-1.5c-0.2,0.1-0.5,0-0.7-0.2c-0.1-0.2,0-0.5,0.2-0.7
		l0,0c3.6-1.8,7.9-1.1,10.8,1.7c0.2,0.2,0.2,0.5,0,0.7C233.1,107.9,233,108,232.8,108z"/>
	<path d="M232.3,192.3c-12.5,0-20.3-9.5-20.4-9.6c-0.1-0.2-0.1-0.6,0.2-0.7c0.2-0.1,0.4-0.1,0.6,0.1c0.1,0.1,7.5,9.2,19.6,9.2
		c0.3,0,0.5,0.2,0.5,0.5S232.6,192.3,232.3,192.3z"/>
	<g id="freepik--Floor--inject-272">
		<path class="st1" d="M377.6,379.5H32.5c-0.3,0-0.5-0.2-0.5-0.5s0.2-0.5,0.5-0.5h345.1c0.3,0,0.5,0.2,0.5,0.5
			S377.9,379.5,377.6,379.5z"/>
	</g>
</g>
</svg>
