<?xml version="1.0" encoding="UTF-8"?>
<svg id="Capa_2" data-name="Capa 2" xmlns="http://www.w3.org/2000/svg" viewBox="0 0 486.05 486.04">
  <defs>
    <style>
      .cls-1 {
        fill: #111;
      }
    </style>
  </defs>
  <g id="Capa_1-2" data-name="Capa 1">
    <path class="cls-1" d="M299.72,6.41C119.13-34.41-38.2,125.99,8.22,307.22c21.47,83.82,87.35,149.54,171.23,170.77,48.58,12.3,95.67,10.01,137.76-3.49,8.85-2.83,8.48-2.3,16.86-6.09l4.51-2.21c1.61-.73,6.67-4.4,5.65-5.84l-73.5-105.12-89.12-147.11c-1.01-1.59-3.47-.88-3.47,1.01v141.91c0,5.1-4.13,9.23-9.23,9.23h-19.57c-5.41,0-9.8-4.39-9.8-9.8V156.74c0-5.41,4.39-9.8,9.8-9.8h25.17c3.84,0,7.41,1.98,9.44,5.25l2.54,4.08,108.3,173.96,18.7,30.05,55.5,89.16c.36,.58,1.13,.76,1.71,.4,1.59-.99,3.18-1.99,4.74-3.02,6.26-4.07,12.32-8.43,18.17-13.05,70.75-55.93,109.64-150.38,85.02-251.68C459.54,103.47,378.64,24.25,299.72,6.41Zm-1.44,255.17v-111.99c0-5.33,4.32-9.65,9.65-9.65h21.79c5.41,0,9.8,4.39,9.8,9.8v197.13l-34.57-60.23c-4.38-7.63-6.68-16.27-6.68-25.06Z"/>
  </g>
</svg>