<?xml version="1.0" encoding="UTF-8"?>
<svg id="Capa_2" data-name="Capa 2" xmlns="http://www.w3.org/2000/svg" viewBox="0 0 349.57 486.05">
  <defs>
    <style>
      .cls-1 {
        fill: none;
        opacity: .35;
      }

      .cls-2 {
        fill: #111;
      }
    </style>
  </defs>
  <g id="Capa_1-2" data-name="Capa 1">
    <g>
      <rect class="cls-1" width="349.57" height="486.05"/>
      <g>
        <path class="cls-2" d="M345.93,394.37c-51.21,28.44-102.34,57.02-153.46,85.62-5.88,3.29-11.92,5.74-18.7,5.49-6.13,.17-11.65-1.55-16.87-4.49-51.37-28.95-102.7-57.94-154.17-86.71-4.86-2.72-2.18-4.06-.05-6.21,76-76.47,151.98-152.95,227.96-229.44,17.63-17.74,35.26-35.48,52.81-53.3,3.78-3.84,7.74-6.9,13.46-5.05,5.93,1.92,7.38,6.87,8.26,12.4,8.14,51,16.38,101.98,24.59,152.98,6.53,40.53,13.02,81.07,19.63,121.58,.56,3.44-.22,5.32-3.47,7.12Z"/>
        <path class="cls-2" d="M214.69,138.87L28.36,325.2c-1.24,1.24-3.24-.27-2.39-1.8,17.72-31.89,35.45-63.77,53.21-95.63,27.95-50.14,55.95-100.25,83.94-150.37,.55-.99,1.07-2,1.68-2.96,4.97-7.81,15.01-7.88,19.37,.27,10.56,19.75,20.8,39.66,31.23,59.48,.82,1.55,.53,3.45-.71,4.69Z"/>
        <path class="cls-2" d="M124.52,95.88L18.18,286.2c-.82,1.47-3.07,.69-2.81-.97,10.5-67.22,21-134.43,31.48-201.65,3.61-23.18,7.1-46.36,10.66-69.54,.17-1.13,.52-2.22,.67-3.34,.68-5.25,3.38-8.84,8.67-9.88,5.78-1.14,9.83,1.39,12.54,6.5,10.09,19.01,20.24,38,30.36,57,4.93,9.24,9.82,18.5,14.8,27.72,.65,1.2,.64,2.65-.03,3.85Z"/>
      </g>
    </g>
  </g>
</svg>