<?xml version="1.0" encoding="UTF-8"?>
<svg id="Capa_2" data-name="Capa 2" xmlns="http://www.w3.org/2000/svg" viewBox="0 0 417.42 486.05">
  <defs>
    <style>
      .cls-1 {
        fill: none;
        opacity: .35;
      }

      .cls-2 {
        fill: #111;
      }
    </style>
  </defs>
  <g id="Capa_1-2" data-name="Capa 1">
    <g>
      <path class="cls-2" d="M411.92,11.28c-67.64,.14-135.28,.09-202.92,.09h-57.08c-48.95,0-97.91,.07-146.87-.11-4.53-.01-5.48,1.17-4.91,5.47,1.04,7.88,1.51,15.83,2.22,23.76,4.02,44.77,8.06,89.55,12.05,134.32,3.26,36.69,6.44,73.38,9.69,110.06,4.4,49.6,8.89,99.2,13.19,148.81,.28,3.26,1.28,4.76,4.47,5.65,54.33,15.22,108.63,30.53,162.93,45.9,2.42,.69,4.57,.7,7.01,.01,54.65-15.37,109.32-30.67,164.01-45.88,3.22-.89,4.12-2.38,4.39-5.63,2.67-31.7,5.55-63.4,8.38-95.08,3.37-37.72,6.74-75.43,10.11-113.16,2.88-32.38,5.74-64.76,8.62-97.14,3.32-37.2,6.56-74.41,10.11-111.58,.47-4.91-1.07-5.52-5.42-5.51Zm-72.44,93.5c-1.59,13.74-2.87,27.52-3.84,41.32-.28,4.04-1.81,4.59-5.36,4.58-62.8-.1-125.6-.07-188.4-.07-6.59,0-6.61,0-6.11,6.34,1.09,13.96,2.4,27.91,3.23,41.89,.25,4.19,1.45,5.45,5.74,5.44,60.03-.15,120.06-.05,180.09-.2,4.76-.02,5.93,.93,5.45,5.91-4.65,48.19-8.96,96.41-13.47,144.61-1.06,11.29-1.24,11.24-12.01,14.2-30.78,8.47-61.57,16.93-92.33,25.49-2.77,.78-5.29,.89-8.07,.11-33.08-9.23-66.17-18.43-99.3-27.45-3.4-.93-4.5-2.27-4.76-5.84-1.75-23.97-3.65-47.94-5.87-71.87-.47-5.15,.83-6.34,5.89-6.2,13.83,.37,27.67,.2,41.52,.07,3.13-.03,4.45,.59,4.67,4.15,.73,11.21,2.05,22.38,2.95,33.58,.23,2.84,1.17,4.13,4.05,4.89,17.19,4.5,34.33,9.23,51.47,13.95,2.24,.61,4.37,.54,6.57-.06,16.99-4.6,33.98-9.24,51.01-13.7,2.87-.75,4.12-1.81,4.41-5.04,1.73-19.63,3.68-39.25,5.8-58.85,.45-4.14-.62-5.15-4.77-5.13-56.91,.14-113.83,.05-170.74,.18-4.39,.01-5.96-.8-6.36-5.69-4.11-48.93-8.48-97.85-13.04-146.74-.48-5.19,.81-6.15,5.8-6.12,41.69,.23,83.38,.14,125.07,.14s83.39,.11,125.08-.15c5.29-.03,6.17,1.41,5.62,6.27Z"/>
      <rect class="cls-1" y="0" width="417.42" height="486.05"/>
    </g>
  </g>
</svg>