<?xml version="1.0" encoding="UTF-8"?>
<svg id="Capa_2" data-name="Capa 2" xmlns="http://www.w3.org/2000/svg" viewBox="0 0 543.87 486.05">
  <defs>
    <style>
      .cls-1 {
        fill: none;
        opacity: .35;
      }

      .cls-2 {
        fill: #111;
        fill-rule: evenodd;
      }
    </style>
  </defs>
  <g id="Capa_1-2" data-name="Capa 1">
    <g>
      <path class="cls-2" d="M271.93,79.54c-72.52,0-117.84,36.26-135.97,108.77,27.19-36.26,58.92-49.85,95.18-40.79,20.69,5.17,35.47,20.18,51.84,36.79,26.66,27.06,57.52,58.38,124.92,58.38,72.52,0,117.84-36.26,135.97-108.77-27.19,36.26-58.92,49.85-95.18,40.79-20.69-5.17-35.47-20.18-51.84-36.79-26.66-27.06-57.52-58.38-124.92-58.38ZM135.97,242.7c-72.52,0-117.84,36.26-135.97,108.77,27.19-36.26,58.92-49.85,95.18-40.79,20.69,5.18,35.47,20.18,51.84,36.79,26.66,27.06,57.52,58.38,124.92,58.38,72.52,0,117.84-36.26,135.97-108.77-27.19,36.26-58.92,49.85-95.18,40.79-20.69-5.17-35.47-20.18-51.84-36.79-26.66-27.06-57.52-58.38-124.92-58.38Z"/>
      <rect class="cls-1" y="0" width="543.87" height="486.05"/>
    </g>
  </g>
</svg>