<?xml version="1.0" encoding="UTF-8"?>
<svg id="Capa_2" data-name="Capa 2" xmlns="http://www.w3.org/2000/svg" viewBox="0 0 462.9 486.05">
  <defs>
    <style>
      .cls-1 {
        fill: none;
        opacity: .35;
      }

      .cls-2 {
        fill: #111;
      }
    </style>
  </defs>
  <g id="Capa_1-2" data-name="Capa 1">
    <g>
      <rect class="cls-1" width="462.9" height="486.05"/>
      <path class="cls-2" d="M417.69,11.25H45.2C20.23,11.25,0,31.5,0,56.46V428.94C0,453.92,20.23,474.15,45.2,474.15H417.69c24.96,0,45.2-20.23,45.2-45.2V56.46c0-24.96-20.24-45.2-45.2-45.2Zm-149.18,256.84h-58.06v165.38h-46v-165.38h-57.77v-37.14h161.83v37.14Zm149.97,136.06c-4.29,7.68-10.12,13.9-17.48,18.67-7.36,4.76-15.92,8.18-25.69,10.25-9.76,2.07-20.06,3.11-30.91,3.11s-21.73-.94-31.77-2.83c-10.04-1.88-18.75-4.71-26.1-8.48v-45.26c8.2,6.88,17.11,12.04,26.74,15.49,9.62,3.44,19.33,5.16,29.15,5.16,5.75,0,10.78-.52,15.06-1.56,4.29-1.03,7.88-2.47,10.76-4.31,2.88-1.84,5.02-4.01,6.44-6.5,1.41-2.5,2.12-5.21,2.12-8.14,0-3.96-1.14-7.49-3.4-10.61-2.26-3.11-5.35-5.98-9.27-8.62-3.91-2.64-8.56-5.19-13.94-7.64-5.37-2.45-11.17-4.95-17.4-7.49-15.85-6.6-27.66-14.66-35.44-24.18-7.78-9.53-11.67-21.03-11.67-34.52,0-10.56,2.12-19.63,6.36-27.22,4.25-7.59,10.03-13.83,17.33-18.74,7.31-4.9,15.78-8.51,25.4-10.82,9.63-2.31,19.81-3.46,30.57-3.46s19.93,.64,28.09,1.91c8.15,1.27,15.68,3.24,22.57,5.88v42.28c-3.4-2.36-7.1-4.43-11.11-6.22-4.01-1.79-8.14-3.28-12.38-4.46-4.25-1.18-8.47-2.05-12.67-2.61-4.19-.57-8.18-.85-11.95-.85-5.19,0-9.91,.49-14.15,1.48-4.25,.99-7.83,2.38-10.76,4.17-2.92,1.8-5.19,3.94-6.79,6.44-1.6,2.5-2.4,5.31-2.4,8.42,0,3.4,.9,6.44,2.69,9.12s4.34,5.23,7.64,7.64c3.31,2.4,7.31,4.76,12.03,7.07,4.71,2.31,10.04,4.69,15.98,7.14,8.11,3.4,15.4,7,21.86,10.82,6.46,3.82,12.01,8.13,16.63,12.94s8.16,10.31,10.61,16.48c2.45,6.18,3.68,13.36,3.68,21.57,0,11.31-2.15,20.81-6.44,28.5Z"/>
    </g>
  </g>
</svg>