<?xml version="1.0" encoding="UTF-8"?>
<svg id="Capa_2" data-name="Capa 2" xmlns="http://www.w3.org/2000/svg" viewBox="0 0 537.57 484.65">
  <defs>
    <style>
      .cls-1 {
        fill: #111;
      }
    </style>
  </defs>
  <g id="Capa_1-2" data-name="Capa 1">
    <g>
      <path class="cls-1" d="M454.32,146.97c-3.81-1.73-7.72-3.39-11.71-5,.6-4.26,1.12-8.48,1.53-12.64,5.74-58.68-8.81-101.21-40.96-119.77-32.15-18.56-76.26-9.89-124.21,24.42-3.4,2.43-6.8,4.99-10.19,7.64-3.39-2.65-6.79-5.21-10.19-7.64C210.65-.34,166.54-9.01,134.39,9.55c-32.15,18.56-46.69,61.1-40.96,119.77,.41,4.16,.92,8.38,1.53,12.64-3.99,1.61-7.9,3.27-11.71,5C29.57,171.34,0,205.21,0,242.33s29.57,70.99,83.25,95.36c3.81,1.73,7.72,3.39,11.71,5-.6,4.26-1.12,8.48-1.53,12.64-5.74,58.68,8.81,101.21,40.96,119.77,11.07,6.39,23.55,9.55,37.12,9.55,25.85,0,55.64-11.47,87.08-33.97,3.4-2.43,6.8-4.99,10.19-7.64,3.39,2.65,6.79,5.21,10.19,7.64,31.44,22.5,61.23,33.97,87.08,33.97,13.57,0,26.06-3.16,37.12-9.55,32.15-18.56,46.69-61.1,40.96-119.77-.41-4.16-.92-8.38-1.53-12.64,3.99-1.61,7.9-3.27,11.71-5,53.68-24.37,83.25-58.23,83.25-95.36s-29.57-70.99-83.25-95.36ZM296.89,59.02c25.9-18.53,49.9-28.16,69.09-28.16,8.23,0,15.57,1.77,21.8,5.37,20.76,11.99,30.13,44.83,25.7,90.11-.17,1.74-.36,3.5-.57,5.26-22.14-6.66-46.21-11.72-71.51-15.03-15.53-20.26-31.94-38.57-48.77-54.41,1.42-1.06,2.84-2.11,4.27-3.12Zm99.04,222.39c4.79,13.97,8.71,27.72,11.69,41.08-13.07,4.09-26.93,7.58-41.43,10.42,5.34-8.24,10.53-16.7,15.53-25.37,5-8.66,9.73-17.39,14.2-26.13Zm-40.87,10.74c-9.53,16.51-19.74,32.23-30.42,46.94-18.08,1.89-36.8,2.87-55.86,2.87s-37.78-.98-55.86-2.87c-10.68-14.72-20.88-30.43-30.42-46.94-9.53-16.51-18.04-33.21-25.45-49.81,7.4-16.61,15.91-33.3,25.45-49.81,9.53-16.51,19.74-32.23,30.42-46.94,18.08-1.89,36.8-2.87,55.86-2.87s37.78,.98,55.86,2.87c10.68,14.72,20.88,30.43,30.42,46.94,9.53,16.51,18.04,33.21,25.45,49.81-7.4,16.61-15.91,33.3-25.45,49.81Zm-86.28,110.51c-10.08-9.27-20.03-19.54-29.73-30.67,9.81,.5,19.73,.77,29.73,.77s19.93-.26,29.73-.77c-9.7,11.13-19.65,21.4-29.73,30.67Zm-112.95-95.11c5,8.66,10.19,17.12,15.53,25.37-14.49-2.84-28.36-6.32-41.43-10.42,2.99-13.36,6.9-27.11,11.69-41.08,4.47,8.75,9.2,17.47,14.2,26.13Zm-14.2-104.29c-4.79-13.97-8.71-27.72-11.69-41.08,13.07-4.1,26.93-7.58,41.43-10.42-5.34,8.24-10.53,16.7-15.53,25.37s-9.73,17.39-14.2,26.13Zm127.15-121.25c10.08,9.27,20.03,19.54,29.73,30.67-9.81-.5-19.73-.77-29.73-.77s-19.93,.26-29.73,.77c9.7-11.13,19.65-21.4,29.73-30.67Zm112.95,95.11c-5-8.66-10.19-17.12-15.53-25.37,14.49,2.84,28.36,6.32,41.43,10.42-2.99,13.36-6.9,27.11-11.69,41.08-4.47-8.75-9.2-17.47-14.2-26.13ZM124.09,126.33c-4.43-45.28,4.94-78.12,25.7-90.11,20.76-11.99,53.89-3.68,90.89,22.79,1.42,1.02,2.85,2.06,4.27,3.13-16.84,15.84-33.25,34.16-48.77,54.41-25.31,3.32-49.38,8.37-71.51,15.03-.21-1.76-.4-3.52-.57-5.26Zm-28.11,183.31c-41.42-18.8-65.18-43.34-65.18-67.31s23.76-48.51,65.18-67.31c1.59-.72,3.21-1.43,4.84-2.13,5.3,22.5,12.96,45.87,22.74,69.45-9.78,23.57-17.44,46.95-22.74,69.45-1.63-.7-3.25-1.41-4.84-2.13Zm144.7,116c-37,26.47-70.13,34.78-90.89,22.79-20.76-11.99-30.13-44.83-25.7-90.11,.17-1.74,.36-3.5,.57-5.26,22.14,6.66,46.21,11.72,71.51,15.03,15.53,20.26,31.94,38.57,48.78,54.41-1.42,1.06-2.84,2.11-4.27,3.12Zm172.81-67.31c4.43,45.28-4.94,78.12-25.7,90.11-20.76,11.99-53.89,3.68-90.89-22.79-1.42-1.02-2.85-2.06-4.27-3.12,16.84-15.84,33.25-34.16,48.78-54.41,25.31-3.32,49.38-8.37,71.51-15.03,.21,1.76,.4,3.52,.57,5.26Zm28.11-48.68c-1.59,.72-3.21,1.43-4.84,2.13-5.3-22.5-12.96-45.87-22.74-69.45,9.78-23.57,17.44-46.95,22.74-69.45,1.63,.7,3.25,1.41,4.84,2.13,41.42,18.8,65.18,43.34,65.18,67.31s-23.76,48.51-65.18,67.31Z"/>
      <circle class="cls-1" cx="268.79" cy="242.33" r="54.66" transform="translate(-16.5 19.66) rotate(-4.07)"/>
    </g>
  </g>
</svg>