<?xml version="1.0" encoding="UTF-8"?>
<svg id="Capa_2" data-name="Capa 2" xmlns="http://www.w3.org/2000/svg" viewBox="0 0 647.96 486.74">
  <defs>
    <style>
      .cls-1 {
        fill: none;
        opacity: .35;
      }

      .cls-2 {
        fill: #111;
      }
    </style>
  </defs>
  <g id="Capa_1-2" data-name="Capa 1">
    <g>
      <path class="cls-2" d="M293.33,287.47c1.45-.57,2.78-1.23,4.18-1.62,5.08-1.4,9.78-.8,13.83,2.88,3.84,3.49,3.03,7.71,1.82,11.95-6.08,21.49-11.4,43.16-15.64,65.09-.86,4.44-.84,8.8,.09,13.38,3.26-.92,3.79-3.44,4.83-5.39,14.26-26.75,25.55-54.89,38.05-82.46,8.68-19.14,18-38.08,23.08-58.65,.72-2.93,2.3-5.26,5.15-6.14,9.34-2.88,18.86-4.41,28.55-2.02,6.48,1.6,7.7,3.9,5.92,10.27-1.67,5.99-3.78,11.88-5.18,17.94-4.23,18.24-.57,35.24,8.82,52.2,8.91-13.69,16.11-27.5,23.8-41.03,8.75-15.4,15.6-31.56,19.46-48.88,1.14-5.13,3.95-7.62,8.95-8.71,8.26-1.81,16.48-3.17,24.86-1.15,7.01,1.69,8.48,4.19,6.23,11.08-4.9,15.03-8.71,30.07-5.28,46.12,2.19,10.26,6.91,19.35,11.63,28.51,1.72,3.33,4.08,2.18,6.55,1.13,14.74-6.26,30.04-10.48,46.07-11.21,33.55-1.52,63.89,6.08,85.62,33.88,12.43,15.91,17.76,34.03,8.66,53.59-5.08,10.92-14.21,18.18-25.39,22.61-1.97,.78-4.92,2.09-6.39-.71-1.47-2.82,1.13-4.23,3.1-5.49,25.03-15.93,22.39-40.38,5.23-59.2-12.7-13.93-29.98-18.87-47.72-21.9-20.86-3.56-41.48-1.77-61.72,4.66-4.01,1.27-4.92,2.76-3.49,6.79,4.9,13.86,6.45,27.76-2.49,40.74-12.36,17.95-30.08,27.88-50.9,32.46-10.5,2.31-18.43-4.71-18.58-15.9-.15-11.32,4.33-21.34,10.03-30.84,6.37-10.61,14.81-19.49,23.94-27.72,2.86-2.58,3.36-4.56,1.38-8.13-7.66-13.82-11.9-28.91-15.5-45.74-4.04,7.38-7.55,13.64-10.93,19.97-7.19,13.47-15.1,26.52-23.79,39.06-2.73,3.94-3.37,7.34-1.61,11.88,3.66,9.45,5.92,19.16,4.97,29.53-1.17,12.82-7.02,22.89-16.82,30.75-15.28,12.27-32.71,18.65-52.46,17.98-4.97-.17-10.4-.35-12.93-5.52-2.65-5.4-.58-10.64,2.89-15.01,12.41-15.66,24.81-31.34,37.64-46.66,4.53-5.41,5.13-10.07,1.9-16.32-7.3-14.1-12.53-29.04-16.71-44.85-5.78,13.21-11.67,26.37-17.32,39.63-11.74,27.52-26.15,53.66-40.76,79.71-3.29,5.87-7.86,10.72-13.34,14.69-9.44,6.85-19.71,4.29-24.37-6.42-3.87-8.87-4.41-18.29-3.56-27.83,.26-2.98,.54-5.96-.33-9.37-3.53,7.66-7.1,15.3-10.6,22.98-3.92,8.6-7.78,17.22-13.74,24.71-9.56,12.01-27.87,11.69-36.51-1.04-13.39-19.74-17.2-41.8-14.8-65.19,1.16-11.3,3.85-22.31,7.41-35.09-8.7,4.96-16.02,9.09-23.29,13.3-3.89,2.25-9.06,3.8-11.17,7.2-2.1,3.39,2.08,7.79,3.17,11.86,16.17,60.42-20.14,121.5-80.14,134.61-14.38,3.14-28.76,2.62-42.63-1.84-13.36-4.3-18.72-15.84-21.53-28.41-5.65-25.31,3.94-46.16,20.94-63.9,18.01-18.79,40.06-32.31,62.62-44.93,5.25-2.94,10.51-5.87,15.94-8.44,4.17-1.97,4.02-3.57,.48-6.06-13.36-9.39-26.63-18.9-39.95-28.35-18.76-13.31-37.55-26.62-53.36-43.53-13.04-13.95-24.04-29.15-28.95-48.06-1.72-6.62-1.61-13.14-.12-19.73,7.72-34.05,27.12-61.09,52.15-84.19C107.88,56.66,172.68,24.56,244.04,6.64c40.52-10.18,81.85-9.88,120.84,9.55,34.75,17.32,49.45,47.45,40.78,85.38-9.74,42.62-36.4,72.87-72.77,95.03-29.18,17.78-61.66,25.65-95.51,28-14.59,1.01-29.19,.86-43.53-2.69-13.23-3.27-24.8-9.53-34.41-19.26-4.48-4.53-7.38-9.98-9.23-16.04-.62-2.04-.52-3.83,1.34-5.16,1.83-1.31,3.29-.36,4.52,.95,19.23,20.64,44.13,22.74,69.72,19.91,39.06-4.32,74.56-18.27,104.88-43.78,17.47-14.7,32.09-31.74,39.19-54.08,1.5-4.71,2.65-9.52,2.96-14.48,1.37-22.26-9.95-36.51-34.78-43.4-24.75-6.87-49.84-6.38-74.67-1.21-69.57,14.46-130.3,46.32-182.2,94.81-10.91,10.19-19.56,22.38-25.27,36.27-11.6,28.2-6.25,53.31,14.46,75.48,14.47,15.48,31.7,27.68,47.96,41.04,10.12,8.31,20.85,15.92,29.99,25.39,2.14,2.22,4.08,2.52,6.79,1.02,19.16-10.62,38.44-21.03,57.54-31.77,5.52-3.1,8.54-8.98,12.81-13.48,9.6-10.1,20.46-18.32,33.47-23.51,4.63-1.85,9.44-2.76,14.45-2.82,8.51-.1,14.42,3.79,17.59,11.57,2.63,6.46,3.49,13.26,2.57,20.22-.33,2.54-1,5.05-.19,7.9Zm-148.98,85.34c-.21-4.43-1.15-10.55-2.27-16.68-.79-4.31-2.6-4.05-5.67-2.21-19.36,11.58-38.34,23.76-54.77,39.33-12.11,11.48-20.96,25.11-22.02,42.36-.85,13.86,6.87,20.32,20.54,17.95,35.45-6.15,64.11-41.4,64.19-80.74Zm77.33-11.59c-.64,8.55,.85,16.77,3.8,24.69,1.79,4.82,4.78,5.34,8.12,1.53,1.68-1.92,3-4.19,4.24-6.44,7.21-13,12.37-26.92,17.72-40.72,7.14-18.41,14-36.95,17.63-56.46,.52-2.8,1.93-6.28-1.15-8.37-2.75-1.86-5.82-.47-8.6,.76-5.82,2.58-10.73,6.45-14.56,11.45-16.63,21.71-26.64,45.92-27.2,73.56Zm259.65-24.23c-.07-.79-.13-3.15-.52-5.46-.64-3.75-2.23-5.04-5.18-1.58-3.19,3.74-6.61,7.32-9.52,11.27-5.52,7.49-9.06,15.98-11.58,24.89-.46,1.63-.91,3.51,.48,4.87,1.12,1.1,2.38,.02,3.55-.42,13.55-5.08,22.63-17.85,22.77-33.56Zm-119.29,56.15c14.19-1.13,32.48-23.2,31.41-36.67-10.38,12.12-20.47,23.9-31.41,36.67Z"/>
      <rect class="cls-1" y=".69" width="647.96" height="486.05"/>
    </g>
  </g>
</svg>