<?xml version="1.0" encoding="UTF-8"?>
<svg id="Capa_2" data-name="Capa 2" xmlns="http://www.w3.org/2000/svg" viewBox="0 0 425.13 486.05">
  <defs>
    <style>
      .cls-1 {
        fill: #111;
      }
    </style>
  </defs>
  <g id="Capa_1-2" data-name="Capa 1">
    <g>
      <path class="cls-1" d="M282.53,271.63c-1.45,33.79-2.92,67.58-4.36,101.37-1.18,27.75-2.31,55.49-3.48,83.24-.39,9.18-.87,18.35-1.18,27.53-.07,2.01-.49,2.55-2.6,2.15-25.23-4.85-50.48-9.61-75.72-14.38-37.12-7.02-74.25-14.02-111.38-21.03-27.15-5.13-54.3-10.3-81.47-15.36-2.05-.38-2.56-.9-2.28-3.07,6.17-46.56,12.29-93.13,18.31-139.72,5.04-38.98,9.99-77.97,14.84-116.98,1.26-10.17,3.05-20.32,2.95-30.62-.05-5.49,2.47-8.87,7.51-10.81,14.83-5.7,30.12-9.88,45.41-14.04,3.55-.97,5.16-2.44,6.11-6.11,7.19-27.82,17.9-54.1,35.57-77.08,12.18-15.83,26.95-28.28,46.57-33.97,7.42-2.15,15.01-3.12,22.74-2.64,9.02,.57,15.7,4.92,20.23,12.67,.77,1.31,1.34,2.49,3.32,2.45,19.55-.42,32.98,9.62,42.99,25.4,3.54,5.58,6.45,11.49,8.74,17.67,.7,1.89,1.51,2.47,3.51,1.74,3.04-1.11,6.28-1.48,9.46-2.11,3.1-.62,3.32,.63,3.19,3.16-.56,10.68-.94,21.37-1.4,32.06-.98,22.56-2,45.12-2.97,67.69-1.52,35.52-3.02,71.04-4.51,106.56-.06,1.4,0,2.81,0,4.21-.03,0-.07,0-.1,0Zm-206.72,68.9c-.39,1.18-.69,1.98-.93,2.8-2.93,10.16-5.84,20.32-8.78,30.47q-2.88,9.96,5.17,16.63c19.52,16.1,42.14,23.39,67.21,22.79,21.91-.53,39.87-9.52,53.08-27.25,8.05-10.81,12.35-23.16,14.07-36.45,3.04-23.43-2.58-44.1-19.39-61.28-7.68-7.85-16.54-14.2-25.39-20.58-5.69-4.11-11.34-8.23-16.32-13.26-8.75-8.83-5.6-26.82,6.55-32.11,4.42-1.92,9-2.97,13.78-3.31,13.48-.95,26.15,2.31,38.38,7.59,2.4,1.04,3.36,1.04,3.98-1.88,3.34-15.72,6.9-31.4,10.36-47.1,1.01-4.57,.99-4.61-3.42-5.98-14.9-4.64-30.16-5.23-45.55-3.8-18.38,1.7-35.63,6.82-50.6,18-19.88,14.84-30.07,35.12-32.69,59.48-1.44,13.34-.33,26.32,5.95,38.47,5.35,10.34,13.75,17.91,22.71,24.98,5.76,4.55,11.7,8.9,16.78,14.26,5.14,5.43,8.37,11.69,8.74,19.32,.56,11.27-6.67,19.15-17.89,19.3-6.04,.08-11.74-1.53-17.3-3.71-10.35-4.06-19.45-10.22-28.51-17.38ZM193.27,18.22c-2.07,.17-3.9,.31-5.73,.48-.53,.05-1.06,.2-1.59,.3-13.78,2.57-24.61,10.2-33.79,20.3-18.36,20.2-28.83,44.53-36.24,70.4-.65,2.27,.12,2.73,2.15,2.04,.82-.28,1.65-.49,2.47-.78,9.46-3.29,18.9-6.68,28.41-9.83,2-.66,2.88-1.43,3.35-3.57,6.79-31.45,19.83-58.85,49.42-75.37,1.49-.83,1.25-1.45,.05-2.26-2.68-1.8-5.7-1.76-8.5-1.71Zm-20,75.65c5.18-1.68,9.78-3.2,14.39-4.65,10.79-3.4,21.69-6.5,31.71-11.96,1.62-.88,2.25-1.86,2.23-3.75-.1-10.19-1.33-20.24-3.72-30.12-.79-3.28-.2-8.45-3.21-9.26-2.75-.74-6.26,2.71-9.12,4.84-12.93,9.58-20.94,22.72-26.82,37.35-2.24,5.56-4.23,11.22-5.46,17.56Zm87.73-24.12c-1.85-6.01-4.09-11.59-6.83-16.97-2.56-5.02-5.56-9.75-9.74-13.61-3.07-2.84-6.57-4.86-10.75-5.61-2.13-.38-2.94,.03-2.15,2.47,3.57,10.95,5.23,22.24,5.25,33.74,0,2.61,.72,3.28,3.31,3.01,6.96-.73,13.7-2.87,20.9-3.03Z"/>
      <path class="cls-1" d="M288.52,273.37c2.36-55.81,4.72-111.63,7.09-167.44,.58-13.6,1.17-27.2,1.84-40.8,.07-1.45-.89-3.48,1.05-4.27,1.92-.78,3.13,.83,4.36,2.06,7.71,7.72,15.47,15.4,23.16,23.15,1.28,1.29,2.58,2.05,4.46,2.19,12.82,.91,25.63,2.04,38.47,2.85,3.23,.2,4.53,1.39,4.97,4.55,5.3,37.74,10.69,75.47,16.07,113.2,5.04,35.27,10.08,70.54,15.15,105.8,4.42,30.78,8.9,61.55,13.32,92.32,2.23,15.5,4.36,31.01,6.6,46.5,.29,1.99-.4,2.56-2.26,2.94-25.79,5.32-51.57,10.73-77.35,16.1-21.03,4.38-42.07,8.69-63.07,13.18-2.6,.56-3.09,.14-2.97-2.46,1.98-44.69,3.86-89.39,5.79-134.08,1.09-25.26,2.21-50.52,3.32-75.78Z"/>
    </g>
  </g>
</svg>