<?xml version="1.0" encoding="UTF-8"?>
<svg id="Capa_2" data-name="Capa 2" xmlns="http://www.w3.org/2000/svg" viewBox="0 0 478.89 486.05">
  <defs>
    <style>
      .cls-1 {
        fill: none;
        opacity: .35;
      }

      .cls-2 {
        fill: #111;
      }
    </style>
  </defs>
  <g id="Capa_1-2" data-name="Capa 1">
    <g>
      <g>
        <path class="cls-2" d="M478.87,95.71c0-5.51-.44-10.97-1.52-16.35-8.04-40.08-41.66-67.92-82.53-68.04-51.7-.14-103.4-.03-155.1-.03s-103.4-.1-155.09,.02C37.07,11.43,.16,48.22,.11,95.71,0,193.63,0,291.56,.1,389.48c.05,47.8,36.91,84.61,84.77,84.65,103.07,.1,206.13,.1,309.2,0,47.87-.04,84.7-36.82,84.76-84.65,.11-97.92,.03-195.85,.04-293.76Zm-227.8,112.78c-2.9,24.36-15.46,41.06-37.42,51.33-15.51,7.26-31.93,9.99-48.83,10.53-5.32,.17-10.65,.44-15.95,.15-4.05-.22-5.31,.9-5.27,5.15,.21,24.27-.03,48.53,.21,72.81,.05,4.91-1.5,6.26-6.23,6.09-9.3-.33-18.63-.32-27.93-.01-4.53,.16-5.98-1.12-5.95-5.83,.19-35.08,.1-70.15,.1-105.23v-103.24c0-8.35-.48-7.28,7.05-7.6,19.93-.85,39.86-1.92,59.8-1.59,12.86,.2,25.54,1.71,37.76,5.95,29.43,10.24,46.48,39.43,42.65,71.48Zm124.16-11.89c-.35,9.96-.2,19.94-.06,29.91,.05,3.29-1.11,4.37-4.37,4.21-8.31-.4-16.62-.32-24.76,1.85-3.87,1.04-7.58,2.45-11.06,4.43-7.88,4.49-12.2,10.29-11.98,20.38,.68,30.4,.16,60.82,.34,91.24,.03,4.58-1.21,6.12-5.88,5.94-9.13-.34-18.28-.1-27.42-.1q-6.68-.01-6.69-6.51c-.01-35.57-.04-71.14,.01-106.71,.02-14.15-.26-28.26-3.68-42.08-.85-3.46,.43-4.4,3.74-4.36,10.14,.14,20.28,.12,30.42,.01,2.95-.04,4.49,1.21,5.62,3.84,2.03,4.76,2.99,9.78,4.1,15.8,12.14-15.4,27.29-22.73,45.77-23.63,4.64-.22,6.05,1.13,5.89,5.79Z"/>
        <path class="cls-2" d="M211.25,206.51c-2.48,19.66-15.35,31.05-37.43,33.28-8.79,.89-17.61,.43-26.39,.94-3.29,.19-3.83-1.06-3.79-3.96,.13-11.97,.05-23.94,.05-35.9s.14-23.27-.08-34.91c-.06-3.56,.66-5.04,4.59-4.9,9.61,.36,19.26-.82,28.87,.59,24.63,3.6,37.28,20.18,34.18,44.85Z"/>
      </g>
      <rect class="cls-1" x="0" y="0" width="478.89" height="486.05"/>
    </g>
  </g>
</svg>