<?xml version="1.0" encoding="UTF-8"?>
<svg id="Capa_2" data-name="Capa 2" xmlns="http://www.w3.org/2000/svg" viewBox="0 0 544.78 486.34">
  <defs>
    <style>
      .cls-1 {
        fill: #111;
      }

      .cls-2 {
        fill: none;
      }
    </style>
  </defs>
  <g id="Capa_1-2" data-name="Capa 1">
    <g>
      <rect class="cls-2" y=".3" width="544.78" height="486.05"/>
      <g>
        <path class="cls-1" d="M377.67,486.34c-3.46,0-8.32-.21-11.85-1.23-1.46-.38-2.94-.73-4.41-1.08-3.22-.77-6.56-1.57-9.83-2.64-11.53-3.76-23.05-9.53-36.26-18.15-14-9.14-28.03-20.46-42.9-34.6-.74,.69-1.47,1.37-2.2,2.06-2.17,2.04-4.42,4.14-6.69,6.17-15.73,14.06-30.53,24.92-45.23,33.22-13.67,7.71-25.78,12.43-38.09,14.84-4.4,1.04-10.56,1.19-13.86,1.19-5.56,0-10.85-.39-13.82-1.03-9.84-2.15-18.46-6.56-25.63-13.1-7.45-6.8-13.05-15.43-17.11-26.4-4.08-10.99-6.22-23.14-6.76-38.23-.42-11.88,.37-24.35,2.48-39.24,1.43-10.06,3.48-20.62,6.27-32.21-12.79-3.76-24.22-7.78-34.9-12.26-16.85-7.07-30.1-14.35-41.73-22.92-11.59-8.55-19.73-17-25.6-26.59-12.12-19.79-12.51-39.97-1.16-59.99,3.67-6.47,8.59-12.6,15.05-18.74,8.92-8.48,19.81-16.08,33.3-23.22,15.8-8.37,33.82-15.49,55.08-21.75-4.19-17.29-6.84-33.11-8.1-48.36-1.31-15.82-.91-29.76,1.21-42.62,1.83-11.11,4.92-20.54,9.43-28.82,8.69-15.95,21.71-25.86,38.69-29.48,3.17-.69,7.92-1.09,13.01-1.09,4.61,0,8.89,.33,11.76,.9,6.46,1.14,12.95,2.92,19.22,5.26,11.76,4.41,23.7,10.8,36.5,19.53,12.74,8.69,25.47,19.14,38.9,31.92,.28-.26,.56-.52,.84-.78,2.6-2.42,5.06-4.71,7.62-7.01,15.77-14.13,30.59-25.06,45.32-33.42,14.08-7.99,27.17-13.01,40.02-15.35,2.77-.51,7.22-1.12,12.66-1.12,4.58,0,9.08,.43,13.38,1.29,14.06,3.01,25.48,10.57,33.98,22.48,5.41,7.58,9.34,16.56,12.02,27.47,3.21,13.04,4.26,27.35,3.31,45.05-.83,15.42-3.25,31.6-7.41,49.45-.37,1.57-.73,3.14-1.08,4.69,14.27,4.24,26.72,8.69,38.02,13.6,17.03,7.39,30.29,15.01,41.74,23.97,10.93,8.56,18.91,17.53,24.38,27.44,5.25,9.49,7.73,19.43,7.39,29.54-.34,10.07-3.47,19.9-9.29,29.21-5.5,8.79-12.98,16.8-22.85,24.47-11.03,8.58-23.68,15.88-39.8,23-12.04,5.32-25.01,9.99-39.62,14.28,3.95,16.23,6.51,31.09,7.83,45.4,1.54,16.65,1.33,30.57-.66,43.81-1.79,11.93-5,21.99-9.8,30.75-8.47,15.46-21.02,25.22-37.29,29.02-3.86,.89-9.78,1.45-15.46,1.45h0Zm-83.32-80.18c1.23,1.17,2.43,2.3,3.64,3.43,14.45,13.34,27.31,23.23,40.47,31.11,11.04,6.61,20.5,10.7,29.77,12.89,4.11,.97,7.73,1.44,11.07,1.44,1.88,0,3.73-.15,5.49-.46,7.76-1.33,13.59-5.66,17.83-13.24,2.91-5.2,4.89-11.15,6.22-18.72,2-11.37,2.24-23.78,.77-39.05-1.22-12.61-3.5-25.68-6.97-39.9-15.49,3.33-29.85,5.81-43.83,7.55-8.1,1.01-15.26,1.83-21.88,2.5-.52,.05-.63,.06-1.08,.69-13.23,18.6-27.18,36-41.5,51.76Zm-152.09-62.51c-.41,1.99-.84,3.98-1.26,5.97-1.18,5.57-2.41,11.32-3.43,16.98-2.52,14-3.57,27.67-3.12,40.64,.29,8.51,1.34,15.9,3.2,22.57,2,7.18,4.6,12.48,8.17,16.67,4.12,4.83,9.3,7.54,15.85,8.29,1.31,.15,2.66,.22,4.01,.22,4.39,0,9.03-.75,14.6-2.37,8.95-2.6,17.99-6.84,28.45-13.34,13.68-8.5,27.02-19.07,41.79-33.12-.68-.76-1.35-1.51-2.02-2.26-1.9-2.12-3.81-4.25-5.68-6.4-11.71-13.47-23.18-28.09-34.08-43.45-.08-.12-.14-.19-.19-.24-.02,0-.04,0-.06,0-4.73-.42-9.5-.98-14.11-1.53l-1.17-.14c-15.09-1.78-30.01-4.17-44.33-7.1-2.19-.45-4.38-.9-6.64-1.38Zm107.75,12.98c7.05,9.23,14.45,18.12,22.42,26.96,7.63-8.46,15.26-17.56,22.76-27.14-8.16,.28-16.6,.42-25.18,.42-6.44,0-13.14-.08-20-.23Zm-70.67-113.45s.05,.13,.15,.32c13.33,27.26,28.77,54.05,45.9,79.61,.5,.75,.59,.75,1.14,.77,4.08,.16,8.15,.37,12.23,.58,6.05,.31,12.31,.63,18.44,.79,5.08,.13,10.29,.19,15.48,.19,14.62,0,29.98-.52,45.65-1.55,.48-.03,.62-.1,.62-.1,0,0,.1-.07,.3-.36,16.95-25.23,32.42-52,45.98-79.57,.29-.59,.32-.66-.06-1.44-13.18-26.85-28.34-53.16-45.04-78.2-1.21-1.81-1.5-1.81-1.7-1.81-.1,0-.2,0-.3,.02-.31,.04-.62,.06-.93,.06-.65,0-1.22-.09-1.64-.16-.13-.02-.26-.05-.4-.06-15.67-.97-31.42-1.39-52.68-1.4l-5.45,.26c-8.21,.39-19.45,.93-30.83,1.4-.16,0-.26,.02-.31,.03-.05,.05-.13,.15-.26,.34-17.11,25.43-32.65,52.34-46.18,79.99-.07,.14-.1,.23-.11,.27Zm202.55,36.93c-7.04,13.15-14.55,26.16-22.75,39.41,12.48-1.75,23.99-3.78,34.89-6.14-2.33-7.67-8.29-23.92-12.13-33.27Zm-231.07,33.27c11.47,2.45,22.98,4.48,34.91,6.14-8.08-13.02-15.59-26.03-22.76-39.41-3.79,9.32-9.68,25.23-12.15,33.27ZM424.53,180.67c-6.47,20.25-14.55,41.02-24.05,61.76-.34,.74-.3,.86-.03,1.44,8.24,17.87,15.58,36.33,21.81,54.86,.77,2.3,1.52,4.6,2.29,6.97,15.52-4.6,28.86-9.58,40.72-15.19,12.57-5.94,22.21-11.85,30.35-18.6,6.53-5.41,11.02-10.55,14.12-16.17,4.66-8.44,4.67-16.66,.02-25.12-2.04-3.7-4.74-7.24-8.26-10.8-6.61-6.69-14.67-12.55-25.38-18.45-14.74-8.12-31.18-14.72-51.59-20.71Zm-304.22,0c-15.98,4.7-29.85,9.93-42.34,15.95-11.88,5.73-21.04,11.42-28.84,17.92-6.48,5.4-10.92,10.48-13.98,16-4.68,8.45-4.71,16.67-.09,25.14,2.36,4.32,5.68,8.48,10.17,12.71,6.98,6.59,15.41,12.38,26.5,18.23,13.66,7.2,29.34,13.38,47.94,18.91,.21,.06,.43,.13,.64,.19,6.53-20.48,14.46-40.83,24.21-62.13,.12-.26,.13-.37,.13-.38h0s-.02-.13-.16-.43c-9.53-20.82-17.67-41.7-24.2-62.09Zm30.51-7.68c3.62,11.15,7.62,22.14,12.14,33.29,7.25-13.52,14.76-26.53,22.76-39.42-11.42,1.57-23.13,3.63-34.89,6.13Zm208.62-5.96c8.11,13.35,15.52,26.29,22.46,39.24,4.74-11.76,8.74-22.74,12.12-33.29-11.75-2.52-23.16-4.48-34.58-5.95ZM165.56,31.38c-.62,0-1.24,.01-1.87,.04-8.12,.36-14.37,3.62-19.1,9.97-2.27,3.04-4.11,6.62-5.62,10.93-2.74,7.8-4.19,16.49-4.54,27.33-.28,8.6,.14,17.58,1.3,27.46,1.36,11.59,3.5,23.28,6.52,35.66,2.82-.53,5.63-1.07,8.44-1.61,7.93-1.53,16.12-3.11,24.26-4.39,9.75-1.53,19.68-2.64,29.29-3.71l3.28-.37c1.05-.12,1.17-.28,1.55-.81,13.12-18.48,27.06-35.87,41.45-51.7-10.75-10.23-20.95-18.75-31.15-26.02-11.22-8-21-13.57-30.79-17.53-8.98-3.64-16.09-5.26-23.03-5.26Zm170.81,101.22s.09,.02,.23,.03c3.36,.25,6.72,.63,9.97,1.01l2.75,.31c15.99,1.79,32.42,4.41,48.83,7.8,1.49,.31,2.97,.62,4.48,.94,4.78-19.73,7.26-36.53,7.79-52.74,.44-13.39-.63-24.18-3.37-33.95-1.62-5.8-3.79-10.5-6.62-14.39-4.11-5.63-9.36-8.85-16.06-9.86-1.68-.25-3.42-.38-5.19-.38-3.69,0-7.63,.55-12.07,1.67-9.07,2.3-18.24,6.35-28.87,12.75-14.13,8.5-27.9,19.27-43.36,33.9-.17,.16-.34,.33-.51,.5,.23,.25,.45,.51,.68,.76,2.33,2.61,4.62,5.18,6.88,7.78,11.76,13.52,23.23,28.14,34.09,43.45,.21,.3,.33,.4,.36,.43h0Zm-45.33-2.83c1.46,0,2.86,.07,4.22,.15-6.49-8.35-17.68-21.6-22.86-27.16-5.39,5.74-16.55,19.14-22.71,27.16,1.43-.05,2.86-.1,4.28-.13,4.24-.1,8.49-.14,12.47-.16,2.02-.01,4.03-.02,6.05-.02s4.11,0,6.17,.02c1.78,.01,3.56,.04,5.34,.07,2.27,.04,4.55,.07,6.82,.07h.21Z"/>
        <path class="cls-1" d="M272.37,289.44c25.57,.03,46.32-20.58,46.39-46.08,.07-25.62-20.68-46.48-46.26-46.5-25.63-.03-46.36,20.71-46.33,46.37,.02,25.6,20.61,46.19,46.2,46.22Z"/>
      </g>
    </g>
  </g>
</svg>