<?xml version="1.0" encoding="UTF-8"?>
<svg id="Capa_2" data-name="Capa 2" xmlns="http://www.w3.org/2000/svg" viewBox="0 0 462.9 486.05">
  <defs>
    <style>
      .cls-1 {
        fill: none;
        opacity: .35;
      }

      .cls-2 {
        fill: #111;
      }
    </style>
  </defs>
  <g id="Capa_1-2" data-name="Capa 1">
    <g>
      <rect class="cls-1" y="0" width="462.9" height="486.05"/>
      <path class="cls-2" d="M301.29,11.58v61.18h61.18V11.58h-61.18Zm-156.46,0c-58.35-.38-111.11,34.62-133.45,88.52C3.82,117.91-.04,137.06,0,156.4v217.64H61.18V155.59c1.96-45.33,38.57-81.46,83.92-82.83h116.94V11.58h-117.21ZM401.72,212.44v61.18h61.18v-61.18h-61.18Zm0-100.43v61.18h61.18v-61.18h-61.18Zm5.41-100.43h-5.41v61.18h61.18V11.58h-55.76Zm-5.41,301.29v61.18h61.18v-61.18h-61.18Zm0,100.43v61.18h61.18v-61.18h-61.18Zm-100.43,0v61.18h61.18v-61.18h-61.18Zm-100.43,0v61.18h61.18v-61.18h-61.18Zm-100.43,0v61.18h61.18v-61.18h-61.18ZM0,413.29v61.18H61.18v-61.18H0Z"/>
    </g>
  </g>
</svg>