<?xml version="1.0" encoding="UTF-8"?>
<svg id="Capa_2" data-name="Capa 2" xmlns="http://www.w3.org/2000/svg" viewBox="0 0 322.26 486.07">
  <defs>
    <style>
      .cls-1 {
        fill: #111;
      }
    </style>
  </defs>
  <g id="Capa_1-2" data-name="Capa 1">
    <g>
      <path class="cls-1" d="M154.73,486.07c-4.31-1.49-8.88-1.45-13.31-2.29-19.65-3.75-37.56-11.5-53.91-22.96-25.05-17.56-50.13-35.08-75.16-52.66-13.58-9.54-16.19-24.56-6.67-38.18,19.65-28.11,39.31-56.21,58.99-84.29,9.52-13.58,24.6-16.3,38.18-6.85,16.17,11.26,32.26,22.64,48.42,33.91,7.61,5.3,11.13,12.52,9.71,21.65-1.43,9.22-7.16,14.72-16.14,17.23-16.27,4.56-31.94,2.06-47.25-3.92-3.07-1.2-5.66-3.64-8.5-5.45-3.32-2.12-6.48-1.64-8.28,1.19-1.69,2.66-.93,5.86,2.08,7.9,12.62,8.55,25.25,17.07,37.91,25.54,3.25,2.17,6.44,1.6,8.28-1.25,1.71-2.65,.9-5.66-2.14-7.89-1-.73-2-1.46-3.77-2.75,7.67,.16,14.32-.4,20.91-1.78,14.67-3.09,24.53-11.2,27.65-26.34,.38-1.83,1.25-1.58,2.54-1.34,10.8,2.01,21.61,2.4,32.46,.21,9.22-1.86,17.45-5.34,23.33-13.12,11.08-14.63,7.88-34.96-7.39-45.82-12.95-9.21-26.04-18.24-39.06-27.35-.97-.68-1.94-1.37-3.74-2.63,2.41,0,3.95,0,5.5,0,18.67,.07,36.9-2.38,54.21-9.8,2.5-1.07,5.03-2.14,7.32-3.57,2.04-1.28,2.77-.86,3.68,1.26,7.41,17.28,15.01,34.49,22.43,51.77,6.13,14.28,13.38,28.16,18.2,42.92,13.17,40.38,6.19,77.23-21.64,109.49-23.74,27.53-54.11,42.8-90.27,46.56-.61,.06-1.34-.16-1.69,.63h-22.88Z"/>
      <path class="cls-1" d="M6.8,297.15c-7.76-7.97-8.39-20.7-1.44-30.73,9.54-13.78,19.19-27.48,28.8-41.21,6.99-9.99,13.98-19.97,20.96-29.97,10.65-15.25,25.34-22.75,43.86-22.77,47.16-.04,94.32-.03,141.48,0,13.71,0,24.28,10.35,24.04,23.48-.11,6.02-2.36,11.2-6.57,15.54-10.91,11.27-24.59,17.28-39.55,20.87-13.78,3.3-27.83,3.05-41.86,3.55-8.86,.32-15.99-1.89-23.02-7.29-11.29-8.67-23.25-16.49-34.98-24.6-18.8-12.99-40.57-8.98-53.67,9.84-18.78,26.97-37.54,53.95-56.32,80.92-.55,.8-1.14,1.57-1.73,2.37Z"/>
      <path class="cls-1" d="M191.29,326.28c-6.01-.09-11.91-1.11-17.81-2.1-1.55-.26-2.08-.97-2.5-2.42-2.05-7.15-6.17-12.93-12.25-17.21-16.82-11.84-33.58-23.78-50.55-35.4-17.83-12.21-39.73-7.97-52.26,9.85-15.84,22.53-31.61,45.1-47.42,67.65-2.13,3.04-2.23,3.08-4.11-.15-5.61-9.64-5.07-19.08,1.26-28.19,16.34-23.51,32.7-47,49.05-70.49,6.53-9.38,13.02-18.79,19.6-28.13,9.32-13.25,24.36-15.98,37.69-6.71,34.66,24.12,69.26,48.34,103.89,72.51,7.52,5.25,10.87,12.5,9.31,21.46-1.54,8.86-7.21,14.36-15.85,16.82-5.9,1.68-11.93,2.42-18.05,2.52Z"/>
      <path class="cls-1" d="M13.35,234.82c1.56-9.61,3.02-18.91,4.58-28.19,7.93-47.27,19.9-93.53,34.89-139.03,5.11-15.52,22.6-21.71,35.56-12.57,3,2.11,5.23,4.86,6.96,8.08,6.25,11.64,8.23,24.19,8.04,37.22-.19,12.51-2.91,24.57-6.17,36.57-2,7.34-3.67,14.77-5.36,22.18-.44,1.95-1.28,2.81-3.32,3.12-18.34,2.81-32.48,12.2-42.97,27.43-9.81,14.25-19.81,28.38-29.75,42.54-.6,.85-.99,1.92-2.46,2.64Z"/>
      <path class="cls-1" d="M185.64,161.53c-9.91,0-19.82-.07-29.72,.05-2.26,.03-3.49-.51-4.29-2.81-1.99-5.74-4.44-11.33-6.44-17.07-3.39-9.71-1.39-18.35,6.19-25.28,7.31-6.68,15.75-7.68,24.85-3.8,13.18,5.63,22.92,15.17,30.8,26.85,4.2,6.23,7.68,12.87,10.97,19.62,1.03,2.11,.51,2.49-1.66,2.47-10.23-.09-20.47-.04-30.71-.04Z"/>
      <path class="cls-1" d="M168.47,33.82c0,6.96,.08,13.93-.02,20.89-.09,6.36-4.16,10.78-9.78,10.89-5.47,.11-9.83-3.96-10.16-10.19-.76-14.57-1.36-29.15-1.76-43.74C146.57,4.98,152.01-.07,158.62,0c6.53,.07,11.82,5.32,11.69,11.96-.14,7.29-.61,14.58-.94,21.87-.3,0-.61,0-.91,0Z"/>
      <path class="cls-1" d="M322.26,118.37c-.07,5.06-2.87,9.28-7.84,10.9-14.04,4.58-28.12,9.06-42.24,13.4-5.24,1.61-10.45-1.17-12.23-6.02-1.86-5.05,.37-10.41,5.65-12.65,13.5-5.73,27.02-11.43,40.64-16.85,7.96-3.17,16.14,2.76,16.02,11.22Z"/>
      <path class="cls-1" d="M224.57,86.87c-5.68-.08-10.41-7.37-7.54-13.9,.52-1.19,1.27-2.28,1.97-3.38,7.25-11.38,14.49-22.77,21.78-34.13,4.13-6.43,11.37-8.14,17.17-4.15,5.88,4.05,6.77,11.6,2.06,17.76-8.4,10.99-16.84,21.94-25.22,32.95-2.24,2.94-4.96,4.85-10.21,4.85Z"/>
    </g>
  </g>
</svg>