<?xml version="1.0" encoding="UTF-8"?>
<svg id="Capa_2" data-name="Capa 2" xmlns="http://www.w3.org/2000/svg" viewBox="0 0 440.54 485.91">
  <defs>
    <style>
      .cls-1 {
        fill: #111;
      }

      .cls-2 {
        fill: none;
      }
    </style>
  </defs>
  <g id="Capa_1-2" data-name="Capa 1">
    <g>
      <g>
        <path class="cls-1" d="M440.54,367.4c-.05,34.52-22.96,64.78-55.91,73.85-33.51,9.23-68.72-4.46-86.31-34.55-36.16-61.87-71.86-124-107.75-186.02-11.22-19.38-22.44-38.76-33.68-58.13-8.79-15.15-13.97-31.13-13.09-49.01,1.75-35.73,31.67-67.59,67.29-71.12,27.65-2.74,50.46,6.48,68.54,27.51,4.02,4.68,6.81,10.17,9.87,15.46,46.8,80.89,93.54,161.82,140.32,242.73,7.03,12.16,10.85,25.17,10.72,39.27Z"/>
        <path class="cls-1" d="M0,367.4c-.1-42.31,34.17-76.6,76.73-76.75,41.71-.15,76.22,34.29,76.37,76.22,.16,42.59-33.91,77.04-76.28,77.14C34.37,444.1,.1,409.93,0,367.4Z"/>
        <path class="cls-1" d="M125.05,130.05c3.34,25.15,16.93,44.6,28.46,64.87,17.56,30.88,35.64,61.46,53.65,92.08,1.68,2.85,1.58,4.76-.06,7.57-11.68,19.95-23.14,40.03-35.22,61.04-5.22-31.33-20.3-55.37-47.18-70.96-27.02-15.67-55.4-17.05-85.57-5.6,28.75-49.85,57.06-98.93,85.94-149Z"/>
      </g>
      <rect class="cls-2" y="0" width="440.54" height="485.91"/>
    </g>
  </g>
</svg>