<?xml version="1.0" encoding="UTF-8"?>
<svg id="Capa_2" data-name="Capa 2" xmlns="http://www.w3.org/2000/svg" viewBox="0 0 344.62 486.05">
  <defs>
    <style>
      .cls-1 {
        fill: none;
        opacity: .35;
      }

      .cls-2 {
        fill: #111;
      }
    </style>
  </defs>
  <g id="Capa_1-2" data-name="Capa 1">
    <g>
      <path class="cls-2" d="M316.04,183.5c-2.71-2.7-5.73-5.1-8.71-7.72,2.43-2.08,4.67-3.9,6.82-5.83,36.79-32.89,40.66-87.44,8.5-124.76-19.71-22.87-45.14-33.84-75.22-33.89-50.06-.09-100.14-.02-150.2-.03-14.66,0-28.72,2.78-42.11,8.83C4.74,42.86-14.82,101.69,12.53,148.19c6.38,10.83,14.81,19.82,24.8,27.59-1.01,.86-1.77,1.55-2.55,2.19-46.11,37.67-46.44,102.45-.58,140.43,3.22,2.66,2.25,3.49-.28,5.68-27.34,23.63-39.31,53.15-31.52,88.91,8.73,40.15,42.82,68.22,86.01,72.33,54.73,5.2,102.92-38.3,103.09-93.13,.07-21.63-.01-43.25,.06-64.88,0-1.53-.78-3.31,.7-4.68,27.98,18.88,57.93,21.38,82.86,14.01,33.99-10.06,57.38-31.86,66.39-66.44,8.73-33.44-1.17-62.47-25.45-86.71ZM85.26,50.63c10-1.64,20.04-.77,30.07-.91,10.9-.15,21.81,.13,32.69-.12,3.86-.09,5.18,.76,5.11,4.93-.27,16.17-.11,32.35-.11,48.53s.01,33.03-.01,49.54c-.01,1.91,.74,4.23-2.72,4.16-21.09-.47-42.27,1.35-63.28-.89-27.85-2.98-49.13-27.18-48.57-54.11,.53-24.76,20.82-46.88,46.83-51.12Zm67.76,198.12c0,16.35-.08,32.69,.07,49.04,.03,3.25-.71,4.34-4.17,4.3-18.22-.18-36.44,.13-54.65-.17-26.48-.44-49.84-18.97-54.76-43.02-5.7-27.8,12.55-55.02,41.61-62.08,5.32-1.29,10.71-1.88,16.19-1.88,17.02,.01,34.05,.14,51.08-.1,3.97-.05,4.76,1.16,4.72,4.88-.2,16.35-.09,32.69-.09,49.04Zm-.7,153.25c-5.51,31.36-38.34,51.53-70.54,43.62-25.47-6.25-43.21-27.27-43.35-51.36-.16-26.76,21.68-50.73,49.52-53.26,20.69-1.88,41.5-.37,62.26-.74,2.85-.05,2.84,1.54,2.83,3.57-.04,9.02-.02,18.05-.02,28.91-.37,8.52,1.11,18.99-.7,29.25ZM191.5,102.99c0-16.17,.11-32.34-.08-48.52-.04-3.62,.56-4.96,4.63-4.9,18.05,.27,36.09-.07,54.14,.18,24.86,.36,47.08,16.63,53.79,38.98,8.57,28.57-9.82,58.61-40.49,66.1-4.81,1.18-9.71,1.83-14.66,1.84-17.71,.05-35.42-.05-53.12,.1-3.31,.03-4.32-.83-4.29-4.25,.18-16.52,.08-33.03,.08-49.55Zm113,157.44c-5.34,20.99-19.82,33.46-40.19,39.48-5.06,1.51-10.31,2.15-15.64,2.11-16.15-.39-30.3-5.75-41.82-17.25-20.74-20.71-20.47-52.59,.47-73.07,22.2-21.7,58.79-22.41,81.51-1.23,14.56,13.56,20.65,30.4,15.67,49.95Z"/>
      <rect class="cls-1" y="0" width="344.61" height="486.05"/>
    </g>
  </g>
</svg>