<?xml version="1.0" encoding="utf-8"?>
<!-- Generator: Adobe Illustrator 23.0.0, SVG Export Plug-In . SVG Version: 6.00 Build 0)  -->
<svg version="1.1" id="Capa_1" xmlns="http://www.w3.org/2000/svg" xmlns:xlink="http://www.w3.org/1999/xlink" x="0px" y="0px"
	 viewBox="0 0 25 25" style="enable-background:new 0 0 25 25;" xml:space="preserve">
<style type="text/css">
	.st0{fill:#FFFFFF;}
</style>
<title>13 equis borrar</title>
<g>
	<g id="Capa_1-2_1_">
		<path class="st0" d="M14,12.5l2.8-2.8c0.4-0.4,0.4-1.2,0-1.6c-0.4-0.4-1.1-0.4-1.4,0l-2.8,2.8L9.7,8.1C9.3,7.7,8.6,7.7,8.1,8.2
			c-0.4,0.4-0.4,1.1,0,1.4l2.8,2.8l-2.8,2.8c-0.4,0.4-0.4,1.1,0,1.5l0,0c0.4,0.4,1.1,0.4,1.5,0l2.8-2.8l2.8,2.8
			c0.4,0.4,1.1,0.4,1.5,0c0.4-0.4,0.4-1.1,0-1.5l0,0L14,12.5z"/>
	</g>
</g>
</svg>
