<svg xmlns="http://www.w3.org/2000/svg" viewBox="0 0 24 19"><defs><style>.cls-1{fill:#ababab;}</style></defs><title>34 menu</title><g id="Capa_2" data-name="Capa 2"><g id="Capa_1-2" data-name="Capa 1"><path class="cls-1" d="M24,1.5h0A1.5,1.5,0,0,1,22.5,3H1.5A1.5,1.5,0,0,1,0,1.5H0A1.5,1.5,0,0,1,1.5,0h21A1.5,1.5,0,0,1,24,1.5ZM22.5,8H1.5A1.5,1.5,0,0,0,0,9.5H0A1.5,1.5,0,0,0,1.5,11h21A1.5,1.5,0,0,0,24,9.5h0A1.5,1.5,0,0,0,22.5,8Zm0,8H1.5A1.5,1.5,0,0,0,0,17.5H0A1.5,1.5,0,0,0,1.5,19h21A1.5,1.5,0,0,0,24,17.5h0A1.5,1.5,0,0,0,22.5,16Z"/></g></g></svg>