<?xml version="1.0" encoding="UTF-8"?>
<svg id="Capa_2" data-name="Capa 2" xmlns="http://www.w3.org/2000/svg" viewBox="0 0 106.6 107.34">
  <defs>
    <style>
      .cls-1 {
        fill: #fff;
      }

      .cls-2 {
        fill: none;
      }
    </style>
  </defs>
  <g id="Capa_1-2" data-name="Capa 1">
    <g>
      <g>
        <g>
          <path class="cls-1" d="M33.96,67.64c-13.59,0-24.61-11.02-24.61-24.61s11.02-24.61,24.61-24.61c6.8,0,12.95,2.75,17.4,7.21l2.49-2.49c-5.09-5.09-12.12-8.24-19.89-8.24-15.53,0-28.12,12.59-28.12,28.12s12.59,28.12,28.12,28.12c7.77,0,14.8-3.15,19.89-8.24l-2.49-2.49c-4.45,4.45-10.6,7.21-17.4,7.21Z"/>
          <path class="cls-1" d="M33.96,60.61c-9.71,0-17.58-7.87-17.58-17.58s7.87-17.58,17.58-17.58c4.85,0,9.25,1.97,12.43,5.15l2.49-2.49c-3.82-3.82-9.09-6.18-14.91-6.18-11.65,0-21.09,9.44-21.09,21.09s9.44,21.09,21.09,21.09c5.82,0,11.1-2.36,14.91-6.18l-2.49-2.49c-3.18,3.18-7.57,5.15-12.43,5.15Z"/>
          <path class="cls-1" d="M33.96,53.58c-5.82,0-10.55-4.72-10.55-10.55s4.72-10.55,10.55-10.55c2.91,0,5.55,1.18,7.46,3.09l2.49-2.49c-2.54-2.54-6.06-4.12-9.94-4.12-7.77,0-14.06,6.3-14.06,14.06s6.3,14.06,14.06,14.06c3.88,0,7.4-1.57,9.94-4.12l-2.49-2.49c-1.91,1.91-4.54,3.09-7.46,3.09Z"/>
          <path class="cls-1" d="M100.76,36c0,11.65-9.44,21.09-21.09,21.09v-3.52c9.71,0,17.58-7.87,17.58-17.58s-7.87-17.58-17.58-17.58h-17.58v52.73h-3.52V14.91h21.09c11.65,0,21.09,9.44,21.09,21.09Z"/>
          <path class="cls-1" d="M86.69,36c0,3.88-3.15,7.03-7.03,7.03v-3.52c1.94,0,3.52-1.57,3.52-3.52s-1.57-3.52-3.52-3.52h-3.52v38.67h-3.52V28.97h7.03c3.88,0,7.03,3.15,7.03,7.03Z"/>
          <path class="cls-1" d="M93.72,36c0,7.76-6.3,14.06-14.06,14.06v-3.52c5.82,0,10.55-4.72,10.55-10.55s-4.72-10.55-10.55-10.55h-10.55v45.7h-3.52V21.94h14.06c7.76,0,14.06,6.3,14.06,14.06Z"/>
        </g>
        <g>
          <path class="cls-1" d="M8.99,88.88c-.45,0-.86-.07-1.25-.22-.39-.15-.72-.35-1-.62-.28-.26-.5-.57-.66-.92-.16-.35-.24-.74-.24-1.16s.1-.84,.29-1.2c.19-.37,.46-.68,.81-.94,.35-.26,.76-.46,1.24-.61,.48-.15,1.01-.22,1.58-.22,.41,0,.81,.04,1.2,.11,.39,.07,.74,.17,1.05,.3v-.53c0-.61-.17-1.08-.52-1.41-.35-.33-.86-.49-1.54-.49-.49,0-.97,.09-1.44,.26-.47,.18-.95,.43-1.44,.77l-.72-1.49c1.18-.78,2.46-1.18,3.83-1.18s2.35,.33,3.09,.98c.73,.65,1.1,1.59,1.1,2.82v2.87c0,.25,.04,.42,.13,.53s.23,.16,.43,.18v2c-.4,.08-.74,.12-1.04,.12-.45,0-.79-.1-1.03-.3-.24-.2-.39-.46-.45-.79l-.05-.51c-.41,.54-.91,.95-1.49,1.23-.59,.28-1.21,.42-1.88,.42Zm.67-1.72c.4,0,.78-.07,1.13-.21,.36-.14,.64-.33,.84-.56,.26-.2,.39-.42,.39-.67v-1.05c-.28-.11-.59-.19-.91-.25-.33-.06-.64-.1-.95-.1-.61,0-1.11,.14-1.49,.41-.39,.28-.58,.62-.58,1.05,0,.4,.15,.73,.46,.99,.3,.26,.68,.4,1.13,.4Z"/>
          <path class="cls-1" d="M22.05,81.54c-.71,.01-1.35,.15-1.92,.41-.56,.26-.97,.66-1.21,1.19v5.57h-2.36v-9.21h2.16v1.97c.16-.32,.36-.6,.58-.85,.22-.25,.46-.47,.72-.66,.26-.19,.52-.33,.78-.43,.26-.1,.52-.15,.76-.15h.29c.06,0,.13,0,.18,.02v2.14Z"/>
          <path class="cls-1" d="M26.39,88.88c-.59,0-1.13-.13-1.62-.38-.49-.25-.92-.59-1.27-1.03-.36-.43-.64-.94-.84-1.52-.2-.58-.3-1.2-.3-1.87s.11-1.29,.33-1.86c.22-.57,.52-1.08,.91-1.5,.39-.43,.84-.76,1.37-1.01,.53-.25,1.1-.37,1.71-.37,.7,0,1.32,.16,1.86,.48,.54,.32,.98,.75,1.32,1.27v-1.6h2.06v10.13c0,.26,.05,.44,.14,.54,.09,.1,.26,.16,.49,.17v2c-.2,.04-.42,.06-.65,.08-.23,.02-.45,.03-.63,.03-.23,0-.45-.04-.66-.12-.21-.08-.38-.19-.54-.33s-.28-.31-.37-.5c-.09-.19-.14-.41-.14-.64v-3.74c-.34,.6-.78,1.05-1.32,1.34-.54,.3-1.15,.45-1.85,.45Zm.88-2c.5,0,.94-.14,1.32-.42,.37-.28,.7-.64,.97-1.09v-2.18c-.07-.26-.18-.5-.34-.72-.16-.22-.34-.42-.55-.59-.21-.17-.44-.3-.69-.4-.25-.09-.49-.14-.74-.14-.36,0-.69,.08-.99,.23-.3,.15-.56,.36-.77,.62-.22,.26-.39,.57-.51,.91-.12,.34-.18,.69-.18,1.05,0,.39,.06,.74,.18,1.07,.12,.33,.29,.62,.51,.86,.22,.25,.48,.44,.78,.58,.3,.14,.64,.21,1.02,.21Z"/>
          <path class="cls-1" d="M36.87,88.88c-.95,0-1.67-.3-2.16-.91-.49-.61-.74-1.51-.74-2.71v-5.77h2.36v5.26c0,1.42,.51,2.13,1.53,2.13,.46,0,.9-.14,1.33-.41,.43-.28,.78-.69,1.05-1.26v-5.71h2.36v6.5c0,.25,.04,.42,.13,.53s.23,.16,.43,.18v2c-.23,.05-.43,.08-.59,.09-.16,.01-.3,.02-.43,.02-.42,0-.76-.1-1.03-.29-.26-.19-.42-.46-.47-.8l-.05-.74c-.41,.63-.94,1.11-1.58,1.42-.64,.32-1.35,.47-2.13,.47Z"/>
          <path class="cls-1" d="M44.92,78.21v-2.34h2.36v2.34h-2.36Zm0,10.5v-9.21h2.36v9.21h-2.36Z"/>
          <path class="cls-1" d="M54.92,88.23c-.32,.14-.7,.28-1.16,.42-.46,.14-.94,.21-1.44,.21-.33,0-.64-.04-.92-.12-.29-.08-.54-.21-.76-.4-.22-.18-.39-.42-.52-.7-.13-.29-.19-.64-.19-1.05v-5.29h-1.21v-1.81h1.21v-2.99h2.36v2.99h1.93v1.81h-1.93v4.5c0,.33,.08,.56,.25,.69,.17,.13,.38,.2,.62,.2s.49-.04,.72-.12c.23-.08,.42-.15,.56-.21l.47,1.86Z"/>
          <path class="cls-1" d="M60.2,88.88c-.74,0-1.41-.13-2-.38-.6-.25-1.11-.59-1.53-1.03-.42-.43-.75-.94-.98-1.51s-.34-1.18-.34-1.81,.11-1.27,.33-1.85c.22-.58,.54-1.09,.97-1.53,.42-.44,.93-.79,1.54-1.05,.6-.26,1.28-.39,2.03-.39s1.42,.13,2.01,.39c.59,.26,1.1,.6,1.51,1.04,.42,.43,.73,.94,.95,1.51,.22,.57,.33,1.17,.33,1.79,0,.15,0,.3,0,.44,0,.14-.02,.26-.04,.35h-7.12c.04,.36,.12,.69,.26,.97,.14,.28,.32,.52,.54,.72,.22,.2,.47,.35,.76,.46s.57,.16,.88,.16c.47,0,.91-.11,1.33-.34,.42-.23,.7-.53,.85-.91l2.02,.56c-.34,.7-.88,1.28-1.63,1.73-.74,.45-1.63,.68-2.66,.68Zm2.39-5.56c-.06-.69-.31-1.25-.76-1.66-.45-.42-1-.62-1.64-.62-.32,0-.61,.06-.89,.17-.28,.11-.52,.27-.73,.47-.21,.2-.38,.44-.52,.72s-.21,.59-.24,.93h4.78Z"/>
          <path class="cls-1" d="M65.88,84.1c0-.64,.11-1.25,.33-1.83,.22-.57,.54-1.08,.97-1.51,.42-.43,.93-.78,1.53-1.04,.6-.26,1.27-.39,2.02-.39,1.01,0,1.87,.22,2.58,.65,.71,.43,1.24,1,1.59,1.71l-2.3,.7c-.2-.34-.46-.6-.79-.78-.33-.18-.69-.27-1.09-.27-.34,0-.66,.07-.95,.2-.29,.13-.55,.32-.76,.56-.22,.24-.39,.53-.51,.87-.12,.34-.18,.72-.18,1.13s.06,.79,.19,1.13c.13,.34,.3,.63,.52,.88s.47,.44,.77,.57c.29,.13,.6,.2,.93,.2,.42,0,.81-.11,1.17-.32,.36-.21,.61-.47,.75-.77l2.3,.7c-.32,.7-.84,1.28-1.56,1.72-.73,.45-1.6,.67-2.62,.67-.75,0-1.42-.13-2.02-.39-.6-.26-1.11-.61-1.53-1.05-.42-.44-.75-.95-.98-1.53s-.34-1.19-.34-1.82Z"/>
          <path class="cls-1" d="M81.89,88.23c-.32,.14-.7,.28-1.16,.42-.46,.14-.94,.21-1.44,.21-.33,0-.64-.04-.92-.12s-.54-.21-.76-.4c-.22-.18-.39-.42-.52-.7-.13-.29-.19-.64-.19-1.05v-5.29h-1.21v-1.81h1.21v-2.99h2.36v2.99h1.93v1.81h-1.93v4.5c0,.33,.08,.56,.26,.69,.17,.13,.38,.2,.62,.2s.49-.04,.72-.12c.23-.08,.42-.15,.56-.21l.47,1.86Z"/>
          <path class="cls-1" d="M87.15,88.88c-.75,0-1.42-.13-2.02-.39-.6-.26-1.1-.61-1.52-1.05-.42-.44-.74-.95-.96-1.52-.22-.57-.33-1.18-.33-1.81s.11-1.25,.33-1.83c.22-.57,.54-1.08,.96-1.52,.42-.44,.92-.79,1.52-1.05,.6-.26,1.27-.39,2.02-.39s1.42,.13,2.01,.39c.59,.26,1.1,.61,1.51,1.05s.74,.95,.96,1.52c.22,.57,.33,1.18,.33,1.83s-.11,1.24-.33,1.81c-.22,.57-.54,1.08-.95,1.52s-.91,.79-1.51,1.05c-.6,.26-1.27,.39-2.02,.39Zm-2.41-4.76c0,.41,.06,.78,.18,1.12,.12,.33,.29,.62,.51,.87s.47,.44,.77,.57c.29,.13,.61,.2,.95,.2s.66-.07,.95-.2c.29-.13,.55-.33,.76-.57s.39-.54,.51-.88c.12-.34,.18-.71,.18-1.13s-.06-.77-.18-1.11c-.12-.34-.29-.63-.51-.88s-.47-.44-.76-.57c-.29-.13-.61-.2-.95-.2s-.66,.07-.95,.21c-.29,.14-.55,.33-.77,.58-.22,.25-.39,.54-.51,.88-.12,.34-.18,.71-.18,1.11Z"/>
          <path class="cls-1" d="M97.03,88.88c-.77,0-1.53-.12-2.27-.37-.74-.25-1.37-.6-1.9-1.05l.88-1.48c.56,.4,1.11,.7,1.64,.91,.53,.21,1.06,.31,1.59,.31,.47,0,.84-.09,1.11-.26,.27-.18,.4-.43,.4-.76s-.16-.57-.47-.72c-.32-.15-.83-.33-1.55-.53-.6-.16-1.11-.32-1.53-.47-.42-.15-.76-.33-1.02-.52-.26-.19-.45-.42-.56-.67-.12-.25-.18-.55-.18-.91,0-.47,.09-.89,.27-1.27,.18-.37,.44-.69,.76-.96s.71-.47,1.15-.61,.92-.21,1.43-.21c.69,0,1.34,.1,1.94,.3,.6,.2,1.16,.52,1.66,.97l-.95,1.42c-.47-.35-.92-.61-1.36-.77-.44-.16-.88-.25-1.31-.25-.4,0-.73,.08-1,.25-.27,.16-.4,.43-.4,.79,0,.16,.03,.3,.1,.4,.06,.11,.17,.2,.31,.28s.33,.16,.55,.24c.23,.08,.51,.16,.85,.24,.63,.16,1.17,.33,1.63,.49,.45,.16,.82,.35,1.11,.56,.29,.21,.5,.45,.63,.73,.13,.28,.2,.61,.2,.99,0,.9-.33,1.61-1,2.14-.67,.52-1.58,.78-2.73,.78Z"/>
        </g>
      </g>
      <rect class="cls-2" width="106.6" height="107.34"/>
    </g>
  </g>
</svg>