<?xml version="1.0" encoding="UTF-8"?>
<svg id="Capa_2" data-name="Capa 2" xmlns="http://www.w3.org/2000/svg" viewBox="0 0 177.88 107.34">
  <defs>
    <style>
      .cls-1 {
        fill: #fff;
      }

      .cls-2 {
        fill: none;
      }
    </style>
  </defs>
  <g id="Capa_1-2" data-name="Capa 1">
    <g>
      <rect class="cls-2" width="177.88" height="107.34"/>
      <g>
        <g>
          <path class="cls-1" d="M78.85,38.79c0-1.58-.03-2.83-.09-3.64-.03-.42-.24-.48-1.83-.48l.06-.81c1.36,0,2.99-.15,4.35-.45,.06,.48,.15,1.85,.18,2.33,1.07-1.1,2.66-2.44,4.79-2.44,1.63,0,2.46,.72,2.84,1.28,.27,.36,.38,.77,.5,1.13,1.01-.98,2.49-2.42,4.79-2.42,1.83,0,2.78,.95,3.2,1.7,.3,.54,.41,1.25,.41,1.94v7.96c0,.66,.15,.69,1.92,.81l-.06,.84c-.92,0-2.04-.09-3.34-.09s-2.25,.09-3.02,.09l.03-.84c1.36-.06,1.66-.24,1.72-.78,.06-.72,.12-2,.12-4.32,0-3.7-.03-4.11-.24-4.56-.33-.75-1.01-1.22-2.01-1.22-1.36,0-2.49,.83-3.11,1.94-.21,.39-.3,.81-.3,1.31v4c0,1.1,.03,2.21,.06,2.86,.06,.6,.33,.72,1.83,.78l-.09,.84c-.74,0-2.1-.09-3.29-.09s-2.16,.09-2.96,.09v-.84c1.36-.06,1.66-.15,1.72-.89,.06-.86,.09-1.85,.09-3.67v-2.36c0-2-.03-2.33-.24-2.8-.33-.78-.92-1.16-1.89-1.16-1.33,0-2.51,.78-3.2,2.03-.24,.48-.33,.8-.33,1.4v3.91c0,1.19,.03,2.09,.06,2.77,.06,.6,.3,.72,1.81,.78l-.12,.84c-.71,0-2.13-.09-3.2-.09s-2.19,.09-3.08,.09v-.84c1.51-.06,1.78-.15,1.81-.89,.06-.72,.09-1.91,.09-3.58v-2.45Z"/>
          <path class="cls-1" d="M109.59,36.68c0-1.28-.62-2.5-2.31-2.5s-2.52,.89-2.52,2.15c0,.33,.06,.66,.12,.89,.03,.24-.09,.48-.27,.63-.27,.18-.59,.3-1.01,.3-.65,0-1.3-.36-1.3-1.34,0-1.55,2.16-3.49,5.45-3.49,2.49,0,3.58,1.04,4,1.67,.24,.39,.41,1.01,.41,1.58v7.54c0,1.13,.33,1.34,.71,1.34,.44,0,.92-.6,1.21-1.82l.74,.3c-.41,2.18-1.57,2.95-2.96,2.95-1.54,0-2.13-.92-2.28-2.21-1.33,1.43-2.84,2.21-4.26,2.21-2.28,0-3.61-1.58-3.61-3.7,0-1.19,.47-2.21,1.66-2.68,2.07-.86,5.06-1.82,6.21-2.65v-1.16Zm-4.97,6.08c0,1.37,.71,2.53,2.07,2.53s2.22-.83,2.72-1.97c.12-.33,.18-.81,.18-1.22v-3.31c-.8,.45-2.4,1.1-3.46,1.7-.89,.48-1.51,.92-1.51,2.24v.03Z"/>
          <path class="cls-1" d="M117.49,38.79c0-1.58-.03-2.83-.09-3.64-.03-.42-.24-.48-1.83-.48l.06-.81c1.36,0,2.99-.15,4.35-.45,.06,.48,.15,1.85,.18,2.33,1.07-1.1,2.66-2.44,4.79-2.44,1.63,0,2.46,.72,2.84,1.28,.27,.36,.38,.77,.5,1.13,1.01-.98,2.49-2.42,4.79-2.42,1.83,0,2.78,.95,3.2,1.7,.3,.54,.41,1.25,.41,1.94v7.96c0,.66,.15,.69,1.92,.81l-.06,.84c-.92,0-2.04-.09-3.34-.09s-2.25,.09-3.02,.09l.03-.84c1.36-.06,1.66-.24,1.72-.78,.06-.72,.12-2,.12-4.32,0-3.7-.03-4.11-.24-4.56-.33-.75-1.01-1.22-2.01-1.22-1.36,0-2.49,.83-3.11,1.94-.21,.39-.3,.81-.3,1.31v4c0,1.1,.03,2.21,.06,2.86,.06,.6,.33,.72,1.83,.78l-.09,.84c-.74,0-2.1-.09-3.29-.09s-2.16,.09-2.96,.09v-.84c1.36-.06,1.66-.15,1.72-.89,.06-.86,.09-1.85,.09-3.67v-2.36c0-2-.03-2.33-.24-2.8-.33-.78-.92-1.16-1.89-1.16-1.33,0-2.51,.78-3.2,2.03-.24,.48-.33,.8-.33,1.4v3.91c0,1.19,.03,2.09,.06,2.77,.06,.6,.3,.72,1.81,.78l-.12,.84c-.71,0-2.13-.09-3.2-.09s-2.19,.09-3.08,.09v-.84c1.51-.06,1.78-.15,1.81-.89,.06-.72,.09-1.91,.09-3.58v-2.45Z"/>
          <path class="cls-1" d="M141.9,38.79c0-1.58-.03-2.83-.09-3.64-.03-.42-.24-.48-1.83-.48l.06-.81c1.36,0,2.99-.15,4.35-.45,.06,.48,.15,1.85,.18,2.33,1.07-1.1,2.66-2.44,4.79-2.44,1.63,0,2.46,.72,2.84,1.28,.27,.36,.38,.77,.5,1.13,1.01-.98,2.49-2.42,4.79-2.42,1.83,0,2.78,.95,3.2,1.7,.3,.54,.41,1.25,.41,1.94v7.96c0,.66,.15,.69,1.92,.81l-.06,.84c-.92,0-2.04-.09-3.34-.09s-2.25,.09-3.02,.09l.03-.84c1.36-.06,1.66-.24,1.72-.78,.06-.72,.12-2,.12-4.32,0-3.7-.03-4.11-.24-4.56-.33-.75-1.01-1.22-2.01-1.22-1.36,0-2.49,.83-3.11,1.94-.21,.39-.3,.81-.3,1.31v4c0,1.1,.03,2.21,.06,2.86,.06,.6,.33,.72,1.83,.78l-.09,.84c-.74,0-2.1-.09-3.29-.09s-2.16,.09-2.96,.09v-.84c1.36-.06,1.66-.15,1.72-.89,.06-.86,.09-1.85,.09-3.67v-2.36c0-2-.03-2.33-.24-2.8-.33-.78-.92-1.16-1.89-1.16-1.33,0-2.51,.78-3.2,2.03-.24,.48-.33,.8-.33,1.4v3.91c0,1.19,.03,2.09,.06,2.77,.06,.6,.3,.72,1.81,.78l-.12,.84c-.71,0-2.13-.09-3.2-.09s-2.19,.09-3.08,.09v-.84c1.51-.06,1.78-.15,1.81-.89,.06-.72,.09-1.91,.09-3.58v-2.45Z"/>
          <path class="cls-1" d="M172.65,36.68c0-1.28-.62-2.5-2.31-2.5s-2.52,.89-2.52,2.15c0,.33,.06,.66,.12,.89,.03,.24-.09,.48-.27,.63-.27,.18-.59,.3-1.01,.3-.65,0-1.3-.36-1.3-1.34,0-1.55,2.16-3.49,5.45-3.49,2.49,0,3.58,1.04,4,1.67,.24,.39,.41,1.01,.41,1.58v7.54c0,1.13,.33,1.34,.71,1.34,.44,0,.92-.6,1.21-1.82l.74,.3c-.41,2.18-1.57,2.95-2.96,2.95-1.54,0-2.13-.92-2.28-2.21-1.33,1.43-2.84,2.21-4.26,2.21-2.28,0-3.61-1.58-3.61-3.7,0-1.19,.47-2.21,1.66-2.68,2.07-.86,5.06-1.82,6.21-2.65v-1.16Zm-4.97,6.08c0,1.37,.71,2.53,2.07,2.53s2.22-.83,2.72-1.97c.12-.33,.18-.81,.18-1.22v-3.31c-.8,.45-2.4,1.1-3.46,1.7-.89,.48-1.51,.92-1.51,2.24v.03Z"/>
          <path class="cls-1" d="M80.27,70.54c-.77,.33-1.42,.89-1.42,1.97,0,1.73,1.83,2.74,4.2,2.74,3.31,0,4.94-1.64,4.94-3.61,0-1.19-.86-1.88-2.01-1.88-2.19,0-4.14,0-5.15-.03-1.18,0-2.22-.27-2.99-1.1-.44-.48-.74-1.07-.74-1.91,0-1.4,1.04-2.42,1.95-2.98-.8-.84-1.09-2-1.09-3.04,0-3.22,2.52-4.86,5.27-4.86,1.66,0,2.63,.57,2.96,.78,1.01-.81,1.89-1.37,2.78-1.37,.74,0,1.27,.54,1.27,.89-.06,.48-.65,1.04-1.04,1.22-.3-.27-.74-.48-1.39-.48-.36,0-.68,.09-.98,.21,.86,.83,1.27,2.12,1.27,3.31,0,3.19-2.57,4.74-5.27,4.74-1.48,0-2.6-.42-3.14-.83-.68,.27-1.18,.86-1.18,1.61,0,.81,.8,1.25,1.72,1.25,1.66,0,3.58-.06,6.1-.06,.89,0,1.75,.24,2.4,.78,.77,.63,1.21,1.67,1.21,2.68,0,3.91-4.02,5.78-7.63,5.78s-5.45-1.37-5.45-3.43c0-.78,.35-1.4,1.09-1.91,.41-.33,1.21-.78,1.92-1.01l.38,.54Zm2.72-13.81c-1.6,0-2.34,1.49-2.34,3.76,0,1.85,.62,3.79,2.37,3.79s2.34-1.73,2.34-3.76c0-1.82-.47-3.79-2.34-3.79h-.03Z"/>
          <path class="cls-1" d="M98.85,59.21c0-1.28-.62-2.5-2.31-2.5s-2.52,.89-2.52,2.15c0,.33,.06,.66,.12,.89,.03,.24-.09,.48-.27,.63-.27,.18-.59,.3-1.01,.3-.65,0-1.3-.36-1.3-1.34,0-1.55,2.16-3.49,5.45-3.49,2.49,0,3.58,1.04,4,1.67,.24,.39,.41,1.01,.41,1.58v7.54c0,1.13,.33,1.34,.71,1.34,.44,0,.92-.6,1.21-1.82l.74,.3c-.41,2.18-1.57,2.95-2.96,2.95-1.54,0-2.13-.92-2.28-2.21-1.33,1.43-2.84,2.21-4.26,2.21-2.28,0-3.61-1.58-3.61-3.7,0-1.19,.47-2.21,1.66-2.68,2.07-.86,5.06-1.82,6.21-2.65v-1.16Zm-4.97,6.08c0,1.37,.71,2.53,2.07,2.53s2.22-.83,2.72-1.97c.12-.33,.18-.81,.18-1.22v-3.31c-.8,.45-2.4,1.1-3.46,1.7-.89,.48-1.51,.92-1.51,2.24v.03Z"/>
          <path class="cls-1" d="M112.64,56.26c.98,0,2.13-.06,3.02-.09,.86-.06,1.54-.12,1.86-.15-.03,.89-.12,2.45-.12,4.35v3.52c0,1.82,.03,2.98,.12,3.7,.06,.54,.21,.63,2.1,.6l-.09,.8c-.71,.03-1.63,.09-2.54,.18-.89,.06-1.66,.18-2.19,.27-.03-.78-.06-2-.06-2.83-.89,1.22-2.81,2.8-5.27,2.8-1.72,0-2.54-.72-2.84-1.31-.27-.45-.38-1.04-.38-1.76,.03-1.55,.09-4.32,.09-6.35,0-1.34-.03-2.06-.06-2.48-.03-.45-.35-.48-1.86-.48l.12-.8c.92,0,1.92-.03,2.75-.12,.86-.06,1.48-.12,1.92-.18-.12,.81-.24,2.59-.24,6.02-.03,2.65,0,4.26,.18,4.98,.15,.66,.65,1.07,1.51,1.07,1.72,0,3.14-1.25,3.79-2.83,.27-.66,.33-1.13,.33-1.79v-2.89c0-1.43-.03-2.33-.09-2.92-.06-.45-.35-.48-1.98-.51l-.06-.81Z"/>
          <path class="cls-1" d="M132.58,65.39c-.74,2.44-2.49,4.03-5.42,4.03-2.13,0-3.58-.63-4.68-1.91-.89-1.07-1.39-2.65-1.39-4.68,0-3.82,2.43-6.98,6.69-6.98,2.69,0,4.59,1.25,4.59,3.22,0,1.07-.71,1.58-1.51,1.58-.27,0-.59-.06-.74-.21-.18-.15-.3-.39-.24-.63,.03-.3,.12-.63,.12-.92,0-1.34-.65-2.18-2.31-2.18-2.43,0-3.64,2.56-3.64,5.76,0,1.52,.27,2.86,.83,3.82,.71,1.16,1.78,1.76,3.14,1.76,1.98,0,3.02-.98,3.79-3.07l.77,.42Z"/>
          <path class="cls-1" d="M133.91,49.13c1.54-.03,3.91-.21,4.62-.33-.06,1.16-.12,3.1-.12,5.58v3.76c1.07-1.1,2.72-2.3,4.76-2.3s2.93,1.1,3.23,1.67c.3,.57,.41,1.31,.41,2.24v7.69c0,.63,.12,.72,1.89,.81l-.06,.84c-.86,0-2.01-.09-3.23-.09-1.33,0-2.28,.09-3.08,.09l.03-.84c1.39-.06,1.63-.24,1.69-.78,.06-.6,.12-2.06,.12-4.32,0-3.76-.09-4.17-.27-4.62-.3-.69-.89-1.22-1.98-1.22-1.33,0-2.43,.57-3.2,1.85-.27,.48-.33,.89-.33,1.49v3.34c0,1.52,.03,2.74,.06,3.4,.03,.69,.27,.83,1.72,.86l-.03,.84c-.77,0-2.16-.09-3.23-.09-1.27,0-2.25,.09-3.05,.09v-.84c1.45-.06,1.75-.18,1.78-.83,.06-.92,.12-1.91,.12-4.59v-8.5c0-2.3-.03-3.25-.09-3.94-.03-.39-.3-.48-1.78-.48v-.78Z"/>
          <path class="cls-1" d="M158.35,59.21c0-1.28-.62-2.5-2.31-2.5s-2.52,.89-2.52,2.15c0,.33,.06,.66,.12,.89,.03,.24-.09,.48-.27,.63-.27,.18-.59,.3-1.01,.3-.65,0-1.3-.36-1.3-1.34,0-1.55,2.16-3.49,5.45-3.49,2.49,0,3.58,1.04,4,1.67,.24,.39,.41,1.01,.41,1.58v7.54c0,1.13,.33,1.34,.71,1.34,.44,0,.92-.6,1.21-1.82l.74,.3c-.41,2.18-1.57,2.95-2.96,2.95-1.54,0-2.13-.92-2.28-2.21-1.33,1.43-2.84,2.21-4.26,2.21-2.28,0-3.61-1.58-3.61-3.7,0-1.19,.47-2.21,1.66-2.68,2.07-.86,5.06-1.82,6.21-2.65v-1.16Zm-4.97,6.08c0,1.37,.71,2.53,2.07,2.53s2.22-.83,2.72-1.97c.12-.33,.18-.81,.18-1.22v-3.31c-.8,.45-2.4,1.1-3.46,1.7-.89,.48-1.51,.92-1.51,2.24v.03Z"/>
        </g>
        <g>
          <path class="cls-1" d="M56.55,47.38l-25.13,25.14L6.28,47.38l12.57-12.57,12.56,12.56c-2.72,.36-5.48,1.64-6.25,2.31-1.08,.95-1.51,2.86-.21,4.16,1.3,1.3,3.21,.87,4.16-.21,.67-.76,1.94-3.54,2.3-6.25,.36,2.72,1.63,5.49,2.31,6.25,.95,1.08,2.86,1.51,4.16,.21,1.3-1.3,.87-3.21-.21-4.17-.39-.33-1.27-.82-2.4-1.27-1.13-.44-2.49-.85-3.86-1.03l12.57-12.57,12.56,12.57Z"/>
          <rect class="cls-1" x="42.3" y="57.72" width="22.21" height="4.44" transform="translate(-26.74 55.32) rotate(-45)"/>
          <polygon class="cls-1" points="31.42 47.37 31.42 47.38 31.41 47.37 31.42 47.37"/>
          <rect class="cls-1" x="7.2" y="48.84" width="4.44" height="22.21" transform="translate(-39.63 24.22) rotate(-45)"/>
        </g>
      </g>
    </g>
  </g>
</svg>