<?xml version="1.0" encoding="UTF-8"?>
<svg id="Capa_2" data-name="Capa 2" xmlns="http://www.w3.org/2000/svg" viewBox="0 0 190.28 107.34">
  <defs>
    <style>
      .cls-1 {
        fill: #fff;
      }

      .cls-2 {
        fill: none;
      }
    </style>
  </defs>
  <g id="Capa_1-2" data-name="Capa 1">
    <g>
      <rect class="cls-2" width="190.28" height="107.34"/>
      <g>
        <path class="cls-1" d="M27.16,53.67H13.84m12.08-2.06l-2.87-3.83c-1.06-1.32-1.66-3.02-1.58-4.84,.12-2.48,1.48-4.6,3.45-5.8,0,0,0,0,0,0-6.21-.29-11.51,4.34-12.11,10.47-.02,.19-.03,.39-.04,.58-.09,1.95,.3,3.82,1.08,5.47h13.32c-.34-.73-.76-1.42-1.23-2.06Zm0,0l-2.87-3.83c-1.06-1.32-1.66-3.02-1.58-4.84,.12-2.48,1.48-4.6,3.45-5.8,0,0,0,0,0,0-6.21-.29-11.51,4.34-12.11,10.47-.02,.19-.03,.39-.04,.58-.09,1.95,.3,3.82,1.08,5.47h13.32c-.34-.73-.76-1.42-1.23-2.06Zm-5.43-18.44C9.2,33.17,0,42.37,0,53.67s9.2,20.5,20.5,20.5,20.5-9.2,20.5-20.5-9.2-20.5-20.5-20.5Zm7.74,25.97c0,.2-.02,.39-.04,.58-.6,6.12-5.91,10.77-12.12,10.47,1.97-1.2,3.33-3.32,3.45-5.8,.09-1.82-.52-3.52-1.58-4.84l-2.87-3.83c-.48-.64-.89-1.32-1.23-2.05H3.39c0-9.43,7.67-17.11,17.11-17.11,1.53,0,3.01,.2,4.42,.58h0s0,0,0,0c7.3,1.95,12.68,8.62,12.68,16.53h-10.45c.78,1.66,1.17,3.52,1.08,5.47Zm-5.18-11.36c-1.06-1.32-1.66-3.02-1.58-4.84,.12-2.48,1.48-4.6,3.45-5.8,0,0,0,0,0,0-6.21-.29-11.51,4.34-12.11,10.47-.02,.19-.03,.39-.04,.58-.09,1.95,.3,3.82,1.08,5.47h13.32c-.34-.73-.76-1.42-1.23-2.06l-2.87-3.83Z"/>
        <g>
          <path class="cls-1" d="M54.89,63.61c-1.51-.44-2.73-1.01-3.65-1.71l1.61-3.57c.88,.64,1.92,1.16,3.13,1.55,1.21,.39,2.42,.59,3.63,.59,1.35,0,2.34-.2,2.99-.6,.64-.4,.97-.93,.97-1.6,0-.49-.19-.89-.57-1.22-.38-.32-.87-.58-1.46-.78-.6-.19-1.4-.41-2.42-.64-1.56-.37-2.84-.74-3.84-1.11-1-.37-1.85-.97-2.56-1.79-.71-.82-1.07-1.91-1.07-3.28,0-1.19,.32-2.27,.97-3.24,.64-.97,1.62-1.73,2.91-2.3,1.3-.57,2.88-.85,4.76-.85,1.31,0,2.59,.16,3.84,.47,1.25,.31,2.34,.76,3.28,1.35l-1.46,3.6c-1.89-1.07-3.79-1.61-5.68-1.61-1.33,0-2.31,.21-2.94,.64-.63,.43-.95,1-.95,1.7s.37,1.23,1.1,1.57c.73,.34,1.85,.68,3.35,1.01,1.56,.37,2.84,.74,3.84,1.11,1,.37,1.85,.96,2.56,1.76,.71,.8,1.07,1.88,1.07,3.25,0,1.17-.33,2.24-.98,3.21-.65,.97-1.64,1.73-2.94,2.3-1.31,.57-2.9,.85-4.77,.85-1.62,0-3.19-.22-4.7-.66Z"/>
          <path class="cls-1" d="M75.32,43.42h4.74v20.5h-4.74v-20.5Z"/>
          <path class="cls-1" d="M106.91,43.42v20.5h-3.89l-10.22-12.45v12.45h-4.69v-20.5h3.92l10.19,12.45v-12.45h4.69Z"/>
          <path class="cls-1" d="M130.84,60.11v3.81h-15.87v-20.5h15.49v3.81h-10.78v4.45h9.52v3.69h-9.52v4.74h11.16Z"/>
          <path class="cls-1" d="M141.89,62.91c-1.69-.91-3.02-2.17-3.98-3.78-.97-1.61-1.45-3.43-1.45-5.46s.48-3.85,1.45-5.46c.97-1.61,2.29-2.87,3.98-3.78,1.69-.91,3.59-1.36,5.7-1.36,1.78,0,3.38,.31,4.82,.94,1.43,.63,2.64,1.52,3.62,2.69l-3.05,2.81c-1.39-1.6-3.1-2.4-5.15-2.4-1.27,0-2.4,.28-3.4,.83-1,.56-1.77,1.33-2.33,2.33s-.83,2.13-.83,3.4,.28,2.4,.83,3.4,1.33,1.77,2.33,2.33c1,.56,2.13,.83,3.4,.83,2.05,0,3.77-.81,5.15-2.43l3.05,2.81c-.98,1.19-2.19,2.1-3.63,2.72-1.44,.62-3.06,.94-4.83,.94-2.09,0-3.98-.45-5.67-1.36Z"/>
          <path class="cls-1" d="M176.08,59.53h-9.52l-1.82,4.39h-4.86l9.14-20.5h4.69l9.17,20.5h-4.98l-1.82-4.39Zm-1.49-3.6l-3.25-7.85-3.25,7.85h6.5Z"/>
        </g>
      </g>
    </g>
  </g>
</svg>