<?xml version="1.0" encoding="UTF-8"?>
<svg id="Capa_2" data-name="Capa 2" xmlns="http://www.w3.org/2000/svg" xmlns:xlink="http://www.w3.org/1999/xlink" viewBox="0 0 124.03 107.34">
  <defs>
    <style>
      .cls-1 {
        fill: #fff;
      }

      .cls-2 {
        clip-path: url(#clippath);
      }

      .cls-3 {
        fill: none;
      }
    </style>
    <clipPath id="clippath">
      <rect class="cls-3" width="124.03" height="107.34"/>
    </clipPath>
  </defs>
  <g id="Capa_1-2" data-name="Capa 1">
    <g class="cls-2">
      <g>
        <g>
          <path class="cls-1" d="M34.19,54.58l-3.14-.31c-.27-.05-.5,.01-.68,.17-.18,.16-.28,.37-.31,.61l-.55,12c0,.16-.05,.29-.14,.37-.09,.09-.19,.14-.31,.14-.25,.02-.6,.04-1.04,.05-.44,.01-.83,.02-1.14,.02-.34,0-.53-.15-.58-.44l-1.43-9.96c-.14-.82-.6-1.23-1.4-1.23l-2.22-.03c-.61-.02-1.04,.03-1.28,.17-.24,.14-.44,.38-.6,.72l-3.68,8.32c-.18,.39-.36,.57-.53,.55-.17-.02-.28-.19-.32-.51l-1.23-12.38c-.09-1-.55-1.56-1.36-1.67l-5.76-.75s-.09,0-.14-.02c-.05-.01-.09-.02-.14-.02-.32,0-.61,.07-.89,.21-.27,.13-.46,.4-.55,.78l-.72,3.14c-.02,.09-.03,.21-.03,.34,0,.43,.16,.7,.48,.82l3.55,1.33c.36,.14,.55,.37,.58,.72l1.74,16.2c.07,.68,.24,1.22,.53,1.6,.28,.39,.62,.64,1.01,.75,.23,.07,.5,.13,.84,.19,.33,.06,.67,.11,1.02,.17,.35,.06,.69,.1,1.02,.12,.33,.02,.62,.03,.87,.03,.71,0,1.22-.36,1.53-1.09l3.65-8.9c.04-.11,.11-.17,.21-.17,.11,0,.19,.08,.24,.24l2.01,8.69c.16,.68,.41,1.25,.75,1.7,.34,.45,.77,.71,1.3,.75,1.02,.11,2.1,.16,3.24,.14,1.14-.02,2.23-.06,3.27-.1,.7-.02,1.15-.18,1.35-.46,.19-.29,.31-.74,.36-1.38,.02-.84,.07-1.78,.14-2.81,.07-1.03,.14-2.11,.21-3.24,.07-1.13,.14-2.26,.22-3.41,.08-1.15,.15-2.27,.22-3.36,.18-2.55,.36-5.16,.55-7.84,.02-.25-.02-.46-.14-.63-.11-.17-.31-.28-.58-.32Z"/>
          <path class="cls-1" d="M51.35,63.54c0-1.43-.08-2.74-.26-3.92-.17-1.18-.48-2.2-.94-3.05-.45-.85-1.09-1.52-1.91-1.99-.82-.48-1.87-.72-3.17-.72h-3.27c-1.07,0-2.18,.02-3.34,.07-.41,.05-.61,.23-.61,.55,0,.41,0,.79,.02,1.14,0,.35,.03,.65,.05,.9,.02,.3,.06,.57,.1,.82,.02,.18,.1,.31,.22,.38,.13,.07,.28,.1,.46,.1,.02,.02,.34,.04,.94,.05,.6,.01,1.27,.03,2,.05l2.86,.07c.43,0,.65,.42,.65,1.26v2.8c0,.29-.15,.44-.44,.44-.82,0-1.73,.11-2.74,.32-1.01,.21-1.96,.55-2.85,1-.89,.46-1.64,1.04-2.25,1.74-.61,.71-.92,1.57-.92,2.59,0,.86,.16,1.59,.48,2.17,.32,.58,.75,1.04,1.3,1.4,.55,.35,1.18,.61,1.91,.77,.73,.16,1.5,.24,2.32,.24,.73,0,1.41-.05,2.07-.14,.65-.09,1.33-.23,2.06-.41,.16-.04,.3-.09,.43-.12,.13-.03,.2,.05,.22,.26l.17,1.53c.02,.21,.1,.4,.22,.6,.12,.19,.3,.27,.53,.22l2.9-.34c.3-.05,.51-.16,.65-.32,.14-.17,.21-.47,.21-.9-.02-1.48-.03-3.07-.03-4.77v-4.77Zm-6.58,5.4c-.39,.15-.94,.22-1.67,.22-.27,0-.58-.03-.9-.1-.33-.07-.64-.17-.92-.31-.28-.14-.52-.3-.72-.5-.19-.19-.29-.42-.29-.66,0-.52,.17-.95,.49-1.28,.33-.33,.73-.59,1.21-.78,.48-.19,.98-.32,1.5-.39,.52-.07,.99-.1,1.4-.1,.21,0,.33,.1,.38,.31,.07,.27,.1,1.22,.1,2.83,0,.36-.19,.62-.58,.77Z"/>
          <path class="cls-1" d="M66.43,66.83c.24-.12,.35-.35,.32-.66l-.14-2.49c-.02-.45-.14-.84-.36-1.14-.22-.31-.58-.47-1.11-.49l-2.86-.14c-.41-.02-.65-.12-.73-.29-.08-.17-.1-.45-.05-.84l.37-3.48c.09-.75,.3-1.21,.63-1.38,.33-.17,.84-.26,1.52-.26,.39,0,.81,0,1.26,.02,.45,.01,.9,.03,1.33,.05,.43,.02,.84,.05,1.21,.07,.37,.02,.69,.04,.94,.07,.2,.03,.37-.02,.51-.12,.13-.1,.2-.24,.2-.43l.14-3.21c0-.18-.04-.31-.12-.39-.08-.08-.2-.14-.36-.19-.21-.07-.5-.13-.89-.2-.39-.07-.79-.13-1.23-.17s-.85-.09-1.26-.12c-.41-.03-.72-.05-.92-.05-.89,0-1.76,.07-2.61,.22-.85,.15-1.62,.43-2.28,.84-.67,.41-1.21,.98-1.62,1.71-.41,.73-.61,1.66-.61,2.79v4.23c0,.39-.14,.59-.41,.61l-2.86,.27c-.71,.07-1.07,.42-1.09,1.06l-.17,2.69c-.02,.64,.22,.96,.72,.96l2.76,.1c.45,.02,.68,.26,.68,.71l.03,8.9c0,.59,.24,.92,.72,.99,.16,.02,.39,.05,.7,.07,.31,.02,.64,.05,.99,.07,.35,.02,.7,.03,1.04,.03h.89c.5-.02,.75-.27,.75-.75l.1-8.8c0-.3,.15-.45,.44-.48l2.8-.17c.18-.02,.39-.1,.63-.22Z"/>
          <path class="cls-1" d="M81.45,58.68c-.2-.07-.5-.14-.89-.2-.39-.07-.8-.13-1.23-.17-.43-.05-.85-.09-1.26-.12-.41-.03-.71-.05-.92-.05-.89,0-1.76,.07-2.61,.22-.85,.15-1.61,.43-2.28,.84-.67,.41-1.21,.98-1.62,1.71-.41,.73-.61,1.66-.61,2.79v4.23c0,.39-.14,.59-.41,.61l-2.86,.27c-.71,.07-1.07,.42-1.09,1.06l-.17,2.69c-.02,.64,.22,.96,.72,.96l2.76,.1c.45,.02,.68,.26,.68,.72l.03,8.9c0,.59,.24,.92,.72,.99,.16,.02,.39,.05,.7,.07,.31,.02,.64,.05,.99,.07,.35,.02,.7,.03,1.04,.03h.89c.5-.02,.75-.27,.75-.75l.1-8.8c0-.3,.15-.45,.44-.48l2.8-.17c.18-.02,.39-.1,.63-.22,.24-.13,.35-.35,.32-.67l-.14-2.49c-.02-.46-.14-.84-.36-1.14-.22-.31-.59-.47-1.11-.49l-2.87-.14c-.41-.02-.65-.12-.73-.29-.08-.17-.1-.45-.05-.84l.38-3.48c.09-.75,.3-1.21,.63-1.38,.33-.17,.84-.26,1.52-.26,.39,0,.81,0,1.26,.02,.46,.01,.9,.03,1.33,.05,.43,.02,.84,.05,1.21,.07,.37,.02,.69,.04,.94,.07,.2,.02,.37-.02,.51-.12,.14-.1,.21-.24,.21-.43l.14-3.21c0-.18-.04-.31-.12-.39s-.2-.14-.36-.19Z"/>
          <path class="cls-1" d="M87.7,51.24c-.21-.31-.46-.46-.75-.46l-3.58-.03c-.41,0-.7,.13-.87,.39-.17,.26-.28,.55-.32,.87l-.24,2.66c-.02,.27,.06,.48,.24,.63,.18,.15,.36,.24,.55,.29l.48,.07c.11,.02,.22,.04,.33,.07,.1,.02,.16,.03,.19,.03,.16,.05,.29,.1,.38,.15,.09,.06,.13,.18,.13,.36l.07,18.62c0,.27,.09,.5,.27,.68,.18,.18,.41,.25,.68,.2l3.44-.34c.27-.05,.45-.18,.53-.41,.08-.23,.11-.44,.09-.65l-1.23-21.86c-.05-.55-.17-.97-.37-1.28Z"/>
          <path class="cls-1" d="M119.72,65.65c-.11-.56-.27-1.09-.48-1.59-.2-.5-.47-.91-.78-1.23-.39-.39-1.1-.58-2.15-.58-.34,0-.63,.02-.87,.05-.24,.03-.47,.07-.68,.1-.22,.03-.44,.06-.68,.09-.24,.02-.53,.03-.87,.03-.8,0-1.4-.14-1.81-.41-.41-.27-.61-.84-.61-1.7s.26-1.57,.78-2.2c.52-.63,1.22-.94,2.08-.94,.41,0,.73,.08,.97,.24,.24,.16,.42,.36,.55,.6,.13,.24,.21,.51,.26,.82,.05,.31,.1,.6,.17,.87,.11,.5,.39,.75,.82,.75h2.59c.32,0,.52-.07,.6-.21,.08-.14,.12-.36,.12-.68,0-.84-.18-1.64-.53-2.39-.35-.75-.82-1.41-1.4-1.98-.58-.57-1.25-1.01-2.01-1.33-.76-.32-1.55-.48-2.37-.48-.93,0-1.8,.19-2.61,.56-.81,.38-1.5,.85-2.06,1.41-.57,.57-1,1.26-1.3,2.06-.3,.81-.44,1.79-.44,2.95,0,1.77,.37,3.08,1.12,3.92,.75,.84,2.01,1.26,3.79,1.26,.34,0,.68-.02,1.02-.05,.34-.03,.68-.06,1.02-.09,.16-.02,.26,0,.31,.09,.05,.08,.09,.19,.14,.32l.51,2.66c.07,.3-.05,.49-.34,.58l-1.98,.48c-.18,.05-.35,.07-.51,.07s-.26-.1-.31-.31l-.41-1.7c-.11-.41-.37-.61-.75-.61l-2.49,.07c-.55,0-.82,.26-.82,.79,0,.57,.09,1.22,.27,1.96,.18,.74,.36,1.37,.55,1.89,.18,.64,.49,1.03,.92,1.18,.43,.15,.94,.22,1.53,.22,.41,0,.98-.05,1.7-.14,.73-.09,1.48-.21,2.27-.36,.78-.15,1.54-.31,2.25-.48,.72-.17,1.27-.32,1.65-.46,1.02-.36,1.53-1.34,1.53-2.93,0-.45-.02-.96-.05-1.52-.03-.56-.11-1.12-.22-1.67Z"/>
          <path class="cls-1" d="M103.81,55.51c-.57-.79-1.33-1.42-2.29-1.87-.95-.45-2.15-.68-3.58-.68-1.07,0-2.05,.21-2.95,.63-.9,.42-1.67,.99-2.32,1.72s-1.15,1.58-1.52,2.56c-.36,.98-.55,2.01-.55,3.1,0,1.75,.26,3.33,.77,4.74,.51,1.41,1.25,2.61,2.23,3.6,.98,.99,2.18,1.74,3.6,2.27,1.42,.52,3.03,.78,4.82,.78,.23,0,.43,0,.6-.02,.17-.01,.35-.03,.53-.05,.18-.02,.34-.1,.48-.24,.14-.14,.19-.35,.17-.65l-.14-2.04c-.05-.55-.31-.82-.78-.82-1.23,0-2.37-.11-3.43-.34-1.06-.23-1.98-.61-2.78-1.14-.8-.53-1.42-1.24-1.88-2.13-.08-.16-.15-.34-.22-.51-.02-.18,.07-.3,.4-.26l8.92,.2c.23,0,.44-.03,.63-.08,.19-.06,.35-.17,.46-.34s.2-.43,.27-.77c.07-.34,.1-.78,.1-1.33,0-1.25-.12-2.41-.36-3.49-.24-1.08-.64-2.02-1.21-2.81Zm-1.31,4.54c-.13,.14-.27,.22-.43,.24l-7.42,.39c-.42,.04-.45-.11-.44-.3,.16-1.1,.55-2.01,1.18-2.73,.84-.97,2.09-1.45,3.75-1.45,.45,0,.9,.08,1.33,.24s.81,.38,1.14,.66c.33,.29,.59,.63,.78,1.02,.19,.4,.29,.84,.29,1.31,0,.27-.06,.48-.19,.61Z"/>
        </g>
        <g>
          <path class="cls-1" d="M26.41,25.21c-.28-.49-.8-.85-1.55-1.07-.75-.23-1.82-.35-3.21-.36-1.39-.02-3.29,.03-5.69,.15-.52,.02-1.12,.06-1.79,.12-.67,.05-1.2,.11-1.58,.18-.93,.11-1.51,.31-1.73,.59-.23,.29-.33,.65-.31,1.11l.12,2.49c.01,.27,.02,.52,.02,.75,0,.23,.03,.43,.1,.61,.06,.18,.17,.33,.33,.46,.15,.13,.39,.24,.71,.34l1.28,.38c.19,.06,.3,.15,.35,.26,.05,.11,.08,.25,.09,.41l1.01,16.47c.01,.32,.03,.6,.06,.85,.02,.25,.07,.46,.13,.64,.06,.18,.17,.31,.32,.39,.15,.08,.38,.13,.67,.14l3.66,.07c.41,.03,.69-.02,.85-.14,.15-.12,.24-.4,.27-.83l.65-10.2c.05-.48,.28-.74,.71-.78l2.75-.43c1.29-.2,2.19-.68,2.7-1.44,.51-.76,.74-1.76,.68-2.98-.04-.79-.11-1.71-.21-2.74-.1-1.03-.31-2.17-.62-3.44-.22-.83-.47-1.49-.76-1.98Zm-3.63,8.24c-.07,.08-.18,.13-.34,.13l-3.67,.27c-.18,0-.33-.04-.45-.15-.12-.11-.18-.25-.19-.43l-.15-4.02c-.01-.32,.05-.54,.19-.66,.14-.12,.35-.16,.63-.13l3.25,.19c.18,.02,.32,.08,.42,.18,.1,.11,.15,.22,.15,.34l.26,4.02c0,.09-.03,.18-.09,.26Z"/>
          <path class="cls-1" d="M36.73,50.83c.14-.2,.21-.4,.21-.61-.01-1.79-.04-3.59-.08-5.42-.04-1.83-.13-3.62-.25-5.37-.02-.37-.07-.72-.13-1.05-.06-.33-.16-.62-.31-.88-.14-.26-.34-.47-.61-.62-.27-.16-.63-.26-1.08-.32l-4.16-.51c-.56-.07-.95,.01-1.15,.24-.2,.23-.33,.58-.39,1.05-.05,.38-.09,.8-.12,1.24-.03,.44-.04,.81-.03,1.11,0,.32,.07,.56,.19,.71,.12,.15,.26,.24,.42,.26l2.44,.23c.11,.01,.19,.08,.23,.2,.04,.12,.06,.27,.07,.46,0,.39,0,1.02,0,1.91,0,.88,0,1.8,0,2.75,0,.95,0,1.82,0,2.61,0,.79,.02,1.29,.04,1.5,.02,.18,.09,.33,.21,.42,.11,.09,.25,.15,.41,.17,.54,.07,1.01,.12,1.39,.15,.38,.03,.71,.06,.99,.07,.27,.01,.51,.02,.7,.02h.57c.16,0,.31-.11,.45-.31Z"/>
          <path class="cls-1" d="M34.22,29.49c-.68-.08-1.26,.07-1.76,.45-.49,.39-.78,.91-.86,1.56-.09,.75,.09,1.31,.53,1.71,.44,.4,.99,.64,1.65,.72,.25,.03,.51,.02,.8-.04,.28-.06,.55-.16,.81-.3,.26-.14,.47-.31,.65-.52,.18-.21,.28-.45,.31-.72,.08-.7-.08-1.33-.49-1.9-.41-.57-.96-.89-1.63-.97Z"/>
          <path class="cls-1" d="M53.5,49.17c.05-.15,.06-.32,.03-.53l-.61-4.98c-.27-2.16-.85-3.84-1.72-5.05-.87-1.2-2.19-1.81-3.94-1.81-.73,0-1.45,.06-2.17,.17-.72,.11-1.34,.26-1.86,.44-.43,.14-.66,.02-.68-.34l-.1-1.54c-.05-.5-.15-.78-.32-.85-.17-.07-.35-.09-.53-.07-.02,0-.15,.01-.37,.03-.23,.02-.48,.06-.75,.1-.32,.04-.69,.09-1.12,.14-.21,.02-.37,.11-.5,.25-.13,.15-.18,.35-.15,.6l1.02,13.26c.05,.39,.26,.6,.65,.65l2.9,.14c.18,.02,.31-.02,.39-.14,.08-.11,.11-.26,.09-.44l-.61-5.97c-.05-.48,.02-.87,.19-1.19,.17-.32,.4-.56,.7-.73,.3-.17,.64-.29,1.04-.36,.4-.07,.79-.1,1.18-.1,.61,0,1.08,.21,1.41,.61,.33,.41,.57,.9,.72,1.47,.15,.57,.23,1.16,.26,1.77,.02,.61,.06,1.14,.1,1.57l.21,2.62c.02,.39,.21,.59,.58,.61,.3,.02,.65,.03,1.06,.02,.41-.01,.81-.03,1.19-.05,.43-.02,.89-.05,1.36-.1,.2,0,.33-.08,.37-.22Z"/>
          <path class="cls-1" d="M59.43,36.88c.45-.31,.97-.52,1.55-.65,.58-.13,1.19-.19,1.82-.19,.96,0,1.84,.11,2.66,.34,.16,.05,.34,.09,.55,.14,.21,.05,.4,.06,.6,.05,.19-.01,.35-.07,.48-.17,.12-.1,.19-.29,.19-.56v-2.22c0-.45-.21-.81-.65-1.06-.2-.11-.49-.22-.85-.32-.36-.1-.76-.19-1.19-.26-.43-.07-.87-.12-1.33-.15-.46-.03-.88-.05-1.26-.05-1.18,0-2.25,.2-3.19,.6-.94,.4-1.74,.95-2.4,1.65-.66,.7-1.16,1.55-1.52,2.54-.35,.99-.53,2.07-.53,3.26,0,1.5,.28,2.81,.85,3.94,.57,1.13,1.32,2.06,2.27,2.81,.94,.75,2.04,1.31,3.27,1.69s2.54,.56,3.9,.56c.43,0,.78-.04,1.04-.12,.26-.08,.47-.19,.61-.32,.15-.14,.25-.29,.31-.48,.06-.18,.09-.37,.09-.58l.1-1.91c.05-.52,0-.89-.12-1.09-.13-.21-.45-.32-.97-.34-.39-.02-.76,0-1.11,.07-.35,.07-.71,.09-1.07,.07-.64-.02-1.28-.11-1.94-.27-.66-.16-1.26-.4-1.81-.73-.55-.33-.99-.76-1.33-1.28-.34-.52-.51-1.17-.51-1.95,0-.73,.13-1.33,.41-1.82,.27-.49,.63-.89,1.09-1.19Z"/>
          <path class="cls-1" d="M75.59,41.16v-.03c0-.36,.15-.66,.44-.89,.29-.23,.6-.34,.92-.34,.36,0,.67,.09,.92,.27,.25,.18,.4,.48,.44,.89l.48,6.44c.02,.2,.1,.35,.24,.44,.14,.09,.26,.14,.38,.14l3.07,.03c.23,0,.4-.1,.53-.31,.13-.2,.18-.4,.16-.58l-1.13-9.04c-.14-1.11-.76-1.96-1.86-2.56-1.1-.59-2.85-.91-5.23-.96-.27,0-.43-.19-.48-.58l-1.23-10.03c-.07-.73-.39-1.09-.96-1.09l-2.69-.03c-.5,0-.75,.29-.75,.85,0,.98,.02,2.13,.07,3.44,.05,1.32,.11,2.73,.21,4.23,.09,1.5,.2,3.06,.32,4.67,.12,1.61,.26,3.2,.41,4.77,.15,1.57,.3,3.07,.46,4.52,.16,1.44,.33,2.76,.51,3.94,.05,.25,.16,.44,.34,.56,.18,.13,.4,.19,.65,.19l3.2-.03c.18,0,.34-.09,.48-.26,.14-.17,.2-.38,.2-.63l-.07-4.02c0-.5,0-.99-.02-1.47-.01-.48-.02-.9-.02-1.26v-1.3Z"/>
          <path class="cls-1" d="M88.49,42.52l8.92,.2c.23,0,.44-.03,.63-.08,.19-.06,.35-.17,.46-.34,.11-.17,.2-.42,.27-.77,.07-.34,.1-.78,.1-1.33,0-1.25-.12-2.41-.36-3.49-.24-1.08-.64-2.02-1.21-2.81-.57-.8-1.33-1.42-2.29-1.88-.95-.45-2.15-.68-3.58-.68-1.07,0-2.05,.21-2.95,.63-.9,.42-1.67,.99-2.32,1.72-.65,.73-1.15,1.58-1.52,2.56-.36,.98-.55,2.01-.55,3.1,0,1.75,.26,3.33,.77,4.74,.51,1.41,1.25,2.61,2.23,3.6,.98,.99,2.17,1.75,3.6,2.27,1.42,.52,3.03,.78,4.82,.78,.23,0,.43,0,.6-.02,.17-.01,.35-.03,.53-.05,.18-.02,.34-.1,.48-.24,.14-.14,.19-.35,.17-.65l-.14-2.05c-.04-.55-.31-.82-.78-.82-1.23,0-2.37-.11-3.43-.34-1.06-.23-1.98-.6-2.78-1.14-.8-.53-1.42-1.25-1.88-2.13-.08-.16-.15-.34-.22-.51-.02-.17,.07-.3,.4-.26Zm-.78-3.77c.16-1.1,.55-2.01,1.18-2.73,.84-.97,2.09-1.45,3.75-1.45,.45,0,.9,.08,1.33,.24,.43,.16,.81,.38,1.14,.66,.33,.29,.59,.63,.78,1.02,.19,.4,.29,.84,.29,1.31,0,.27-.06,.47-.19,.61-.12,.14-.27,.22-.42,.24l-7.42,.39c-.42,.04-.46-.11-.44-.3Z"/>
          <path class="cls-1" d="M110.3,50.61c.72-.17,1.27-.32,1.65-.46,1.02-.36,1.54-1.34,1.54-2.93,0-.46-.02-.96-.05-1.52-.03-.56-.11-1.11-.22-1.67-.11-.56-.27-1.09-.48-1.59-.21-.5-.47-.91-.78-1.23-.39-.39-1.1-.58-2.15-.58-.34,0-.63,.02-.87,.05-.24,.03-.47,.07-.68,.1-.22,.03-.44,.06-.68,.09-.24,.02-.53,.03-.87,.03-.8,0-1.4-.14-1.81-.41-.41-.27-.61-.84-.61-1.71s.26-1.57,.78-2.2c.52-.63,1.22-.94,2.08-.94,.41,0,.73,.08,.97,.24,.24,.16,.42,.36,.55,.6,.12,.24,.21,.51,.26,.82,.05,.31,.1,.6,.17,.87,.11,.5,.39,.75,.82,.75h2.59c.32,0,.52-.07,.6-.2,.08-.14,.12-.36,.12-.68,0-.84-.18-1.64-.53-2.39-.35-.75-.82-1.41-1.4-1.98-.58-.57-1.25-1.01-2.01-1.33-.76-.32-1.55-.48-2.37-.48-.93,0-1.8,.19-2.61,.56-.81,.37-1.49,.85-2.06,1.42-.57,.57-1,1.26-1.3,2.06-.3,.81-.44,1.79-.44,2.95,0,1.78,.38,3.08,1.12,3.92,.75,.84,2.01,1.26,3.79,1.26,.34,0,.68-.02,1.02-.05,.34-.03,.68-.06,1.02-.09,.16-.02,.26,0,.31,.09,.05,.08,.09,.19,.14,.32l.51,2.66c.07,.3-.05,.49-.34,.58l-1.98,.48c-.18,.05-.35,.07-.51,.07s-.26-.1-.31-.31l-.41-1.7c-.11-.41-.37-.61-.75-.61l-2.49,.07c-.54,0-.82,.26-.82,.78,0,.57,.09,1.22,.27,1.96,.18,.74,.36,1.37,.54,1.89,.18,.63,.49,1.03,.92,1.18,.43,.15,.94,.22,1.54,.22,.41,0,.98-.05,1.7-.14,.73-.09,1.48-.21,2.27-.36,.78-.15,1.53-.31,2.25-.48Z"/>
        </g>
      </g>
    </g>
  </g>
</svg>