<?xml version="1.0" encoding="UTF-8"?>
<svg id="Capa_2" data-name="Capa 2" xmlns="http://www.w3.org/2000/svg" viewBox="0 0 136.01 107.34">
  <defs>
    <style>
      .cls-1 {
        fill: #fff;
      }

      .cls-2 {
        fill: none;
      }
    </style>
  </defs>
  <g id="Capa_1-2" data-name="Capa 1">
    <g>
      <g>
        <g>
          <polygon class="cls-1" points="24.1 68.41 24.1 65.4 10.99 65.4 10.99 88.43 24.1 88.43 24.1 85.42 14 85.42 14 77.54 24.1 77.54 24.1 74.53 14 74.53 14 68.41 24.1 68.41"/>
          <polygon class="cls-1" points="83.21 88.43 70.1 88.43 70.1 65.4 73.11 65.4 73.11 85.42 83.21 85.42 83.21 88.43"/>
          <path class="cls-1" d="M42.43,65.4v7.66c-1.62-1.47-3.77-2.38-6.13-2.38-5.04,0-9.14,4.1-9.14,9.14s4.1,9.14,9.14,9.14c2.36,0,4.51-.91,6.13-2.38v1.85h3.01v-23.02h-3.01Zm-6.13,20.55c-3.38,0-6.13-2.75-6.13-6.13s2.75-6.13,6.13-6.13,6.13,2.75,6.13,6.13-2.75,6.13-6.13,6.13Z"/>
          <path class="cls-1" d="M115.88,70.68c-2.36,0-4.51,.91-6.13,2.38v-7.66h-3.01v23.02h3.01v-1.85c1.62,1.47,3.77,2.38,6.13,2.38,5.04,0,9.14-4.1,9.14-9.14s-4.1-9.14-9.14-9.14Zm0,15.27c-3.38,0-6.13-2.75-6.13-6.13s2.75-6.13,6.13-6.13,6.13,2.75,6.13,6.13-2.75,6.13-6.13,6.13Z"/>
          <path class="cls-1" d="M100.03,71.21v1.85c-1.62-1.47-3.77-2.38-6.13-2.38-5.04,0-9.14,4.1-9.14,9.14s4.1,9.14,9.14,9.14c2.36,0,4.51-.91,6.13-2.38v1.85h3.01v-17.21h-3.01Zm-6.13,14.74c-3.38,0-6.13-2.75-6.13-6.13s2.75-6.13,6.13-6.13,6.13,2.75,6.13,6.13-2.75,6.13-6.13,6.13Z"/>
          <path class="cls-1" d="M66.94,80.56c.02-.24,.03-.49,.03-.74,0-.78-.1-1.54-.28-2.27-1.01-3.95-4.6-6.87-8.86-6.87-5.04,0-9.14,4.1-9.14,9.14s4.1,9.14,9.14,9.14c3.61,0,6.75-2.11,8.23-5.16l-2.62-1.51c-.95,2.15-3.11,3.66-5.61,3.66-3.13,0-5.72-2.36-6.09-5.39h15.2Zm-14.81-3.01c.2-.49,.45-.94,.76-1.36,1.12-1.52,2.92-2.5,4.94-2.5,2.58,0,4.79,1.6,5.69,3.86h-11.39Z"/>
        </g>
        <path class="cls-1" d="M121.99,19.29v-3.01c-8.1,0-15.84,3.46-21.24,9.5l-5.75,6.43-5.75-6.43c-5.4-6.04-13.14-9.5-21.24-9.5s-15.84,3.46-21.24,9.5l-5.75,6.43-5.75-6.43c-5.4-6.04-13.14-9.5-21.24-9.5v3.01c1.51,0,3,.14,4.47,.4v29.55c-1.46,.26-2.96,.4-4.47,.4v3.01c8.1,0,15.84-3.46,21.24-9.5l5.75-6.43,5.75,6.43c5.4,6.04,13.14,9.5,21.24,9.5s15.84-3.46,21.24-9.5l5.75-6.43,5.75,6.43c5.4,6.04,13.14,9.5,21.24,9.5v-3.01c-1.51,0-3-.14-4.47-.4V19.7c1.47-.26,2.96-.4,4.47-.4Zm-29.85,14.25h-11.12l5.86-5.86s.07,.07,.11,.11l5.15,5.75Zm-38.35,1.86h10.99l12.49,12.49c-2.92,1.14-6.05,1.75-9.24,1.75l-14.25-14.25Zm14.25-16.11c3.19,0,6.32,.61,9.24,1.75l-12.49,12.49h-10.99l14.25-14.25Zm-.62,14.25l11.69-11.69c2.37,1.15,4.56,2.66,6.49,4.5l-7.19,7.19h-10.98Zm0,1.86h10.98l7.19,7.19c-1.93,1.84-4.12,3.35-6.49,4.5l-11.69-11.69Zm-18.41-7.61c4.22-4.71,10.03-7.67,16.26-8.35l-14.1,14.1h-7.3l5.15-5.75Zm-28.67-7.69c3.23,.83,6.26,2.28,8.94,4.28v20.18c-2.67,2-5.71,3.45-8.94,4.28V20.1Zm12.67,21.05c-.59,.66-1.22,1.29-1.87,1.88V25.91c.65,.59,1.28,1.22,1.87,1.88l5.98,6.68h0s0,0,0,0l-5.98,6.68Zm15.99,0l-5.14-5.75h7.3l14.1,14.1c-6.23-.68-12.04-3.63-16.26-8.35Zm38,0s-.07,.07-.11,.11l-5.86-5.86h11.11l-5.14,5.75Zm15.99,0l-5.98-6.68,5.98-6.68c.59-.66,1.22-1.29,1.87-1.88v17.13c-.65-.59-1.28-1.22-1.87-1.88Zm12.67,7.69c-3.23-.83-6.26-2.28-8.94-4.28V24.38c2.67-2,5.71-3.45,8.94-4.28v28.74Z"/>
      </g>
      <rect class="cls-2" width="136.01" height="107.34"/>
    </g>
  </g>
</svg>