<?xml version="1.0" encoding="UTF-8"?>
<svg id="Capa_2" data-name="Capa 2" xmlns="http://www.w3.org/2000/svg" viewBox="0 0 164.63 107.34">
  <defs>
    <style>
      .cls-1 {
        fill: #fff;
      }

      .cls-2 {
        fill: none;
      }
    </style>
  </defs>
  <g id="Capa_1-2" data-name="Capa 1">
    <g>
      <rect class="cls-2" width="164.63" height="107.34"/>
      <g>
        <path class="cls-1" d="M154.02,31.57H3.39c-1.13,0-2.17,.56-2.8,1.49-.63,.94-.76,2.12-.34,3.16l15.03,37.44c.52,1.29,1.75,2.12,3.14,2.12H154.02c1.87,0,3.38-1.52,3.38-3.39V34.95c0-1.87-1.52-3.39-3.38-3.39Zm1.96,40.82c0,1.08-.88,1.96-1.96,1.96H18.42c-.8,0-1.52-.49-1.82-1.23L1.57,35.68c-.52-1.29,.43-2.69,1.82-2.69H154.02c1.08,0,1.96,.88,1.96,1.96v37.44Z"/>
        <g>
          <path class="cls-1" d="M17.32,42.79h5.29l5.69,15.33,5.69-15.33h5.16l-8.8,21.92h-4.23l-8.8-21.92Z"/>
          <path class="cls-1" d="M40.14,53.73v-.06c0-6.19,4.88-11.26,11.6-11.26s11.54,5.01,11.54,11.2v.06c0,6.19-4.88,11.26-11.6,11.26s-11.54-5.01-11.54-11.2Zm18.13,0v-.06c0-3.73-2.74-6.84-6.59-6.84s-6.53,3.05-6.53,6.78v.06c0,3.73,2.74,6.84,6.59,6.84s6.53-3.05,6.53-6.78Z"/>
          <path class="cls-1" d="M67.54,42.79h4.79v17.42h10.85v4.35h-15.64v-21.77Z"/>
          <path class="cls-1" d="M88.75,47.2h-6.62v-4.42h18.04v4.42h-6.62v17.35h-4.79v-17.35Z"/>
          <path class="cls-1" d="M103.83,42.79h16.42v4.26h-11.66v4.42h10.26v4.26h-10.26v4.57h11.82v4.26h-16.58v-21.77Z"/>
          <path class="cls-1" d="M124.66,42.79h4.42l10.2,13.4v-13.4h4.73v21.77h-4.07l-10.54-13.84v13.84h-4.73v-21.77Z"/>
        </g>
      </g>
    </g>
  </g>
</svg>