<?xml version="1.0" encoding="UTF-8"?>
<svg id="Capa_2" data-name="Capa 2" xmlns="http://www.w3.org/2000/svg" viewBox="0 0 181.69 107.34">
  <defs>
    <style>
      .cls-1 {
        fill: #fff;
      }

      .cls-2 {
        fill: none;
      }
    </style>
  </defs>
  <g id="Capa_1-2" data-name="Capa 1">
    <g>
      <rect class="cls-2" width="181.69" height="107.34"/>
      <g>
        <path class="cls-1" d="M15.74,55.12H3.12v8.9H0v-20.39H3.12v8.75H15.74v-8.75h3.12v20.39h-3.12v-8.9Z"/>
        <path class="cls-1" d="M25.21,43.64h3.12v20.39h-3.12v-20.39Z"/>
        <path class="cls-1" d="M34.66,43.64h8.27c6.03,.03,10.52,3.6,10.52,10.22s-4.5,10.16-10.52,10.16h-8.27v-20.39Zm3.12,2.73v14.93h5.04c4.35,0,7.43-2.64,7.43-7.43s-3.09-7.46-7.43-7.49h-5.04Z"/>
        <path class="cls-1" d="M58.54,43.64h8.84c3.87,0,7.67,1.74,7.67,6.54,0,3.69-2.91,6.15-6.42,6.36,1.98,2.04,4.29,5.07,6.81,5.07,.78,0,1.74-.21,2.46-.57l.33,2.52c-.84,.42-2.01,.78-3.27,.78-4.5,0-7.82-6.06-10.22-7.79h-3.09v7.49h-3.12v-20.39Zm3.12,2.73v7.67h6.05c2.28,0,4.08-1.41,4.08-3.81,0-2.61-1.8-3.87-4.08-3.87h-6.05Z"/>
        <path class="cls-1" d="M90.81,43.34c6.03,0,10.52,4.5,10.52,10.52s-4.5,10.46-10.52,10.46-10.46-4.5-10.46-10.46,4.5-10.52,10.46-10.52Zm.03,18.05c4.35,0,7.43-3.24,7.43-7.52s-3.09-7.55-7.43-7.55-7.4,3.21-7.4,7.55,3.12,7.52,7.4,7.52Z"/>
        <path class="cls-1" d="M117.75,48.62v15.41h-3.12v-20.39h2.73l12.95,15.47v-15.47h3.12v20.39h-2.73l-12.95-15.41Z"/>
        <path class="cls-1" d="M148.98,43.34c6.03,0,10.52,4.5,10.52,10.52s-4.5,10.46-10.52,10.46-10.46-4.5-10.46-10.46,4.5-10.52,10.46-10.52Zm.03,18.05c4.35,0,7.43-3.24,7.43-7.52s-3.09-7.55-7.43-7.55-7.4,3.21-7.4,7.55,3.12,7.52,7.4,7.52Z"/>
        <path class="cls-1" d="M170,43.64h3.6l8.09,20.39h-3.15l-1.8-4.5h-10.16l-1.86,4.5h-3.18l8.45-20.39Zm-2.61,13.52h8.54l-4.14-10.4-4.41,10.4Z"/>
        <circle class="cls-1" cx="107.82" cy="53.83" r="2.11"/>
      </g>
    </g>
  </g>
</svg>