<?xml version="1.0" encoding="UTF-8"?>
<svg id="Capa_2" data-name="Capa 2" xmlns="http://www.w3.org/2000/svg" viewBox="0 0 90.66 107.34">
  <defs>
    <style>
      .cls-1 {
        fill: #fff;
      }

      .cls-2 {
        fill: none;
      }
    </style>
  </defs>
  <g id="Capa_1-2" data-name="Capa 1">
    <g>
      <rect class="cls-2" width="90.66" height="107.34"/>
      <g>
        <path class="cls-1" d="M24.85,65.99c-.75-.87-1.95-1.31-3.59-1.31-2.29,0-4.08,1.61-5.38,4.84v-2.96c0-.78-.2-1.37-.59-1.78-.39-.4-.91-.61-1.56-.61s-1.11,.18-1.37,.55v8.08c0,2.68-.49,4.62-1.25,5.81-.75,1.2-1.94,1.79-3.55,1.79-1.07,0-2.01-.39-2.83-1.17-.82-.78-1.23-1.89-1.23-3.32v-9.83h6.67c0-.49-.08-.84-.25-1.05-.17-.21-.53-.31-1.07-.31H3.51v-5.77c-.36-.36-.85-.55-1.44-.55s-1.09,.2-1.48,.6c-.39,.4-.59,.99-.59,1.78v14.32c0,2.26,.64,3.97,1.91,5.11,1.27,1.15,3,1.72,5.19,1.72s3.8-.69,4.86-2.07c.15-.19,.28-.4,.41-.6v.29c0,.78,.19,1.37,.59,1.78,.39,.4,.91,.6,1.56,.6s1.11-.18,1.37-.55v-6.2c0-1.53,.49-3.41,1.46-5.64,.98-2.22,2.07-3.34,3.3-3.34,.7,0,1.47,.25,1.96,.84,.49,.6,.57,1.32,.57,2.04s-.08,1.29-.23,1.68c.21,.31,.65,.47,1.33,.47,.36,0,.87-.13,1.26-.52,.39-.39,.46-.98,.46-1.63,0-1.2-.38-2.23-1.13-3.1Z"/>
        <path class="cls-1" d="M89.54,74.15c-.74-.77-1.64-1.36-2.69-1.77-1.05-.42-2.11-.81-3.16-1.17-1.05-.36-1.95-.82-2.69-1.37-.74-.55-1.11-1.19-1.11-1.93s.32-1.29,.98-1.66c.65-.36,1.47-.55,2.46-.55s1.89,.22,2.69,.66c.81,.44,1.27,1,1.27,1.54,0,.35-.13,.82-.29,1,.21,.31,.64,.47,1.29,.47,.34,0,.73-.08,1.08-.37,.35-.29,.48-.72,.48-1.19,0-.96-.59-1.81-1.78-2.54-1.18-.73-2.82-1.09-4.92-1.09s-3.69,.37-4.78,1.11c-1.09,.74-1.64,1.7-1.64,2.89s.35,2.15,1.05,2.91c.7,.75,1.57,1.33,2.59,1.74,1.03,.4,2.06,.79,3.1,1.15,2.47,.86,3.71,2.03,3.71,3.51-.03,1.95-1.42,2.93-4.17,2.93-1.79,0-3.2-.57-4.21-1.72-.73-.82-1.19-1.81-1.4-2.94,.11-.65,.17-1.3,.17-1.91,0-.43,.04-.73-.06-.92-.1-.23-.43-.47-1.11-.47-.36,0-.83,.21-1.11,.62-.29,.42-.43,.99-.43,1.72,0,1.05,.2,2.02,.6,2.89-.13,.35-.28,.66-.45,.93-.75,1.2-1.94,1.79-3.55,1.79-1.07,0-2.01-.39-2.83-1.17-.82-.78-1.23-1.89-1.23-3.32v-9.83h6.67c0-.49-.08-.84-.25-1.05-.17-.21-.53-.31-1.07-.31h-5.35v-5.77c-.36-.36-.85-.55-1.44-.55s-1.09,.2-1.48,.6c-.39,.4-.59,.99-.59,1.78v12.02c0,5.07-1.3,7.61-3.74,7.61-.81,0-1.44-.38-1.91-1.13-.47-.75-.7-1.87-.7-3.36v-11.2c-.36-.36-.92-.55-1.66-.55s-1.28,.38-1.62,1.13c-.75-.75-2.03-1.13-3.82-1.13-2.34,0-4.22,.72-5.64,2.15-1.42,1.43-2.13,3.65-2.13,6.67,0,.09,0,.18,0,.27,0,0,0,0,0,0,0,2.34-.72,4.12-2.01,5.33-1.29,1.21-2.73,1.81-4.33,1.81s-2.89-.42-3.86-1.27c-.98-.84-1.58-2.1-1.81-3.76,2.52,0,4.6-.64,6.22-1.93,1.63-1.29,2.44-2.91,2.44-4.86,0-1.2-.38-2.23-1.13-3.1-.75-.87-1.95-1.31-3.59-1.31-2.26,0-4.12,.8-5.58,2.4-1.46,1.6-2.18,3.82-2.18,6.67s.83,5.01,2.48,6.48c1.65,1.47,3.84,2.2,6.57,2.2s4.77-.79,6.11-2.38c.54-.64,.97-1.31,1.3-2.01,.95,2.93,3.02,4.39,6.21,4.39,1.09,0,2.07-.31,2.93-.94,.86-.62,1.53-1.47,2.03-2.54,.86,2.31,2.6,3.47,5.23,3.47,1.72,0,3.05-.66,4-1.99,.33-.46,.6-.98,.82-1.55,.31,.72,.75,1.33,1.31,1.83,1.27,1.14,3,1.72,5.19,1.72s3.8-.69,4.86-2.07c.17-.23,.33-.49,.49-.77,.22,.27,.47,.54,.74,.79,1.47,1.37,3.38,2.05,5.74,2.05s4.25-.41,5.7-1.23c1.44-.82,2.17-2.06,2.17-3.73,0-1.12-.37-2.06-1.11-2.83Zm-59.02-.56c0-2.86,.27-4.89,.8-6.09,.53-1.2,1.41-1.79,2.63-1.79,.81,0,1.43,.27,1.87,.8,.44,.53,.66,1.31,.66,2.32,0,1.59-.59,2.78-1.78,3.59-1.18,.81-2.58,1.31-4.19,1.52v-.35Zm23.45,1.56c0,1.56-.46,2.83-1.38,3.8-.92,.98-1.78,1.46-2.56,1.46s-1.4-.15-1.87-.45c-.47-.3-.88-1.02-1.25-2.17-.36-1.14-.55-2.74-.55-4.8,0-3.12,.43-5.15,1.29-6.09,.42-.49,.86-.82,1.33-.98,.47-.16,1.1-.23,1.89-.23s1.51,.38,2.15,1.13c.64,.75,.96,1.74,.96,2.97v5.34Z"/>
        <path class="cls-1" d="M70.43,34.72c2.19,0,2.59-1.26,2.59-1.81,0-.8-.66-1.41-1.73-1.41-.96,0-1.8,.66-2.38,1.41-.71-1.5,1.96-2.12,3.26-3.41,2.04-2.04,1.09-5.42-1.79-5.42-2.64,0-4.23,2.57-4.07,6.2-1-2.15-.35-6.16-1.08-5.86-.96,.4-1.23,4.76,.21,7.21,.98,1.67,2.29,3.1,5,3.1Z"/>
        <path class="cls-1" d="M3.08,32.97c.55,0,.94-.16,1.17-.47-.21-.47-.31-1.33-.31-1.79,0-2.16,.32-3.27,.96-4.12,.64-.84,1.48-1.27,2.54-1.27s1.89,.46,2.5,1.37c.61,.91,.92,2.12,.92,3.63v13.96c0,4.37-.92,6.56-2.77,6.56-.86,0-1.57-.27-2.13-.82-.56-.55-.84-1.36-.84-2.44s.12-1.71,.31-2.44c-.16-.31-.35-.54-.59-.68-.23-.14-.51-.21-.82-.21-1.3,0-1.95,1-1.95,3,0,1.56,.52,2.82,1.56,3.76,1.04,.95,2.59,1.42,4.66,1.42s3.75-1.19,4.77-3.08c1.03-1.89,1.41-4.19,1.41-7.41v-3.85c0-2.47,.25-4.67,.74-6.59,.29-1.2,.68-2.22,1.17-3.08,.49-.86,1.18-1.58,2.05-2.17,.87-.59,1.89-.88,3.06-.88,3.02,0,4.53,3.07,4.53,9.21v8.7c0,2.89,.47,5.13,1.42,6.73,.95,1.6,2.62,2.4,5.01,2.4,1.72,0,3.11-.7,4.15-2.05,.28-.37,.52-.77,.73-1.19,.23,.52,.5,.99,.84,1.4,1.03,1.25,2.59,1.87,4.7,1.87,1.69,0,3.08-.72,4.17-2.15,.48-.62,.84-1.3,1.11-2.04,.98,2.79,3.03,4.18,6.15,4.18,1.09,0,2.07-.31,2.93-.94,.86-.62,1.53-1.47,2.03-2.54,.86,2.32,2.6,3.47,5.23,3.47,1.72,0,3.05-.66,4-1.99,.95-1.33,1.42-3.09,1.42-5.31,0-1.38-.23-2.07-.7-2.07-.27,0-.56,.08-.59,.23,0,5.07-1.22,7.61-3.67,7.61-.81,0-1.44-.38-1.91-1.13-.47-.75-.7-1.87-.7-3.36v-11.2c-.36-.36-.92-.55-1.66-.55s-1.28,.38-1.62,1.13c-.75-.75-2.03-1.13-3.82-1.13-2.34,0-4.22,.72-5.64,2.15-1.38,1.4-2.09,3.55-2.12,6.46,0,0,0,0,0,0,0,2.68-.51,4.62-1.37,5.82s-1.78,1.79-2.77,1.79-1.77-.38-2.34-1.13c-.57-.75-.86-1.87-.86-3.36v-11.2c-.36-.36-.85-.55-1.44-.55s-1.09,.2-1.48,.61c-.39,.4-.58,.99-.58,1.78v6.23c0,4.89-1.26,7.32-3.71,7.32-.99,0-1.79-.45-2.4-1.37-.61-.91-.92-2.12-.92-3.63v-11.04c0-3.38-.68-6.08-2.03-8.1-1.35-2.02-3.38-3.04-6.09-3.06-1.74,0-3.26,.52-4.56,1.56-1.3,1.04-2.24,2.43-2.81,4.17-.65-3.74-2.69-5.62-6.13-5.62-2.08,0-3.75,.64-4.99,1.93-1.25,1.29-1.87,2.96-1.87,5.01,0,.88,.19,1.52,.57,1.91,.38,.39,.84,.59,1.38,.59Zm49.39,4.44c.42-.49,.86-.82,1.33-.98,.47-.16,1.1-.23,1.89-.23s1.51,.38,2.15,1.13c.64,.76,.96,1.74,.96,2.97v5.34c0,1.56-.46,2.83-1.38,3.8-.92,.98-1.78,1.46-2.56,1.46s-1.4-.15-1.87-.45c-.47-.3-.88-1.02-1.25-2.17-.36-1.14-.55-2.74-.55-4.8,0-3.12,.43-5.15,1.29-6.09Z"/>
        <path class="cls-1" d="M38.43,31.52c.65,0,1.2-.22,1.66-.66,.45-.44,.68-.99,.68-1.64s-.23-1.2-.68-1.66c-.46-.46-1.01-.68-1.66-.68s-1.2,.23-1.64,.68c-.44,.45-.66,1.01-.66,1.66s.22,1.2,.66,1.64c.44,.44,.99,.66,1.64,.66Z"/>
        <path class="cls-1" d="M75.93,50.38c1.47,1.37,3.38,2.05,5.74,2.05s4.25-.41,5.7-1.23c1.44-.82,2.17-2.06,2.17-3.73,0-1.12-.37-2.06-1.11-2.83-.74-.77-1.64-1.36-2.69-1.78-1.05-.42-2.11-.81-3.16-1.17-1.05-.36-1.95-.82-2.69-1.37-.74-.55-1.11-1.19-1.11-1.93s.32-1.29,.98-1.66c.65-.36,1.47-.55,2.46-.55s1.89,.22,2.69,.66c.81,.44,1.27,1,1.27,1.54,0,.35-.13,.82-.29,1,.21,.31,.64,.47,1.29,.47,.34,0,.73-.08,1.08-.37,.35-.29,.48-.72,.48-1.19,0-.96-.59-1.81-1.78-2.54-1.18-.73-2.82-1.09-4.92-1.09s-3.69,.37-4.78,1.11c-1.09,.74-1.64,1.7-1.64,2.89s.35,2.15,1.05,2.91c.7,.75,1.57,1.33,2.59,1.74,1.03,.4,2.06,.79,3.1,1.15,2.47,.86,3.71,2.03,3.71,3.51-.03,1.95-1.42,2.93-4.17,2.93-1.79,0-3.2-.57-4.21-1.72-1.01-1.14-1.52-2.59-1.52-4.33,0-.57,.08-1.05,.23-1.44-.1-.23-.43-.47-1.11-.47-.36,0-.83,.21-1.11,.62-.29,.42-.43,.99-.43,1.72,0,2.03,.74,3.73,2.2,5.09Z"/>
      </g>
    </g>
  </g>
</svg>