<?xml version="1.0" encoding="UTF-8"?>
<svg id="Capa_2" data-name="Capa 2" xmlns="http://www.w3.org/2000/svg" viewBox="0 0 127.06 107.34">
  <defs>
    <style>
      .cls-1 {
        fill: #fff;
      }

      .cls-2 {
        fill: none;
      }
    </style>
  </defs>
  <g id="Capa_1-2" data-name="Capa 1">
    <g>
      <g>
        <g>
          <path class="cls-1" d="M13.04,44.41c-1.69,0-3.02-.53-3.99-1.6-.97-1.07-1.45-2.59-1.45-4.58v-7.92h-1.27c-.22,0-.41-.07-.55-.22-.15-.14-.22-.33-.22-.55v-.73c0-.51,.26-.77,.77-.77h.63c1.02,0,1.9-.31,2.64-.92,.73-.61,1.21-1.43,1.44-2.46,.11-.58,.41-.87,.9-.87h.77c.6,0,.9,.29,.9,.87v3.37h3.44c.22,0,.41,.07,.55,.22,.14,.15,.22,.33,.22,.55v.73c0,.22-.07,.41-.22,.55-.15,.15-.33,.22-.55,.22h-3.44v8.02c0,.56,.14,1,.43,1.32,.29,.32,.65,.48,1.07,.48,.96,0,1.69-.41,2.2-1.24,.16-.2,.33-.32,.53-.35,.2-.03,.37,0,.52,.12,.14,.11,.22,.27,.22,.47,0,1.4-.5,2.63-1.49,3.69-.99,1.06-2.34,1.59-4.06,1.59Z"/>
          <path class="cls-1" d="M37.36,40.41c.04,.56,.26,1.11,.63,1.65,.38,.55,.57,.96,.57,1.25v.13c0,.42-.27,.63-.8,.63h-6.65c-.53,0-.8-.21-.8-.63v-.13c0-.27,.21-.68,.62-1.24,.41-.56,.61-1.11,.58-1.67l-.33-6.21c-.09-1.54-.31-2.63-.67-3.29-.36-.66-.91-.99-1.67-.99-.71,0-1.25,.29-1.62,.87-.37,.58-.55,1.37-.55,2.37v7.28c0,.56,.25,1.11,.75,1.65,.5,.55,.75,.95,.75,1.22v.13c0,.42-.27,.63-.8,.63h-7.25c-.51,0-.77-.21-.77-.63v-.13c0-.27,.24-.67,.73-1.22,.49-.55,.73-1.1,.73-1.65v-15.5c0-.58-.27-1.1-.82-1.57-.55-.47-.82-.83-.82-1.1v-.1c0-.4,.26-.71,.77-.94l5.28-2.34c.38-.18,.68-.2,.92-.07,.23,.13,.35,.39,.35,.77v9.69c1-1.05,2.36-1.57,4.07-1.57s3.07,.53,4.28,1.59c1.2,1.06,1.89,2.76,2.07,5.09l.43,6.01Z"/>
          <path class="cls-1" d="M51.02,27.71c.96,0,1.72,.31,2.29,.94,.57,.62,.85,1.41,.85,2.37,0,2.09-.86,3.14-2.57,3.14-.69,0-1.21-.16-1.57-.48-.36-.32-.56-.68-.62-1.09-.06-.4-.17-.76-.35-1.09-.18-.32-.45-.48-.8-.48-.82,0-1.24,1.07-1.24,3.21v6.21c0,.56,.29,1.11,.89,1.65,.59,.55,.89,.95,.89,1.22v.13c0,.42-.27,.63-.8,.63h-7.18c-.53,0-.8-.21-.8-.63v-.13c0-.27,.22-.67,.67-1.22,.45-.55,.67-1.1,.67-1.65v-6.65c0-.45-.13-.82-.4-1.14-.27-.31-.53-.58-.8-.8-.27-.22-.4-.47-.4-.73v-.1c0-.38,.26-.7,.77-.97l4.71-2.2c.45-.16,.76-.17,.94-.03,.18,.13,.27,.39,.27,.77v2.44c.76-2.2,2.29-3.31,4.61-3.31Z"/>
          <path class="cls-1" d="M68.49,38.8c.24-.24,.52-.32,.82-.22,.3,.1,.44,.33,.42,.68-.04,1.11-.69,2.25-1.94,3.41-1.25,1.16-2.86,1.74-4.84,1.74-2.43,0-4.41-.78-5.95-2.34-1.54-1.56-2.3-3.6-2.3-6.11s.81-4.38,2.42-5.93c1.61-1.55,3.55-2.32,5.8-2.32,2.03,0,3.6,.47,4.71,1.4,1.11,.94,1.67,1.99,1.67,3.17,0,.94-.43,1.63-1.3,2.07l-6.65,3.74c.91,1.45,2.18,2.17,3.81,2.17,.69,0,1.34-.14,1.95-.42,.61-.28,1.07-.63,1.39-1.05Zm-6.18-9.45c-.67,0-1.21,.33-1.62,1-.41,.67-.62,1.5-.62,2.51,0,1.34,.17,2.51,.5,3.51l3.11-1.87c.58-.4,.87-.97,.87-1.7s-.18-1.49-.55-2.27c-.37-.78-.93-1.17-1.69-1.17Z"/>
          <path class="cls-1" d="M84.82,38.8c.24-.24,.52-.32,.82-.22,.3,.1,.44,.33,.42,.68-.04,1.11-.69,2.25-1.94,3.41-1.25,1.16-2.86,1.74-4.84,1.74-2.43,0-4.41-.78-5.95-2.34-1.54-1.56-2.3-3.6-2.3-6.11s.81-4.38,2.42-5.93c1.61-1.55,3.55-2.32,5.8-2.32,2.03,0,3.6,.47,4.71,1.4,1.11,.94,1.67,1.99,1.67,3.17,0,.94-.43,1.63-1.3,2.07l-6.65,3.74c.91,1.45,2.18,2.17,3.81,2.17,.69,0,1.34-.14,1.95-.42,.61-.28,1.07-.63,1.39-1.05Zm-6.18-9.45c-.67,0-1.21,.33-1.62,1-.41,.67-.62,1.5-.62,2.51,0,1.34,.17,2.51,.5,3.51l3.11-1.87c.58-.4,.87-.97,.87-1.7s-.18-1.49-.55-2.27c-.37-.78-.93-1.17-1.69-1.17Z"/>
        </g>
        <g>
          <path class="cls-1" d="M45.82,48.43c.49,0,.73,.21,.73,.63v.13c0,.31-.29,.74-.87,1.29-.58,.55-.96,1.09-1.14,1.62l-4.14,11.49c-.2,.58-.59,.87-1.17,.87h-1.34c-.65,0-1.05-.29-1.2-.87l-2.74-8.92-2.77,8.92c-.16,.58-.55,.87-1.17,.87h-.94c-.53,0-.94-.29-1.2-.87l-4.74-11.49c-.2-.49-.54-1.01-1.02-1.57-.48-.56-.72-1-.72-1.34v-.13c0-.42,.26-.63,.77-.63h6.71c.49,0,.73,.22,.73,.67v.13c0,.22-.13,.46-.4,.72-.27,.26-.48,.56-.65,.9-.17,.35-.16,.78,.02,1.32l2.17,6.61,2.77-9.49c.16-.49,.43-.73,.84-.73l2.04-.03c.45,0,.73,.22,.87,.67l2.71,9.52,2.07-5.98c.2-.53,.23-1,.1-1.39-.13-.39-.31-.68-.53-.89-.22-.2-.45-.41-.67-.63-.22-.22-.33-.42-.33-.6v-.13c0-.45,.26-.67,.77-.67h4.44Z"/>
          <path class="cls-1" d="M55.64,64.8c-2.58,0-4.77-.8-6.56-2.39-1.79-1.59-2.69-3.59-2.69-6s.89-4.39,2.67-5.96c1.78-1.57,3.9-2.35,6.35-2.35s4.7,.79,6.48,2.37c1.78,1.58,2.67,3.59,2.67,6.01s-.87,4.39-2.61,5.96-3.84,2.35-6.31,2.35Zm.7-1.64c1.42,0,2.14-1.37,2.14-4.11,0-1-.14-2.19-.42-3.57-.28-1.38-.75-2.68-1.4-3.91-.66-1.22-1.39-1.84-2.19-1.84s-1.34,.35-1.67,1.04c-.33,.69-.5,1.74-.5,3.14,0,.73,.09,1.6,.27,2.61,.18,1,.42,2.01,.73,3.02,.31,1.01,.74,1.87,1.29,2.57,.55,.7,1.13,1.05,1.75,1.05Z"/>
          <path class="cls-1" d="M77.32,48.1c.96,0,1.72,.31,2.29,.94,.57,.62,.85,1.41,.85,2.37,0,2.09-.86,3.14-2.57,3.14-.69,0-1.21-.16-1.57-.48-.36-.32-.56-.68-.62-1.09-.06-.4-.17-.76-.35-1.09-.18-.32-.45-.48-.8-.48-.82,0-1.24,1.07-1.24,3.21v6.21c0,.56,.29,1.11,.89,1.65,.59,.55,.89,.95,.89,1.22v.13c0,.42-.27,.63-.8,.63h-7.18c-.53,0-.8-.21-.8-.63v-.13c0-.27,.22-.67,.67-1.22,.45-.55,.67-1.1,.67-1.65v-6.65c0-.45-.13-.82-.4-1.14-.27-.31-.53-.58-.8-.8-.27-.22-.4-.47-.4-.73v-.1c0-.38,.26-.7,.77-.97l4.71-2.2c.45-.16,.76-.17,.94-.03,.18,.13,.27,.39,.27,.77v2.44c.76-2.2,2.29-3.31,4.61-3.31Z"/>
          <path class="cls-1" d="M98.02,60.83c0,.56,.22,1.11,.67,1.65,.45,.55,.67,.95,.67,1.22v.13c0,.42-.26,.63-.77,.63h-4.78c-.58,0-.87-.28-.87-.83v-.3c-1.05,.98-2.4,1.47-4.07,1.47-2.16,0-4.01-.74-5.56-2.22-1.55-1.48-2.32-3.52-2.32-6.13,0-2.43,.78-4.43,2.34-6,1.56-1.57,3.42-2.35,5.58-2.35,1.36,0,2.51,.31,3.44,.94v-4.44c0-.45-.15-.83-.43-1.15-.29-.32-.58-.6-.89-.83-.3-.23-.45-.48-.45-.75v-.1c0-.42,.26-.71,.77-.87l5.21-1.57c.98-.31,1.47-.04,1.47,.8v20.71Zm-7.82,2.34c.6,.02,1.11-.22,1.52-.73,.41-.51,.62-1.2,.62-2.07v-6.45c0-1.07-.31-2.03-.92-2.89-.61-.86-1.31-1.29-2.09-1.29-1.65,0-2.53,1.37-2.64,4.11-.04,1.05,.05,2.26,.28,3.64,.23,1.38,.63,2.67,1.2,3.86,.57,1.19,1.24,1.8,2.02,1.82Z"/>
          <path class="cls-1" d="M108.08,64.77c-2.14,0-3.9-.36-5.28-1.09-1.38-.72-2.07-1.66-2.07-2.82,0-.71,.22-1.25,.65-1.6,.43-.36,1.01-.53,1.72-.53,.76,0,1.36,.24,1.8,.72,.45,.48,.75,1,.9,1.57,.16,.57,.42,1.09,.8,1.57,.38,.48,.87,.72,1.47,.72,1.2,0,1.8-.61,1.8-1.84,0-.8-.31-1.44-.92-1.9-.61-.47-1.35-.82-2.22-1.07-.87-.24-1.73-.52-2.59-.83-.86-.31-1.59-.83-2.2-1.57-.61-.73-.92-1.7-.92-2.91,0-1.49,.66-2.71,1.97-3.66,1.31-.95,3.01-1.42,5.08-1.42s3.76,.39,5.06,1.17c1.3,.78,1.95,1.73,1.95,2.84,0,.58-.22,1.06-.65,1.45-.43,.39-.96,.58-1.59,.58-.73,0-1.31-.23-1.74-.7-.42-.47-.71-.99-.85-1.55-.15-.57-.37-1.09-.67-1.55-.3-.47-.71-.7-1.22-.7s-.87,.19-1.15,.57c-.28,.38-.42,.82-.42,1.34,0,.82,.29,1.49,.89,2,.59,.51,1.3,.9,2.14,1.17,.84,.27,1.67,.56,2.51,.87,.83,.31,1.55,.82,2.14,1.52,.59,.7,.89,1.62,.89,2.76,0,1.43-.65,2.6-1.95,3.52-1.3,.92-3.08,1.39-5.33,1.39Z"/>
        </g>
        <g>
          <path class="cls-1" d="M82.04,80.45c.04,.56,.26,1.11,.63,1.67,.38,.56,.57,.97,.57,1.24v.13c0,.42-.27,.63-.8,.63h-6.68c-.53,0-.8-.21-.8-.63v-.13c0-.24,.21-.65,.63-1.2,.42-.56,.61-1.12,.57-1.7l-.33-5.91c-.09-1.67-.31-2.86-.67-3.56-.36-.7-.9-1.05-1.64-1.05-.67,0-1.18,.29-1.54,.87-.36,.58-.53,1.35-.53,2.3,.07,.47,.1,.94,.1,1.4v5.95c0,.56,.2,1.11,.6,1.67,.4,.56,.6,.97,.6,1.24v.13c0,.42-.27,.63-.8,.63h-6.65c-.53,0-.8-.21-.8-.63v-.13c0-.27,.19-.68,.58-1.24,.39-.56,.58-1.11,.58-1.67v-6.35c0-2.78-.76-4.18-2.27-4.18-.73,0-1.29,.29-1.67,.87-.38,.58-.57,1.35-.57,2.3v7.35c0,.56,.24,1.11,.73,1.67,.49,.56,.73,.97,.73,1.24v.13c0,.42-.27,.63-.8,.63h-7.21c-.53,0-.8-.21-.8-.63v-.13c0-.27,.24-.68,.73-1.24,.49-.56,.73-1.11,.73-1.67v-6.58c0-.45-.15-.83-.45-1.15-.3-.32-.6-.61-.89-.85-.29-.24-.43-.5-.43-.77v-.1c0-.29,.27-.57,.8-.84l5.01-2.3c.4-.18,.71-.18,.94,0,.22,.18,.33,.45,.33,.8v1.2c1.02-1.42,2.51-2.14,4.44-2.14,2.47,0,4.3,.91,5.48,2.74,.45-.87,1.1-1.54,1.97-2.02,.87-.48,1.86-.72,2.97-.72,1.63,0,3.01,.55,4.16,1.64,1.15,1.09,1.81,2.88,1.99,5.38l.43,5.71Z"/>
          <path class="cls-1" d="M101.55,80.42c0,.6,.07,1.06,.22,1.37,.14,.31,.31,.48,.5,.52,.19,.03,.36,.12,.5,.25,.14,.13,.22,.35,.22,.63,0,.42-.28,.71-.85,.87-.57,.16-1.43,.23-2.59,.23-1.05,0-1.81-.15-2.29-.43-.48-.29-.76-.79-.85-1.5-.89,1.38-2.46,2.07-4.71,2.07-1.78,0-3.27-.58-4.46-1.75-1.19-1.17-1.79-2.78-1.79-4.83v-5.58c0-.58-.22-1.14-.67-1.67-.45-.53-.67-.91-.67-1.14v-.13c0-.45,.26-.7,.77-.77l4.98-.67c1.05-.13,1.57,.09,1.57,.67l-.1,9.89c-.02,1.34,.14,2.3,.48,2.89,.34,.59,.9,.89,1.65,.89,.62,0,1.15-.31,1.57-.92,.42-.61,.63-1.42,.63-2.42v-6.61c0-.58-.22-1.14-.67-1.67-.45-.53-.67-.91-.67-1.14v-.13c0-.45,.26-.7,.77-.77l4.98-.67c.98-.13,1.47,.09,1.47,.67v11.86Z"/>
          <path class="cls-1" d="M119.05,68.06c1.05,0,1.73,.08,2.04,.25,.31,.17,.45,.45,.4,.85-.02,.31-.13,.56-.32,.75s-.38,.31-.57,.37c-.19,.06-.47,.12-.84,.2-.37,.08-.63,.14-.78,.18,1.09,1.25,1.64,2.63,1.64,4.14,0,2.61-1.2,4.52-3.61,5.75,1.42,.31,2.44,.76,3.04,1.35,.6,.59,.9,1.33,.9,2.22,0,1.31-.83,2.39-2.51,3.22-1.67,.84-3.74,1.25-6.21,1.25s-4.35-.38-5.76-1.14c-1.41-.76-2.12-1.84-2.12-3.24,0-.58,.2-1.09,.6-1.54,.4-.45,.97-.67,1.7-.67,.67,0,1.24,.26,1.72,.77,.48,.51,.83,1.08,1.07,1.7,.23,.62,.59,1.2,1.07,1.72,.48,.52,1.06,.78,1.75,.78,.87,.02,1.55-.23,2.04-.75,.49-.52,.73-1.21,.73-2.05,0-1.54-.47-2.44-1.4-2.71-.49,.04-.89,.07-1.2,.07-2.36,0-4.3-.62-5.83-1.87-1.53-1.25-2.29-2.86-2.29-4.84,0-2.12,.76-3.83,2.29-5.14,1.52-1.31,3.49-1.97,5.9-1.97,.62,0,1.6,.06,2.94,.17,1.34,.11,2.54,.17,3.61,.17Zm-9.15,4.11c0,1.76,.34,3.49,1.04,5.18,.69,1.69,1.47,2.54,2.34,2.54,.56,0,1-.25,1.32-.75,.32-.5,.48-1.19,.48-2.05,0-1.58-.35-3.26-1.04-5.04-.69-1.78-1.49-2.67-2.4-2.67-.53,0-.96,.25-1.27,.73-.31,.49-.47,1.18-.47,2.07Z"/>
        </g>
      </g>
      <rect class="cls-2" width="127.06" height="107.34"/>
    </g>
  </g>
</svg>