<?xml version="1.0" encoding="UTF-8"?>
<svg id="Capa_2" data-name="Capa 2" xmlns="http://www.w3.org/2000/svg" viewBox="0 0 83.42 107.34">
  <defs>
    <style>
      .cls-1 {
        fill: #fff;
      }

      .cls-2 {
        fill: none;
      }
    </style>
  </defs>
  <g id="Capa_1-2" data-name="Capa 1">
    <g>
      <rect class="cls-2" width="83.42" height="107.34"/>
      <g>
        <g>
          <path class="cls-1" d="M0,0H5.08c5.42,0,6.47,3.04,6.47,7.47v9.85c0,3.89-.64,8.06-6.55,8.06H0V0ZM3.4,22.46h1.37c2.78,0,3.31-1.69,3.31-4.61V7.15c0-2.59-.46-4.21-3.32-4.21h-1.37V22.46Z"/>
          <path class="cls-1" d="M23.63,13.49h-5.63v8.76h6.44l-.44,3.13H14.6V0h9.34V3.16h-5.94v7.21h5.63v3.13Z"/>
        </g>
        <g>
          <path class="cls-1" d="M12.74,48.72c0-4.45,.06-9.68,.14-12.5h-.04c-.6,4.34-2.23,15-3.44,22.43h-3.25c-.91-6.56-2.57-17.86-3.16-22.45h-.08c.08,2.95,.2,8.7,.2,13.06v9.4H0v-25.38H5.06c1.16,6.89,2.45,14.99,2.79,18.41h.04c.41-3.42,2.02-11.92,3.19-18.41h4.91v25.38h-3.25v-9.92Z"/>
          <path class="cls-1" d="M22.35,51.3l-1.02,7.34h-3.46l4.12-25.38h4.82l4.29,25.38h-3.56l-1.13-7.34h-4.06Zm3.65-3.13c-.71-4.85-1.3-9.03-1.57-11.71h-.13c-.1,2.04-.93,7.59-1.51,11.71h3.2Z"/>
          <path class="cls-1" d="M34.03,36.42h-4.09v-3.16h11.58v3.16h-4.09v22.22h-3.4v-22.22Z"/>
          <path class="cls-1" d="M45,51.3l-1.02,7.34h-3.46l4.12-25.38h4.82l4.29,25.38h-3.56l-1.13-7.34h-4.06Zm3.65-3.13c-.71-4.85-1.3-9.03-1.57-11.71h-.13c-.1,2.04-.93,7.59-1.51,11.71h3.2Z"/>
        </g>
        <g>
          <path class="cls-1" d="M11.46,91.91h-2.67c-.09-.43-.17-1.47-.19-2.03-.68,1.77-2.14,2.39-3.78,2.39-3.64,0-4.82-2.66-4.82-6.85v-12.25c0-4.15,1.64-6.99,5.77-6.99,4.95,0,5.61,3.58,5.61,6.52v.75h-3.4v-.89c0-1.52-.2-3.28-2.22-3.28-1.57,0-2.29,1.04-2.29,3.43v13.02c0,2.23,.62,3.52,2.21,3.52,1.96,0,2.37-1.73,2.37-4.6v-3.85h-2.47v-2.94h5.89v14.06Z"/>
          <path class="cls-1" d="M17.88,66.53v19.48c0,1.96,.66,3.17,2.34,3.17s2.28-1.25,2.28-3.16v-19.49h3.42v19.4c0,3.97-1.79,6.33-5.76,6.33s-5.68-2.09-5.68-6.3v-19.44h3.4Zm-1.72-1.97v-1.97h3v1.97h-3Zm5.14,0v-1.97h3v1.97h-3Z"/>
          <path class="cls-1" d="M38.36,80.02h-5.63v8.76h6.44l-.44,3.13h-9.41v-25.38h9.34v3.16h-5.94v7.21h5.63v3.13Z"/>
          <path class="cls-1" d="M54.02,81.98c0-4.45,.06-9.68,.14-12.5h-.04c-.6,4.34-2.23,15-3.44,22.43h-3.25c-.91-6.56-2.57-17.86-3.16-22.45h-.08c.08,2.95,.2,8.7,.2,13.06v9.4h-3.11v-25.38h5.06c1.16,6.89,2.45,14.99,2.79,18.41h.04c.41-3.42,2.02-11.92,3.19-18.41h4.91v25.38h-3.25v-9.92Z"/>
          <path class="cls-1" d="M69.86,80.02h-5.63v8.76h6.44l-.44,3.13h-9.41v-25.38h9.34v3.16h-5.94v7.21h5.63v3.13Z"/>
          <path class="cls-1" d="M75.53,84.58v1.53c0,2.1,.68,3.25,2.29,3.25s2.18-1.39,2.18-3.52c0-2.83-.62-3.8-3.32-5.92-2.72-2.14-4.15-3.48-4.15-7.23,0-3.29,.99-6.54,5.32-6.53,4.3,.01,5.14,3,5.14,5.95v1.28h-3.38v-1.19c0-1.91-.35-3.1-1.83-3.1s-1.85,1.28-1.85,3.09c0,2.03,.4,2.92,2.67,4.6,3.68,2.75,4.83,4.32,4.83,8.55,0,3.59-1.16,6.93-5.7,6.93s-5.59-2.86-5.59-6.2v-1.49h3.4Z"/>
        </g>
        <rect class="cls-1" y="99.8" width="83.42" height="3.16"/>
      </g>
    </g>
  </g>
</svg>