<?xml version="1.0" encoding="UTF-8"?>
<svg id="Capa_2" data-name="Capa 2" xmlns="http://www.w3.org/2000/svg" viewBox="0 0 94.31 107.34">
  <defs>
    <style>
      .cls-1 {
        fill: #fff;
      }

      .cls-2 {
        fill: none;
      }
    </style>
  </defs>
  <g id="Capa_1-2" data-name="Capa 1">
    <g>
      <rect class="cls-2" x="0" width="94.31" height="107.34"/>
      <g>
        <path class="cls-1" d="M16,41.44c1,.71,1.77,1.53,2.31,2.45,.65,1.1,.97,2.34,.97,3.72,0,1.12-.17,2.14-.52,3.06-.37,.94-.88,1.73-1.54,2.39-.66,.66-1.46,1.16-2.41,1.52-.95,.35-2,.53-3.16,.53H3.35c-2.24,0-3.35-1.13-3.35-3.4v-18.69c.08-2.25,1.19-3.37,3.35-3.37h6.63c1.26,0,2.39,.16,3.4,.48,1.01,.32,1.86,.78,2.55,1.38,.7,.6,1.23,1.34,1.6,2.21,.37,.87,.55,1.86,.55,2.97,0,2.03-.69,3.62-2.08,4.76Zm-10.21-1.85h4.06c.97,0,1.68-.2,2.14-.61,.42-.39,.63-.95,.63-1.69,0-.7-.25-1.25-.74-1.66-.49-.41-1.17-.61-2.03-.61H5.79v4.58Zm0,10.25h4.69c.94,0,1.66-.23,2.19-.7,.52-.47,.78-1.12,.78-1.96s-.26-1.48-.77-1.95c-.53-.48-1.24-.73-2.13-.73H5.79v5.34Z"/>
        <path class="cls-1" d="M36.73,50.74h-9.98l-1.21,2.52c-.62,1.38-1.55,2.06-2.79,2.06-.77,0-1.46-.28-2.06-.85-.6-.56-.9-1.22-.9-1.98,0-.54,.24-1.31,.73-2.31l8.5-18.93c.29-.52,.7-.93,1.23-1.24,.53-.31,1.07-.47,1.64-.47,.52,0,.99,.15,1.44,.44,.44,.29,.77,.71,1,1.27l8.69,18.93c.31,.69,.47,1.41,.47,2.18,0,.83-.23,1.53-.68,2.1-.45,.57-1.14,.85-2.06,.85-1.31,0-2.26-.69-2.85-2.06l-1.14-2.52Zm-1.95-5.01l-3.11-7.37-3.03,7.37h6.14Z"/>
        <path class="cls-1" d="M60.72,45.66h-4.16c-.6,0-1.12-.11-1.56-.33-.44-.22-.78-.53-1.02-.94-.24-.41-.35-.88-.35-1.4,0-.82,.27-1.47,.8-1.95,.53-.48,1.24-.73,2.14-.73h6.37c1.1,.03,1.94,.33,2.53,.9,.58,.56,.87,1.37,.87,2.43v3.93c0,1.67-.52,3.1-1.55,4.31-1.04,1.19-2.36,2.09-3.97,2.7-1.6,.61-3.2,.91-4.79,.91-2.38,0-4.58-.59-6.6-1.78-2.03-1.19-3.63-2.79-4.82-4.8-1.19-2.02-1.78-4.21-1.78-6.59s.58-4.57,1.75-6.59c1.17-2.02,2.75-3.61,4.76-4.79,2-1.18,4.19-1.77,6.57-1.77,1.23,0,2.44,.18,3.64,.53,1.2,.35,2.31,.86,3.33,1.52,.73,.48,1.24,.94,1.52,1.37,.28,.43,.43,.94,.43,1.53,0,.81-.27,1.48-.81,2.03-.54,.54-1.22,.81-2.03,.81-.39,0-.71-.06-.97-.18-.26-.12-.7-.38-1.34-.77-1.1-.68-2.27-1.02-3.53-1.02s-2.47,.32-3.63,.97c-1.16,.65-2.1,1.53-2.81,2.65-.71,1.12-1.06,2.36-1.06,3.7s.34,2.68,1.03,3.84c.69,1.16,1.64,2.07,2.85,2.74,1.21,.66,2.56,.98,4.03,.98s2.52-.3,3.18-.89c.44-.4,.71-.85,.82-1.35,.11-.5,.16-1.16,.16-1.99Z"/>
        <path class="cls-1" d="M87.73,30.98c2.02,1.2,3.62,2.81,4.81,4.84,1.19,2.03,1.78,4.22,1.78,6.57s-.59,4.55-1.76,6.56c-1.17,2.01-2.76,3.61-4.77,4.79-2.01,1.18-4.19,1.77-6.55,1.77s-4.56-.6-6.56-1.79c-2.01-1.17-3.6-2.77-4.76-4.79-1.18-2.02-1.77-4.22-1.77-6.61s.58-4.54,1.74-6.56c1.17-2.01,2.75-3.61,4.75-4.8,1.99-1.19,4.17-1.78,6.54-1.78s4.54,.6,6.55,1.8Zm-10.1,5.08c-1.14,.66-2.05,1.56-2.72,2.68-.67,1.13-1,2.34-1,3.64s.33,2.54,.98,3.68c.66,1.13,1.55,2.03,2.68,2.69,1.13,.67,2.35,1,3.68,1s2.53-.33,3.65-.98c1.12-.66,2.02-1.55,2.68-2.68,.67-1.13,1-2.36,1-3.71s-.33-2.56-1-3.68c-.67-1.13-1.56-2.02-2.68-2.67-1.12-.65-2.32-.98-3.6-.98s-2.54,.33-3.68,.99Z"/>
        <path class="cls-1" d="M11.65,66.24c.73,.52,1.29,1.11,1.68,1.79,.47,.8,.7,1.7,.7,2.71,0,.81-.13,1.56-.38,2.23-.27,.68-.64,1.26-1.12,1.74-.48,.48-1.07,.85-1.76,1.1s-1.46,.39-2.3,.39H2.44c-1.63,0-2.44-.83-2.44-2.48v-13.61c.05-1.64,.87-2.46,2.44-2.46H7.27c.92,0,1.74,.12,2.48,.35,.74,.23,1.35,.57,1.86,1,.51,.44,.9,.98,1.16,1.61,.27,.63,.4,1.35,.4,2.16,0,1.48-.5,2.64-1.52,3.47Zm-7.44-1.35h2.96c.7,0,1.23-.15,1.56-.45,.31-.28,.46-.69,.46-1.23,0-.51-.18-.91-.54-1.21-.36-.3-.85-.45-1.48-.45h-2.96v3.34Zm0,7.47h3.42c.68,0,1.21-.17,1.59-.51,.38-.34,.57-.82,.57-1.43s-.19-1.08-.56-1.42c-.38-.35-.9-.53-1.55-.53h-3.47v3.89Z"/>
        <path class="cls-1" d="M30.43,68.84c0,1.41-.33,2.7-.99,3.88s-1.55,2.1-2.69,2.77c-1.14,.67-2.4,1-3.78,1s-2.61-.34-3.76-1.01c-1.14-.67-2.05-1.59-2.73-2.75s-1.01-2.43-1.01-3.79v-9.12c0-.74,.2-1.31,.59-1.73,.39-.42,.9-.63,1.54-.63,.42,0,.79,.1,1.12,.29,.31,.19,.56,.46,.73,.82,.16,.35,.25,.77,.25,1.25v9.12c0,.63,.14,1.2,.43,1.72,.29,.52,.68,.93,1.17,1.24,.49,.31,1.03,.46,1.62,.46,.63,0,1.2-.15,1.7-.45s.89-.72,1.17-1.25c.28-.53,.42-1.14,.42-1.81v-9.02c0-.74,.19-1.32,.57-1.74,.38-.42,.89-.62,1.54-.62,.6,0,1.1,.22,1.5,.65s.6,1,.6,1.71v9.02Z"/>
        <path class="cls-1" d="M36.62,70.83v3.17c0,.74-.19,1.32-.56,1.75-.37,.43-.88,.65-1.53,.65s-1.14-.22-1.53-.67c-.4-.43-.6-1.01-.6-1.73v-13.9c.05-1.64,.87-2.46,2.44-2.46h3.36c1.17,0,2.08,.08,2.75,.23,.67,.15,1.3,.43,1.9,.83,.63,.42,1.19,.92,1.66,1.53,.48,.6,.84,1.26,1.09,1.97,.25,.71,.38,1.44,.38,2.18,0,1.28-.36,2.4-1.09,3.36-.73,.96-1.76,1.68-3.09,2.17l3.17,2.29c.69,.52,1.03,1.22,1.03,2.11,0,.56-.17,1.03-.52,1.43s-.84,.6-1.48,.6c-.44,0-.94-.2-1.49-.59l-5.9-4.93Zm0-3.65h1.64c1.03,0,1.9-.22,2.58-.65,.7-.43,1.05-1.15,1.05-2.15,0-.67-.18-1.2-.55-1.62-.37-.41-.83-.7-1.39-.87-.56-.17-1.16-.25-1.79-.25h-1.54v5.53Z"/>
        <path class="cls-1" d="M60.3,69.32h-3.03c-.44,0-.82-.08-1.14-.24-.32-.16-.57-.39-.74-.69-.17-.3-.26-.64-.26-1.02,0-.6,.19-1.07,.58-1.42,.39-.35,.91-.53,1.56-.53h4.64c.8,.02,1.41,.24,1.84,.66,.42,.41,.63,1,.63,1.77v2.87c0,1.21-.38,2.26-1.13,3.14-.76,.87-1.72,1.53-2.89,1.97-1.17,.44-2.33,.66-3.49,.66-1.73,0-3.33-.43-4.81-1.3-1.48-.87-2.65-2.03-3.51-3.5-.87-1.47-1.3-3.07-1.3-4.8s.42-3.33,1.27-4.8c.85-1.47,2-2.63,3.47-3.49,1.46-.86,3.06-1.29,4.79-1.29,.89,0,1.78,.13,2.65,.39,.87,.26,1.68,.63,2.43,1.1,.53,.35,.9,.69,1.11,1s.31,.69,.31,1.12c0,.59-.2,1.08-.59,1.48-.39,.39-.88,.59-1.48,.59-.28,0-.52-.04-.7-.13-.19-.09-.51-.27-.98-.56-.8-.49-1.66-.74-2.57-.74s-1.8,.23-2.64,.7-1.53,1.11-2.04,1.93c-.52,.82-.78,1.72-.78,2.7s.25,1.95,.75,2.8c.5,.85,1.19,1.51,2.08,2,.88,.48,1.86,.72,2.94,.72s1.84-.22,2.31-.65c.32-.29,.52-.62,.6-.98s.12-.85,.12-1.45Z"/>
        <path class="cls-1" d="M70.33,61.55v3.38h4.75c.38,0,.71,.08,1.01,.23,.3,.15,.53,.36,.69,.63,.16,.27,.25,.58,.25,.92,0,.52-.18,.94-.55,1.27-.37,.32-.83,.48-1.4,.48h-4.75v3.82h6.04c.68,.04,1.22,.22,1.62,.56,.4,.34,.6,.81,.6,1.4s-.21,1.06-.62,1.41c-.41,.36-.94,.54-1.6,.54h-7.81c-1.62,0-2.43-.83-2.43-2.48v-13.61c.05-1.64,.86-2.46,2.43-2.46h7.67c.68,0,1.21,.17,1.59,.51,.38,.34,.57,.82,.57,1.44,0,.56-.2,1.02-.59,1.39-.4,.37-.92,.56-1.57,.56h-5.9Z"/>
        <path class="cls-1" d="M84.21,70.83v3.17c0,.74-.19,1.32-.56,1.75-.37,.43-.88,.65-1.53,.65s-1.14-.22-1.53-.67c-.4-.43-.6-1.01-.6-1.73v-13.9c.05-1.64,.87-2.46,2.44-2.46h3.36c1.17,0,2.08,.08,2.75,.23,.67,.15,1.3,.43,1.9,.83,.63,.42,1.19,.92,1.66,1.53,.48,.6,.84,1.26,1.09,1.97,.25,.71,.38,1.44,.38,2.18,0,1.28-.36,2.4-1.09,3.36-.73,.96-1.76,1.68-3.09,2.17l3.17,2.29c.69,.52,1.03,1.22,1.03,2.11,0,.56-.17,1.03-.52,1.43-.34,.4-.84,.6-1.48,.6-.44,0-.94-.2-1.49-.59l-5.9-4.93Zm0-3.65h1.64c1.03,0,1.9-.22,2.58-.65,.7-.43,1.05-1.15,1.05-2.15,0-.67-.18-1.2-.55-1.62-.37-.41-.83-.7-1.39-.87-.56-.17-1.16-.25-1.79-.25h-1.54v5.53Z"/>
      </g>
    </g>
  </g>
</svg>